<?xml version="1.0" encoding="UTF-8"?>
<!DOCTYPE svg PUBLIC "-//W3C//DTD SVG 1.1//EN" "http://www.w3.org/Graphics/SVG/1.1/DTD/svg11.dtd">
<!-- Creator: CorelDRAW 2018 (64-Bit Evaluation Version) -->
<svg xmlns="http://www.w3.org/2000/svg" xml:space="preserve" width="200mm" height="200mm" version="1.1" style="shape-rendering:geometricPrecision; text-rendering:geometricPrecision; image-rendering:optimizeQuality; fill-rule:evenodd; clip-rule:evenodd"
viewBox="0 0 20000 20000"
 xmlns:xlink="http://www.w3.org/1999/xlink">
 <defs>
  <style type="text/css">
   <![CDATA[
    .str5 {stroke:#A13F3F;stroke-width:75;stroke-miterlimit:22.9256}
    .str1 {stroke:black;stroke-width:150;stroke-miterlimit:22.9256}
    .str0 {stroke:black;stroke-width:250;stroke-miterlimit:22.9256}
    .str3 {stroke:#332C2B;stroke-width:20;stroke-miterlimit:22.9256}
    .str2 {stroke:black;stroke-width:20;stroke-miterlimit:22.9256}
    .str4 {stroke:#078051;stroke-width:20;stroke-miterlimit:22.9256}
    .fil0 {fill:none}
    .fil1 {fill:#7789A4}
    .fil3 {fill:black}
    .fil2 {fill:#04702F}
   ]]>
  </style>
 </defs>
 <g id="Layer_x0020_1">
  <metadata id="CorelCorpID_0Corel-Layer"/>
  <line class="fil0 str0" x1="7386.86" y1="3617.49" x2="7386.86" y2= "19460.11" />
  <line class="fil0 str1" x1="7806.86" y1="3617.49" x2="7806.86" y2= "19460.11" />
  <line class="fil0 str1" x1="6576.86" y1="3617.49" x2="6576.86" y2= "19460.11" />
  <line class="fil0 str1" x1="8676.86" y1="3617.49" x2="8676.86" y2= "19460.11" />
  <polyline class="fil0 str2" points="8676.86,3617.49 6576.86,5383.56 8676.86,5383.56 6576.86,3617.49 "/>
  <polyline class="fil0 str2" points="6576.86,5346.2 8676.86,7112.26 6576.86,7112.26 "/>
  <polyline class="fil0 str2" points="6576.86,7098.42 8676.86,8864.49 6576.86,8864.49 "/>
  <polyline class="fil0 str2" points="6576.86,8827.13 8676.86,10593.19 6576.86,10593.19 "/>
  <polyline class="fil0 str2" points="6576.86,10579.35 8676.86,12345.42 6576.86,12345.42 "/>
  <polyline class="fil0 str2" points="6576.86,12308.06 8676.86,14074.12 6576.86,14074.12 "/>
  <polyline class="fil0 str2" points="6576.86,14060.28 8676.86,15826.35 6576.86,15826.35 "/>
  <polyline class="fil0 str2" points="6576.86,15788.99 8676.86,17555.05 6576.86,17555.05 "/>
  <polyline class="fil0 str2" points="6576.86,17517.69 8676.86,19283.76 6576.86,19283.76 "/>
  <line class="fil0 str2" x1="8676.86" y1="5383.56" x2="6593.32" y2= "7112.26" />
  <line class="fil0 str2" x1="8676.86" y1="7112.26" x2="6576.86" y2= "8864.49" />
  <line class="fil0 str2" x1="8676.86" y1="8864.49" x2="6576.86" y2= "10593.19" />
  <line class="fil0 str2" x1="8676.86" y1="10593.19" x2="6621.29" y2= "12345.42" />
  <line class="fil0 str2" x1="8676.86" y1="12357.18" x2="6576.86" y2= "14072.04" />
  <line class="fil0 str2" x1="8676.86" y1="14074.12" x2="6576.86" y2= "15826.35" />
  <line class="fil0 str2" x1="8676.86" y1="15826.35" x2="6576.86" y2= "17555.05" />
  <line class="fil0 str2" x1="8676.86" y1="17555.05" x2="6576.86" y2= "19283.76" />
  <line class="fil0 str1" x1="6576.86" y1="19364.7" x2="8676.86" y2= "19370.92" />
  <line class="fil0 str1" x1="6576.86" y1="3617.49" x2="8676.86" y2= "3617.49" />
  <polygon class="fil1 str3" points="6255.81,3622.17 9047.92,3616.67 9175.49,1791.25 6127.86,1791.25 "/>
  <g id="_2755988608384">
   <polygon class="fil2 str4" points="5790.39,6638.73 9441.57,6638.73 9719.77,6916.93 9719.77,8031.11 5512.19,8031.11 5512.19,6916.93 "/>
   <g>
    <polygon class="fil3 str2" points="7395.2,6799.39 7522.19,6884.17 7522.19,7958.18 6796.11,7958.18 6796.11,6884.17 7028.93,6728.73 7289.37,6728.73 "/>
    <g>
     <line class="fil0 str5" x1="6953.81" y1="7814.22" x2="7364.49" y2= "7814.22" />
     <line class="fil0 str5" x1="7364.49" y1="7814.22" x2="7364.49" y2= "6811.43" />
     <line class="fil0 str5" x1="6953.81" y1="7814.22" x2="6953.81" y2= "6806.14" />
    </g>
   </g>
   <g>
    <polygon class="fil3 str2" points="6395.2,6799.39 6522.19,6884.17 6522.19,7958.18 5796.11,7958.18 5796.11,6884.17 6028.93,6728.73 6289.37,6728.73 "/>
    <g>
     <line class="fil0 str5" x1="5953.81" y1="7814.22" x2="6364.49" y2= "7814.22" />
     <line class="fil0 str5" x1="6364.49" y1="7814.22" x2="6364.49" y2= "6811.43" />
     <line class="fil0 str5" x1="5953.81" y1="7814.22" x2="5953.81" y2= "6806.14" />
    </g>
   </g>
   <g>
    <polygon class="fil3 str2" points="9345.2,6799.39 9472.19,6884.17 9472.19,7958.18 8746.11,7958.18 8746.11,6884.17 8978.93,6728.73 9239.37,6728.73 "/>
    <g>
     <line class="fil0 str5" x1="8903.81" y1="7814.22" x2="9314.49" y2= "7814.22" />
     <line class="fil0 str5" x1="9314.49" y1="7814.22" x2="9314.49" y2= "6811.43" />
     <line class="fil0 str5" x1="8903.81" y1="7814.22" x2="8903.81" y2= "6806.14" />
    </g>
   </g>
   <g>
    <polygon class="fil3 str2" points="8345.2,6799.39 8472.19,6884.17 8472.19,7958.18 7746.11,7958.18 7746.11,6884.17 7978.93,6728.73 8239.37,6728.73 "/>
    <g>
     <line class="fil0 str5" x1="7903.81" y1="7814.22" x2="8314.49" y2= "7814.22" />
     <line class="fil0 str5" x1="8314.49" y1="7814.22" x2="8314.49" y2= "6811.43" />
     <line class="fil0 str5" x1="7903.81" y1="7814.22" x2="7903.81" y2= "6806.14" />
    </g>
   </g>
  </g>
  <g id="_2755988586816">
   <g>
    <path class="fil3" d="M7594.78 2299.76c4.25,-8.61 13.02,-14.07 22.62,-14.07 9.61,0 18.37,5.45 22.62,14.06l98.4 199.34c9.25,18.74 27.13,31.73 47.82,34.74l219.99 31.98c9.5,1.38 17.39,8.03 20.36,17.17 2.96,9.13 0.49,19.15 -6.38,25.86l-159.17 155.17c-14.97,14.59 -21.8,35.61 -18.27,56.21l37.56 219.07c1.62,9.46 -2.27,19.03 -10.04,24.67 -7.77,5.64 -18.07,6.39 -26.56,1.92l-196.77 -103.43c-18.5,-9.72 -40.61,-9.72 -59.11,0.01l-196.75 103.42c-8.5,4.46 -18.8,3.72 -26.56,-1.92 -7.77,-5.65 -11.66,-15.21 -10.04,-24.67l37.58 -219.05c3.53,-20.61 -3.3,-41.64 -18.27,-56.23l-159.18 -155.17c-6.88,-6.71 -9.35,-16.73 -6.39,-25.86 2.97,-9.13 10.86,-15.79 20.37,-17.17l219.98 -31.98c20.68,-3.01 38.57,-16 47.82,-34.75l98.37 -199.32z"/>
   </g>
  </g>
  <g id="_2755988588288">
  </g>
  <g id="_2755988588064">
  </g>
  <g id="_2756145525760">
  </g>
  <g id="_2756145516896">
  </g>
  <g id="_2756145504352">
  </g>
  <g id="_2756145503648">
  </g>
  <g id="_2756145496224">
  </g>
  <g id="_2756145491488">
  </g>
  <g id="_2756145492576">
  </g>
  <g id="_2756145545504">
  </g>
  <g id="_2756145542432">
  </g>
  <g id="_2756145540064">
  </g>
  <g id="_2756145538880">
  </g>
  <g id="_2756145538976">
  </g>
  <g id="_2756145536416">
  </g>
  <g id="_2756145536160">
   <g>
    <path class="fil3" d="M6638.52 3205.45c1.63,-3.3 4.99,-5.39 8.67,-5.39 3.67,0 7.03,2.09 8.66,5.38l37.69 76.35c3.54,7.18 10.39,12.16 18.31,13.31l84.26 12.25c3.64,0.53 6.66,3.07 7.8,6.57 1.14,3.5 0.19,7.34 -2.44,9.91l-60.97 59.43c-5.73,5.59 -8.35,13.64 -6.99,21.53l14.38 83.91c0.62,3.62 -0.87,7.29 -3.84,9.45 -2.98,2.16 -6.92,2.44 -10.18,0.73l-75.36 -39.61c-7.09,-3.73 -15.56,-3.73 -22.64,0l-75.36 39.61c-3.26,1.71 -7.2,1.43 -10.18,-0.74 -2.97,-2.16 -4.46,-5.82 -3.84,-9.44l14.39 -83.9c1.36,-7.9 -1.26,-15.95 -6.99,-21.54l-60.97 -59.43c-2.64,-2.57 -3.58,-6.41 -2.45,-9.91 1.14,-3.49 4.16,-6.04 7.8,-6.57l84.26 -12.25c7.92,-1.15 14.77,-6.13 18.31,-13.31l37.68 -76.34z"/>
   </g>
  </g>
  <g id="_2756145533920">
   <g>
    <path class="fil3" d="M7268.52 3205.45c1.63,-3.3 4.99,-5.39 8.67,-5.39 3.67,0 7.03,2.09 8.66,5.38l37.69 76.35c3.54,7.18 10.39,12.16 18.31,13.31l84.26 12.25c3.64,0.53 6.66,3.07 7.8,6.57 1.14,3.5 0.19,7.34 -2.44,9.91l-60.97 59.43c-5.73,5.59 -8.35,13.64 -6.99,21.53l14.38 83.91c0.62,3.62 -0.87,7.29 -3.84,9.45 -2.98,2.16 -6.92,2.44 -10.18,0.73l-75.36 -39.61c-7.09,-3.73 -15.56,-3.73 -22.64,0l-75.36 39.61c-3.26,1.71 -7.2,1.43 -10.18,-0.74 -2.97,-2.16 -4.46,-5.82 -3.84,-9.44l14.39 -83.9c1.36,-7.9 -1.26,-15.95 -6.99,-21.54l-60.97 -59.43c-2.64,-2.57 -3.58,-6.41 -2.45,-9.91 1.14,-3.49 4.16,-6.04 7.8,-6.57l84.26 -12.25c7.92,-1.15 14.77,-6.13 18.31,-13.31l37.68 -76.34z"/>
   </g>
  </g>
  <g id="_2756145533216">
   <g>
    <path class="fil3" d="M8002.65 3206.18c1.63,-3.3 4.99,-5.39 8.67,-5.39 3.67,0 7.03,2.09 8.66,5.38l37.69 76.35c3.54,7.18 10.39,12.16 18.31,13.31l84.26 12.25c3.64,0.53 6.66,3.07 7.8,6.57 1.14,3.5 0.19,7.34 -2.44,9.91l-60.97 59.43c-5.73,5.59 -8.35,13.64 -6.99,21.53l14.38 83.91c0.62,3.62 -0.87,7.29 -3.84,9.45 -2.98,2.16 -6.92,2.44 -10.18,0.73l-75.36 -39.61c-7.09,-3.73 -15.56,-3.73 -22.64,0l-75.36 39.61c-3.26,1.71 -7.2,1.43 -10.18,-0.74 -2.97,-2.16 -4.46,-5.82 -3.84,-9.44l14.39 -83.9c1.36,-7.9 -1.26,-15.95 -6.99,-21.54l-60.97 -59.43c-2.64,-2.57 -3.58,-6.41 -2.45,-9.91 1.14,-3.49 4.16,-6.04 7.8,-6.57l84.26 -12.25c7.92,-1.15 14.77,-6.13 18.31,-13.31l37.68 -76.34z"/>
   </g>
  </g>
  <g id="_2756145532864">
   <g>
    <path class="fil3" d="M8708.53 3205.45c1.63,-3.3 4.99,-5.39 8.67,-5.39 3.67,0 7.03,2.09 8.66,5.38l37.69 76.35c3.54,7.18 10.39,12.16 18.31,13.31l84.26 12.25c3.64,0.53 6.66,3.07 7.8,6.57 1.14,3.5 0.19,7.34 -2.44,9.91l-60.97 59.43c-5.73,5.59 -8.35,13.64 -6.99,21.53l14.38 83.91c0.62,3.62 -0.87,7.29 -3.84,9.45 -2.98,2.16 -6.92,2.44 -10.18,0.73l-75.36 -39.61c-7.09,-3.73 -15.56,-3.73 -22.64,0l-75.36 39.61c-3.26,1.71 -7.2,1.43 -10.18,-0.74 -2.97,-2.16 -4.46,-5.82 -3.84,-9.44l14.39 -83.9c1.36,-7.9 -1.26,-15.95 -6.99,-21.54l-60.97 -59.43c-2.64,-2.57 -3.58,-6.41 -2.45,-9.91 1.14,-3.49 4.16,-6.04 7.8,-6.57l84.26 -12.25c7.92,-1.15 14.77,-6.13 18.31,-13.31l37.68 -76.34z"/>
   </g>
  </g>
  <g id="_2756145528480">
   <g>
    <path class="fil3" d="M6427.2 1854.69c1.63,-3.3 4.99,-5.39 8.67,-5.39 3.67,0 7.03,2.09 8.66,5.38l37.69 76.35c3.54,7.18 10.39,12.16 18.31,13.31l84.26 12.25c3.64,0.53 6.66,3.07 7.8,6.57 1.14,3.5 0.19,7.34 -2.44,9.91l-60.97 59.43c-5.73,5.59 -8.35,13.64 -6.99,21.53l14.38 83.91c0.62,3.62 -0.87,7.29 -3.84,9.45 -2.98,2.16 -6.92,2.44 -10.18,0.73l-75.36 -39.61c-7.09,-3.73 -15.56,-3.73 -22.64,0l-75.36 39.61c-3.26,1.71 -7.2,1.43 -10.18,-0.74 -2.97,-2.16 -4.46,-5.82 -3.84,-9.44l14.39 -83.9c1.36,-7.9 -1.26,-15.95 -6.99,-21.54l-60.97 -59.43c-2.64,-2.57 -3.58,-6.41 -2.45,-9.91 1.14,-3.49 4.16,-6.04 7.8,-6.57l84.26 -12.25c7.92,-1.15 14.77,-6.13 18.31,-13.31l37.68 -76.34z"/>
   </g>
  </g>
  <g id="_2756256630832">
   <g>
    <path class="fil3" d="M7067.2 1854.69c1.63,-3.3 4.99,-5.39 8.67,-5.39 3.67,0 7.03,2.09 8.66,5.38l37.69 76.35c3.54,7.18 10.39,12.16 18.31,13.31l84.26 12.25c3.64,0.53 6.66,3.07 7.8,6.57 1.14,3.5 0.19,7.34 -2.44,9.91l-60.97 59.43c-5.73,5.59 -8.35,13.64 -6.99,21.53l14.38 83.91c0.62,3.62 -0.87,7.29 -3.84,9.45 -2.98,2.16 -6.92,2.44 -10.18,0.73l-75.36 -39.61c-7.09,-3.73 -15.56,-3.73 -22.64,0l-75.36 39.61c-3.26,1.71 -7.2,1.43 -10.18,-0.74 -2.97,-2.16 -4.46,-5.82 -3.84,-9.44l14.39 -83.9c1.36,-7.9 -1.26,-15.95 -6.99,-21.54l-60.97 -59.43c-2.64,-2.57 -3.58,-6.41 -2.45,-9.91 1.14,-3.49 4.16,-6.04 7.8,-6.57l84.26 -12.25c7.92,-1.15 14.77,-6.13 18.31,-13.31l37.68 -76.34z"/>
   </g>
  </g>
  <g id="_2756256624464">
   <g>
    <path class="fil3" d="M8241.33 1855.42c1.63,-3.3 4.99,-5.39 8.67,-5.39 3.67,0 7.03,2.09 8.66,5.38l37.69 76.35c3.54,7.18 10.39,12.16 18.31,13.31l84.26 12.25c3.64,0.53 6.66,3.07 7.8,6.57 1.14,3.5 0.19,7.34 -2.44,9.91l-60.97 59.43c-5.73,5.59 -8.35,13.64 -6.99,21.53l14.38 83.91c0.62,3.62 -0.87,7.29 -3.84,9.45 -2.98,2.16 -6.92,2.44 -10.18,0.73l-75.36 -39.61c-7.09,-3.73 -15.56,-3.73 -22.64,0l-75.36 39.61c-3.26,1.71 -7.2,1.43 -10.18,-0.74 -2.97,-2.16 -4.46,-5.82 -3.84,-9.44l14.39 -83.9c1.36,-7.9 -1.26,-15.95 -6.99,-21.54l-60.97 -59.43c-2.64,-2.57 -3.58,-6.41 -2.45,-9.91 1.14,-3.49 4.16,-6.04 7.8,-6.57l84.26 -12.25c7.92,-1.15 14.77,-6.13 18.31,-13.31l37.68 -76.34z"/>
   </g>
  </g>
  <g id="_2756256665904">
   <g>
    <path class="fil3" d="M8817.21 1854.69c1.63,-3.3 4.99,-5.39 8.67,-5.39 3.67,0 7.03,2.09 8.66,5.38l37.69 76.35c3.54,7.18 10.39,12.16 18.31,13.31l84.26 12.25c3.64,0.53 6.66,3.07 7.8,6.57 1.14,3.5 0.19,7.34 -2.44,9.91l-60.97 59.43c-5.73,5.59 -8.35,13.64 -6.99,21.53l14.38 83.91c0.62,3.62 -0.87,7.29 -3.84,9.45 -2.98,2.16 -6.92,2.44 -10.18,0.73l-75.36 -39.61c-7.09,-3.73 -15.56,-3.73 -22.64,0l-75.36 39.61c-3.26,1.71 -7.2,1.43 -10.18,-0.74 -2.97,-2.16 -4.46,-5.82 -3.84,-9.44l14.39 -83.9c1.36,-7.9 -1.26,-15.95 -6.99,-21.54l-60.97 -59.43c-2.64,-2.57 -3.58,-6.41 -2.45,-9.91 1.14,-3.49 4.16,-6.04 7.8,-6.57l84.26 -12.25c7.92,-1.15 14.77,-6.13 18.31,-13.31l37.68 -76.34z"/>
   </g>
  </g>
  <g id="_2756270059520">
   <g>
    <path class="fil3" d="M7617.2 1854.69c1.63,-3.3 4.99,-5.39 8.67,-5.39 3.67,0 7.03,2.09 8.66,5.38l37.69 76.35c3.54,7.18 10.39,12.16 18.31,13.31l84.26 12.25c3.64,0.53 6.66,3.07 7.8,6.57 1.14,3.5 0.19,7.34 -2.44,9.91l-60.97 59.43c-5.73,5.59 -8.35,13.64 -6.99,21.53l14.38 83.91c0.62,3.62 -0.87,7.29 -3.84,9.45 -2.98,2.16 -6.92,2.44 -10.18,0.73l-75.36 -39.61c-7.09,-3.73 -15.56,-3.73 -22.64,0l-75.36 39.61c-3.26,1.71 -7.2,1.43 -10.18,-0.74 -2.97,-2.16 -4.46,-5.82 -3.84,-9.44l14.39 -83.9c1.36,-7.9 -1.26,-15.95 -6.99,-21.54l-60.97 -59.43c-2.64,-2.57 -3.58,-6.41 -2.45,-9.91 1.14,-3.49 4.16,-6.04 7.8,-6.57l84.26 -12.25c7.92,-1.15 14.77,-6.13 18.31,-13.31l37.68 -76.34z"/>
   </g>
  </g>
  <g id="_2756270093056">
   <g>
    <path class="fil3" d="M8798.53 2315.45c1.63,-3.3 4.99,-5.39 8.67,-5.39 3.67,0 7.03,2.09 8.66,5.38l37.69 76.35c3.54,7.18 10.39,12.16 18.31,13.31l84.26 12.25c3.64,0.53 6.66,3.07 7.8,6.57 1.14,3.5 0.19,7.34 -2.44,9.91l-60.97 59.43c-5.73,5.59 -8.35,13.64 -6.99,21.53l14.38 83.91c0.62,3.62 -0.87,7.29 -3.84,9.45 -2.98,2.16 -6.92,2.44 -10.18,0.73l-75.36 -39.61c-7.09,-3.73 -15.56,-3.73 -22.64,0l-75.36 39.61c-3.26,1.71 -7.2,1.43 -10.18,-0.74 -2.97,-2.16 -4.46,-5.82 -3.84,-9.44l14.39 -83.9c1.36,-7.9 -1.26,-15.95 -6.99,-21.54l-60.97 -59.43c-2.64,-2.57 -3.58,-6.41 -2.45,-9.91 1.14,-3.49 4.16,-6.04 7.8,-6.57l84.26 -12.25c7.92,-1.15 14.77,-6.13 18.31,-13.31l37.68 -76.34z"/>
   </g>
  </g>
  <g id="_2756270069664">
   <g>
    <path class="fil3" d="M8778.53 2745.45c1.63,-3.3 4.99,-5.39 8.67,-5.39 3.67,0 7.03,2.09 8.66,5.38l37.69 76.35c3.54,7.18 10.39,12.16 18.31,13.31l84.26 12.25c3.64,0.53 6.66,3.07 7.8,6.57 1.14,3.5 0.19,7.34 -2.44,9.91l-60.97 59.43c-5.73,5.59 -8.35,13.64 -6.99,21.53l14.38 83.91c0.62,3.62 -0.87,7.29 -3.84,9.45 -2.98,2.16 -6.92,2.44 -10.18,0.73l-75.36 -39.61c-7.09,-3.73 -15.56,-3.73 -22.64,0l-75.36 39.61c-3.26,1.71 -7.2,1.43 -10.18,-0.74 -2.97,-2.16 -4.46,-5.82 -3.84,-9.44l14.39 -83.9c1.36,-7.9 -1.26,-15.95 -6.99,-21.54l-60.97 -59.43c-2.64,-2.57 -3.58,-6.41 -2.45,-9.91 1.14,-3.49 4.16,-6.04 7.8,-6.57l84.26 -12.25c7.92,-1.15 14.77,-6.13 18.31,-13.31l37.68 -76.34z"/>
   </g>
  </g>
  <g id="_2756270064128">
   <g>
    <path class="fil3" d="M6511.47 2315.45c-1.63,-3.3 -4.99,-5.39 -8.67,-5.39 -3.67,0 -7.03,2.09 -8.66,5.38l-37.69 76.35c-3.54,7.18 -10.39,12.16 -18.31,13.31l-84.26 12.25c-3.64,0.53 -6.66,3.07 -7.8,6.57 -1.14,3.5 -0.19,7.34 2.44,9.91l60.97 59.43c5.73,5.59 8.35,13.64 6.99,21.53l-14.38 83.91c-0.62,3.62 0.87,7.29 3.84,9.45 2.98,2.16 6.92,2.44 10.18,0.73l75.36 -39.61c7.09,-3.73 15.56,-3.73 22.64,0l75.36 39.61c3.26,1.71 7.2,1.43 10.18,-0.74 2.97,-2.16 4.46,-5.82 3.84,-9.44l-14.39 -83.9c-1.36,-7.9 1.26,-15.95 6.99,-21.54l60.97 -59.43c2.64,-2.57 3.58,-6.41 2.45,-9.91 -1.14,-3.49 -4.16,-6.04 -7.8,-6.57l-84.26 -12.25c-7.92,-1.15 -14.77,-6.13 -18.31,-13.31l-37.68 -76.34z"/>
   </g>
  </g>
  <g id="_2756270063264">
   <g>
    <path class="fil3" d="M6531.47 2745.45c-1.63,-3.3 -4.99,-5.39 -8.67,-5.39 -3.67,0 -7.03,2.09 -8.66,5.38l-37.69 76.35c-3.54,7.18 -10.39,12.16 -18.31,13.31l-84.26 12.25c-3.64,0.53 -6.66,3.07 -7.8,6.57 -1.14,3.5 -0.19,7.34 2.44,9.91l60.97 59.43c5.73,5.59 8.35,13.64 6.99,21.53l-14.38 83.91c-0.62,3.62 0.87,7.29 3.84,9.45 2.98,2.16 6.92,2.44 10.18,0.73l75.36 -39.61c7.09,-3.73 15.56,-3.73 22.64,0l75.36 39.61c3.26,1.71 7.2,1.43 10.18,-0.74 2.97,-2.16 4.46,-5.82 3.84,-9.44l-14.39 -83.9c-1.36,-7.9 1.26,-15.95 6.99,-21.54l60.97 -59.43c2.64,-2.57 3.58,-6.41 2.45,-9.91 -1.14,-3.49 -4.16,-6.04 -7.8,-6.57l-84.26 -12.25c-7.92,-1.15 -14.77,-6.13 -18.31,-13.31l-37.68 -76.34z"/>
   </g>
  </g>
 </g>
</svg>
