<?xml version="1.0" encoding="UTF-8"?>
<!DOCTYPE svg PUBLIC "-//W3C//DTD SVG 1.1//EN" "http://www.w3.org/Graphics/SVG/1.1/DTD/svg11.dtd">
<!-- Creator: CorelDRAW 2018 (64-Bit Evaluation Version) -->
<svg xmlns="http://www.w3.org/2000/svg" xml:space="preserve" width="200mm" height="200mm" version="1.1" style="shape-rendering:geometricPrecision; text-rendering:geometricPrecision; image-rendering:optimizeQuality; fill-rule:evenodd; clip-rule:evenodd"
viewBox="0 0 20000 20000"
 xmlns:xlink="http://www.w3.org/1999/xlink">
 <defs>
  <style type="text/css">
   <![CDATA[
    .fil0 {fill:black}
   ]]>
  </style>
 </defs>
 <g id="Layer_x0020_1">
  <metadata id="CorelCorpID_0Corel-Layer"/>
  <g id="_2756589561856">
   <g>
    <g>
     <path class="fil0" d="M9777.79 7289.07c30.41,-61.59 93.13,-100.58 161.82,-100.58 68.7,-0.02 131.43,38.98 161.84,100.57l703.88 1426.01c66.2,134.09 194.12,227.05 342.11,248.54l1573.78 228.77c67.98,9.89 124.45,57.5 145.69,122.84 21.21,65.32 3.53,137.04 -45.66,184.99l-1138.7 1110.11c-107.08,104.4 -155.94,254.79 -130.68,402.16l268.68 1567.18c11.61,67.71 -16.23,136.13 -71.8,176.47 -55.56,40.4 -129.24,45.7 -190.03,13.74l-1407.66 -739.91c-132.36,-69.57 -290.48,-69.57 -422.87,0.03l-1407.53 739.87c-60.8,31.96 -134.48,26.61 -190.04,-13.75 -55.58,-40.38 -83.4,-108.8 -71.79,-176.49l268.8 -1567.07c25.29,-147.42 -23.57,-297.82 -130.68,-402.24l-1138.77 -1110.09c-49.18,-47.95 -66.9,-119.67 -45.67,-184.99 21.23,-65.32 77.7,-112.93 145.68,-122.83l1573.73 -228.76c147.99,-21.52 275.93,-114.47 342.12,-248.58l703.75 -1425.99z"/>
    </g>
   </g>
   <g>
    <g>
     <path class="fil0" d="M2936.77 13768.32c11.64,-23.59 35.66,-38.53 61.98,-38.53 26.31,0 50.34,14.93 61.98,38.53l269.6 546.18c25.35,51.36 74.35,86.96 131.03,95.19l602.78 87.63c26.04,3.78 47.67,22.02 55.8,47.04 8.13,25.02 1.36,52.49 -17.48,70.86l-436.15 425.19c-41.01,39.98 -59.72,97.58 -50.05,154.03l102.91 600.26c4.45,25.93 -6.21,52.13 -27.5,67.58 -21.28,15.48 -49.5,17.51 -72.78,5.27l-539.16 -283.4c-50.69,-26.65 -111.26,-26.65 -161.96,0.01l-539.11 283.38c-23.29,12.24 -51.5,10.2 -72.79,-5.26 -21.28,-15.47 -31.94,-41.68 -27.49,-67.6l102.95 -600.21c9.69,-56.46 -9.03,-114.07 -50.05,-154.07l-436.17 -425.18c-18.83,-18.36 -25.62,-45.83 -17.49,-70.85 8.13,-25.02 29.76,-43.25 55.8,-47.05l602.76 -87.62c56.68,-8.24 105.69,-43.84 131.04,-95.2l269.55 -546.18z"/>
    </g>
   </g>
   <g>
    <g>
     <path class="fil0" d="M7443.75 13768.32c11.64,-23.59 35.67,-38.53 61.98,-38.53 26.31,0 50.34,14.93 61.98,38.53l269.6 546.18c25.35,51.36 74.35,86.96 131.03,95.19l602.78 87.63c26.04,3.78 47.67,22.02 55.81,47.04 8.12,25.02 1.35,52.49 -17.49,70.86l-436.14 425.19c-41.02,39.98 -59.73,97.58 -50.06,154.03l102.91 600.26c4.45,25.93 -6.21,52.13 -27.5,67.58 -21.28,15.48 -49.5,17.51 -72.78,5.27l-539.16 -283.4c-50.69,-26.65 -111.26,-26.65 -161.96,0.01l-539.11 283.38c-23.29,12.24 -51.5,10.2 -72.79,-5.26 -21.28,-15.47 -31.94,-41.68 -27.49,-67.6l102.95 -600.21c9.69,-56.46 -9.03,-114.07 -50.05,-154.07l-436.17 -425.18c-18.83,-18.36 -25.62,-45.83 -17.49,-70.85 8.14,-25.02 29.76,-43.25 55.8,-47.05l602.76 -87.62c56.69,-8.24 105.69,-43.84 131.04,-95.2l269.55 -546.18z"/>
    </g>
   </g>
   <g>
    <g>
     <path class="fil0" d="M12695.67 13773.54c11.64,-23.59 35.67,-38.52 61.98,-38.52 26.31,-0.01 50.34,14.93 61.98,38.52l269.6 546.18c25.35,51.36 74.35,86.96 131.03,95.2l602.78 87.62c26.04,3.79 47.67,22.02 55.81,47.05 8.12,25.01 1.35,52.48 -17.49,70.85l-436.14 425.19c-41.02,39.99 -59.73,97.59 -50.06,154.03l102.91 600.26c4.45,25.93 -6.21,52.13 -27.5,67.59 -21.28,15.47 -49.5,17.5 -72.78,5.26l-539.15 -283.4c-50.7,-26.64 -111.27,-26.64 -161.97,0.01l-539.11 283.38c-23.28,12.25 -51.5,10.2 -72.78,-5.26 -21.29,-15.47 -31.95,-41.67 -27.5,-67.6l102.95 -600.21c9.69,-56.46 -9.03,-114.07 -50.05,-154.07l-436.17 -425.17c-18.83,-18.37 -25.62,-45.84 -17.49,-70.86 8.14,-25.02 29.76,-43.25 55.8,-47.04l602.76 -87.62c56.69,-8.24 105.69,-43.85 131.04,-95.21l269.55 -546.18z"/>
    </g>
   </g>
   <g>
    <g>
     <path class="fil0" d="M17745.49 13768.32c11.64,-23.59 35.67,-38.53 61.98,-38.53 26.31,0 50.34,14.93 61.98,38.53l269.6 546.18c25.35,51.36 74.35,86.96 131.04,95.19l602.78 87.63c26.03,3.78 47.66,22.02 55.8,47.04 8.12,25.02 1.35,52.49 -17.49,70.86l-436.14 425.19c-41.01,39.98 -59.73,97.58 -50.05,154.03l102.91 600.26c4.44,25.93 -6.22,52.13 -27.5,67.58 -21.29,15.48 -49.5,17.51 -72.79,5.27l-539.15 -283.4c-50.7,-26.65 -111.26,-26.65 -161.97,0.01l-539.1 283.38c-23.29,12.24 -51.51,10.2 -72.79,-5.26 -21.29,-15.47 -31.94,-41.68 -27.5,-67.6l102.96 -600.21c9.68,-56.46 -9.03,-114.07 -50.06,-154.07l-436.16 -425.18c-18.84,-18.36 -25.62,-45.83 -17.49,-70.85 8.13,-25.02 29.76,-43.25 55.79,-47.05l602.77 -87.62c56.68,-8.24 105.68,-43.84 131.03,-95.2l269.55 -546.18z"/>
    </g>
   </g>
   <g>
    <g>
     <path class="fil0" d="M1425 4105.07c11.64,-23.59 35.66,-38.53 61.97,-38.53 26.32,0 50.34,14.93 61.99,38.52l269.6 546.19c25.35,51.35 74.35,86.96 131.03,95.19l602.78 87.62c26.04,3.79 47.67,22.03 55.8,47.05 8.13,25.02 1.35,52.49 -17.48,70.86l-436.15 425.19c-41.01,39.98 -59.72,97.58 -50.05,154.03l102.91 600.25c4.45,25.93 -6.21,52.14 -27.5,67.59 -21.28,15.47 -49.5,17.5 -72.78,5.26l-539.16 -283.39c-50.69,-26.65 -111.26,-26.65 -161.96,0.01l-539.11 283.38c-23.29,12.24 -51.5,10.19 -72.79,-5.27 -21.28,-15.46 -31.94,-41.67 -27.49,-67.59l102.95 -600.21c9.69,-56.47 -9.03,-114.08 -50.05,-154.07l-436.17 -425.18c-18.83,-18.36 -25.62,-45.83 -17.49,-70.86 8.13,-25.01 29.76,-43.25 55.8,-47.04l602.76 -87.62c56.68,-8.24 105.69,-43.84 131.04,-95.21l269.55 -546.17z"/>
    </g>
   </g>
   <g>
    <g>
     <path class="fil0" d="M6003.52 4105.07c11.64,-23.59 35.66,-38.53 61.98,-38.53 26.31,0 50.34,14.93 61.98,38.52l269.6 546.19c25.35,51.35 74.35,86.96 131.03,95.19l602.78 87.62c26.04,3.79 47.67,22.03 55.81,47.05 8.12,25.02 1.35,52.49 -17.49,70.86l-436.15 425.19c-41.01,39.98 -59.72,97.58 -50.05,154.03l102.91 600.25c4.45,25.93 -6.21,52.14 -27.5,67.59 -21.28,15.47 -49.5,17.5 -72.78,5.26l-539.16 -283.39c-50.69,-26.65 -111.26,-26.65 -161.96,0.01l-539.11 283.38c-23.29,12.24 -51.5,10.19 -72.79,-5.27 -21.28,-15.46 -31.94,-41.67 -27.49,-67.59l102.95 -600.21c9.69,-56.47 -9.03,-114.08 -50.05,-154.07l-436.17 -425.18c-18.83,-18.36 -25.62,-45.83 -17.49,-70.86 8.13,-25.01 29.76,-43.25 55.8,-47.04l602.76 -87.62c56.68,-8.24 105.69,-43.84 131.04,-95.21l269.55 -546.17z"/>
    </g>
   </g>
   <g>
    <g>
     <path class="fil0" d="M14403.17 4110.29c11.64,-23.59 35.67,-38.53 61.98,-38.53 26.31,0 50.34,14.93 61.98,38.52l269.6 546.19c25.35,51.36 74.35,86.96 131.04,95.19l602.78 87.63c26.03,3.78 47.66,22.02 55.8,47.04 8.12,25.02 1.35,52.49 -17.49,70.86l-436.14 425.19c-41.01,39.98 -59.73,97.58 -50.05,154.03l102.91 600.25c4.44,25.94 -6.22,52.14 -27.5,67.59 -21.29,15.48 -49.5,17.51 -72.79,5.26l-539.15 -283.39c-50.7,-26.65 -111.26,-26.65 -161.97,0.01l-539.1 283.38c-23.29,12.24 -51.51,10.19 -72.79,-5.26 -21.29,-15.47 -31.94,-41.68 -27.5,-67.6l102.96 -600.21c9.68,-56.47 -9.03,-114.07 -50.06,-154.07l-436.16 -425.18c-18.84,-18.36 -25.62,-45.83 -17.49,-70.85 8.13,-25.02 29.76,-43.26 55.79,-47.05l602.77 -87.62c56.68,-8.24 105.68,-43.84 131.03,-95.21l269.55 -546.17z"/>
    </g>
   </g>
   <g>
    <g>
     <path class="fil0" d="M18522.98 4105.07c11.64,-23.59 35.67,-38.53 61.98,-38.53 26.31,0 50.34,14.93 61.98,38.52l269.6 546.19c25.35,51.35 74.35,86.96 131.04,95.19l602.78 87.62c26.03,3.79 47.66,22.03 55.8,47.05 8.12,25.02 1.35,52.49 -17.49,70.86l-436.14 425.19c-41.01,39.98 -59.73,97.58 -50.05,154.03l102.91 600.25c4.44,25.93 -6.22,52.14 -27.5,67.59 -21.29,15.47 -49.5,17.5 -72.79,5.26l-539.15 -283.39c-50.7,-26.65 -111.26,-26.65 -161.97,0.01l-539.1 283.38c-23.29,12.24 -51.51,10.19 -72.79,-5.27 -21.29,-15.46 -31.94,-41.67 -27.5,-67.59l102.96 -600.21c9.68,-56.47 -9.03,-114.08 -50.06,-154.07l-436.16 -425.18c-18.84,-18.36 -25.62,-45.83 -17.49,-70.86 8.13,-25.01 29.76,-43.25 55.79,-47.04l602.77 -87.62c56.68,-8.24 105.68,-43.84 131.03,-95.21l269.55 -546.17z"/>
    </g>
   </g>
   <g>
    <g>
     <path class="fil0" d="M9938.18 4105.07c11.65,-23.59 35.67,-38.53 61.98,-38.53 26.31,0 50.34,14.93 61.99,38.52l269.6 546.19c25.35,51.35 74.35,86.96 131.03,95.19l602.78 87.62c26.04,3.79 47.66,22.03 55.8,47.05 8.12,25.02 1.35,52.49 -17.49,70.86l-436.14 425.19c-41.01,39.98 -59.72,97.58 -50.05,154.03l102.91 600.25c4.44,25.93 -6.22,52.14 -27.5,67.59 -21.28,15.47 -49.5,17.5 -72.79,5.26l-539.15 -283.39c-50.7,-26.65 -111.26,-26.65 -161.97,0.01l-539.1 283.38c-23.29,12.24 -51.51,10.19 -72.79,-5.27 -21.29,-15.46 -31.94,-41.67 -27.5,-67.59l102.96 -600.21c9.69,-56.47 -9.03,-114.08 -50.05,-154.07l-436.17 -425.18c-18.84,-18.36 -25.62,-45.83 -17.49,-70.86 8.13,-25.01 29.76,-43.25 55.8,-47.04l602.76 -87.62c56.68,-8.24 105.68,-43.84 131.03,-95.21l269.55 -546.17z"/>
    </g>
   </g>
   <g>
    <g>
     <path class="fil0" d="M18389.34 7401.32c11.65,-23.6 35.67,-38.53 61.98,-38.53 26.31,-0.01 50.34,14.93 61.99,38.52l269.6 546.18c25.35,51.36 74.35,86.97 131.03,95.2l602.78 87.62c26.04,3.79 47.67,22.02 55.8,47.05 8.13,25.02 1.35,52.49 -17.49,70.85l-436.14 425.19c-41.01,39.99 -59.72,97.59 -50.05,154.03l102.91 600.26c4.44,25.93 -6.21,52.14 -27.5,67.59 -21.28,15.47 -49.5,17.5 -72.79,5.26l-539.15 -283.39c-50.69,-26.65 -111.26,-26.65 -161.96,0.01l-539.11 283.38c-23.29,12.24 -51.51,10.19 -72.79,-5.27 -21.28,-15.46 -31.94,-41.67 -27.5,-67.59l102.96 -600.22c9.69,-56.46 -9.03,-114.07 -50.05,-154.06l-436.17 -425.18c-18.84,-18.37 -25.62,-45.84 -17.49,-70.86 8.13,-25.02 29.76,-43.25 55.8,-47.04l602.76 -87.62c56.68,-8.24 105.68,-43.84 131.04,-95.21l269.54 -546.17z"/>
    </g>
   </g>
   <g>
    <g>
     <path class="fil0" d="M18246.27 10477.51c11.64,-23.59 35.66,-38.53 61.97,-38.53 26.32,0 50.34,14.93 61.99,38.52l269.6 546.19c25.35,51.35 74.35,86.96 131.03,95.19l602.78 87.63c26.04,3.78 47.67,22.02 55.8,47.04 8.13,25.02 1.35,52.49 -17.49,70.86l-436.14 425.19c-41.01,39.98 -59.72,97.58 -50.05,154.03l102.91 600.25c4.45,25.94 -6.21,52.14 -27.5,67.59 -21.28,15.48 -49.5,17.51 -72.78,5.26l-539.16 -283.39c-50.69,-26.65 -111.26,-26.65 -161.96,0.01l-539.11 283.38c-23.29,12.24 -51.5,10.19 -72.79,-5.27 -21.28,-15.46 -31.94,-41.67 -27.49,-67.59l102.95 -600.21c9.69,-56.47 -9.03,-114.07 -50.05,-154.07l-436.17 -425.18c-18.83,-18.36 -25.62,-45.83 -17.49,-70.85 8.13,-25.02 29.76,-43.26 55.8,-47.05l602.76 -87.62c56.68,-8.24 105.69,-43.84 131.04,-95.21l269.55 -546.17z"/>
    </g>
   </g>
   <g>
    <g>
     <path class="fil0" d="M2027.82 7401.32c-11.65,-23.6 -35.67,-38.53 -61.98,-38.53 -26.31,-0.01 -50.34,14.93 -61.99,38.52l-269.6 546.18c-25.35,51.36 -74.35,86.97 -131.03,95.2l-602.78 87.62c-26.04,3.79 -47.67,22.02 -55.8,47.05 -8.13,25.02 -1.35,52.49 17.49,70.85l436.14 425.19c41.01,39.99 59.72,97.59 50.05,154.03l-102.91 600.26c-4.44,25.93 6.22,52.14 27.5,67.59 21.28,15.47 49.5,17.5 72.79,5.26l539.15 -283.39c50.69,-26.65 111.26,-26.65 161.97,0.01l539.1 283.38c23.29,12.24 51.51,10.19 72.79,-5.27 21.29,-15.46 31.94,-41.67 27.5,-67.59l-102.96 -600.22c-9.69,-56.46 9.03,-114.07 50.05,-154.06l436.17 -425.18c18.84,-18.37 25.62,-45.84 17.49,-70.86 -8.13,-25.02 -29.76,-43.25 -55.8,-47.04l-602.76 -87.62c-56.68,-8.24 -105.68,-43.84 -131.04,-95.21l-269.54 -546.17z"/>
    </g>
   </g>
   <g>
    <g>
     <path class="fil0" d="M2170.9 10477.51c-11.65,-23.59 -35.67,-38.53 -61.98,-38.53 -26.31,0 -50.34,14.93 -61.99,38.52l-269.6 546.19c-25.35,51.35 -74.35,86.96 -131.03,95.19l-602.78 87.63c-26.04,3.78 -47.67,22.02 -55.8,47.04 -8.13,25.02 -1.35,52.49 17.49,70.86l436.14 425.19c41.01,39.98 59.72,97.58 50.05,154.03l-102.91 600.25c-4.45,25.94 6.21,52.14 27.5,67.59 21.28,15.48 49.5,17.51 72.79,5.26l539.15 -283.39c50.69,-26.65 111.26,-26.65 161.96,0.01l539.11 283.38c23.29,12.24 51.51,10.19 72.79,-5.27 21.28,-15.46 31.94,-41.67 27.49,-67.59l-102.95 -600.21c-9.69,-56.47 9.03,-114.07 50.05,-154.07l436.17 -425.18c18.84,-18.36 25.62,-45.83 17.49,-70.85 -8.13,-25.02 -29.76,-43.26 -55.8,-47.05l-602.76 -87.62c-56.68,-8.24 -105.68,-43.84 -131.04,-95.21l-269.54 -546.17z"/>
    </g>
   </g>
  </g>
 </g>
</svg>
