<?xml version="1.0" encoding="UTF-8"?>
<!DOCTYPE svg PUBLIC "-//W3C//DTD SVG 1.1//EN" "http://www.w3.org/Graphics/SVG/1.1/DTD/svg11.dtd">
<!-- Creator: CorelDRAW 2018 (64-Bit Evaluation Version) -->
<svg xmlns="http://www.w3.org/2000/svg" xml:space="preserve" width="200mm" height="200mm" version="1.1" style="shape-rendering:geometricPrecision; text-rendering:geometricPrecision; image-rendering:optimizeQuality; fill-rule:evenodd; clip-rule:evenodd"
viewBox="0 0 20000 20000"
 xmlns:xlink="http://www.w3.org/1999/xlink">
 <defs>
  <style type="text/css">
   <![CDATA[
    .str4 {stroke:#078AE1;stroke-width:150;stroke-miterlimit:22.9256}
    .str1 {stroke:#6CCDEB;stroke-width:150;stroke-miterlimit:22.9256}
    .str3 {stroke:#078AE1;stroke-width:250;stroke-miterlimit:22.9256}
    .str0 {stroke:#6CCDEB;stroke-width:250;stroke-miterlimit:22.9256}
    .str2 {stroke:#6CCDEB;stroke-width:20;stroke-miterlimit:22.9256}
    .fil0 {fill:none}
    .fil1 {fill:#6CC7E7}
    .fil3 {fill:#078AE1}
    .fil2 {fill:#078AE1;fill-rule:nonzero}
   ]]>
  </style>
 </defs>
 <g id="Layer_x0020_1">
  <metadata id="CorelCorpID_0Corel-Layer"/>
  <line class="fil0 str0" x1="9730.78" y1="2410.18" x2="9730.78" y2= "19702.75" />
  <line class="fil0 str1" x1="10189.22" y1="2410.18" x2="10189.22" y2= "19702.75" />
  <line class="fil0 str1" x1="8846.65" y1="2410.18" x2="8846.65" y2= "19702.75" />
  <line class="fil0 str1" x1="11138.84" y1="2410.18" x2="11138.84" y2= "19702.75" />
  <polyline class="fil0 str2" points="11138.84,2410.18 8846.65,4337.88 11138.84,4337.88 8846.65,2410.18 "/>
  <polyline class="fil0 str2" points="8846.65,4297.1 11138.84,6224.8 8846.65,6224.8 "/>
  <polyline class="fil0 str2" points="8846.65,6209.69 11138.84,8137.39 8846.65,8137.39 "/>
  <polyline class="fil0 str2" points="8846.65,8096.61 11138.84,10024.31 8846.65,10024.31 "/>
  <polyline class="fil0 str2" points="8846.65,10009.21 11138.84,11936.91 8846.65,11936.91 "/>
  <polyline class="fil0 str2" points="8846.65,11896.13 11138.84,13823.83 8846.65,13823.83 "/>
  <polyline class="fil0 str2" points="8846.65,15695.64 11138.84,17623.34 8846.65,17623.34 "/>
  <polyline class="fil0 str2" points="8846.65,17582.56 11138.84,19510.26 8846.65,19510.26 "/>
  <line class="fil0 str2" x1="11138.84" y1="4337.88" x2="8864.61" y2= "6224.8" />
  <line class="fil0 str2" x1="11138.84" y1="6224.8" x2="8846.65" y2= "8137.39" />
  <line class="fil0 str2" x1="11138.84" y1="8137.39" x2="8846.65" y2= "10024.31" />
  <line class="fil0 str2" x1="11138.84" y1="10024.31" x2="8895.14" y2= "11936.91" />
  <line class="fil0 str2" x1="11138.84" y1="11949.74" x2="8846.65" y2= "13821.55" />
  <line class="fil0 str2" x1="11138.84" y1="13823.83" x2="8846.65" y2= "15736.42" />
  <line class="fil0 str2" x1="11138.84" y1="15736.42" x2="8846.65" y2= "17623.34" />
  <line class="fil0 str2" x1="11138.84" y1="17623.34" x2="8846.65" y2= "19510.26" />
  <line class="fil0 str1" x1="8846.64" y1="19598.61" x2="11138.84" y2= "19605.4" />
  <line class="fil0 str1" x1="8820.9" y1="2391.09" x2="11113.09" y2= "2391.09" />
  <polygon class="fil1" points="8474.35,2307.31 11522,2301.31 11661.25,308.82 8334.69,308.82 "/>
  <g id="_2756615432016">
   <line class="fil0 str3" x1="9730.78" y1="2401.32" x2="9730.78" y2= "19693.89" />
   <line class="fil0 str4" x1="8846.65" y1="2401.32" x2="8846.65" y2= "19693.89" />
   <polygon class="fil2" points="10053.15,3328.56 10009.63,3365.16 10053.15,3401.76 10053.15,3430.17 9992.74,3379.37 8876.51,4318.1 10053.15,4318.1 10053.15,4339.93 8816.78,4339.93 9975.86,3365.16 8839.65,2409.63 8853.64,2393 9992.74,3350.96 10053.15,3300.16 "/>
   <path class="fil2" d="M8853.64 4279.92l1199.51 1008.77 0 28.4 -1213.5 -1020.53 13.99 -16.64zm1199.51 1946.93l-1206.5 0 0 -21.83 1206.5 0 0 21.83z"/>
   <path class="fil2" d="M8853.64 6192.52l1199.51 1008.76 0 28.41 -1213.5 -1020.53 13.99 -16.64zm1199.51 1946.93l-1206.5 0 0 -21.83 1206.5 0 0 21.83z"/>
   <path class="fil2" d="M8853.64 8079.42l1199.51 1008.78 0 28.4 -1213.5 -1020.54 13.99 -16.64zm1199.51 1946.95l-1206.5 0 0 -21.83 1206.5 0 0 21.83z"/>
   <path class="fil2" d="M8853.64 9992.02l1199.51 1008.77 0 28.41 -1213.5 -1020.54 13.99 -16.64zm1199.51 1946.94l-1206.5 0 0 -21.83 1206.5 0 0 21.83z"/>
   <path class="fil2" d="M8853.64 11878.95l1199.51 1008.76 0 28.4 -1213.5 -1020.53 13.99 -16.63zm1199.51 1946.92l-1206.5 0 0 -21.83 1206.5 0 0 21.83z"/>
   <path class="fil2" d="M8853.64 15678.46l1199.51 1008.76 0 28.4 -1213.5 -1020.53 13.99 -16.63zm1199.51 1946.93l-1206.5 0 0 -21.83 1206.5 0 0 21.83z"/>
   <path class="fil2" d="M8853.64 17565.37l1199.51 1008.77 0 28.41 -1213.5 -1020.54 13.99 -16.64zm1199.51 1946.94l-1206.5 0 0 -21.83 1206.5 0 0 21.83z"/>
   <polygon class="fil2" points="10053.15,5243.99 8871.57,6224.34 8857.66,6207.53 10053.15,5215.64 "/>
   <polygon class="fil2" points="10053.15,7136.03 8853.64,8136.89 8839.65,8120.17 10053.15,7107.63 "/>
   <polygon class="fil2" points="10053.15,9036.36 8853.56,10023.86 8839.74,10007.05 10053.15,9008.18 "/>
   <polygon class="fil2" points="10053.15,10955.24 8902.22,11936.32 8888.07,11919.77 10053.15,10926.63 "/>
   <polygon class="fil2" points="10053.15,12841.5 8853.51,13821.13 8839.78,13804.25 10053.15,12813.41 "/>
   <polygon class="fil2" points="10053.15,14735.06 8853.64,15735.92 8839.65,15719.2 10053.15,14706.66 "/>
   <polygon class="fil2" points="10053.15,16635.39 8853.56,17622.88 8839.74,17606.07 10053.15,16607.19 "/>
   <polygon class="fil2" points="10053.15,18522.3 8853.56,19509.8 8839.74,19492.99 10053.15,18494.12 "/>
   <polygon class="fil2" points="8846.65,19508.2 10053.15,19511.77 10053.15,19674.86 8846.65,19671.29 "/>
   <polygon class="fil2" points="8820.9,2300.36 10053.15,2300.36 10053.15,2464.09 8820.9,2464.09 "/>
   <polygon class="fil3" points="8474.35,2298.45 10053.15,2295.34 10053.15,299.96 8334.69,299.96 "/>
  </g>
 </g>
</svg>
