<?xml version="1.0" encoding="UTF-8"?>
<!DOCTYPE svg PUBLIC "-//W3C//DTD SVG 1.1//EN" "http://www.w3.org/Graphics/SVG/1.1/DTD/svg11.dtd">
<!-- Creator: CorelDRAW 2018 (64-Bit Evaluation Version) -->
<svg xmlns="http://www.w3.org/2000/svg" xml:space="preserve" width="200mm" height="200mm" version="1.1" style="shape-rendering:geometricPrecision; text-rendering:geometricPrecision; image-rendering:optimizeQuality; fill-rule:evenodd; clip-rule:evenodd"
viewBox="0 0 20000 20000"
 xmlns:xlink="http://www.w3.org/1999/xlink">
 <defs>
  <style type="text/css">
   <![CDATA[
    .fil0 {fill:#110D0C;fill-rule:nonzero}
    .fil2 {fill:#D17537;fill-rule:nonzero}
    .fil1 {fill:#D88A4C;fill-rule:nonzero}
   ]]>
  </style>
 </defs>
 <g id="Layer_x0020_1">
  <metadata id="CorelCorpID_0Corel-Layer"/>
  <polygon id="path288" class="fil0" points="3691.21,13675.38 2977.23,13675.38 2977.23,6467.51 3691.21,6467.51 "/>
  <polygon id="path290" class="fil0" points="17093.7,13675.38 16379.8,13675.38 16379.8,6467.51 17093.7,6467.51 "/>
  <polygon id="path292" class="fil1" points="18171.58,7216.03 1890.68,7216.03 1890.68,5650 18171.58,5650 "/>
  <path id="path294" class="fil0" d="M3537.14 6432.94c0,76.48 -61.88,138.26 -138.15,138.26 -76.27,0 -138.16,-61.78 -138.16,-138.26 0,-76.28 61.89,-138.08 138.16,-138.08 76.27,0 138.15,61.78 138.15,138.08z"/>
  <path id="path296" class="fil0" d="M16939.71 6432.94c0,76.48 -61.96,138.26 -138.15,138.26 -76.49,0 -138.34,-61.78 -138.34,-138.26 0,-76.28 61.88,-138.08 138.34,-138.08 76.19,0 138.15,61.78 138.15,138.08z"/>
  <polygon id="path298" class="fil1" points="18180.34,9015.07 1899.36,9015.07 1899.36,7448.96 18180.34,7448.96 "/>
  <path id="path300" class="fil0" d="M3545.71 8232.05c0,76.38 -61.77,138.16 -138.15,138.16 -76.19,0 -138.08,-61.78 -138.08,-138.16 0,-76.48 61.89,-138.15 138.08,-138.15 76.38,0 138.15,61.69 138.15,138.15z"/>
  <path id="path302" class="fil0" d="M16948.28 8232.05c0,76.38 -61.88,138.16 -138.15,138.16 -76.38,0 -138.16,-61.78 -138.16,-138.16 0,-76.48 61.78,-138.15 138.16,-138.15 76.27,0 138.15,61.69 138.15,138.15z"/>
  <polygon id="path304" class="fil1" points="18180.34,10811.27 1899.36,10811.27 1899.36,9245.25 18180.34,9245.25 "/>
  <path id="path306" class="fil0" d="M3545.71 10028.26c0,76.27 -61.77,138.26 -138.15,138.26 -76.19,0 -138.08,-61.96 -138.08,-138.26 0,-76.49 61.89,-138.07 138.08,-138.07 76.38,0 138.15,61.58 138.15,138.07z"/>
  <path id="path308" class="fil0" d="M16948.28 10028.26c0,76.27 -61.88,138.26 -138.15,138.26 -76.38,0 -138.16,-61.96 -138.16,-138.26 0,-76.49 61.78,-138.07 138.16,-138.07 76.27,0 138.15,61.58 138.15,138.07z"/>
  <polygon id="path312" class="fil0" points="1756.77,14389.46 1042.87,14389.46 1042.87,11833.14 1756.77,11833.12 "/>
  <polygon id="path314" class="fil0" points="19028.06,14389.46 18314.09,14389.46 18314.09,11833.14 19028.06,11833.12 "/>
  <polygon id="path298_0" class="fil2" points="19389.99,12272.01 680.25,12272.01 1606.89,11141.86 18434.03,11141.86 "/>
 </g>
</svg>
