<?xml version="1.0" encoding="UTF-8"?>
<!DOCTYPE svg PUBLIC "-//W3C//DTD SVG 1.1//EN" "http://www.w3.org/Graphics/SVG/1.1/DTD/svg11.dtd">
<!-- Creator: CorelDRAW 2018 (64-Bit Evaluation Version) -->
<svg xmlns="http://www.w3.org/2000/svg" xml:space="preserve" width="200mm" height="200mm" version="1.1" style="shape-rendering:geometricPrecision; text-rendering:geometricPrecision; image-rendering:optimizeQuality; fill-rule:evenodd; clip-rule:evenodd"
viewBox="0 0 20000 20000"
 xmlns:xlink="http://www.w3.org/1999/xlink">
 <defs>
  <style type="text/css">
   <![CDATA[
    .str0 {stroke:#353232;stroke-width:100;stroke-miterlimit:22.9256}
    .fil6 {fill:none}
    .fil5 {fill:#ED7328}
    .fil4 {fill:#C95A2D}
    .fil2 {fill:#D73722}
    .fil3 {fill:#F03E1E}
    .fil1 {fill:#F36B21}
    .fil0 {fill:#FBC51F}
   ]]>
  </style>
 </defs>
 <g id="Layer_x0020_1">
  <metadata id="CorelCorpID_0Corel-Layer"/>
  <g id="_2755880399056">
   <g>
    <polygon class="fil0" points="5495.82,10591.8 3661.38,10591.8 2956.94,19766.87 4776.72,19766.87 "/>
    <polygon class="fil1" points="2956.94,19766.87 3661.38,10591.8 2232.6,10591.8 1628.83,19766.87 "/>
    <polygon class="fil1" points="5495.82,10591.8 4776.72,19766.87 6648.26,19766.87 7396.71,10591.8 "/>
    <polygon class="fil0" points="7396.71,10591.8 6648.26,19766.87 8542.46,19766.87 9129.48,10591.8 "/>
    <polygon class="fil1" points="9129.48,10591.8 8542.46,19766.87 11454.46,19766.87 10867.43,10591.8 "/>
    <polygon class="fil0" points="10867.43,10591.8 11454.46,19766.87 13435.19,19766.87 12686.74,10591.8 "/>
    <polygon class="fil1" points="12686.74,10591.8 13435.19,19766.87 15236.32,19766.87 14517.22,10591.8 "/>
    <polygon class="fil0" points="14517.22,10591.8 15236.32,19766.87 17116.56,19766.87 16412.12,10591.8 "/>
    <polygon class="fil1" points="16412.12,10591.8 17116.56,19766.87 18426.47,19766.87 17824.47,10591.8 "/>
    <g>
     <polygon class="fil2" points="12481.11,19794.96 9985.11,12176.08 7489.11,19794.96 "/>
     <polygon class="fil3" points="7489.11,19794.96 9985.11,12176.08 6657.11,17641.21 "/>
     <polygon class="fil3" points="9985.11,12176.08 12481.11,19794.96 13313.13,17641.21 "/>
    </g>
    <g>
     <path class="fil4" d="M2796.85 11498.18c661.02,0 1196.88,-383.47 1196.88,-856.52 0,-2.95 -0.02,-5.91 -0.07,-8.87l-2392.22 0 -1.36 0c-0.05,2.94 -0.07,5.9 -0.07,8.87 0,473.05 535.84,856.52 1196.84,856.52z"/>
     <path class="fil4" d="M3995.62 10655.57c22.49,458.91 549.41,825.97 1196.12,825.97 657.38,0 1190.98,-379.27 1196.8,-848.75l-2376.23 0 -16.69 22.78z"/>
     <path class="fil4" d="M6389.77 10674.94c0,473.05 535.84,856.52 1196.85,856.52 619.91,0 1129.76,-337.26 1190.76,-769.4l8.01 -56.66 10.25 -72.61 -2395.33 0 -10.25 23.41c-0.19,6.22 -0.29,12.5 -0.29,18.74z"/>
     <path class="fil4" d="M8786.07 10700.56c30.78,453.42 554.23,814.26 1195.43,814.26 661.01,0 1196.85,-383.47 1196.85,-856.52 0,-4.11 -0.05,-8.24 -0.13,-12.37l-2.01 -13.14 -2380.57 0 -9.57 67.77z"/>
     <path class="fil4" d="M11179.52 10658.3c0,473.05 535.84,856.52 1196.85,856.52 661,0 1196.85,-383.47 1196.85,-856.52 0,-1.8 -0.02,-3.62 -0.02,-5.41l-9.02 -20.1 -2387.97 0 2.01 13.14 1.31 8.51c-0.01,1.28 -0.01,2.57 -0.01,3.86z"/>
     <polygon class="fil5" points="13564.23,10632.9 9936.76,2548.82 11176.21,10632.79 "/>
     <polygon class="fil0" points="11176.21,10632.79 9936.76,2548.82 8795.64,10632.79 "/>
     <polygon class="fil5" points="8795.64,10632.79 9936.76,2548.82 6400.31,10632.79 "/>
     <polygon class="fil0" points="6400.31,10632.79 9936.76,2548.82 4012.31,10632.79 6388.54,10632.79 "/>
     <polygon class="fil5" points="4012.31,10632.79 9936.76,2548.82 1601.44,10632.79 3993.66,10632.79 3994.93,10632.79 "/>
     <polygon class="fil0" points="9961.12,2603.12 13564.18,10632.79 15949.48,10632.79 9970.44,2594.1 "/>
     <path class="fil5" d="M9970.44 2594.1l5979.04 8038.69 54.36 0 2393.45 0c0.08,-4.31 0.13,-8.64 0.13,-12.98l-8418.01 -8034.42 -8.97 8.71z"/>
     <path class="fil4" d="M18397.29 10632.79l-2393.45 0c9.68,467.07 541.76,843.55 1196.73,843.55 654.97,0 1187.03,-376.48 1196.72,-843.55z"/>
     <path class="fil4" d="M14771.26 11514.82c660.99,0 1196.85,-383.47 1196.85,-856.52 0,-0.15 0,-0.3 0,-0.45l-18.63 -25.06 -2385.25 0.11 8.97 20 1.2 2.68c0,0.9 0,1.82 0,2.72 0,473.05 535.85,856.52 1196.86,856.52z"/>
    </g>
   </g>
   <line class="fil6 str0" x1="9970.44" y1="2594.1" x2="9970.44" y2= "223" />
   <polygon class="fil2" points="11873.29,936.37 13559.99,289.12 10037.85,289.12 10037.85,1841.24 13440.58,1841.24 "/>
  </g>
 </g>
</svg>
