<?xml version="1.0" encoding="UTF-8" standalone="no"?>
<svg
   xmlns:dc="http://purl.org/dc/elements/1.1/"
   xmlns:cc="http://creativecommons.org/ns#"
   xmlns:rdf="http://www.w3.org/1999/02/22-rdf-syntax-ns#"
   xmlns:svg="http://www.w3.org/2000/svg"
   xmlns="http://www.w3.org/2000/svg"
   viewBox="0 0 1066.6667 1066.6667"
   height="1066.6667"
   width="1066.6667"
   xml:space="preserve"
   id="svg2"
   version="1.1"><metadata
     id="metadata8"><rdf:RDF><cc:Work
         rdf:about=""><dc:format>image/svg+xml</dc:format><dc:type
           rdf:resource="http://purl.org/dc/dcmitype/StillImage" /></cc:Work></rdf:RDF></metadata><defs
     id="defs6" /><g
     transform="matrix(1.3333333,0,0,-1.3333333,0,1066.6667)"
     id="g10"><g
       transform="scale(0.1)"
       id="g12"><path
         id="path14"
         style="fill:#e7e5d8;fill-opacity:1;fill-rule:nonzero;stroke:none"
         d="M 8000,0 H 0 V 8000 H 8000 V 0" /><path
         id="path16"
         style="fill:#b42e25;fill-opacity:1;fill-rule:nonzero;stroke:none"
         d="m 2833.93,291.371 c 0,-7.031 1.09,-13.012 3.27,-17.949 2.18,-4.942 5.17,-8.652 8.97,-11.152 3.81,-2.5 7.95,-3.77 12.44,-3.77 4.56,0 8.72,1.191 12.5,3.57 3.76,2.36 6.77,6.02 9.02,10.922 2.25,4.899 3.37,11.047 3.37,18.379 0,6.91 -1.12,12.848 -3.37,17.828 -2.25,4.961 -5.29,8.75 -9.11,11.391 -3.84,2.609 -8.03,3.922 -12.59,3.922 -4.75,0 -9,-1.352 -12.73,-4.02 -3.74,-2.703 -6.64,-6.543 -8.69,-11.582 -2.07,-5.039 -3.08,-10.879 -3.08,-17.539 z m 50.99,-38.09 v 2.578 c -3.47,-3.988 -6.91,-7.25 -10.3,-9.73 -3.39,-2.52 -7.06,-4.41 -11.03,-5.699 -3.94,-1.328 -8.26,-1.95 -12.95,-1.95 -6.21,0 -11.96,1.309 -17.24,3.918 -5.29,2.641 -9.86,6.391 -13.72,11.274 -3.88,4.867 -6.8,10.59 -8.79,17.187 -1.99,6.582 -3,13.711 -3,21.371 0,16.211 3.97,28.84 11.88,37.911 7.92,9.039 18.34,13.57 31.25,13.57 7.47,0 13.77,-1.289 18.9,-3.852 5.13,-2.558 10.13,-6.519 15,-11.808 v 38.258 c 0,5.332 1.06,9.332 3.19,12.07 2.11,2.711 5.13,4.082 9.07,4.082 3.92,0 6.94,-1.25 9.07,-3.75 2.12,-2.52 3.18,-6.191 3.18,-11.07 v -114.36 c 0,-4.941 -1.13,-8.629 -3.41,-11.109 -2.29,-2.461 -5.23,-3.692 -8.84,-3.692 -3.55,0 -6.48,1.27 -8.79,3.821 -2.32,2.578 -3.47,6.238 -3.47,10.98" /><path
         id="path18"
         style="fill:#b42e25;fill-opacity:1;fill-rule:nonzero;stroke:none"
         d="m 2948.55,299.531 h 47.02 c -0.63,8.871 -3.03,15.508 -7.17,19.899 -4.16,4.422 -9.61,6.609 -16.39,6.609 -6.46,0 -11.77,-2.23 -15.91,-6.68 -4.15,-4.48 -6.66,-11.078 -7.55,-19.828 z m 50.71,-14.73 h -50.71 c 0.06,-5.871 1.24,-11.071 3.56,-15.559 2.3,-4.492 5.39,-7.89 9.22,-10.16 3.83,-2.281 8.05,-3.422 12.67,-3.422 3.11,0 5.94,0.36 8.5,1.082 2.58,0.738 5.06,1.867 7.46,3.438 2.41,1.539 4.63,3.199 6.65,4.98 2.02,1.77 4.64,4.199 7.88,7.219 1.33,1.141 3.23,1.723 5.71,1.723 2.65,0 4.8,-0.743 6.44,-2.211 1.65,-1.461 2.48,-3.489 2.48,-6.172 0,-2.34 -0.92,-5.059 -2.75,-8.199 -1.85,-3.149 -4.61,-6.149 -8.31,-9.02 -3.72,-2.891 -8.35,-5.281 -13.98,-7.168 -5.58,-1.922 -12.03,-2.852 -19.31,-2.852 -16.65,0 -29.61,4.739 -38.85,14.231 -9.24,9.5 -13.87,22.391 -13.87,38.66 0,7.668 1.13,14.777 3.42,21.328 2.28,6.563 5.6,12.16 9.97,16.852 4.36,4.691 9.76,8.281 16.15,10.781 6.4,2.5 13.49,3.75 21.28,3.75 10.12,0 18.81,-2.133 26.06,-6.402 7.26,-4.278 12.69,-9.809 16.29,-16.571 3.61,-6.769 5.42,-13.687 5.42,-20.699 0,-6.539 -1.87,-10.758 -5.6,-12.699 -3.73,-1.93 -9,-2.91 -15.78,-2.91" /><path
         id="path20"
         style="fill:#b42e25;fill-opacity:1;fill-rule:nonzero;stroke:none"
         d="m 3117.41,272.379 c 0,-7.149 -1.73,-13.277 -5.22,-18.379 -3.48,-5.09 -8.63,-8.961 -15.43,-11.602 -6.81,-2.609 -15.09,-3.918 -24.85,-3.918 -9.29,0 -17.28,1.418 -23.92,4.27 -6.65,2.84 -11.56,6.41 -14.73,10.672 -3.16,4.289 -4.74,8.566 -4.74,12.887 0,2.851 1,5.273 3.04,7.3 2.01,2.012 4.59,3.032 7.7,3.032 2.71,0 4.79,-0.661 6.25,-1.989 1.46,-1.332 2.86,-3.203 4.18,-5.593 2.65,-4.649 5.85,-8.059 9.55,-10.368 3.71,-2.261 8.75,-3.421 15.15,-3.421 5.2,0 9.46,1.179 12.78,3.48 3.32,2.32 4.98,4.961 4.98,7.93 0,4.57 -1.72,7.871 -5.18,9.961 -3.45,2.089 -9.14,4.097 -17.05,6 -8.92,2.199 -16.19,4.55 -21.79,6.988 -5.61,2.422 -10.08,5.641 -13.44,9.633 -3.36,3.976 -5.04,8.898 -5.04,14.718 0,5.18 1.55,10.102 4.66,14.731 3.1,4.609 7.68,8.301 13.74,11.059 6.03,2.75 13.32,4.14 21.87,4.14 6.72,0 12.76,-0.711 18.09,-2.109 5.36,-1.371 9.83,-3.262 13.4,-5.61 3.58,-2.32 6.3,-4.921 8.16,-7.769 1.88,-2.852 2.8,-5.633 2.8,-8.363 0,-2.969 -0.99,-5.407 -2.98,-7.329 -1.99,-1.871 -4.82,-2.851 -8.51,-2.851 -2.66,0 -4.92,0.762 -6.78,2.312 -1.87,1.5 -4,3.789 -6.41,6.809 -1.97,2.539 -4.27,4.57 -6.93,6.102 -2.66,1.519 -6.27,2.257 -10.84,2.257 -4.69,0 -8.57,-0.968 -11.68,-2.988 -3.1,-1.992 -4.65,-4.473 -4.65,-7.441 0,-2.731 1.14,-4.961 3.41,-6.7 2.29,-1.75 5.35,-3.199 9.23,-4.328 3.86,-1.132 9.16,-2.523 15.96,-4.16 8.02,-1.972 14.59,-4.32 19.69,-7.031 5.09,-2.723 8.96,-5.941 11.6,-9.652 2.62,-3.707 3.93,-7.93 3.93,-12.68" /><path
         id="path22"
         style="fill:#b42e25;fill-opacity:1;fill-rule:nonzero;stroke:none"
         d="m 3156.73,329.18 v -74.938 c 0,-5.203 -1.24,-9.121 -3.7,-11.781 -2.48,-2.66 -5.61,-3.981 -9.42,-3.981 -3.8,0 -6.88,1.34 -9.25,4.079 -2.39,2.711 -3.56,6.621 -3.56,11.683 v 74.18 c 0,5.117 1.17,8.976 3.56,11.578 2.37,2.602 5.45,3.91 9.25,3.91 3.81,0 6.94,-1.308 9.42,-3.91 2.46,-2.602 3.7,-6.211 3.7,-10.82 z m -12.82,26.781 c -3.62,0 -6.7,1.109 -9.26,3.32 -2.57,2.199 -3.85,5.348 -3.85,9.41 0,3.668 1.31,6.68 3.94,9.059 2.62,2.391 5.69,3.582 9.17,3.582 3.36,0 6.32,-1.082 8.92,-3.242 2.6,-2.149 3.9,-5.281 3.9,-9.399 0,-4 -1.28,-7.109 -3.81,-9.351 -2.53,-2.25 -5.54,-3.379 -9.01,-3.379" /><path
         id="path24"
         style="fill:#b42e25;fill-opacity:1;fill-rule:nonzero;stroke:none"
         d="m 3195.19,292.031 c 0,-10.511 2.29,-18.461 6.88,-23.832 4.59,-5.39 10.53,-8.078 17.81,-8.078 4.3,0 8.36,1.168 12.19,3.469 3.85,2.312 6.95,5.801 9.38,10.449 2.39,4.652 3.6,10.301 3.6,16.961 0,10.559 -2.33,18.801 -6.98,24.68 -4.66,5.879 -10.78,8.832 -18.38,8.832 -7.42,0 -13.35,-2.813 -17.81,-8.461 -4.47,-5.621 -6.69,-13.629 -6.69,-24.02 z m 75.12,32.867 V 249.59 c 0,-8.61 -0.92,-16.039 -2.76,-22.25 -1.83,-6.192 -4.78,-11.32 -8.83,-15.371 -4.05,-4.039 -9.35,-7.071 -15.91,-9.02 -6.54,-1.969 -14.7,-2.949 -24.45,-2.949 -8.93,0 -16.91,1.25 -23.95,3.75 -7.01,2.52 -12.42,5.738 -16.23,9.691 -3.8,3.957 -5.7,8.02 -5.7,12.2 0,3.168 1.07,5.769 3.23,7.738 2.15,2.012 4.76,3.012 7.79,3.012 3.79,0 7.13,-1.68 9.98,-5.039 1.38,-1.7 2.82,-3.442 4.31,-5.18 1.49,-1.762 3.15,-3.242 4.94,-4.473 1.8,-1.23 3.97,-2.148 6.51,-2.75 2.53,-0.59 5.45,-0.898 8.73,-0.898 6.72,0 11.93,0.929 15.63,2.808 3.7,1.852 6.3,4.473 7.79,7.832 1.49,3.34 2.36,6.93 2.61,10.778 0.26,3.832 0.44,9.98 0.57,18.48 -3.99,-5.59 -8.59,-9.828 -13.83,-12.738 -5.21,-2.91 -11.44,-4.371 -18.65,-4.371 -8.67,0 -16.25,2.23 -22.75,6.66 -6.49,4.43 -11.48,10.621 -14.96,18.609 -3.48,7.993 -5.22,17.192 -5.22,27.641 0,7.77 1.05,14.82 3.18,21.07 2.13,6.289 5.15,11.571 9.07,15.879 3.92,4.301 8.45,7.539 13.58,9.731 5.13,2.191 10.76,3.281 16.9,3.281 7.35,0 13.72,-1.422 19.11,-4.223 5.37,-2.828 10.38,-7.238 15,-13.258 v 3.52 c 0,4.492 1.1,7.961 3.32,10.449 2.22,2.461 5.07,3.711 8.55,3.711 5,0 8.32,-1.64 9.96,-4.91 1.66,-3.262 2.48,-7.961 2.48,-14.102" /><path
         id="path26"
         style="fill:#b42e25;fill-opacity:1;fill-rule:nonzero;stroke:none"
         d="m 3311.52,329.551 v -3.121 c 4.55,6.011 9.54,10.429 14.96,13.242 5.41,2.808 11.63,4.238 18.66,4.238 6.84,0 12.95,-1.512 18.34,-4.48 5.37,-2.981 9.41,-7.18 12.05,-12.61 1.72,-3.191 2.83,-6.609 3.33,-10.281 0.51,-3.668 0.77,-8.359 0.77,-14.059 v -48.238 c 0,-5.203 -1.19,-9.121 -3.58,-11.781 -2.36,-2.66 -5.44,-3.981 -9.25,-3.981 -3.87,0 -7,1.34 -9.4,4.079 -2.42,2.711 -3.61,6.621 -3.61,11.683 v 43.219 c 0,8.539 -1.19,15.078 -3.57,19.609 -2.37,4.512 -7.09,6.801 -14.2,6.801 -4.61,0 -8.83,-1.391 -12.62,-4.141 -3.81,-2.761 -6.59,-6.55 -8.36,-11.351 -1.27,-3.867 -1.91,-11.078 -1.91,-21.66 v -32.477 c 0,-5.262 -1.22,-9.203 -3.65,-11.844 -2.43,-2.609 -5.58,-3.918 -9.44,-3.918 -3.75,0 -6.82,1.34 -9.22,4.079 -2.4,2.711 -3.61,6.621 -3.61,11.683 v 74.938 c 0,4.941 1.07,8.629 3.22,11.07 2.16,2.43 5.1,3.66 8.83,3.66 2.28,0 4.35,-0.551 6.19,-1.621 1.83,-1.098 3.3,-2.699 4.41,-4.848 1.12,-2.152 1.66,-4.781 1.66,-7.89" /><path
         id="path28"
         style="fill:#b42e25;fill-opacity:1;fill-rule:nonzero;stroke:none"
         d="m 3418.55,299.531 h 47.02 c -0.63,8.871 -3.03,15.508 -7.17,19.899 -4.15,4.422 -9.61,6.609 -16.39,6.609 -6.46,0 -11.77,-2.23 -15.92,-6.68 -4.14,-4.48 -6.65,-11.078 -7.54,-19.828 z m 50.72,-14.73 h -50.72 c 0.07,-5.871 1.25,-11.071 3.57,-15.559 2.31,-4.492 5.38,-7.89 9.21,-10.16 3.83,-2.281 8.05,-3.422 12.67,-3.422 3.11,0 5.94,0.36 8.52,1.082 2.55,0.738 5.04,1.867 7.45,3.438 2.39,1.539 4.61,3.199 6.65,4.98 2.01,1.77 4.65,4.199 7.87,7.219 1.33,1.141 3.23,1.723 5.71,1.723 2.65,0 4.81,-0.743 6.46,-2.211 1.64,-1.461 2.46,-3.489 2.46,-6.172 0,-2.34 -0.92,-5.059 -2.75,-8.199 -1.84,-3.149 -4.61,-6.149 -8.32,-9.02 -3.7,-2.891 -8.34,-5.281 -13.95,-7.168 -5.6,-1.922 -12.05,-2.852 -19.33,-2.852 -16.65,0 -29.6,4.739 -38.85,14.231 -9.24,9.5 -13.87,22.391 -13.87,38.66 0,7.668 1.14,14.777 3.42,21.328 2.28,6.563 5.6,12.16 9.98,16.852 4.36,4.691 9.75,8.281 16.14,10.781 6.4,2.5 13.49,3.75 21.28,3.75 10.13,0 18.81,-2.133 26.06,-6.402 7.26,-4.278 12.69,-9.809 16.3,-16.571 3.6,-6.769 5.41,-13.687 5.41,-20.699 0,-6.539 -1.86,-10.758 -5.6,-12.699 -3.73,-1.93 -8.99,-2.91 -15.77,-2.91" /><path
         id="path30"
         style="fill:#b42e25;fill-opacity:1;fill-rule:nonzero;stroke:none"
         d="m 3523.96,291.371 c 0,-7.031 1.1,-13.012 3.29,-17.949 2.17,-4.942 5.17,-8.652 8.98,-11.152 3.79,-2.5 7.93,-3.77 12.42,-3.77 4.57,0 8.73,1.191 12.5,3.57 3.77,2.36 6.78,6.02 9.03,10.922 2.24,4.899 3.36,11.047 3.36,18.379 0,6.91 -1.12,12.848 -3.36,17.828 -2.25,4.961 -5.3,8.75 -9.13,11.391 -3.83,2.609 -8.02,3.922 -12.58,3.922 -4.74,0 -9,-1.352 -12.73,-4.02 -3.73,-2.703 -6.63,-6.543 -8.69,-11.582 -2.06,-5.039 -3.09,-10.879 -3.09,-17.539 z m 51,-38.09 v 2.578 c -3.48,-3.988 -6.91,-7.25 -10.29,-9.73 -3.4,-2.52 -7.06,-4.41 -11.02,-5.699 -3.95,-1.328 -8.28,-1.95 -12.97,-1.95 -6.21,0 -11.95,1.309 -17.23,3.918 -5.29,2.641 -9.87,6.391 -13.72,11.274 -3.87,4.867 -6.8,10.59 -8.79,17.187 -1.99,6.582 -2.99,13.711 -2.99,21.371 0,16.211 3.94,28.84 11.86,37.911 7.92,9.039 18.33,13.57 31.25,13.57 7.48,0 13.78,-1.289 18.9,-3.852 5.14,-2.558 10.14,-6.519 15,-11.808 v 38.258 c 0,5.332 1.08,9.332 3.19,12.07 2.12,2.711 5.15,4.082 9.08,4.082 3.92,0 6.94,-1.25 9.06,-3.75 2.13,-2.52 3.18,-6.191 3.18,-11.07 v -114.36 c 0,-4.941 -1.13,-8.629 -3.42,-11.109 -2.27,-2.461 -5.21,-3.692 -8.82,-3.692 -3.55,0 -6.48,1.27 -8.79,3.821 -2.32,2.578 -3.48,6.238 -3.48,10.98" /><path
         id="path32"
         style="fill:#b42e25;fill-opacity:1;fill-rule:nonzero;stroke:none"
         d="m 3682.19,290.609 c 0,-10.32 2.35,-18.25 7.07,-23.769 4.71,-5.551 10.91,-8.34 18.57,-8.34 6.52,0 12.14,2.832 16.86,8.512 4.7,5.668 7.07,13.789 7.07,24.359 0,6.828 -0.98,12.731 -2.94,17.668 -1.96,4.941 -4.75,8.75 -8.35,11.453 -3.61,2.668 -7.83,4.02 -12.64,4.02 -4.94,0 -9.35,-1.352 -13.2,-4.02 -3.87,-2.703 -6.91,-6.582 -9.12,-11.683 -2.22,-5.098 -3.32,-11.168 -3.32,-18.2 z m -1.24,77.032 v -39.59 c 4.87,5.058 9.84,8.937 14.91,11.621 5.06,2.687 11.34,4.039 18.81,4.039 8.61,0 16.15,-2.051 22.65,-6.109 6.49,-4.102 11.52,-10.02 15.1,-17.782 3.58,-7.75 5.37,-16.949 5.37,-27.59 0,-7.859 -0.99,-15.039 -2.99,-21.609 -2,-6.562 -4.9,-12.242 -8.69,-17.051 -3.81,-4.8 -8.41,-8.531 -13.82,-11.172 -5.41,-2.609 -11.39,-3.918 -17.91,-3.918 -3.99,0 -7.74,0.469 -11.25,1.418 -3.52,0.942 -6.51,2.192 -8.98,3.75 -2.46,1.551 -4.57,3.153 -6.32,4.793 -1.74,1.641 -4.04,4.118 -6.88,7.418 v -2.578 c 0,-4.859 -1.17,-8.551 -3.52,-11.07 -2.33,-2.5 -5.31,-3.731 -8.92,-3.731 -3.68,0 -6.61,1.231 -8.78,3.731 -2.19,2.519 -3.28,6.211 -3.28,11.07 V 366.5 c 0,5.262 1.05,9.238 3.17,11.922 2.12,2.687 5.09,4.039 8.89,4.039 3.99,0 7.06,-1.289 9.2,-3.852 2.15,-2.57 3.24,-6.211 3.24,-10.968" /><path
         id="path34"
         style="fill:#b42e25;fill-opacity:1;fill-rule:nonzero;stroke:none"
         d="m 3791.41,235.23 2.37,5.809 -31.91,80.352 c -1.97,4.609 -2.95,7.98 -2.95,10.07 0,2.211 0.57,4.258 1.71,6.16 1.15,1.91 2.71,3.43 4.7,4.57 1.99,1.149 4.06,1.719 6.22,1.719 3.73,0 6.56,-1.199 8.46,-3.578 1.9,-2.363 3.57,-5.762 5.03,-10.191 l 21.94,-63.832 20.8,59.351 c 1.64,4.809 3.14,8.582 4.47,11.309 1.32,2.722 2.73,4.551 4.21,5.492 1.49,0.961 3.6,1.449 6.33,1.449 1.98,0 3.85,-0.531 5.65,-1.59 1.8,-1.031 3.2,-2.441 4.18,-4.211 0.97,-1.777 1.48,-3.64 1.48,-5.609 -0.27,-1.191 -0.66,-2.91 -1.25,-5.141 -0.56,-2.199 -1.26,-4.468 -2.08,-6.738 l -33.82,-88.512 c -2.91,-7.789 -5.76,-13.89 -8.55,-18.32 -2.78,-4.43 -6.47,-7.848 -11.06,-10.219 -4.6,-2.379 -10.78,-3.57 -18.57,-3.57 -7.6,0 -13.3,0.82 -17.09,2.461 -3.81,1.66 -5.7,4.668 -5.7,9.039 0,2.969 0.9,5.281 2.71,6.879 1.8,1.621 4.47,2.441 8.01,2.441 1.41,0 2.77,-0.199 4.1,-0.59 1.64,-0.371 3.07,-0.558 4.26,-0.558 2.98,0 5.33,0.43 7.04,1.328 1.71,0.871 3.23,2.422 4.6,4.609 1.37,2.161 2.93,5.391 4.71,9.621" /><path
         id="path36"
         style="fill:#b42e25;fill-opacity:1;fill-rule:nonzero;stroke:none"
         d="m 4167.03,341.66 h 6.19 v 7.77 c 0,8.152 1,14.57 3.07,19.379 2.03,4.781 5.55,8.261 10.47,10.453 4.9,2.168 11.62,3.258 20.15,3.258 15.2,0 22.74,-3.668 22.74,-11.129 0,-2.391 -0.8,-4.461 -2.4,-6.161 -1.55,-1.691 -3.44,-2.55 -5.59,-2.55 -1,0 -2.77,0.172 -5.27,0.582 -2.37,0.328 -4.51,0.57 -6.23,0.57 -4.67,0 -7.66,-1.41 -9.05,-4.16 -1.27,-2.762 -1.95,-6.68 -1.95,-11.84 v -6.172 h 6.33 c 9.9,0 14.8,-2.969 14.8,-8.961 0,-4.179 -1.27,-6.898 -3.92,-8.047 -2.62,-1.132 -6.23,-1.703 -10.88,-1.703 h -6.33 v -68.707 c 0,-5.121 -1.21,-9.012 -3.69,-11.683 -2.42,-2.739 -5.55,-4.059 -9.43,-4.059 -3.68,0 -6.7,1.32 -9.18,4.059 -2.45,2.671 -3.64,6.562 -3.64,11.683 v 68.707 h -7.15 c -3.88,0 -6.81,0.84 -8.92,2.621 -2.09,1.7 -3.15,3.981 -3.15,6.77 0,6.23 4.34,9.32 13.03,9.32" /><path
         id="path38"
         style="fill:#b42e25;fill-opacity:1;fill-rule:nonzero;stroke:none"
         d="m 4251.93,275.922 v -21.68 c 0,-5.242 -1.32,-9.203 -3.75,-11.801 -2.46,-2.652 -5.58,-3.941 -9.37,-3.941 -3.81,0 -6.88,1.301 -9.26,4 -2.36,2.641 -3.61,6.559 -3.61,11.742 v 72.219 c 0,11.66 4.2,17.488 12.61,17.488 4.34,0 7.43,-1.347 9.34,-4.09 1.9,-2.73 2.95,-6.738 3.16,-12.07 3.09,5.332 6.25,9.34 9.5,12.07 3.32,2.743 7.61,4.09 13.08,4.09 5.49,0 10.73,-1.347 15.86,-4.09 5.16,-2.73 7.72,-6.359 7.72,-10.839 0,-3.141 -1.12,-5.801 -3.26,-7.809 -2.21,-2.09 -4.56,-3.121 -7.07,-3.121 -1,0 -3.31,0.621 -6.92,1.789 -3.65,1.141 -6.89,1.742 -9.63,1.742 -3.81,0 -6.93,-1.031 -9.31,-2.992 -2.43,-2.047 -4.32,-4.957 -5.65,-8.859 -1.29,-3.95 -2.19,-8.661 -2.73,-14.051 -0.49,-5.41 -0.71,-12.028 -0.71,-19.797" /><path
         id="path40"
         style="fill:#b42e25;fill-opacity:1;fill-rule:nonzero;stroke:none"
         d="m 4320.39,299.59 h 47.01 c -0.62,8.851 -2.97,15.492 -7.13,19.859 -4.18,4.422 -9.59,6.602 -16.4,6.602 -6.47,0 -11.78,-2.199 -15.92,-6.692 -4.14,-4.461 -6.68,-11.039 -7.56,-19.769 m 50.74,-14.75 h -50.74 c 0.1,-5.879 1.25,-11.11 3.56,-15.578 2.34,-4.473 5.39,-7.871 9.23,-10.18 3.85,-2.262 8.05,-3.402 12.7,-3.402 3.1,0 5.92,0.34 8.5,1.121 2.53,0.699 5.03,1.847 7.44,3.41 2.42,1.531 4.61,3.191 6.64,5 2.03,1.738 4.67,4.16 7.91,7.187 1.34,1.141 3.24,1.743 5.68,1.743 2.68,0 4.81,-0.739 6.49,-2.231 1.66,-1.461 2.44,-3.488 2.44,-6.172 0,-2.336 -0.9,-5.078 -2.68,-8.179 -1.87,-3.188 -4.63,-6.168 -8.36,-9.059 -3.75,-2.859 -8.4,-5.281 -13.98,-7.148 -5.59,-1.903 -12.05,-2.852 -19.32,-2.852 -16.7,0 -29.63,4.719 -38.87,14.211 -9.23,9.519 -13.9,22.43 -13.9,38.68 0,7.668 1.17,14.781 3.47,21.339 2.25,6.59 5.57,12.168 9.98,16.879 4.36,4.711 9.71,8.282 16.14,10.782 6.36,2.5 13.45,3.75 21.27,3.75 10.11,0 18.81,-2.153 26.07,-6.461 7.23,-4.219 12.74,-9.77 16.29,-16.551 3.61,-6.789 5.41,-13.668 5.41,-20.738 0,-6.481 -1.87,-10.7 -5.61,-12.661 -3.73,-1.929 -8.98,-2.89 -15.76,-2.89" /><path
         id="path42"
         style="fill:#b42e25;fill-opacity:1;fill-rule:nonzero;stroke:none"
         d="m 4428.28,299.59 h 47.01 c -0.64,8.851 -3.04,15.492 -7.15,19.859 -4.21,4.422 -9.62,6.602 -16.42,6.602 -6.47,0 -11.76,-2.199 -15.94,-6.692 -4.12,-4.461 -6.66,-11.039 -7.5,-19.769 M 4479,284.84 h -50.72 c 0.06,-5.879 1.25,-11.11 3.54,-15.578 2.32,-4.473 5.39,-7.871 9.22,-10.18 3.82,-2.262 8.04,-3.402 12.71,-3.402 3.07,0 5.92,0.34 8.44,1.121 2.6,0.699 5.06,1.847 7.5,3.41 2.42,1.531 4.61,3.191 6.64,5 1.99,1.738 4.65,4.16 7.89,7.187 1.35,1.141 3.26,1.743 5.68,1.743 2.68,0 4.83,-0.739 6.51,-2.231 1.64,-1.461 2.4,-3.488 2.4,-6.172 0,-2.336 -0.88,-5.078 -2.74,-8.179 -1.77,-3.188 -4.55,-6.168 -8.3,-9.059 -3.71,-2.859 -8.39,-5.281 -13.96,-7.148 -5.57,-1.903 -12.07,-2.852 -19.34,-2.852 -16.68,0 -29.59,4.719 -38.86,14.211 -9.24,9.519 -13.89,22.43 -13.89,38.68 0,7.668 1.15,14.781 3.48,21.339 2.26,6.59 5.58,12.168 9.96,16.879 4.35,4.711 9.72,8.282 16.13,10.782 6.39,2.5 13.51,3.75 21.29,3.75 10.1,0 18.79,-2.153 26.13,-6.461 7.21,-4.219 12.66,-9.77 16.21,-16.551 3.6,-6.789 5.45,-13.668 5.45,-20.738 0,-6.481 -1.91,-10.7 -5.6,-12.661 -3.75,-1.929 -9.01,-2.89 -15.77,-2.89" /><path
         id="path44"
         style="fill:#b42e25;fill-opacity:1;fill-rule:nonzero;stroke:none"
         d="m 4586.64,291.68 c 0,6.859 -1.05,12.73 -3.14,17.64 -2.09,4.922 -4.98,8.672 -8.66,11.27 -3.67,2.629 -7.83,3.961 -12.32,3.961 -7.15,0 -13.18,-2.832 -18.09,-8.442 -4.92,-5.66 -7.4,-13.937 -7.4,-24.918 0,-10.269 2.44,-18.339 7.36,-24.062 4.87,-5.738 10.86,-8.59 18.13,-8.59 4.28,0 8.3,1.262 11.97,3.731 3.71,2.519 6.64,6.269 8.83,11.269 2.21,5.012 3.32,11.07 3.32,18.141 m -50.84,37.679 v -3.109 c 4.86,6.02 9.94,10.43 15.25,13.238 5.18,2.852 11.18,4.282 17.82,4.282 7.95,0 15.35,-2.09 22.07,-6.168 6.72,-4.141 11.99,-10.161 15.9,-18.071 3.88,-7.949 5.86,-17.301 5.86,-28.14 0,-7.95 -1.14,-15.321 -3.36,-22.02 -2.25,-6.672 -5.38,-12.262 -9.3,-16.789 -3.93,-4.492 -8.56,-8.012 -13.89,-10.453 -5.43,-2.418 -11.11,-3.629 -17.28,-3.629 -7.39,0 -13.64,1.48 -18.66,4.469 -5.01,2.91 -9.82,7.32 -14.41,13.051 v -38.93 c 0,-11.352 -4.16,-17.09 -12.44,-17.09 -4.9,0 -8.09,1.461 -9.71,4.391 -1.52,2.988 -2.34,7.23 -2.34,12.91 v 111.941 c 0,4.938 1.07,8.59 3.2,11.067 2.15,2.39 5.12,3.64 8.85,3.64 3.69,0 6.66,-1.25 8.96,-3.738 2.35,-2.531 3.48,-6.109 3.48,-10.852" /><path
         id="path46"
         style="fill:#b42e25;fill-opacity:1;fill-rule:nonzero;stroke:none"
         d="m 4651.64,329.242 v -75.023 c 0,-5.16 -1.23,-9.078 -3.69,-11.719 -2.5,-2.699 -5.61,-4 -9.41,-4 -3.81,0 -6.86,1.32 -9.28,4.059 -2.35,2.75 -3.56,6.64 -3.56,11.66 V 328.5 c 0,5.09 1.21,8.941 3.56,11.539 2.42,2.641 5.47,3.91 9.28,3.91 3.8,0 6.91,-1.269 9.41,-3.91 2.46,-2.598 3.69,-6.23 3.69,-10.797 m -12.83,26.778 c -3.63,0 -6.7,1.152 -9.24,3.351 -2.6,2.231 -3.87,5.32 -3.87,9.359 0,3.692 1.31,6.7 3.97,9.102 2.62,2.348 5.66,3.559 9.14,3.559 3.4,0 6.35,-1.059 8.92,-3.192 2.6,-2.179 3.91,-5.347 3.91,-9.469 0,-3.98 -1.27,-7.109 -3.77,-9.359 -2.54,-2.199 -5.55,-3.351 -9.06,-3.351" /><path
         id="path48"
         style="fill:#b42e25;fill-opacity:1;fill-rule:nonzero;stroke:none"
         d="m 4735.23,250.332 -22.83,37.66 -14.08,-13.281 v -20.672 c 0,-4.98 -1.33,-8.809 -3.96,-11.48 -2.58,-2.739 -5.67,-4.059 -9.07,-4.059 -3.98,0 -7.15,1.301 -9.41,4 -2.27,2.641 -3.44,6.559 -3.44,11.742 v 110.617 c 0,5.75 1.15,10.121 3.32,13.153 2.23,3.039 5.45,4.508 9.53,4.508 3.99,0 7.13,-1.372 9.5,-4.098 2.34,-2.723 3.53,-6.742 3.53,-12.031 v -62.93 l 29.16,30.621 c 3.61,3.77 6.33,6.41 8.26,7.789 1.9,1.391 4.2,2.078 6.9,2.078 3.26,0 5.93,-1.039 8.16,-3.09 2.11,-2.05 3.2,-4.648 3.2,-7.738 0,-3.781 -3.53,-8.879 -10.54,-15.211 l -13.77,-12.621 26.58,-41.828 c 1.93,-3.129 3.4,-5.43 4.24,-7.051 0.84,-1.609 1.31,-3.211 1.31,-4.629 0,-4.121 -1.16,-7.351 -3.42,-9.75 -2.25,-2.359 -5.24,-3.531 -8.85,-3.531 -3.16,0 -5.64,0.801 -7.34,2.551 -1.7,1.719 -4.07,4.828 -6.98,9.281" /><path
         id="path50"
         style="fill:#b42e25;fill-opacity:1;fill-rule:nonzero;stroke:none"
         d="m 4791.6,238.5 c -3.92,0 -7.28,1.25 -10.14,3.801 -2.85,2.488 -4.29,6.058 -4.29,10.648 0,3.852 1.38,7.192 4.1,9.942 2.75,2.789 6.07,4.199 10.08,4.199 3.98,0 7.36,-1.41 10.23,-4.121 2.8,-2.758 4.22,-6.129 4.22,-10.02 0,-4.527 -1.42,-8.09 -4.22,-10.609 -2.87,-2.59 -6.19,-3.84 -9.98,-3.84" /><path
         id="path52"
         style="fill:#b42e25;fill-opacity:1;fill-rule:nonzero;stroke:none"
         d="m 4920.59,270.59 c 0,-3.211 -0.98,-6.68 -2.91,-10.34 -1.92,-3.711 -4.89,-7.18 -8.87,-10.5 -3.95,-3.32 -8.91,-6.02 -14.94,-8.031 -6.02,-2.028 -12.82,-3.071 -20.32,-3.071 -16.05,0 -28.57,4.692 -37.57,14.012 -8.95,9.352 -13.46,21.891 -13.46,37.59 0,10.691 2.05,20.059 6.19,28.25 4.08,8.141 10.04,14.469 17.81,18.941 7.8,4.469 17.17,6.7 27.95,6.7 6.74,0 12.87,-0.981 18.52,-2.95 5.6,-1.949 10.33,-4.511 14.26,-7.601 3.86,-3.141 6.85,-6.418 8.88,-9.918 2.07,-3.512 3.09,-6.801 3.09,-9.863 0,-3.09 -1.13,-5.719 -3.44,-7.868 -2.34,-2.152 -5.15,-3.242 -8.38,-3.242 -2.19,0 -3.98,0.563 -5.41,1.66 -1.44,1.11 -3.04,2.891 -4.78,5.411 -3.19,4.781 -6.47,8.41 -9.96,10.8 -3.44,2.422 -7.82,3.61 -13.15,3.61 -7.62,0 -13.83,-2.969 -18.53,-8.969 -4.67,-5.949 -7.03,-14.191 -7.03,-24.551 0,-4.879 0.62,-9.39 1.83,-13.469 1.17,-4.07 2.91,-7.562 5.2,-10.429 2.3,-2.871 5.04,-5.063 8.26,-6.551 3.24,-1.539 6.81,-2.262 10.64,-2.262 5.22,0 9.67,1.211 13.36,3.61 3.77,2.402 7.03,6.082 9.87,11.023 1.58,2.91 3.28,5.168 5.09,6.828 1.82,1.641 4.09,2.5 6.76,2.5 3.16,0 5.8,-1.23 7.85,-3.629 2.11,-2.402 3.19,-4.98 3.19,-7.691" /><path
         id="path54"
         style="fill:#b42e25;fill-opacity:1;fill-rule:nonzero;stroke:none"
         d="m 5006.45,291.191 c 0,10.59 -2.35,18.809 -6.98,24.688 -4.63,5.961 -10.9,8.891 -18.75,8.891 -5.08,0 -9.55,-1.329 -13.42,-3.95 -3.86,-2.621 -6.81,-6.48 -8.9,-11.64 -2.09,-5.141 -3.15,-11.129 -3.15,-17.989 0,-6.781 1.02,-12.671 3.09,-17.73 2.09,-5.102 5.02,-8.973 8.87,-11.66 3.84,-2.66 8.34,-4.051 13.51,-4.051 7.85,0 14.12,2.969 18.75,8.93 4.63,5.902 6.98,14.101 6.98,24.511 m 26.03,0 c 0,-7.691 -1.21,-14.839 -3.55,-21.39 -2.47,-6.52 -5.92,-12.121 -10.49,-16.77 -4.55,-4.691 -10.02,-8.281 -16.33,-10.801 -6.39,-2.48 -13.5,-3.75 -21.39,-3.75 -7.85,0 -14.92,1.27 -21.21,3.821 -6.23,2.488 -11.7,6.14 -16.25,10.82 -4.61,4.77 -8.08,10.34 -10.53,16.758 -2.28,6.453 -3.49,13.562 -3.49,21.312 0,7.868 1.23,15.059 3.57,21.579 2.42,6.55 5.9,12.128 10.39,16.742 4.51,4.609 9.94,8.168 16.31,10.699 6.45,2.488 13.5,3.738 21.21,3.738 7.85,0 14.98,-1.25 21.39,-3.808 6.39,-2.52 11.84,-6.161 16.44,-10.801 4.58,-4.75 8.03,-10.301 10.4,-16.719 2.34,-6.512 3.53,-13.601 3.53,-21.43" /><path
         id="path56"
         style="fill:#b42e25;fill-opacity:1;fill-rule:nonzero;stroke:none"
         d="M 5131.41,289.301 V 254.82 c 0,-5.461 -1.21,-9.511 -3.7,-12.261 -2.5,-2.739 -5.72,-4.079 -9.78,-4.079 -3.93,0 -7.13,1.34 -9.51,4.079 -2.46,2.75 -3.71,6.8 -3.71,12.261 v 41.309 c 0,6.551 -0.22,11.621 -0.65,15.262 -0.45,3.531 -1.68,6.539 -3.61,8.82 -1.97,2.348 -5.1,3.519 -9.32,3.519 -8.49,0 -14.06,-2.91 -16.75,-8.808 -2.68,-5.762 -4.07,-14.141 -4.07,-25.082 v -35.02 c 0,-5.371 -1.23,-9.449 -3.61,-12.218 -2.5,-2.743 -5.68,-4.122 -9.65,-4.122 -3.96,0 -7.17,1.379 -9.67,4.122 -2.52,2.769 -3.77,6.847 -3.77,12.218 v 74.2 c 0,4.89 1.12,8.601 3.36,11.121 2.29,2.558 5.26,3.808 8.89,3.808 3.57,0 6.52,-1.238 8.93,-3.558 2.36,-2.379 3.53,-5.661 3.53,-9.84 v -2.442 c 4.53,5.352 9.36,9.313 14.45,11.789 5.16,2.602 10.82,3.872 17.13,3.872 6.51,0 12.11,-1.309 16.78,-3.911 4.69,-2.589 8.53,-6.539 11.6,-11.75 4.4,5.27 9.08,9.211 14.1,11.789 5,2.582 10.53,3.872 16.62,3.872 7.05,0 13.21,-1.43 18.34,-4.2 5.1,-2.769 8.93,-6.8 11.47,-11.949 2.21,-4.73 3.3,-12.09 3.3,-22.172 V 254.82 c 0,-5.461 -1.21,-9.511 -3.67,-12.261 -2.46,-2.739 -5.74,-4.079 -9.79,-4.079 -3.94,0 -7.15,1.379 -9.65,4.122 -2.5,2.769 -3.77,6.847 -3.77,12.218 v 43.621 c 0,5.579 -0.23,10.039 -0.68,13.379 -0.47,3.379 -1.78,6.211 -3.83,8.469 -2.13,2.27 -5.31,3.441 -9.53,3.441 -3.42,0 -6.66,-1.07 -9.74,-3.089 -3.07,-1.969 -5.47,-4.762 -7.21,-8.121 -1.86,-4.379 -2.83,-12.129 -2.83,-23.219" /><path
         id="path58"
         style="fill:#b42e25;fill-opacity:1;fill-rule:nonzero;stroke:none"
         d="m 3924.36,297.48 c -0.02,0.04 -0.02,0.102 -0.02,0.18 0,-0.078 0,-0.14 0.02,-0.18" /><path
         id="path60"
         style="fill:#b42e25;fill-opacity:1;fill-rule:nonzero;stroke:none"
         d="m 3925.66,289.18 c 0.02,0 0.02,0 0.03,0 -0.49,2.359 -0.89,4.711 -1.18,7.031 0.29,-2.34 0.69,-4.691 1.15,-7.031" /><path
         id="path62"
         style="fill:#b42e25;fill-opacity:1;fill-rule:nonzero;stroke:none"
         d="m 3934.25,265.121 c -0.06,0.09 -0.11,0.211 -0.17,0.328 0.06,-0.117 0.11,-0.238 0.17,-0.328" /><path
         id="path64"
         style="fill:#b42e25;fill-opacity:1;fill-rule:nonzero;stroke:none"
         d="m 3933.43,266.719 c -0.23,0.453 -0.44,0.902 -0.66,1.351 0.22,-0.468 0.43,-0.898 0.66,-1.351" /><path
         id="path66"
         style="fill:#b42e25;fill-opacity:1;fill-rule:nonzero;stroke:none"
         d="m 3928.08,279.922 c 1.27,-4 2.8,-7.891 4.57,-11.582 -1.81,3.769 -3.3,7.66 -4.54,11.582 0,0 -0.02,0 -0.03,0" /><path
         id="path68"
         style="fill:#b42e25;fill-opacity:1;fill-rule:nonzero;stroke:none"
         d="m 4024.73,396.84 c 5.02,0 8.71,-0.391 12.95,-1.121 l 1.21,7.64 c 0,0 -11.72,3.59 -27.11,2.34 l -1.21,4.141 c 4.78,1.019 8.38,5.281 8.38,10.359 0,5.821 -4.75,10.52 -10.57,10.52 -5.84,0 -10.57,-4.699 -10.57,-10.52 0,-5.078 3.6,-9.34 8.36,-10.359 l 1.35,-4.629 c -16.35,-2.242 -29.36,-8.609 -29.36,-8.609 l 2.31,-7.051 c 9.88,3.281 18.46,5.289 26.24,6.129 7.62,0.8 13.35,1.16 18.02,1.16" /><path
         id="path70"
         style="fill:#b42e25;fill-opacity:1;fill-rule:nonzero;stroke:none"
         d="m 3934.05,358.262 0.06,0.078 c 0.38,0.492 0.75,0.961 1.13,1.43 l -3.13,2.242 -4.87,3.578 c -0.28,-0.391 -7.95,-7.449 -14.02,-20.488 -0.25,0.41 -0.55,0.82 -0.9,1.187 -1.81,1.992 -4.35,3.012 -7.57,2.953 -0.04,0 -0.1,0 -0.16,0 -1.99,0 -3.36,0.656 -4.26,1.457 0.89,1.141 1.43,2.563 1.43,4.141 0,3.68 -3,6.68 -6.7,6.68 -3.68,0 -6.68,-3 -6.68,-6.68 0,-3.711 3,-6.699 6.68,-6.699 0.58,0 1.13,0.097 1.68,0.218 1.64,-1.839 4.25,-3.418 8.06,-3.339 1.98,0.019 3.42,-0.489 4.38,-1.559 1.11,-1.211 1.48,-2.949 1.6,-4.281 -0.01,-0.02 -0.01,-0.039 -0.03,-0.039 -4.35,-11.891 -3.11,-26.7 -3.11,-26.7 l 10.57,-0.429 c 0.22,5.386 0.99,14.828 3.72,22.308 5.26,14.489 11.86,23.551 12.12,23.942" /><path
         id="path72"
         style="fill:#b42e25;fill-opacity:1;fill-rule:nonzero;stroke:none"
         d="m 4116.72,388.012 c -3.67,0 -6.68,-2.992 -6.68,-6.703 0,-0.571 0.08,-1.11 0.23,-1.637 -1.83,-1.66 -3.43,-4.281 -3.38,-8.113 0.04,-1.969 -0.46,-3.399 -1.54,-4.368 -0.84,-0.742 -1.91,-1.152 -2.95,-1.41 -7.87,11.039 -17.56,17.758 -17.56,17.758 l -7.59,-8.129 c 5.74,-5.211 11.6,-11.762 17.28,-19.898 3.95,-5.653 7.99,-12.91 11.37,-20.16 l 10.23,4.859 c 0,0 -4.67,11.57 -11.25,21.918 1.14,0.41 2.29,1.031 3.3,1.93 2.02,1.8 2.99,4.363 2.93,7.582 -0.02,2.07 0.67,3.48 1.49,4.41 1.15,-0.871 2.58,-1.422 4.12,-1.422 3.71,0 6.7,2.992 6.7,6.68 0,3.711 -2.99,6.703 -6.7,6.703" /><path
         id="path74"
         style="fill:#b42e25;fill-opacity:1;fill-rule:nonzero;stroke:none"
         d="m 4090.16,295.98 c -14.11,-6.859 -37.29,-15.941 -67.82,-20.199 -11.99,-1.66 -23.59,-2.261 -34.28,-2.261 -13.91,0 -26.2,1.031 -35.63,2.218 -10.76,1.352 -19.17,3.012 -24.32,4.184 1.24,-3.922 2.73,-7.813 4.54,-11.582 0.03,-0.102 0.07,-0.219 0.12,-0.27 0.22,-0.449 0.43,-0.898 0.66,-1.351 0.21,-0.43 0.43,-0.86 0.65,-1.27 0.06,-0.117 0.11,-0.238 0.17,-0.328 3.03,-5.711 6.67,-10.941 10.81,-15.492 14.39,-15.738 29.06,-18.238 29.2,-18.258 l 0.23,-0.019 0.22,-0.082 c 0.13,-0.059 13.14,-4.258 32.91,-4.258 19.45,0 38.55,3.929 56.74,11.679 13.47,6.899 26.23,17.36 32.53,26.7 4.89,7.23 8.42,14.918 10.51,22.929 1.12,4.262 1.99,11.071 1.47,18.262 -3.97,-2.672 -10.24,-6.461 -18.71,-10.602" /><path
         id="path76"
         style="fill:#b42e25;fill-opacity:1;fill-rule:nonzero;stroke:none"
         d="m 3978.86,362.289 c 15.56,0 28.17,-12.617 28.17,-28.187 0,-15.551 -12.61,-28.141 -28.17,-28.141 -15.55,0 -28.16,12.59 -28.16,28.141 0,15.57 12.61,28.187 28.16,28.187 z m 82.41,-0.707 c 9.61,0 17.44,-7.812 17.44,-17.422 0,-9.629 -7.83,-17.441 -17.44,-17.441 -9.61,0 -17.42,7.812 -17.42,17.441 0,9.61 7.81,17.422 17.42,17.422 z m -122.7,-6.66 c -0.41,-0.602 -6.52,-9.262 -11.34,-22.543 -3.62,-9.938 -3.46,-24.43 -3.46,-24.59 v -0.039 c 0,-3.391 0.19,-6.75 0.57,-10.09 0,-0.078 0,-0.14 0.02,-0.18 0.03,-0.429 0.11,-0.839 0.15,-1.269 0.29,-2.32 0.69,-4.672 1.18,-7.031 7.01,-1.782 48.78,-11.52 95.48,-5.02 29.28,4.078 51.51,12.731 65,19.281 11.21,5.43 18.42,10.348 21.19,12.379 -2.77,10.27 -10.41,26.41 -17.42,36.469 -20.06,28.652 -41.68,35.992 -52.77,37.832 -4.24,0.68 -7.64,1.09 -12.44,1.09 -4.48,0 -10.02,-0.371 -17.43,-1.152 -7.44,-0.758 -15.72,-2.719 -25.33,-5.957 -13.47,-4.512 -25.66,-11.582 -35.26,-20.473 l -0.32,-0.309 c -1.43,-1.308 -4.4,-4.058 -7.82,-8.398" /><path
         id="path78"
         style="fill:#b42e25;fill-opacity:1;fill-rule:nonzero;stroke:none"
         d="m 6951.94,7503.95 h -785.86 v -629.56 h 778.56 l -260.33,308.41 267.63,321.15" /><path
         id="path80"
         style="fill:#711011;fill-opacity:1;fill-rule:nonzero;stroke:none"
         d="M 6440.07,7035.7 6166.08,6874.39 V 7035.7 Z" /><path
         id="path82"
         style="fill:#b42e25;fill-opacity:1;fill-rule:nonzero;stroke:none"
         d="m 1088.49,7503.23 h 785.87 v -629.54 h -778.59 l 260.33,308.4 -267.61,321.14" /><path
         id="path84"
         style="fill:#711011;fill-opacity:1;fill-rule:nonzero;stroke:none"
         d="m 1600.38,7034.96 273.98,-161.27 v 161.27 z" /><path
         id="path86"
         style="fill:#e94f2e;fill-opacity:1;fill-rule:nonzero;stroke:none"
         d="M 6442.01,7034.96 H 1599.4 v 627.93 h 4842.61 v -627.93" /><g
         transform="scale(10)"
         id="g88"><text
           id="text92"
           style="font-variant:normal;font-weight:normal;font-size:31.52289963px;font-family:Bebas;-inkscape-font-specification:Bebas;writing-mode:lr-tb;fill:#ffffff;fill-opacity:1;fill-rule:nonzero;stroke:none"
           transform="matrix(1,0,0,-1,210.696,722.326)"><tspan
             id="tspan90"
             y="0"
             x="0 16.8804 24.514688 40.633804 59.126514 67.85701 84.468803 102.06601 120.91659 139.0504 156.55719 172.7662 189.9156 206.34821 222.46735 239.37061 248.1011 263.05624 277.49661 292.45175 315.86972 330.82486 348.82584 364.94492">CITY TRANSPORTS ELEMENTS</tspan></text>
</g><path
         id="path94"
         style="fill:#b5b1a0;fill-opacity:1;fill-rule:nonzero;stroke:none"
         d="m 2589.24,4489.18 c 0,-29.13 -406.21,-52.75 -907.31,-52.75 -501.1,0 -907.313,23.62 -907.313,52.75 0,29.14 406.213,52.76 907.313,52.76 501.1,0 907.31,-23.62 907.31,-52.76" /><path
         id="path96"
         style="fill:#3f4340;fill-opacity:1;fill-rule:nonzero;stroke:none"
         d="M 854.672,4747.72 H 684.996 l 53.41,-71.64 h 112.633 c 0,0 -24.519,32.05 3.633,71.64" /><path
         id="path98"
         style="fill:#fbb138;fill-opacity:1;fill-rule:nonzero;stroke:none"
         d="M 807.602,4616.84 H 2624.76 c 131.71,0 -56.41,388.73 -182.93,388.73 H 918.477 c -89.2,0 -200.27,-388.73 -110.875,-388.73" /><path
         id="path100"
         style="fill:#fbb138;fill-opacity:1;fill-rule:nonzero;stroke:none"
         d="m 2280.63,5005.57 c 0,0 -210.97,319.21 -287.61,319.21 -76.64,0 -691.36,0 -749.03,0 -57.68,0 -108.02,-20.52 -240.48,-324.73 l 1277.12,5.52" /><path
         id="path102"
         style="fill:#d2edf3;fill-opacity:1;fill-rule:nonzero;stroke:none"
         d="m 2178.87,5007.93 c 0,0 -195.57,259.92 -248.86,259.92 -53.29,0 -598.8,0 -649.93,0 -51.11,0 -101.74,-16.73 -203.26,-264.4 l 1102.05,4.48" /><path
         id="path104"
         style="fill:#fbb138;fill-opacity:1;fill-rule:nonzero;stroke:none"
         d="m 1599.4,5002.71 h 52.29 v 306.26 h -52.29 v -306.26" /><path
         id="path106"
         style="fill:#fbb138;fill-opacity:1;fill-rule:nonzero;stroke:none"
         d="m 1760.88,5312.77 32.18,78.15 h 46.6 l 37.27,-78.15 h -116.05" /><path
         id="path108"
         style="fill:#3f4340;fill-opacity:1;fill-rule:nonzero;stroke:none"
         d="m 1964.01,4659.2 c 0,-94.6 76.68,-171.28 171.28,-171.28 94.61,0 171.3,76.68 171.3,171.28 0,94.61 -76.69,171.31 -171.3,171.31 -94.6,0 -171.28,-76.7 -171.28,-171.31" /><path
         id="path110"
         style="fill:#adadad;fill-opacity:1;fill-rule:nonzero;stroke:none"
         d="m 2036.62,4659.2 c 0,-54.49 44.19,-98.66 98.67,-98.66 54.49,0 98.67,44.17 98.67,98.66 0,54.5 -44.18,98.67 -98.67,98.67 -54.48,0 -98.67,-44.17 -98.67,-98.67" /><path
         id="path112"
         style="fill:#3f4340;fill-opacity:1;fill-rule:nonzero;stroke:none"
         d="m 998.324,4659.2 c 0,-94.6 76.686,-171.28 171.296,-171.28 94.6,0 171.29,76.68 171.29,171.28 0,94.61 -76.69,171.31 -171.29,171.31 -94.61,0 -171.296,-76.7 -171.296,-171.31" /><path
         id="path114"
         style="fill:#adadad;fill-opacity:1;fill-rule:nonzero;stroke:none"
         d="m 1070.95,4659.2 c 0,-54.49 44.17,-98.66 98.67,-98.66 54.48,0 98.67,44.17 98.67,98.66 0,54.5 -44.19,98.67 -98.67,98.67 -54.5,0 -98.67,-44.17 -98.67,-98.67" /><path
         id="path116"
         style="fill:#3f4340;fill-opacity:1;fill-rule:nonzero;stroke:none"
         d="m 1387.44,4864.28 h -64.35 v 64.35 h 64.35 v -64.35" /><path
         id="path118"
         style="fill:#3f4340;fill-opacity:1;fill-rule:nonzero;stroke:none"
         d="m 1451.8,4799.92 h -64.36 v 64.36 h 64.36 v -64.36" /><path
         id="path120"
         style="fill:#3f4340;fill-opacity:1;fill-rule:nonzero;stroke:none"
         d="m 1516.16,4864.28 h -64.36 v 64.35 h 64.36 v -64.35" /><path
         id="path122"
         style="fill:#3f4340;fill-opacity:1;fill-rule:nonzero;stroke:none"
         d="m 1580.52,4799.92 h -64.36 v 64.36 h 64.36 v -64.36" /><path
         id="path124"
         style="fill:#3f4340;fill-opacity:1;fill-rule:nonzero;stroke:none"
         d="m 1632.17,4864.28 h -64.36 v 64.35 h 64.36 v -64.35" /><path
         id="path126"
         style="fill:#3f4340;fill-opacity:1;fill-rule:nonzero;stroke:none"
         d="m 1696.53,4799.92 h -64.36 v 64.36 h 64.36 v -64.36" /><path
         id="path128"
         style="fill:#3f4340;fill-opacity:1;fill-rule:nonzero;stroke:none"
         d="m 1760.88,4864.28 h -64.35 v 64.35 h 64.35 v -64.35" /><path
         id="path130"
         style="fill:#3f4340;fill-opacity:1;fill-rule:nonzero;stroke:none"
         d="m 1825.24,4799.92 h -64.36 v 64.36 h 64.36 v -64.36" /><path
         id="path132"
         style="fill:#3f4340;fill-opacity:1;fill-rule:nonzero;stroke:none"
         d="m 1889.6,4864.28 h -64.36 v 64.35 h 64.36 v -64.35" /><path
         id="path134"
         style="fill:#f7dcb3;fill-opacity:1;fill-rule:nonzero;stroke:none"
         d="m 2573.71,4906.13 0.02,0.06 c -41.52,56.88 -90.07,99.38 -131.9,99.38 h -45.86 c 0,0 0.75,-2.02 2.35,-5.5 10.79,-23.47 60.06,-113.24 175.39,-93.94" /><path
         id="path136"
         style="fill:#ed3224;fill-opacity:1;fill-rule:nonzero;stroke:none"
         d="m 818.715,4877.79 c 141.969,33.69 69.504,73.34 43.629,84.81 -15.707,-22.56 -30.66,-52.26 -43.629,-84.81" /><path
         id="path138"
         style="fill:#b5b1a0;fill-opacity:1;fill-rule:nonzero;stroke:none"
         d="m 7156.28,4489.18 c 0,-29.13 -406.21,-52.75 -907.32,-52.75 -501.09,0 -907.3,23.62 -907.3,52.75 0,29.14 406.21,52.76 907.3,52.76 501.11,0 907.32,-23.62 907.32,-52.76" /><path
         id="path140"
         style="fill:#ffffff;fill-opacity:1;fill-rule:nonzero;stroke:none"
         d="m 7324.45,4588.81 c 0,0 24.08,325.02 -120.38,391.21 0,0 -331,30.08 -397.21,60.19 0,0 -174.55,258.8 -210.67,264.81 -36.1,6.02 -288.88,0 -288.88,0 v -716.21 h 1017.14" /><path
         id="path142"
         style="fill:#3f4340;fill-opacity:1;fill-rule:nonzero;stroke:none"
         d="m 5381.03,4785.72 h -169.68 l 53.42,-71.64 h 112.62 c 0,0 -24.52,32.05 3.64,71.64" /><path
         id="path144"
         style="fill:#ffffff;fill-opacity:1;fill-rule:nonzero;stroke:none"
         d="m 5296.19,4588.81 h 1011.12 v 872.68 H 5296.19 v -872.68" /><path
         id="path146"
         style="fill:#d2edf3;fill-opacity:1;fill-rule:nonzero;stroke:none"
         d="m 6731.61,5025.14 c 0,0 -138.43,210.69 -156.49,213.69 -18.04,3 -165.51,0 -165.51,0 v -213.69 h 322" /><path
         id="path148"
         style="fill:#f0552e;fill-opacity:1;fill-rule:nonzero;stroke:none"
         d="m 5295.53,4777.96 h 1755.06 v 75.87 H 5295.53 v -75.87" /><path
         id="path150"
         style="fill:#f0552e;fill-opacity:1;fill-rule:nonzero;stroke:none"
         d="m 5295.53,4650.69 h 1755.06 v 75.88 H 5295.53 v -75.88" /><path
         id="path152"
         style="fill:#f0552e;fill-opacity:1;fill-rule:nonzero;stroke:none"
         d="m 5939.37,5234.25 h -83.5 v 83.5 h -108.24 v -83.5 h -83.5 v -108.23 h 83.5 v -83.52 h 108.24 v 83.52 h 83.5 v 108.23" /><path
         id="path154"
         style="fill:#3f4340;fill-opacity:1;fill-rule:nonzero;stroke:none"
         d="m 6816.64,4676.08 c 0,-103.93 84.24,-188.16 188.16,-188.16 103.95,0 188.2,84.23 188.2,188.16 0,103.94 -84.25,188.19 -188.2,188.19 -103.92,0 -188.16,-84.25 -188.16,-188.19" /><path
         id="path156"
         style="fill:#adadad;fill-opacity:1;fill-rule:nonzero;stroke:none"
         d="m 6896.41,4676.08 c 0,-59.86 48.55,-108.38 108.39,-108.38 59.87,0 108.41,48.52 108.41,108.38 0,59.87 -48.54,108.4 -108.41,108.4 -59.84,0 -108.39,-48.53 -108.39,-108.4" /><path
         id="path158"
         style="fill:#3f4340;fill-opacity:1;fill-rule:nonzero;stroke:none"
         d="m 5475.95,4676.08 c 0,-103.93 84.24,-188.16 188.17,-188.16 103.94,0 188.18,84.23 188.18,188.16 0,103.94 -84.24,188.19 -188.18,188.19 -103.93,0 -188.17,-84.25 -188.17,-188.19" /><path
         id="path160"
         style="fill:#adadad;fill-opacity:1;fill-rule:nonzero;stroke:none"
         d="m 5555.72,4676.08 c 0,-59.86 48.55,-108.38 108.4,-108.38 59.85,0 108.4,48.52 108.4,108.38 0,59.87 -48.55,108.4 -108.4,108.4 -59.85,0 -108.4,-48.53 -108.4,-108.4" /><path
         id="path162"
         style="fill:#f7dcb3;fill-opacity:1;fill-rule:nonzero;stroke:none"
         d="m 7204.07,4980.02 c 0,0 -34.03,3.1 -82.37,8.28 v 0 c 0,0 -1.23,-98.01 165.48,-105.29 -18.2,43.32 -44.64,79.38 -83.11,97.01" /><path
         id="path164"
         style="fill:#ed3224;fill-opacity:1;fill-rule:nonzero;stroke:none"
         d="m 5297.16,4900.94 h -31.49 v 59.82 h 31.49 v -59.82" /><path
         id="path166"
         style="fill:#b5b1a0;fill-opacity:1;fill-rule:nonzero;stroke:none"
         d="m 4842.23,4489.18 c 0,-29.13 -406.21,-52.75 -907.31,-52.75 -501.1,0 -907.31,23.62 -907.31,52.75 0,29.14 406.21,52.76 907.31,52.76 501.1,0 907.31,-23.62 907.31,-52.76" /><path
         id="path168"
         style="fill:#3f4340;fill-opacity:1;fill-rule:nonzero;stroke:none"
         d="m 3077.72,4747.72 h -169.68 l 53.42,-71.64 h 112.62 c 0,0 -24.51,32.05 3.64,71.64" /><path
         id="path170"
         style="fill:#3d3d3d;fill-opacity:1;fill-rule:nonzero;stroke:none"
         d="m 3030.65,4616.83 h 1805.14 c 78.45,0 80.35,212.19 5.74,259.91 -82.16,52.55 -313.02,128.83 -364.19,128.83 H 3141.52 c -89.2,0 -200.27,-388.74 -110.87,-388.74" /><path
         id="path172"
         style="fill:#3d3d3d;fill-opacity:1;fill-rule:nonzero;stroke:none"
         d="m 4514.63,5000.05 c 0,0 -375.29,267.79 -457.46,267.79 -82.17,0 -603.03,0 -664.87,0 -61.83,0 -115.8,-16.92 -257.8,-267.79 h 1380.13" /><path
         id="path174"
         style="fill:#939292;fill-opacity:1;fill-rule:nonzero;stroke:none"
         d="m 4394.59,5006.55 c 0,0 -281.73,214.34 -338.85,214.34 -57.13,0 -569.93,0 -624.74,0 -54.78,0 -109.07,-13.79 -217.91,-218.04 l 1181.5,3.7" /><path
         id="path176"
         style="fill:#3d3d3d;fill-opacity:1;fill-rule:nonzero;stroke:none"
         d="m 3641.26,5002.24 h 56.05 v 252.57 h -56.05 v -252.57" /><path
         id="path178"
         style="fill:#3d3d3d;fill-opacity:1;fill-rule:nonzero;stroke:none"
         d="m 3975.95,5254.81 h -80.05 v 43.45 h 80.05 v -43.45" /><path
         id="path180"
         style="fill:#ef4a27;fill-opacity:1;fill-rule:nonzero;stroke:none"
         d="m 4000.97,5313.94 c 0,-15.99 -29.58,-28.95 -66.05,-28.95 -36.47,0 -66.04,12.96 -66.04,28.95 0,15.98 29.57,28.95 66.04,28.95 36.47,0 66.05,-12.97 66.05,-28.95" /><path
         id="path182"
         style="fill:#eaf2f3;fill-opacity:1;fill-rule:nonzero;stroke:none"
         d="m 3588.16,4676.09 c 0,0 18.65,323.58 56.67,329.59 h 380.23 c 0,0 39.77,19.76 49.65,-329.59 h -486.55" /><path
         id="path184"
         style="fill:#3d3d3d;fill-opacity:1;fill-rule:nonzero;stroke:none"
         d="m 3756.29,4935.34 c 0,0 39.69,-26.18 68.42,0 0,0 21.96,-24.5 70.11,0 0,0 59.96,-130.09 -69.27,-185.83 0,0 -129.24,42.23 -69.26,185.83" /><path
         id="path186"
         style="fill:#f7dcb3;fill-opacity:1;fill-rule:nonzero;stroke:none"
         d="m 4841.53,4876.74 c -20.67,13.22 -50.76,27.94 -85.02,42.57 0,0 -7.04,-97.65 128.13,-108.1 -9.02,28.69 -23.36,52.9 -43.11,65.53" /><path
         id="path188"
         style="fill:#ed3224;fill-opacity:1;fill-rule:nonzero;stroke:none"
         d="m 3033.08,4854.77 c 142.34,37.9 80.55,80.55 45.65,97.78 -16.85,-26.71 -32.6,-61.15 -45.65,-97.78" /><path
         id="path190"
         style="fill:#3f4340;fill-opacity:1;fill-rule:nonzero;stroke:none"
         d="m 4217.97,4659.19 c 0,-94.59 76.67,-171.27 171.28,-171.27 94.61,0 171.3,76.68 171.3,171.27 0,94.62 -76.69,171.31 -171.3,171.31 -94.61,0 -171.28,-76.69 -171.28,-171.31" /><path
         id="path192"
         style="fill:#adadad;fill-opacity:1;fill-rule:nonzero;stroke:none"
         d="m 4290.58,4659.19 c 0,-54.48 44.19,-98.65 98.67,-98.65 54.48,0 98.68,44.17 98.68,98.65 0,54.51 -44.2,98.68 -98.68,98.68 -54.48,0 -98.67,-44.17 -98.67,-98.68" /><path
         id="path194"
         style="fill:#3f4340;fill-opacity:1;fill-rule:nonzero;stroke:none"
         d="m 3186.16,4659.19 c 0,-94.59 76.69,-171.27 171.3,-171.27 94.6,0 171.29,76.68 171.29,171.27 0,94.62 -76.69,171.31 -171.29,171.31 -94.61,0 -171.3,-76.69 -171.3,-171.31" /><path
         id="path196"
         style="fill:#adadad;fill-opacity:1;fill-rule:nonzero;stroke:none"
         d="m 3258.79,4659.19 c 0,-54.48 44.17,-98.65 98.67,-98.65 54.47,0 98.67,44.17 98.67,98.65 0,54.51 -44.2,98.68 -98.67,98.68 -54.5,0 -98.67,-44.17 -98.67,-98.68" /><path
         id="path198"
         style="fill:#b5b1a0;fill-opacity:1;fill-rule:nonzero;stroke:none"
         d="m 2044.69,5944.58 c 0,-29.14 -286.21,-52.75 -639.27,-52.75 -353.07,0 -639.275,23.61 -639.275,52.75 0,29.14 286.205,52.75 639.275,52.75 353.06,0 639.27,-23.61 639.27,-52.75" /><path
         id="path200"
         style="fill:#00b082;fill-opacity:1;fill-rule:nonzero;stroke:none"
         d="M 804.371,6048.97 H 2042.07 c 0,0 -14.92,275.59 -366.93,275.59 0,0 -37.74,269.73 -339.24,269.73 -285.99,0 -304.24,-275.65 -304.24,-275.65 0,0 -189.984,-50.93 -227.289,-269.67" /><path
         id="path202"
         style="fill:#3f4340;fill-opacity:1;fill-rule:nonzero;stroke:none"
         d="m 824.609,6105.33 h -55.843 v -56.36 h 35.605 c 0,0 9.192,25.21 20.238,56.36" /><path
         id="path204"
         style="fill:#3f4340;fill-opacity:1;fill-rule:nonzero;stroke:none"
         d="m 1291.47,6058.42 c 0,-64.4 -52.21,-116.59 -116.61,-116.59 -64.39,0 -116.59,52.19 -116.59,116.59 0,64.4 52.2,116.6 116.59,116.6 64.4,0 116.61,-52.2 116.61,-116.6" /><path
         id="path206"
         style="fill:#adadad;fill-opacity:1;fill-rule:nonzero;stroke:none"
         d="m 1242.03,6058.42 c 0,-37.09 -30.07,-67.16 -67.17,-67.16 -37.09,0 -67.16,30.07 -67.16,67.16 0,37.1 30.07,67.17 67.16,67.17 37.1,0 67.17,-30.07 67.17,-67.17" /><path
         id="path208"
         style="fill:#3f4340;fill-opacity:1;fill-rule:nonzero;stroke:none"
         d="m 1720.42,6058.42 c 0,-64.4 -52.2,-116.59 -116.6,-116.59 -64.39,0 -116.6,52.19 -116.6,116.59 0,64.4 52.21,116.6 116.6,116.6 64.4,0 116.6,-52.2 116.6,-116.6" /><path
         id="path210"
         style="fill:#adadad;fill-opacity:1;fill-rule:nonzero;stroke:none"
         d="m 1670.99,6058.42 c 0,-37.09 -30.07,-67.16 -67.17,-67.16 -37.09,0 -67.16,30.07 -67.16,67.16 0,37.1 30.07,67.17 67.16,67.17 37.1,0 67.17,-30.07 67.17,-67.17" /><path
         id="path212"
         style="fill:#d2edf3;fill-opacity:1;fill-rule:nonzero;stroke:none"
         d="m 1114,6321.64 c 0,0 21.18,188.91 225.09,188.91 221.55,0 255.43,-188.91 255.43,-188.91 H 1114" /><path
         id="path214"
         style="fill:#ecd631;fill-opacity:1;fill-rule:nonzero;stroke:none"
         d="m 1904.16,6206.58 c 19.8,0 37.25,10.01 47.6,25.24 -24.89,23.55 -56.65,45.07 -97.11,61.48 -5.07,-8.57 -8.02,-18.52 -8.02,-29.19 0,-31.78 25.75,-57.53 57.53,-57.53" /><path
         id="path216"
         style="fill:#ed3224;fill-opacity:1;fill-rule:nonzero;stroke:none"
         d="m 885.605,6222.62 c 11.036,-9.94 25.602,-16.04 41.625,-16.04 34.403,0 62.29,27.89 62.29,62.29 0,10.51 -2.625,20.41 -7.231,29.09 -28.066,-14.71 -63.973,-38.56 -96.684,-75.34" /><path
         id="path218"
         style="fill:#b5b1a0;fill-opacity:1;fill-rule:nonzero;stroke:none"
         d="m 3290.41,5944.58 c 0,-29.14 -246.94,-52.75 -551.56,-52.75 -304.62,0 -551.56,23.61 -551.56,52.75 0,29.14 246.94,52.75 551.56,52.75 304.62,0 551.56,-23.61 551.56,-52.75" /><path
         id="path220"
         style="fill:#3f4340;fill-opacity:1;fill-rule:nonzero;stroke:none"
         d="m 2320.77,6105.33 h -133.48 l 42.01,-56.36 h 88.6 c 0,0 -19.29,25.21 2.87,56.36" /><path
         id="path222"
         style="fill:#f0552e;fill-opacity:1;fill-rule:nonzero;stroke:none"
         d="m 2690.77,6048.97 h -379.25 c 0,0 -100.92,30.15 -72.63,177.53 0,0 86.72,326.81 451.88,326.81 99.13,0 220.26,-15.47 372.93,-127.98 196.51,-144.81 345.28,-320 94.88,-376.36 h -467.81" /><path
         id="path224"
         style="fill:#b5e2f0;fill-opacity:1;fill-rule:nonzero;stroke:none"
         d="m 2356.04,6280.82 c 0,0 101.37,213.59 317,213.59 v -213.59 h -317" /><path
         id="path226"
         style="fill:#b5e2f0;fill-opacity:1;fill-rule:nonzero;stroke:none"
         d="m 3102.38,6280.82 c 0,0 -133.63,213.59 -382.72,213.59 v -213.59 h 382.72" /><path
         id="path228"
         style="fill:#ecd631;fill-opacity:1;fill-rule:nonzero;stroke:none"
         d="m 3218.24,6290.74 c -12.72,-10.51 -20.84,-26.4 -20.84,-44.2 0,-31.63 25.65,-57.28 57.29,-57.28 9.86,0 19.15,2.5 27.25,6.89 -11.44,29.8 -33.89,61.85 -63.7,94.59" /><path
         id="path230"
         style="fill:#ed9c21;fill-opacity:1;fill-rule:nonzero;stroke:none"
         d="m 2234.55,6193.49 c 6.2,-2.69 13.01,-4.23 20.2,-4.23 28.02,0 50.74,22.72 50.74,50.74 0,24.89 -17.96,45.51 -41.6,49.82 -18.09,-37.32 -25,-63.32 -25,-63.32 -2.26,-11.76 -3.61,-22.7 -4.34,-33.01" /><path
         id="path232"
         style="fill:#3f4340;fill-opacity:1;fill-rule:nonzero;stroke:none"
         d="m 2589.24,6058.42 c 0,-64.4 -52.2,-116.59 -116.59,-116.59 -64.4,0 -116.61,52.19 -116.61,116.59 0,64.4 52.21,116.6 116.61,116.6 64.39,0 116.59,-52.2 116.59,-116.6" /><path
         id="path234"
         style="fill:#adadad;fill-opacity:1;fill-rule:nonzero;stroke:none"
         d="m 2539.81,6058.42 c 0,-37.09 -30.07,-67.16 -67.16,-67.16 -37.09,0 -67.17,30.07 -67.17,67.16 0,37.1 30.08,67.17 67.17,67.17 37.09,0 67.16,-30.07 67.16,-67.17" /><path
         id="path236"
         style="fill:#3f4340;fill-opacity:1;fill-rule:nonzero;stroke:none"
         d="m 3109.31,6058.42 c 0,-64.4 -52.2,-116.59 -116.6,-116.59 -64.39,0 -116.6,52.19 -116.6,116.59 0,64.4 52.21,116.6 116.6,116.6 64.4,0 116.6,-52.2 116.6,-116.6" /><path
         id="path238"
         style="fill:#adadad;fill-opacity:1;fill-rule:nonzero;stroke:none"
         d="m 3059.88,6058.42 c 0,-37.09 -30.07,-67.16 -67.17,-67.16 -37.08,0 -67.16,30.07 -67.16,67.16 0,37.1 30.08,67.17 67.16,67.17 37.1,0 67.17,-30.07 67.17,-67.17" /><path
         id="path240"
         style="fill:#b5b1a0;fill-opacity:1;fill-rule:nonzero;stroke:none"
         d="m 4840.94,5944.58 c 0,-29.14 -299.65,-52.75 -669.3,-52.75 -369.64,0 -669.3,23.61 -669.3,52.75 0,29.14 299.66,52.75 669.3,52.75 369.65,0 669.3,-23.61 669.3,-52.75" /><path
         id="path242"
         style="fill:#76b4e2;fill-opacity:1;fill-rule:nonzero;stroke:none"
         d="m 4596.33,6364.24 c 0,0 -165.96,251.12 -226.25,251.12 -60.29,0 -543.89,0 -589.25,0 -45.38,0 -84.98,-16.15 -189.18,-255.46 l 1004.68,4.34" /><path
         id="path244"
         style="fill:#3f4340;fill-opacity:1;fill-rule:nonzero;stroke:none"
         d="m 3569.64,6161.4 h -133.48 l 42.02,-56.36 h 88.6 c 0,0 -19.28,25.22 2.86,56.36" /><path
         id="path246"
         style="fill:#76b4e2;fill-opacity:1;fill-rule:nonzero;stroke:none"
         d="m 3529.71,6147.93 c 0,-49.42 40.07,-89.5 89.5,-89.5 H 4817.6 c 49.43,0 89.51,40.08 89.51,89.5 v 126.81 c 0,49.43 -40.08,89.5 -89.51,89.5 H 3619.21 c -49.43,0 -89.5,-40.07 -89.5,-89.5 v -126.81" /><path
         id="path248"
         style="fill:#d2edf3;fill-opacity:1;fill-rule:nonzero;stroke:none"
         d="m 4516.27,6366.36 c 0,0 -153.85,219.16 -195.76,219.16 -41.94,0 -471.08,0 -511.29,0 -40.21,0 -80.03,-14.1 -159.9,-222.95 l 866.95,3.79" /><path
         id="path250"
         style="fill:#76b4e2;fill-opacity:1;fill-rule:nonzero;stroke:none"
         d="m 4060.43,6361.99 h 41.13 v 240.93 h -41.13 v -240.93" /><path
         id="path252"
         style="fill:#ecd631;fill-opacity:1;fill-rule:nonzero;stroke:none"
         d="m 4817.6,6364.24 h -7.8 c -7.1,-11.21 -11.28,-24.47 -11.28,-38.73 0,-40 32.42,-72.42 72.4,-72.42 13.2,0 25.54,3.59 36.19,9.76 v 11.89 c 0,49.43 -40.08,89.5 -89.51,89.5" /><path
         id="path254"
         style="fill:#ed3224;fill-opacity:1;fill-rule:nonzero;stroke:none"
         d="m 3540.66,6305.16 c -1.97,0 -3.86,-0.29 -5.75,-0.58 -3.3,-9.35 -5.2,-19.36 -5.2,-29.84 v -43.29 c 3.48,-1.06 7.12,-1.81 10.95,-1.81 20.85,0 37.76,16.91 37.76,37.76 0,20.85 -16.91,37.76 -37.76,37.76" /><path
         id="path256"
         style="fill:#3f4340;fill-opacity:1;fill-rule:nonzero;stroke:none"
         d="m 3905.03,6058.42 c 0,-64.39 -52.2,-116.59 -116.6,-116.59 -64.39,0 -116.6,52.2 -116.6,116.59 0,64.41 52.21,116.61 116.6,116.61 64.4,0 116.6,-52.2 116.6,-116.61" /><path
         id="path258"
         style="fill:#adadad;fill-opacity:1;fill-rule:nonzero;stroke:none"
         d="m 3855.6,6058.42 c 0,-37.09 -30.07,-67.16 -67.17,-67.16 -37.09,0 -67.16,30.07 -67.16,67.16 0,37.1 30.07,67.17 67.16,67.17 37.1,0 67.17,-30.07 67.17,-67.17" /><path
         id="path260"
         style="fill:#3f4340;fill-opacity:1;fill-rule:nonzero;stroke:none"
         d="m 4676.99,6058.42 c 0,-64.39 -52.19,-116.59 -116.6,-116.59 -64.39,0 -116.6,52.2 -116.6,116.59 0,64.41 52.21,116.61 116.6,116.61 64.41,0 116.6,-52.2 116.6,-116.61" /><path
         id="path262"
         style="fill:#adadad;fill-opacity:1;fill-rule:nonzero;stroke:none"
         d="m 4627.56,6058.42 c 0,-37.09 -30.06,-67.16 -67.17,-67.16 -37.09,0 -67.15,30.07 -67.15,67.16 0,37.1 30.06,67.17 67.15,67.17 37.11,0 67.17,-30.07 67.17,-67.17" /><path
         id="path264"
         style="fill:#b5b1a0;fill-opacity:1;fill-rule:nonzero;stroke:none"
         d="m 7204.43,5944.58 c 0,-29.14 -480.05,-52.75 -1072.24,-52.75 -592.19,0 -1072.25,23.61 -1072.25,52.75 0,29.14 480.06,52.75 1072.25,52.75 592.19,0 1072.24,-23.61 1072.24,-52.75" /><path
         id="path266"
         style="fill:#3f4340;fill-opacity:1;fill-rule:nonzero;stroke:none"
         d="m 5151.94,6161.4 h -133.48 l 42.02,-56.36 h 88.6 c 0,0 -19.29,25.22 2.86,56.36" /><path
         id="path268"
         style="fill:#f38daa;fill-opacity:1;fill-rule:nonzero;stroke:none"
         d="m 5107.13,6147.93 c 0,-49.42 22.13,-89.5 96.03,-89.5 h 1857.83 c 73.91,0 105.47,40.08 105.47,89.5 v 126.81 c 0,49.43 -31.56,89.5 -105.47,89.5 H 5203.16 c -73.9,0 -96.03,-40.07 -96.03,-89.5 v -126.81" /><path
         id="path270"
         style="fill:#f38daa;fill-opacity:1;fill-rule:nonzero;stroke:none"
         d="m 6924.52,6364.24 c 0,0 -274.88,251.12 -374.73,251.12 -99.87,0 -900.84,0 -975.99,0 -75.13,0 -140.71,-33.46 -313.33,-272.77 l 1664.05,21.65" /><path
         id="path272"
         style="fill:#d2edf3;fill-opacity:1;fill-rule:nonzero;stroke:none"
         d="m 6845.23,6366.36 c 0,0 -264.29,219.16 -336.29,219.16 -72.02,0 -809.2,0 -878.27,0 -69.05,0 -137.49,-14.1 -274.67,-222.95 l 1489.23,3.79" /><path
         id="path274"
         style="fill:#f38daa;fill-opacity:1;fill-rule:nonzero;stroke:none"
         d="m 5729.24,6361.99 h 41.13 v 240.93 h -41.13 v -240.93" /><path
         id="path276"
         style="fill:#f38daa;fill-opacity:1;fill-rule:nonzero;stroke:none"
         d="m 6075.35,6361.99 h 41.13 v 240.93 h -41.13 v -240.93" /><path
         id="path278"
         style="fill:#f38daa;fill-opacity:1;fill-rule:nonzero;stroke:none"
         d="m 6421.45,6361.99 h 41.14 v 240.93 h -41.14 v -240.93" /><path
         id="path280"
         style="fill:#ed3224;fill-opacity:1;fill-rule:nonzero;stroke:none"
         d="m 5112.96,6292.56 c -1.64,0 -3.22,-0.23 -4.8,-0.48 -0.69,-5.62 -1.03,-11.41 -1.03,-17.34 v -40.66 c 1.88,-0.38 3.84,-0.59 5.83,-0.59 16.32,0 29.54,13.22 29.54,29.53 0,16.32 -13.22,29.54 -29.54,29.54" /><path
         id="path282"
         style="fill:#ecd631;fill-opacity:1;fill-rule:nonzero;stroke:none"
         d="m 7067.47,6364.01 c -0.18,-2.28 -0.41,-4.56 -0.41,-6.9 0,-47.39 38.42,-85.8 85.8,-85.8 4.64,0 9.16,0.47 13.6,1.19 v 2.24 c 0,47.93 -29.8,86.94 -98.99,89.27" /><path
         id="path284"
         style="fill:#3f4340;fill-opacity:1;fill-rule:nonzero;stroke:none"
         d="m 5532.28,6058.42 c 0,-64.39 -52.2,-116.59 -116.61,-116.59 -64.38,0 -116.59,52.2 -116.59,116.59 0,64.41 52.21,116.61 116.59,116.61 64.41,0 116.61,-52.2 116.61,-116.61" /><path
         id="path286"
         style="fill:#adadad;fill-opacity:1;fill-rule:nonzero;stroke:none"
         d="m 5482.85,6058.42 c 0,-37.09 -30.08,-67.16 -67.18,-67.16 -37.08,0 -67.14,30.07 -67.14,67.16 0,37.1 30.06,67.17 67.14,67.17 37.1,0 67.18,-30.07 67.18,-67.17" /><path
         id="path288"
         style="fill:#3f4340;fill-opacity:1;fill-rule:nonzero;stroke:none"
         d="m 6952.38,6058.42 c 0,-64.39 -52.18,-116.59 -116.59,-116.59 -64.39,0 -116.6,52.2 -116.6,116.59 0,64.41 52.21,116.61 116.6,116.61 64.41,0 116.59,-52.2 116.59,-116.61" /><path
         id="path290"
         style="fill:#adadad;fill-opacity:1;fill-rule:nonzero;stroke:none"
         d="m 6902.96,6058.42 c 0,-37.09 -30.07,-67.16 -67.17,-67.16 -37.09,0 -67.16,30.07 -67.16,67.16 0,37.1 30.07,67.17 67.16,67.17 37.1,0 67.17,-30.07 67.17,-67.17" /><path
         id="path292"
         style="fill:#3f4340;fill-opacity:1;fill-rule:nonzero;stroke:none"
         d="m 4727.79,2974.94 h -214.74 l 67.59,-90.66 h 142.55 c 0,0 -31.03,40.54 4.6,90.66" /><path
         id="path294"
         style="fill:#fbb138;fill-opacity:1;fill-rule:nonzero;stroke:none"
         d="m 4782.68,3919.32 h -53.81 c 0,0 -53.78,-2.99 -53.78,-44.83 0,-41.85 0,-1031.11 0,-1031.11 0,0 5.97,-53.81 83.68,-53.81 h 2346.16 c 0,0 77.71,-5.98 77.71,65.76 v 499.06 c 0,0 -8.97,41.9 -65.76,47.88 0,0 -295.89,38.86 -325.77,56.79 -29.89,17.93 -148.66,460.2 -250.29,460.2 -101.6,0 -1758.14,0.06 -1758.14,0.06" /><path
         id="path296"
         style="fill:#d2edf3;fill-opacity:1;fill-rule:nonzero;stroke:none"
         d="m 6670.33,3453.03 h -481.18 v 388.53 h 328.76 l 152.42,-388.53" /><path
         id="path298"
         style="fill:#d2edf3;fill-opacity:1;fill-rule:nonzero;stroke:none"
         d="m 6147.3,3453.03 h -313.81 v 388.53 h 313.81 v -388.53" /><path
         id="path300"
         style="fill:#d2edf3;fill-opacity:1;fill-rule:nonzero;stroke:none"
         d="m 5788.64,3453.03 h -313.81 v 388.53 h 313.81 v -388.53" /><path
         id="path302"
         style="fill:#d2edf3;fill-opacity:1;fill-rule:nonzero;stroke:none"
         d="m 5430.01,3453.03 h -313.82 v 388.53 h 313.82 v -388.53" /><path
         id="path304"
         style="fill:#d2edf3;fill-opacity:1;fill-rule:nonzero;stroke:none"
         d="m 5071.36,3453.03 h -313.82 v 388.53 h 313.82 v -388.53" /><path
         id="path306"
         style="fill:#fcdc30;fill-opacity:1;fill-rule:nonzero;stroke:none"
         d="M 7182.64,2989.98 H 4675.09 v 38.63 h 2507.55 v -38.63" /><path
         id="path308"
         style="fill:#222220;fill-opacity:1;fill-rule:nonzero;stroke:none"
         d="M 7182.64,2910.27 H 4675.09 v 38.66 h 2507.55 v -38.66" /><path
         id="path310"
         style="fill:#3f4340;fill-opacity:1;fill-rule:nonzero;stroke:none"
         d="m 4910.81,2789.43 c 0,-118.82 96.31,-215.13 215.15,-215.13 118.83,0 215.15,96.31 215.15,215.13 0,118.85 -96.32,215.18 -215.15,215.18 -118.84,0 -215.15,-96.33 -215.15,-215.18" /><path
         id="path312"
         style="fill:#adadad;fill-opacity:1;fill-rule:nonzero;stroke:none"
         d="m 5002.04,2789.43 c 0,-68.43 55.46,-123.9 123.92,-123.9 68.42,0 123.92,55.47 123.92,123.9 0,68.46 -55.5,123.95 -123.92,123.95 -68.46,0 -123.92,-55.49 -123.92,-123.95" /><path
         id="path314"
         style="fill:#3f4340;fill-opacity:1;fill-rule:nonzero;stroke:none"
         d="m 6455.19,2789.43 c 0,-118.82 96.3,-215.13 215.14,-215.13 118.82,0 215.17,96.31 215.17,215.13 0,118.85 -96.35,215.18 -215.17,215.18 -118.84,0 -215.14,-96.33 -215.14,-215.18" /><path
         id="path316"
         style="fill:#adadad;fill-opacity:1;fill-rule:nonzero;stroke:none"
         d="m 6546.41,2789.43 c 0,-68.43 55.47,-123.9 123.92,-123.9 68.43,0 123.93,55.47 123.93,123.9 0,68.46 -55.5,123.95 -123.93,123.95 -68.45,0 -123.92,-55.49 -123.92,-123.95" /><path
         id="path318"
         style="fill:#231f20;fill-opacity:1;fill-rule:nonzero;stroke:none"
         d="m 5388.52,3120.39 c 0.23,-14.61 -3.59,-27.11 -11.38,-37.48 -5.14,-7.03 -12.36,-11.99 -21.73,-14.88 -5.03,-1.57 -10.89,-2.35 -17.57,-2.35 -12.39,0 -22.64,3.07 -30.8,9.2 -6.8,5.02 -12.17,11.86 -16.13,20.49 -3.94,8.65 -6.26,18.54 -6.94,29.69 l 30.1,2.19 c 1.36,-12.23 4.58,-21.1 9.72,-26.57 3.78,-4.16 8.12,-6.11 13.05,-5.89 6.91,0.23 12.43,3.63 16.56,10.21 2.1,3.24 3.17,7.87 3.17,13.91 0,8.69 -3.96,17.36 -11.88,25.93 -6.23,5.92 -15.61,14.79 -28.09,26.62 -10.49,10.16 -17.91,19.26 -22.25,27.29 -4.69,9.04 -7.04,18.87 -7.04,29.47 0,19.08 6.42,33.54 19.25,43.36 7.91,5.92 17.72,8.87 29.45,8.87 11.25,0 20.89,-2.5 28.92,-7.52 6.23,-3.91 11.3,-9.38 15.13,-16.41 3.86,-7.01 6.17,-15.09 6.96,-24.23 l -30.28,-5.53 c -0.89,8.61 -3.34,15.29 -7.36,20.08 -2.91,3.45 -7.08,5.19 -12.54,5.19 -5.81,0 -10.2,-2.58 -13.21,-7.69 -2.45,-4.14 -3.69,-9.26 -3.69,-15.41 0,-9.57 4.13,-19.34 12.37,-29.26 3.14,-3.79 7.8,-8.24 14.06,-13.38 7.35,-6.13 12.21,-10.43 14.54,-12.87 7.8,-7.81 13.83,-15.51 18.07,-23.09 2.02,-3.57 3.63,-6.87 4.86,-9.88 2.99,-7.46 4.56,-14.16 4.68,-20.06" /><path
         id="path320"
         style="fill:#231f20;fill-opacity:1;fill-rule:nonzero;stroke:none"
         d="m 5464.44,3065.53 c -13.92,0 -25.77,4.86 -35.53,14.63 -9.76,9.74 -14.64,21.54 -14.64,35.37 v 114.41 c 0,13.95 4.9,25.78 14.72,35.55 9.82,9.76 21.64,14.65 35.45,14.65 13.95,0 25.78,-4.93 35.47,-14.73 9.71,-9.82 14.55,-21.64 14.55,-35.47 v -23.9 h -32.78 v 24.58 c 0,5 -1.78,9.3 -5.36,12.88 -3.56,3.55 -7.85,5.35 -12.87,5.35 -5,0 -9.28,-1.8 -12.81,-5.35 -3.5,-3.58 -5.25,-7.88 -5.25,-12.88 v -114.76 c 0,-5.02 1.75,-9.28 5.25,-12.79 3.53,-3.52 7.81,-5.26 12.81,-5.26 5.02,0 9.31,1.74 12.87,5.26 3.58,3.51 5.36,7.77 5.36,12.79 v 28.94 h 32.78 v -29.27 c 0,-13.93 -4.9,-25.76 -14.7,-35.47 -9.82,-9.69 -21.59,-14.53 -35.32,-14.53" /><path
         id="path322"
         style="fill:#231f20;fill-opacity:1;fill-rule:nonzero;stroke:none"
         d="m 5571.99,3157.01 v -88.81 h -31.61 v 209.57 h 31.61 v -88.98 h 38.16 v 88.98 h 31.61 V 3068.2 h -31.61 v 88.81 h -38.16" /><path
         id="path324"
         style="fill:#231f20;fill-opacity:1;fill-rule:nonzero;stroke:none"
         d="m 5736.93,3230.94 c 0,5.02 -1.76,9.29 -5.27,12.79 -3.51,3.52 -7.78,5.29 -12.79,5.29 -5.03,0 -9.32,-1.77 -12.89,-5.29 -3.59,-3.5 -5.35,-7.77 -5.35,-12.79 v -114.73 c 0,-5.04 1.76,-9.3 5.35,-12.81 3.57,-3.52 7.86,-5.26 12.89,-5.26 5.01,0 9.28,1.74 12.79,5.26 3.51,3.51 5.27,7.77 5.27,12.81 z m -17.22,49.51 c 13.93,0 25.78,-4.9 35.53,-14.71 9.75,-9.82 14.64,-21.64 14.64,-35.47 v -114.41 c 0,-13.95 -4.9,-25.78 -14.72,-35.53 -9.82,-9.76 -21.63,-14.65 -35.45,-14.65 -13.95,0 -25.76,4.91 -35.47,14.73 -9.69,9.8 -14.55,21.62 -14.55,35.45 v 114.41 c 0,13.95 4.9,25.8 14.71,35.57 9.81,9.73 21.58,14.61 35.31,14.61" /><path
         id="path326"
         style="fill:#231f20;fill-opacity:1;fill-rule:nonzero;stroke:none"
         d="m 5864.38,3230.94 c 0,5.02 -1.76,9.29 -5.28,12.79 -3.5,3.52 -7.77,5.29 -12.8,5.29 -4.99,0 -9.29,-1.77 -12.87,-5.29 -3.56,-3.5 -5.33,-7.77 -5.33,-12.79 v -114.73 c 0,-5.04 1.77,-9.3 5.33,-12.81 3.58,-3.52 7.88,-5.26 12.87,-5.26 5.03,0 9.3,1.74 12.8,5.26 3.52,3.51 5.28,7.77 5.28,12.81 z m -17.23,49.51 c 13.93,0 25.79,-4.9 35.56,-14.71 9.73,-9.82 14.61,-21.64 14.61,-35.47 v -114.41 c 0,-13.95 -4.9,-25.78 -14.71,-35.53 -9.8,-9.76 -21.64,-14.65 -35.46,-14.65 -13.94,0 -25.75,4.91 -35.44,14.73 -9.73,9.8 -14.59,21.62 -14.59,35.45 v 114.41 c 0,13.95 4.92,25.8 14.75,35.57 9.8,9.73 21.56,14.61 35.28,14.61" /><path
         id="path328"
         style="fill:#231f20;fill-opacity:1;fill-rule:nonzero;stroke:none"
         d="m 6011.41,3068.2 h -86.16 v 209.57 h 31.62 v -178.12 h 54.54 v -31.45" /><path
         id="path330"
         style="fill:#231f20;fill-opacity:1;fill-rule:nonzero;stroke:none"
         d="m 6088.99,3099.47 h 13.23 c 10.72,0 18.12,5.53 22.24,16.57 1.45,3.78 2.18,8.14 2.18,13.04 0,11.72 -2.24,20.24 -6.68,25.59 -4.01,4.9 -9.94,7.36 -17.74,7.36 h -13.23 z m 0,92.83 h 13.23 c 9.8,0 16.38,4.79 19.72,14.4 1.24,3.55 1.85,7.97 1.85,13.2 0,8.69 -2.1,15.28 -6.36,19.75 -3.89,4.12 -8.95,6.19 -15.21,6.19 h -13.23 z m -34.11,-124.1 v 209.75 h 47.34 c 12.5,0 23.74,-3.3 33.79,-9.86 8.58,-5.59 14.72,-14.22 18.39,-25.94 2.01,-6.25 3.01,-13.65 3.01,-22.25 0,-14.04 -3.73,-25.31 -11.2,-33.79 -3.13,-3.55 -6.81,-6.31 -11.04,-8.18 7.03,-2.7 13,-7.99 17.9,-15.9 3.22,-5.35 5.63,-12.26 7.19,-20.74 0.78,-4.36 1.17,-9.2 1.17,-14.55 0,-13.26 -2.5,-24.53 -7.51,-33.79 -3.91,-7.25 -9.44,-13.05 -16.56,-17.4 -8.03,-4.91 -16.02,-7.35 -23.93,-7.35 h -58.55" /><path
         id="path332"
         style="fill:#231f20;fill-opacity:1;fill-rule:nonzero;stroke:none"
         d="m 6238.53,3065.84 c -13.93,0 -25.75,4.88 -35.44,14.57 -9.72,9.71 -14.58,21.45 -14.58,35.29 v 162.07 h 30.97 v -161.73 c 0,-5.02 1.78,-9.3 5.33,-12.8 3.59,-3.51 7.88,-5.27 12.88,-5.27 5.02,0 9.29,1.76 12.8,5.27 3.52,3.5 5.28,7.78 5.28,12.8 v 161.73 h 32.94 V 3115.7 c 0,-14.06 -4.9,-25.88 -14.72,-35.47 -9.79,-9.59 -21.64,-14.39 -35.46,-14.39" /><path
         id="path334"
         style="fill:#231f20;fill-opacity:1;fill-rule:nonzero;stroke:none"
         d="m 6419.36,3120.39 c 0.22,-14.61 -3.59,-27.11 -11.38,-37.48 -5.14,-7.03 -12.37,-11.99 -21.74,-14.88 -5.02,-1.57 -10.88,-2.35 -17.56,-2.35 -12.4,0 -22.64,3.07 -30.8,9.2 -6.8,5.02 -12.17,11.86 -16.13,20.49 -3.95,8.65 -6.26,18.54 -6.94,29.69 l 30.1,2.19 c 1.35,-12.23 4.58,-21.1 9.72,-26.57 3.78,-4.16 8.12,-6.11 13.05,-5.89 6.91,0.23 12.43,3.63 16.55,10.21 2.11,3.24 3.18,7.87 3.18,13.91 0,8.69 -3.96,17.36 -11.89,25.93 -6.22,5.92 -15.6,14.79 -28.08,26.62 -10.5,10.16 -17.92,19.26 -22.25,27.29 -4.7,9.04 -7.04,18.87 -7.04,29.47 0,19.08 6.42,33.54 19.23,43.36 7.93,5.92 17.74,8.87 29.46,8.87 11.25,0 20.89,-2.5 28.93,-7.52 6.23,-3.91 11.3,-9.38 15.13,-16.41 3.85,-7.01 6.17,-15.09 6.96,-24.23 l -30.28,-5.53 c -0.89,8.61 -3.35,15.29 -7.37,20.08 -2.9,3.45 -7.08,5.19 -12.53,5.19 -5.81,0 -10.2,-2.58 -13.21,-7.69 -2.47,-4.14 -3.69,-9.26 -3.69,-15.41 0,-9.57 4.12,-19.34 12.37,-29.26 3.12,-3.79 7.8,-8.24 14.06,-13.38 7.35,-6.13 12.2,-10.43 14.54,-12.87 7.8,-7.81 13.83,-15.51 18.07,-23.09 2.02,-3.57 3.62,-6.87 4.86,-9.88 2.99,-7.46 4.56,-14.16 4.68,-20.06" /><path
         id="path336"
         style="fill:#fcdc30;fill-opacity:1;fill-rule:nonzero;stroke:none"
         d="M 7182.64,3315.76 H 4675.09 v 38.63 h 2507.55 v -38.63" /><path
         id="path338"
         style="fill:#ed3224;fill-opacity:1;fill-rule:nonzero;stroke:none"
         d="m 4675.09,3028.61 h -39.1 v 75.73 h 39.1 v -75.73" /><path
         id="path340"
         style="fill:#eca121;fill-opacity:1;fill-rule:nonzero;stroke:none"
         d="m 7244.17,3223.89 h -61.53 v 91.87 h 61.53 v -91.87" /><path
         id="path342"
         style="fill:#b5b1a0;fill-opacity:1;fill-rule:nonzero;stroke:none"
         d="m 7070.95,2574.3 c 0,-29.13 -533.83,-52.76 -1192.34,-52.76 -658.52,0 -1192.35,23.63 -1192.35,52.76 0,29.14 533.83,52.75 1192.35,52.75 658.51,0 1192.34,-23.61 1192.34,-52.75" /><path
         id="path344"
         style="fill:#b5b1a0;fill-opacity:1;fill-rule:nonzero;stroke:none"
         d="m 4352.25,2574.3 c 0,-29.13 -817.14,-52.76 -1825.16,-52.76 -1008.01,0 -1825.164,23.63 -1825.164,52.76 0,29.14 817.154,52.75 1825.164,52.75 1008.02,0 1825.16,-23.61 1825.16,-52.75" /><path
         id="path346"
         style="fill:#08694e;fill-opacity:1;fill-rule:nonzero;stroke:none"
         d="M 4192.77,2930.84 H 1916.22 v 952.19 h 2276.55 v -952.19" /><path
         id="path348"
         style="fill:#3f4340;fill-opacity:1;fill-rule:nonzero;stroke:none"
         d="M 4192.77,2760 H 1916.22 v 193.79 H 4192.77 V 2760" /><path
         id="path350"
         style="fill:#3f4340;fill-opacity:1;fill-rule:nonzero;stroke:none"
         d="m 2092.16,2770.06 c 0,-108.13 87.63,-195.76 195.76,-195.76 108.12,0 195.76,87.63 195.76,195.76 0,108.12 -87.64,195.76 -195.76,195.76 -108.13,0 -195.76,-87.64 -195.76,-195.76" /><path
         id="path352"
         style="fill:#adadad;fill-opacity:1;fill-rule:nonzero;stroke:none"
         d="m 2175.16,2770.06 c 0,-62.29 50.48,-112.77 112.76,-112.77 62.26,0 112.77,50.48 112.77,112.77 0,62.26 -50.51,112.75 -112.77,112.75 -62.28,0 -112.76,-50.49 -112.76,-112.75" /><path
         id="path354"
         style="fill:#3f4340;fill-opacity:1;fill-rule:nonzero;stroke:none"
         d="m 3662.17,2770.06 c 0,-108.13 87.64,-195.76 195.76,-195.76 108.12,0 195.77,87.63 195.77,195.76 0,108.12 -87.65,195.76 -195.77,195.76 -108.12,0 -195.76,-87.64 -195.76,-195.76" /><path
         id="path356"
         style="fill:#adadad;fill-opacity:1;fill-rule:nonzero;stroke:none"
         d="m 3745.17,2770.06 c 0,-62.29 50.48,-112.77 112.76,-112.77 62.27,0 112.77,50.48 112.77,112.77 0,62.26 -50.5,112.75 -112.77,112.75 -62.28,0 -112.76,-50.49 -112.76,-112.75" /><path
         id="path358"
         style="fill:#3f4340;fill-opacity:1;fill-rule:nonzero;stroke:none"
         d="m 4261.4,2817.99 h -77.5 v 82.93 h 77.5 v -82.93" /><path
         id="path360"
         style="fill:#ed3224;fill-opacity:1;fill-rule:nonzero;stroke:none"
         d="m 4241.01,3052.3 h -48.24 v 95.28 h 48.24 v -95.28" /><path
         id="path362"
         style="fill:#3f4340;fill-opacity:1;fill-rule:nonzero;stroke:none"
         d="m 1916.22,2915.7 h -73.71 v 76.16 h 73.71 v -76.16" /><path
         id="path364"
         style="fill:#00b082;fill-opacity:1;fill-rule:nonzero;stroke:none"
         d="M 1842.51,2760 H 841.27 v 477.68 l 325.4,198.16 v 249 l 304.89,198.19 h 370.95 V 2760" /><path
         id="path366"
         style="fill:#d2edf3;fill-opacity:1;fill-rule:nonzero;stroke:none"
         d="m 1390.26,3420.61 h -223.59 v 208.34 h 223.59 v -208.34" /><path
         id="path368"
         style="fill:#00b082;fill-opacity:1;fill-rule:nonzero;stroke:none"
         d="m 1390.26,3628.95 h -315.05 v 96.56 h 315.05 v -96.56" /><path
         id="path370"
         style="fill:#eca121;fill-opacity:1;fill-rule:nonzero;stroke:none"
         d="m 841.27,3088.55 h -48.493 v 85.22 h 48.493 v -85.22" /><path
         id="path372"
         style="fill:#3f4340;fill-opacity:1;fill-rule:nonzero;stroke:none"
         d="m 912.195,2770.06 c 0,-108.13 87.641,-195.76 195.765,-195.76 108.11,0 195.76,87.63 195.76,195.76 0,108.12 -87.65,195.76 -195.76,195.76 -108.124,0 -195.765,-87.64 -195.765,-195.76" /><path
         id="path374"
         style="fill:#adadad;fill-opacity:1;fill-rule:nonzero;stroke:none"
         d="m 995.195,2770.06 c 0,-62.29 50.475,-112.77 112.765,-112.77 62.25,0 112.76,50.48 112.76,112.77 0,62.26 -50.51,112.75 -112.76,112.75 -62.29,0 -112.765,-50.49 -112.765,-112.75" /><path
         id="path376"
         style="fill:#3f4340;fill-opacity:1;fill-rule:nonzero;stroke:none"
         d="m 1450.38,2770.06 c 0,-108.13 87.63,-195.76 195.76,-195.76 108.12,0 195.76,87.63 195.76,195.76 0,108.12 -87.64,195.76 -195.76,195.76 -108.13,0 -195.76,-87.64 -195.76,-195.76" /><path
         id="path378"
         style="fill:#adadad;fill-opacity:1;fill-rule:nonzero;stroke:none"
         d="m 1533.37,2770.06 c 0,-62.29 50.49,-112.77 112.77,-112.77 62.26,0 112.77,50.48 112.77,112.77 0,62.26 -50.51,112.75 -112.77,112.75 -62.28,0 -112.77,-50.49 -112.77,-112.75" /><path
         id="path380"
         style="fill:#b5b1a0;fill-opacity:1;fill-rule:nonzero;stroke:none"
         d="m 4641.32,694.75 c 0,-29.129 -887.64,-52.762 -1982.61,-52.762 -1094.96,0 -1982.605,23.633 -1982.605,52.762 0,29.141 887.645,52.75 1982.605,52.75 1094.97,0 1982.61,-23.609 1982.61,-52.75" /><path
         id="path382"
         style="fill:#e94f2e;fill-opacity:1;fill-rule:nonzero;stroke:none"
         d="m 4442.41,1912.54 c 0,0 -15.74,73.26 -70.11,73.26 H 2550.08 2540.64 812.891 c -81.02,0 -70.118,-73.26 -70.118,-73.26 l -31.488,-368.85 c 0,0 0,-447.11 0,-583.71 0,-105.859 80.551,-105.738 80.551,-105.738 h 1748.804 9.44 1748.82 c 0,0 307.24,-30.84 307.24,105.738 0,136.6 0,309.79 0,309.79 l -163.73,642.77" /><path
         id="path384"
         style="fill:#d2edf3;fill-opacity:1;fill-rule:nonzero;stroke:none"
         d="m 4393.81,1889.2 h -190.68 v -470.68 l 348.43,-119.89 -157.75,590.57" /><path
         id="path386"
         style="fill:#f16c56;fill-opacity:1;fill-rule:nonzero;stroke:none"
         d="m 3953.56,1889.2 h -221.07 c -80.13,0 -108.82,-3.54 -108.82,-66.13 V 886.289 c 0,-11.148 2.15,-21.879 5.97,-32.047 h 414.68 c 3.82,10.168 5.97,20.899 5.97,32.047 v 936.781 c 0,62.59 -16.6,66.13 -96.73,66.13" /><path
         id="path388"
         style="fill:#d2edf3;fill-opacity:1;fill-rule:nonzero;stroke:none"
         d="m 3820.87,885.641 h -140.08 v 962.679 h 140.08 V 885.641" /><path
         id="path390"
         style="fill:#d2edf3;fill-opacity:1;fill-rule:nonzero;stroke:none"
         d="m 3993.16,885.641 h -140.07 v 962.679 h 140.07 V 885.641" /><path
         id="path392"
         style="fill:#d2edf3;fill-opacity:1;fill-rule:nonzero;stroke:none"
         d="M 3514.11,1912.54 H 874.48 L 801.129,1593.91 H 3514.11 v 318.63" /><path
         id="path394"
         style="fill:#e94f2e;fill-opacity:1;fill-rule:nonzero;stroke:none"
         d="m 3107.4,1572.03 h -15.75 v 355.8 h 15.75 v -355.8" /><path
         id="path396"
         style="fill:#e94f2e;fill-opacity:1;fill-rule:nonzero;stroke:none"
         d="m 2729.56,1572.03 h -15.75 v 355.8 h 15.75 v -355.8" /><path
         id="path398"
         style="fill:#e94f2e;fill-opacity:1;fill-rule:nonzero;stroke:none"
         d="m 2351.72,1572.03 h -15.74 v 355.8 h 15.74 v -355.8" /><path
         id="path400"
         style="fill:#e94f2e;fill-opacity:1;fill-rule:nonzero;stroke:none"
         d="m 1973.89,1572.03 h -15.75 v 355.8 h 15.75 v -355.8" /><path
         id="path402"
         style="fill:#e94f2e;fill-opacity:1;fill-rule:nonzero;stroke:none"
         d="m 1596.05,1572.03 h -15.74 v 355.8 h 15.74 v -355.8" /><path
         id="path404"
         style="fill:#e94f2e;fill-opacity:1;fill-rule:nonzero;stroke:none"
         d="m 1218.22,1572.03 h -15.75 v 355.8 h 15.75 v -355.8" /><path
         id="path406"
         style="fill:#3f4340;fill-opacity:1;fill-rule:nonzero;stroke:none"
         d="m 885.664,904.512 c 0,-115.864 93.914,-209.762 209.796,-209.762 115.86,0 209.78,93.898 209.78,209.762 0,115.878 -93.92,209.788 -209.78,209.788 -115.882,0 -209.796,-93.91 -209.796,-209.788" /><path
         id="path408"
         style="fill:#adadad;fill-opacity:1;fill-rule:nonzero;stroke:none"
         d="m 974.617,904.512 c 0,-66.742 54.093,-120.84 120.843,-120.84 66.71,0 120.83,54.098 120.83,120.84 0,66.738 -54.12,120.838 -120.83,120.838 -66.75,0 -120.843,-54.1 -120.843,-120.838" /><path
         id="path410"
         style="fill:#3f4340;fill-opacity:1;fill-rule:nonzero;stroke:none"
         d="m 1357.96,904.512 c 0,-115.864 93.92,-209.762 209.79,-209.762 115.86,0 209.79,93.898 209.79,209.762 0,115.878 -93.93,209.788 -209.79,209.788 -115.87,0 -209.79,-93.91 -209.79,-209.788" /><path
         id="path412"
         style="fill:#adadad;fill-opacity:1;fill-rule:nonzero;stroke:none"
         d="m 1446.91,904.512 c 0,-66.742 54.1,-120.84 120.84,-120.84 66.71,0 120.83,54.098 120.83,120.84 0,66.738 -54.12,120.838 -120.83,120.838 -66.74,0 -120.84,-54.1 -120.84,-120.838" /><path
         id="path414"
         style="fill:#3f4340;fill-opacity:1;fill-rule:nonzero;stroke:none"
         d="m 3124.34,904.512 c 0,-115.864 93.92,-209.762 209.8,-209.762 115.86,0 209.78,93.898 209.78,209.762 0,115.878 -93.92,209.788 -209.78,209.788 -115.88,0 -209.8,-93.91 -209.8,-209.788" /><path
         id="path416"
         style="fill:#adadad;fill-opacity:1;fill-rule:nonzero;stroke:none"
         d="m 3213.3,904.512 c 0,-66.742 54.09,-120.84 120.84,-120.84 66.71,0 120.83,54.098 120.83,120.84 0,66.738 -54.12,120.838 -120.83,120.838 -66.75,0 -120.84,-54.1 -120.84,-120.838" /><path
         id="path418"
         style="fill:#adadad;fill-opacity:1;fill-rule:nonzero;stroke:none"
         d="m 4606.14,959.98 c 0,25.961 0,53.2 0,80.35 h -188.91 c -28.34,-15.31 -118.33,-186.088 -118.33,-186.088 0,0 307.24,-30.84 307.24,105.738" /><path
         id="path420"
         style="fill:#adadad;fill-opacity:1;fill-rule:nonzero;stroke:none"
         d="m 711.285,1008.42 c 0,-18.631 0,-35.041 0,-48.44 0,-113.71 80.551,-105.738 80.551,-105.738 h 64.285 l -31.48,154.178 H 711.285" /><path
         id="path422"
         style="fill:#f16c56;fill-opacity:1;fill-rule:nonzero;stroke:none"
         d="m 2391.08,904.531 h -579.34 v 239.279 h 579.34 V 904.531" /><path
         id="path424"
         style="fill:#e94f2e;fill-opacity:1;fill-rule:nonzero;stroke:none"
         d="m 2217.91,942.301 h -233 v 28.34 h 233 v -28.34" /><path
         id="path426"
         style="fill:#f16c56;fill-opacity:1;fill-rule:nonzero;stroke:none"
         d="m 3023.96,904.531 h -579.35 v 239.279 h 579.35 V 904.531" /><path
         id="path428"
         style="fill:#e94f2e;fill-opacity:1;fill-rule:nonzero;stroke:none"
         d="m 2850.79,942.301 h -233.01 v 28.34 h 233.01 v -28.34" /><path
         id="path430"
         style="fill:#d23027;fill-opacity:1;fill-rule:nonzero;stroke:none"
         d="M 3514.11,1487.03 H 783.699 v 37.77 H 3514.11 v -37.77" /><path
         id="path432"
         style="fill:#d23027;fill-opacity:1;fill-rule:nonzero;stroke:none"
         d="M 3514.11,1420.9 H 783.699 v 37.79 H 3514.11 v -37.79" /><path
         id="path434"
         style="fill:#d23027;fill-opacity:1;fill-rule:nonzero;stroke:none"
         d="M 3514.11,1354.79 H 783.699 v 37.77 H 3514.11 v -37.77" /><path
         id="path436"
         style="fill:#b5b1a0;fill-opacity:1;fill-rule:nonzero;stroke:none"
         d="m 6949.2,641.988 c 0,-29.129 -388.49,-52.746 -867.74,-52.746 -479.22,0 -867.73,23.617 -867.73,52.746 0,29.141 388.51,52.762 867.73,52.762 479.25,0 867.74,-23.621 867.74,-52.762" /><path
         id="path438"
         style="fill:#313331;fill-opacity:1;fill-rule:nonzero;stroke:none"
         d="m 5334.84,1207.62 c 0,0 109.48,11.13 281.81,-84.08 172.33,-95.26 210.24,-107.5 296.42,-62.13 86.17,45.33 319.71,197.24 292.51,306.09 -27.22,108.85 -240.37,-31.74 -326.54,-63.48 -86.15,-31.75 -352.62,95.39 -544.2,0.3" /><path
         id="path440"
         style="fill:#3f4340;fill-opacity:1;fill-rule:nonzero;stroke:none"
         d="m 5771.3,895.879 c 0,-135.258 -109.64,-244.899 -244.88,-244.899 -135.26,0 -244.9,109.641 -244.9,244.899 0,135.231 109.64,244.881 244.9,244.881 135.24,0 244.88,-109.65 244.88,-244.881" /><path
         id="path442"
         style="fill:#adadad;fill-opacity:1;fill-rule:nonzero;stroke:none"
         d="m 5677.45,895.879 c 0,-83.438 -67.61,-151.039 -151.03,-151.039 -83.42,0 -151.05,67.601 -151.05,151.039 0,83.422 67.63,151.031 151.05,151.031 83.42,0 151.03,-67.609 151.03,-151.031" /><path
         id="path444"
         style="fill:#3879bd;fill-opacity:1;fill-rule:nonzero;stroke:none"
         d="m 5657.7,910.23 c 0,0 209.53,-76.539 350.6,-31.359 126.88,40.641 183.67,182.539 183.67,182.539 h 64.62 c 78.22,326.71 438.75,222.2 438.75,222.2 -102.81,124.55 -305.35,68.34 -305.35,68.34 l -102.78,152.74 h -170.07 v -61.21 h 129.25 c -17.01,-153.07 -142.87,-252.95 -310.67,-328.93 -253.2,-114.671 -302.2,-131.679 -302.2,-131.679 l 24.18,-72.641" /><path
         id="path446"
         style="fill:#3f4340;fill-opacity:1;fill-rule:nonzero;stroke:none"
         d="m 6853.13,895.879 c 0,-135.258 -109.62,-244.899 -244.89,-244.899 -135.24,0 -244.88,109.641 -244.88,244.899 0,135.231 109.64,244.881 244.88,244.881 135.27,0 244.89,-109.65 244.89,-244.881" /><path
         id="path448"
         style="fill:#adadad;fill-opacity:1;fill-rule:nonzero;stroke:none"
         d="m 6759.29,895.879 c 0,-83.438 -67.62,-151.039 -151.05,-151.039 -83.41,0 -151.03,67.601 -151.03,151.039 0,83.422 67.62,151.031 151.03,151.031 83.43,0 151.05,-67.609 151.05,-151.031" /><path
         id="path450"
         style="fill:#3879bd;fill-opacity:1;fill-rule:nonzero;stroke:none"
         d="m 6406.25,1327.83 241.47,-391.131 -71.41,-59.469 -241.5,402.98 71.44,47.62" /><path
         id="path452"
         style="fill:#3879bd;fill-opacity:1;fill-rule:nonzero;stroke:none"
         d="m 5500.55,936.84 190.21,65.87 37.04,-92.48 -188.57,-65.269 -38.68,91.879" /><path
         id="path454"
         style="fill:#b5b1a0;fill-opacity:1;fill-rule:nonzero;stroke:none"
         d="m 6854.25,1641.99 c 0,-29.13 -345.98,-52.75 -772.79,-52.75 -426.77,0 -772.77,23.62 -772.77,52.75 0,29.14 346,52.76 772.77,52.76 426.81,0 772.79,-23.62 772.79,-52.76" /><path
         id="path456"
         style="fill:#3f4340;fill-opacity:1;fill-rule:nonzero;stroke:none"
         d="m 6323.8,1914.91 c 0,116.7 94.57,211.25 211.25,211.25 116.67,0 211.24,-94.55 211.24,-211.25 0,-116.66 -94.57,-211.21 -211.24,-211.21 -116.68,0 -211.25,94.55 -211.25,211.21 z m -63.12,0 c 0,-151.52 122.85,-274.35 274.37,-274.35 151.53,0 274.36,122.83 274.36,274.35 0,151.55 -122.83,274.4 -274.36,274.4 -151.52,0 -274.37,-122.85 -274.37,-274.4" /><path
         id="path458"
         style="fill:#ee5695;fill-opacity:1;fill-rule:nonzero;stroke:none"
         d="m 6532,1899.81 49.82,30.24 -304.75,502.05 h -166.94 v -58.26 h 134.15 L 6532,1899.81" /><path
         id="path460"
         style="fill:#ee5695;fill-opacity:1;fill-rule:nonzero;stroke:none"
         d="m 6280.53,2193 -340.6,-61.1 -183.17,-187.83 h 292.13 z m -369.25,-7.03 427.02,76.58 42.33,-47.56 -306.38,-329.2 h -455.71 l 292.74,300.18" /><path
         id="path462"
         style="fill:#ee5695;fill-opacity:1;fill-rule:nonzero;stroke:none"
         d="m 6036.12,1900.73 50.9,28.38 -134.41,241.23 -42.79,143.81 -55.86,-16.6 44.62,-149.98 137.54,-246.84" /><path
         id="path464"
         style="fill:#ee5695;fill-opacity:1;fill-rule:nonzero;stroke:none"
         d="m 5780.44,2285.03 h 190.06 v 58.26 h -190.06 v -58.26" /><path
         id="path466"
         style="fill:#3f4340;fill-opacity:1;fill-rule:nonzero;stroke:none"
         d="m 5423.79,1914.91 c 0,116.7 94.58,211.25 211.25,211.25 116.66,0 211.24,-94.55 211.24,-211.25 0,-116.66 -94.58,-211.21 -211.24,-211.21 -116.67,0 -211.25,94.55 -211.25,211.21 z m -63.12,0 c 0,-151.52 122.84,-274.35 274.37,-274.35 151.52,0 274.37,122.83 274.37,274.35 0,151.55 -122.85,274.4 -274.37,274.4 -151.53,0 -274.37,-122.85 -274.37,-274.4" /></g></g></svg>