<?xml version="1.0" encoding="UTF-8" standalone="no"?>
<!-- Created with Inkscape (http://www.inkscape.org/) -->

<svg
   xmlns:dc="http://purl.org/dc/elements/1.1/"
   xmlns:cc="http://creativecommons.org/ns#"
   xmlns:rdf="http://www.w3.org/1999/02/22-rdf-syntax-ns#"
   xmlns:svg="http://www.w3.org/2000/svg"
   xmlns="http://www.w3.org/2000/svg"
   xmlns:sodipodi="http://sodipodi.sourceforge.net/DTD/sodipodi-0.dtd"
   xmlns:inkscape="http://www.inkscape.org/namespaces/inkscape"
   width="210mm"
   height="297mm"
   viewBox="0 0 210 297"
   version="1.1"
   id="svg1526"
   inkscape:version="0.92.3 (2405546, 2018-03-11)"
   sodipodi:docname="crl1.svg">
  <defs
     id="defs1520" />
  <sodipodi:namedview
     id="base"
     pagecolor="#ffffff"
     bordercolor="#666666"
     borderopacity="1.0"
     inkscape:pageopacity="0.0"
     inkscape:pageshadow="2"
     inkscape:zoom="0.35"
     inkscape:cx="-64.285714"
     inkscape:cy="560"
     inkscape:document-units="mm"
     inkscape:current-layer="layer1"
     showgrid="false"
     inkscape:window-width="1366"
     inkscape:window-height="745"
     inkscape:window-x="-8"
     inkscape:window-y="-8"
     inkscape:window-maximized="1" />
  <metadata
     id="metadata1523">
    <rdf:RDF>
      <cc:Work
         rdf:about="">
        <dc:format>image/svg+xml</dc:format>
        <dc:type
           rdf:resource="http://purl.org/dc/dcmitype/StillImage" />
        <dc:title></dc:title>
      </cc:Work>
    </rdf:RDF>
  </metadata>
  <g
     inkscape:label="Layer 1"
     inkscape:groupmode="layer"
     id="layer1">
    <g
       id="g1518"
       transform="matrix(0.35277777,0,0,-0.35277777,-176.14809,235.01273)">
      <path
         d="m 515.194,616.14 h -13.348 l 4.202,-5.636 h 8.86 c 0,0 -1.929,2.522 0.286,5.636"
         style="fill:#3f4340;fill-opacity:1;fill-rule:nonzero;stroke:none;stroke-width:0.1"
         id="path266"
         inkscape:connector-curvature="0" />
      <path
         d="m 510.713,614.793 c 0,-4.942 2.213,-8.95 9.603,-8.95 h 185.783 c 7.391,0 10.547,4.008 10.547,8.95 v 12.681 c 0,4.943 -3.156,8.95 -10.547,8.95 H 520.316 c -7.39,0 -9.603,-4.007 -9.603,-8.95 v -12.681"
         style="fill:#f38daa;fill-opacity:1;fill-rule:nonzero;stroke:none;stroke-width:0.1"
         id="path268"
         inkscape:connector-curvature="0" />
      <path
         d="m 692.452,636.424 c 0,0 -27.488,25.112 -37.473,25.112 -9.987,0 -90.084,0 -97.599,0 -7.513,0 -14.071,-3.346 -31.333,-27.277 l 166.405,2.165"
         style="fill:#f38daa;fill-opacity:1;fill-rule:nonzero;stroke:none;stroke-width:0.1"
         id="path270"
         inkscape:connector-curvature="0" />
      <path
         d="m 684.523,636.636 c 0,0 -26.429,21.916 -33.629,21.916 -7.202,0 -80.92,0 -87.827,0 -6.905,0 -13.749,-1.41 -27.467,-22.295 l 148.923,0.379"
         style="fill:#d2edf3;fill-opacity:1;fill-rule:nonzero;stroke:none;stroke-width:0.1"
         id="path272"
         inkscape:connector-curvature="0" />
      <path
         d="m 572.924,636.199 h 4.113 v 24.093 h -4.113 v -24.093"
         style="fill:#f38daa;fill-opacity:1;fill-rule:nonzero;stroke:none;stroke-width:0.1"
         id="path274"
         inkscape:connector-curvature="0" />
      <path
         d="m 607.535,636.199 h 4.113 v 24.093 h -4.113 v -24.093"
         style="fill:#f38daa;fill-opacity:1;fill-rule:nonzero;stroke:none;stroke-width:0.1"
         id="path276"
         inkscape:connector-curvature="0" />
      <path
         d="m 642.145,636.199 h 4.114 v 24.093 h -4.114 v -24.093"
         style="fill:#f38daa;fill-opacity:1;fill-rule:nonzero;stroke:none;stroke-width:0.1"
         id="path278"
         inkscape:connector-curvature="0" />
      <path
         d="m 511.296,629.256 c -0.164,0 -0.322,-0.023 -0.48,-0.048 -0.069,-0.562 -0.103,-1.141 -0.103,-1.734 v -4.066 c 0.188,-0.038 0.384,-0.059 0.583,-0.059 1.632,0 2.954,1.322 2.954,2.953 0,1.632 -1.322,2.954 -2.954,2.954"
         style="fill:#ed3224;fill-opacity:1;fill-rule:nonzero;stroke:none;stroke-width:0.1"
         id="path280"
         inkscape:connector-curvature="0" />
      <path
         d="m 706.747,636.401 c -0.018,-0.228 -0.041,-0.456 -0.041,-0.69 0,-4.739 3.842,-8.58 8.58,-8.58 0.464,0 0.916,0.047 1.36,0.119 v 0.224 c 0,4.793 -2.98,8.694 -9.899,8.927"
         style="fill:#ecd631;fill-opacity:1;fill-rule:nonzero;stroke:none;stroke-width:0.1"
         id="path282"
         inkscape:connector-curvature="0" />
      <path
         d="m 553.228,605.842 c 0,-6.439 -5.22,-11.659 -11.661,-11.659 -6.438,0 -11.659,5.22 -11.659,11.659 0,6.441 5.221,11.661 11.659,11.661 6.441,0 11.661,-5.22 11.661,-11.661"
         style="fill:#3f4340;fill-opacity:1;fill-rule:nonzero;stroke:none;stroke-width:0.1"
         id="path284"
         inkscape:connector-curvature="0" />
      <path
         d="m 548.285,605.842 c 0,-3.709 -3.008,-6.716 -6.718,-6.716 -3.708,0 -6.714,3.007 -6.714,6.716 0,3.71 3.006,6.717 6.714,6.717 3.71,0 6.718,-3.007 6.718,-6.717"
         style="fill:#adadad;fill-opacity:1;fill-rule:nonzero;stroke:none;stroke-width:0.1"
         id="path286"
         inkscape:connector-curvature="0" />
      <path
         d="m 695.238,605.842 c 0,-6.439 -5.218,-11.659 -11.659,-11.659 -6.439,0 -11.66,5.22 -11.66,11.659 0,6.441 5.221,11.661 11.66,11.661 6.441,0 11.659,-5.22 11.659,-11.661"
         style="fill:#3f4340;fill-opacity:1;fill-rule:nonzero;stroke:none;stroke-width:0.1"
         id="path288"
         inkscape:connector-curvature="0" />
      <path
         d="m 690.296,605.842 c 0,-3.709 -3.007,-6.716 -6.717,-6.716 -3.709,0 -6.716,3.007 -6.716,6.716 0,3.71 3.007,6.717 6.716,6.717 3.71,0 6.717,-3.007 6.717,-6.717"
         style="fill:#adadad;fill-opacity:1;fill-rule:nonzero;stroke:none;stroke-width:0.1"
         id="path290"
         inkscape:connector-curvature="0" />
    </g>
  </g>
</svg>
