<?xml version="1.0" encoding="UTF-8" standalone="no"?>
<!-- Created with Inkscape (http://www.inkscape.org/) -->

<svg
   xmlns:dc="http://purl.org/dc/elements/1.1/"
   xmlns:cc="http://creativecommons.org/ns#"
   xmlns:rdf="http://www.w3.org/1999/02/22-rdf-syntax-ns#"
   xmlns:svg="http://www.w3.org/2000/svg"
   xmlns="http://www.w3.org/2000/svg"
   xmlns:sodipodi="http://sodipodi.sourceforge.net/DTD/sodipodi-0.dtd"
   xmlns:inkscape="http://www.inkscape.org/namespaces/inkscape"
   width="210mm"
   height="297mm"
   viewBox="0 0 210 297"
   version="1.1"
   id="svg1526"
   inkscape:version="0.92.3 (2405546, 2018-03-11)"
   sodipodi:docname="crl2.svg">
  <defs
     id="defs1520" />
  <sodipodi:namedview
     id="base"
     pagecolor="#ffffff"
     bordercolor="#666666"
     borderopacity="1.0"
     inkscape:pageopacity="0.0"
     inkscape:pageshadow="2"
     inkscape:zoom="0.35"
     inkscape:cx="-64.285714"
     inkscape:cy="560"
     inkscape:document-units="mm"
     inkscape:current-layer="layer1"
     showgrid="false"
     inkscape:window-width="1366"
     inkscape:window-height="745"
     inkscape:window-x="-8"
     inkscape:window-y="-8"
     inkscape:window-maximized="1" />
  <metadata
     id="metadata1523">
    <rdf:RDF>
      <cc:Work
         rdf:about="">
        <dc:format>image/svg+xml</dc:format>
        <dc:type
           rdf:resource="http://purl.org/dc/dcmitype/StillImage" />
        <dc:title></dc:title>
      </cc:Work>
    </rdf:RDF>
  </metadata>
  <g
     inkscape:label="Layer 1"
     inkscape:groupmode="layer"
     id="layer1">
    <g
       id="g2383"
       transform="translate(-108.85714,-15.119048)">
      <path
         d="m 114.37187,51.079064 h -7.57555 l 2.38442,3.198283 h 5.02885 c 0,0 -1.09467,-1.43016 0.16228,-3.198283"
         style="fill:#3f4340;fill-opacity:1;fill-rule:nonzero;stroke:none;stroke-width:0.03527778"
         id="path292"
         inkscape:connector-curvature="0" />
      <path
         d="m 116.30826,17.763437 h -1.89829 c 0,0 -1.89724,0.10548 -1.89724,1.581502 0,1.476375 0,36.375268 0,36.375268 0,0 0.21061,1.898299 2.95204,1.898299 h 82.76731 c 0,0 2.74144,0.21096 2.74144,-2.319867 V 37.692911 c 0,0 -0.31644,-1.478138 -2.31987,-1.6891 0,0 -10.43834,-1.370894 -11.49244,-2.003425 -1.05445,-0.63253 -5.2444,-16.234833 -8.82967,-16.234833 -3.58423,0 -62.02328,-0.0021 -62.02328,-0.0021"
         style="fill:#fbb138;fill-opacity:1;fill-rule:nonzero;stroke:none;stroke-width:0.03527778"
         id="path294"
         inkscape:connector-curvature="0" />
      <path
         d="M 182.90036,34.213111 H 165.9254 V 20.506637 h 11.59792 l 5.37704,13.706474"
         style="fill:#d2edf3;fill-opacity:1;fill-rule:nonzero;stroke:none;stroke-width:0.03527778"
         id="path296"
         inkscape:connector-curvature="0" />
      <path
         d="M 164.44902,34.213111 H 153.3785 V 20.506637 h 11.07052 v 13.706474"
         style="fill:#d2edf3;fill-opacity:1;fill-rule:nonzero;stroke:none;stroke-width:0.03527778"
         id="path298"
         inkscape:connector-curvature="0" />
      <path
         d="M 151.7963,34.213111 H 140.72578 V 20.506637 h 11.07052 v 13.706474"
         style="fill:#d2edf3;fill-opacity:1;fill-rule:nonzero;stroke:none;stroke-width:0.03527778"
         id="path300"
         inkscape:connector-curvature="0" />
      <path
         d="M 139.14463,34.213111 H 128.07376 V 20.506637 h 11.07087 v 13.706474"
         style="fill:#d2edf3;fill-opacity:1;fill-rule:nonzero;stroke:none;stroke-width:0.03527778"
         id="path302"
         inkscape:connector-curvature="0" />
      <path
         d="M 126.49225,34.213111 H 115.42138 V 20.506637 h 11.07087 v 13.706474"
         style="fill:#d2edf3;fill-opacity:1;fill-rule:nonzero;stroke:none;stroke-width:0.03527778"
         id="path304"
         inkscape:connector-curvature="0" />
      <path
         d="m 200.97352,50.548487 h -88.46079 v -1.362781 h 88.46079 v 1.362781"
         style="fill:#fcdc30;fill-opacity:1;fill-rule:nonzero;stroke:none;stroke-width:0.03527778"
         id="path306"
         inkscape:connector-curvature="0" />
      <path
         d="m 200.97352,53.360479 h -88.46079 v -1.36384 h 88.46079 v 1.36384"
         style="fill:#222220;fill-opacity:1;fill-rule:nonzero;stroke:none;stroke-width:0.03527778"
         id="path308"
         inkscape:connector-curvature="0" />
      <path
         d="m 120.82841,57.623445 c 0,4.191704 3.3976,7.589309 7.59001,7.589309 4.19206,0 7.59001,-3.397605 7.59001,-7.589309 0,-4.192764 -3.39795,-7.591073 -7.59001,-7.591073 -4.19241,0 -7.59001,3.398309 -7.59001,7.591073"
         style="fill:#3f4340;fill-opacity:1;fill-rule:nonzero;stroke:none;stroke-width:0.03527778"
         id="path310"
         inkscape:connector-curvature="0" />
      <path
         d="m 124.0468,57.623445 c 0,2.414059 1.9565,4.370917 4.37162,4.370917 2.41371,0 4.37162,-1.956858 4.37162,-4.370917 0,-2.415116 -1.95791,-4.372681 -4.37162,-4.372681 -2.41512,0 -4.37162,1.957565 -4.37162,4.372681"
         style="fill:#adadad;fill-opacity:1;fill-rule:nonzero;stroke:none;stroke-width:0.03527778"
         id="path312"
         inkscape:connector-curvature="0" />
      <path
         d="m 175.3107,57.623445 c 0,4.191704 3.39725,7.589309 7.58966,7.589309 4.1917,0 7.59072,-3.397605 7.59072,-7.589309 0,-4.192764 -3.39902,-7.591073 -7.59072,-7.591073 -4.19241,0 -7.58966,3.398309 -7.58966,7.591073"
         style="fill:#3f4340;fill-opacity:1;fill-rule:nonzero;stroke:none;stroke-width:0.03527778"
         id="path314"
         inkscape:connector-curvature="0" />
      <path
         d="m 178.52874,57.623445 c 0,2.414059 1.95686,4.370917 4.37162,4.370917 2.41406,0 4.37198,-1.956858 4.37198,-4.370917 0,-2.415116 -1.95792,-4.372681 -4.37198,-4.372681 -2.41476,0 -4.37162,1.957565 -4.37162,4.372681"
         style="fill:#adadad;fill-opacity:1;fill-rule:nonzero;stroke:none;stroke-width:0.03527778"
         id="path316"
         inkscape:connector-curvature="0" />
      <path
         d="m 137.68095,45.947912 c 0.008,0.515408 -0.12665,0.956379 -0.40146,1.32221 -0.18133,0.248002 -0.43603,0.422982 -0.76659,0.524934 -0.17744,0.05539 -0.38417,0.0829 -0.61982,0.0829 -0.4371,0 -0.79869,-0.108301 -1.08656,-0.324553 -0.23989,-0.177096 -0.42933,-0.418396 -0.56903,-0.722841 -0.139,-0.305155 -0.22084,-0.65405 -0.24483,-1.047398 l 1.06186,-0.07726 c 0.048,0.431448 0.16157,0.74436 0.3429,0.937331 0.13335,0.146754 0.28646,0.215545 0.46038,0.207785 0.24377,-0.0081 0.4385,-0.128058 0.5842,-0.360185 0.0741,-0.1143 0.11183,-0.277638 0.11183,-0.490715 0,-0.306565 -0.1397,-0.612423 -0.4191,-0.914752 -0.21978,-0.208846 -0.55069,-0.521758 -0.99095,-0.939095 -0.37007,-0.358422 -0.63183,-0.67945 -0.78494,-0.96273 -0.16545,-0.318911 -0.24835,-0.665692 -0.24835,-1.039636 0,-0.6731 0.22648,-1.183217 0.6791,-1.529645 0.27904,-0.208844 0.62512,-0.312914 1.03893,-0.312914 0.39687,0 0.73695,0.08819 1.02023,0.265289 0.21978,0.137936 0.39864,0.330906 0.53375,0.578908 0.13618,0.247298 0.21767,0.532342 0.24554,0.854781 l -1.06821,0.195086 c -0.0314,-0.303742 -0.11783,-0.539397 -0.25965,-0.708378 -0.10266,-0.121708 -0.24977,-0.183091 -0.44238,-0.183091 -0.20497,0 -0.35984,0.09102 -0.46602,0.271286 -0.0864,0.14605 -0.13018,0.326672 -0.13018,0.54363 0,0.337609 0.1457,0.682273 0.43639,1.032228 0.11077,0.133703 0.27516,0.290689 0.496,0.472017 0.2593,0.216253 0.43075,0.367947 0.51294,0.454025 0.27517,0.275518 0.4879,0.547158 0.63747,0.814564 0.0713,0.125942 0.12806,0.242359 0.17145,0.348544 0.10548,0.263173 0.16087,0.499533 0.1651,0.707673"
         style="fill:#231f20;fill-opacity:1;fill-rule:nonzero;stroke:none;stroke-width:0.03527778"
         id="path318"
         inkscape:connector-curvature="0" />
      <path
         d="m 140.35924,47.883249 c -0.49106,0 -0.90911,-0.17145 -1.25342,-0.516112 -0.34431,-0.343606 -0.51647,-0.759883 -0.51647,-1.247775 v -4.036131 c 0,-0.492125 0.17287,-0.909461 0.51929,-1.254125 0.34643,-0.344311 0.76341,-0.51682 1.2506,-0.51682 0.49213,0 0.90946,0.17392 1.2513,0.519642 0.34255,0.346428 0.5133,0.763411 0.5133,1.251303 v 0.843139 h -1.15641 v -0.867128 c 0,-0.176389 -0.0628,-0.328083 -0.18909,-0.454378 -0.12559,-0.125236 -0.27693,-0.188736 -0.45402,-0.188736 -0.17639,0 -0.32738,0.0635 -0.45191,0.188736 -0.12347,0.126295 -0.18521,0.277989 -0.18521,0.454378 v 4.048478 c 0,0.177094 0.0617,0.327377 0.18521,0.451202 0.12453,0.124177 0.27552,0.18556 0.45191,0.18556 0.17709,0 0.32843,-0.06138 0.45402,-0.18556 0.1263,-0.123825 0.18909,-0.274108 0.18909,-0.451202 v -1.020939 h 1.15641 v 1.032581 c 0,0.491419 -0.17286,0.908754 -0.51859,1.251302 -0.34642,0.341842 -0.76165,0.512585 -1.24601,0.512585"
         style="fill:#231f20;fill-opacity:1;fill-rule:nonzero;stroke:none;stroke-width:0.03527778"
         id="path320"
         inkscape:connector-curvature="0" />
      <path
         d="m 144.15337,44.656039 v 3.133018 h -1.11513 v -7.393162 h 1.11513 v 3.139016 h 1.3462 v -3.139016 h 1.11513 v 7.393162 h -1.11513 v -3.133018 h -1.3462"
         style="fill:#231f20;fill-opacity:1;fill-rule:nonzero;stroke:none;stroke-width:0.03527778"
         id="path322"
         inkscape:connector-curvature="0" />
      <path
         d="m 149.97208,42.047953 c 0,-0.177094 -0.0621,-0.327731 -0.18591,-0.451203 -0.12383,-0.124178 -0.27446,-0.186619 -0.4512,-0.186619 -0.17745,0 -0.32879,0.06244 -0.45473,0.186619 -0.12665,0.123472 -0.18874,0.274109 -0.18874,0.451203 v 4.047419 c 0,0.1778 0.0621,0.328084 0.18874,0.451909 0.12594,0.124176 0.27728,0.18556 0.45473,0.18556 0.17674,0 0.32737,-0.06138 0.4512,-0.18556 0.12382,-0.123825 0.18591,-0.274109 0.18591,-0.451909 z M 149.3646,40.30135 c 0.49142,0 0.90946,0.172861 1.25342,0.518936 0.34396,0.346428 0.51647,0.763411 0.51647,1.251303 v 4.036131 c 0,0.492125 -0.17286,0.909461 -0.51929,1.253419 -0.34643,0.34431 -0.76306,0.516818 -1.2506,0.516818 -0.49212,0 -0.90876,-0.173212 -1.2513,-0.519641 C 147.77145,47.012595 147.6,46.595612 147.6,46.10772 v -4.036131 c 0,-0.492125 0.17287,-0.910167 0.51894,-1.25483 0.34608,-0.343253 0.7613,-0.515409 1.24566,-0.515409"
         style="fill:#231f20;fill-opacity:1;fill-rule:nonzero;stroke:none;stroke-width:0.03527778"
         id="path324"
         inkscape:connector-curvature="0" />
      <path
         d="m 154.46824,42.047953 c 0,-0.177094 -0.0621,-0.327731 -0.18627,-0.451203 -0.12347,-0.124178 -0.27411,-0.186619 -0.45156,-0.186619 -0.17603,0 -0.32773,0.06244 -0.45402,0.186619 -0.12559,0.123472 -0.18803,0.274109 -0.18803,0.451203 v 4.047419 c 0,0.1778 0.0624,0.328084 0.18803,0.451909 0.12629,0.124176 0.27799,0.18556 0.45402,0.18556 0.17745,0 0.32809,-0.06138 0.45156,-0.18556 0.12418,-0.123825 0.18627,-0.274109 0.18627,-0.451909 z M 153.8604,40.30135 c 0.49142,0 0.90981,0.172861 1.25448,0.518936 0.34325,0.346428 0.51541,0.763411 0.51541,1.251303 v 4.036131 c 0,0.492125 -0.17286,0.909461 -0.51894,1.253419 -0.34572,0.34431 -0.76341,0.516818 -1.25095,0.516818 -0.49177,0 -0.9084,-0.173212 -1.25025,-0.519641 -0.34325,-0.345721 -0.5147,-0.762704 -0.5147,-1.250596 v -4.036131 c 0,-0.492125 0.17357,-0.910167 0.52035,-1.25483 0.34572,-0.343253 0.76059,-0.515409 1.2446,-0.515409"
         style="fill:#231f20;fill-opacity:1;fill-rule:nonzero;stroke:none;stroke-width:0.03527778"
         id="path326"
         inkscape:connector-curvature="0" />
      <path
         d="m 159.65513,47.789057 h -3.03954 v -7.393162 h 1.11549 v 6.283677 h 1.92405 v 1.109485"
         style="fill:#231f20;fill-opacity:1;fill-rule:nonzero;stroke:none;stroke-width:0.03527778"
         id="path328"
         inkscape:connector-curvature="0" />
      <path
         d="m 162.39198,46.685922 h 0.46672 c 0.37818,0 0.63924,-0.195085 0.78458,-0.584552 0.0512,-0.13335 0.0769,-0.287163 0.0769,-0.460023 0,-0.413456 -0.079,-0.714023 -0.23566,-0.902758 -0.14146,-0.17286 -0.35066,-0.259644 -0.62582,-0.259644 h -0.46673 z m 0,-3.274836 h 0.46672 c 0.34572,0 0.57785,-0.16898 0.69568,-0.508 0.0437,-0.125236 0.0653,-0.281164 0.0653,-0.465666 0,-0.306564 -0.0741,-0.539045 -0.22437,-0.696736 -0.13723,-0.145345 -0.31574,-0.21837 -0.53657,-0.21837 h -0.46672 z m -1.20333,4.377971 v -7.399512 h 1.67005 c 0.44097,0 0.8375,0.116416 1.19204,0.347839 0.30268,0.197202 0.51929,0.50165 0.64876,0.915105 0.0709,0.220486 0.10618,0.481542 0.10618,0.784931 0,0.4953 -0.13158,0.89288 -0.39511,1.192036 -0.11042,0.125236 -0.24024,0.222603 -0.38947,0.288572 0.24801,0.09525 0.45861,0.281869 0.63148,0.560917 0.11359,0.188736 0.19861,0.432504 0.25364,0.731661 0.0275,0.15381 0.0413,0.324556 0.0413,0.513291 0,0.467784 -0.0882,0.865365 -0.26493,1.192035 -0.13794,0.255765 -0.33303,0.460375 -0.5842,0.613834 -0.28328,0.173215 -0.56515,0.259291 -0.8442,0.259291 h -2.06551"
         style="fill:#231f20;fill-opacity:1;fill-rule:nonzero;stroke:none;stroke-width:0.03527778"
         id="path330"
         inkscape:connector-curvature="0" />
      <path
         d="m 167.66741,47.872314 c -0.49141,0 -0.9084,-0.172157 -1.25024,-0.513998 -0.3429,-0.342546 -0.51435,-0.756709 -0.51435,-1.244952 v -5.717469 h 1.09255 v 5.705475 c 0,0.177094 0.0628,0.328084 0.18803,0.451554 0.12665,0.123825 0.27799,0.185915 0.45438,0.185915 0.1771,0 0.32773,-0.06209 0.45156,-0.185915 0.12417,-0.12347 0.18626,-0.27446 0.18626,-0.451554 v -5.705475 h 1.16205 v 5.717469 c 0,0.496006 -0.17286,0.91299 -0.51929,1.251302 -0.34536,0.338315 -0.76341,0.507648 -1.25095,0.507648"
         style="fill:#231f20;fill-opacity:1;fill-rule:nonzero;stroke:none;stroke-width:0.03527778"
         id="path332"
         inkscape:connector-curvature="0" />
      <path
         d="m 174.0467,45.947912 c 0.008,0.515408 -0.12665,0.956379 -0.40146,1.32221 -0.18133,0.248002 -0.43639,0.422982 -0.76694,0.524934 -0.1771,0.05539 -0.38383,0.0829 -0.61948,0.0829 -0.43745,0 -0.79869,-0.108301 -1.08656,-0.324553 -0.23989,-0.177097 -0.42933,-0.418397 -0.56903,-0.722842 -0.13934,-0.305155 -0.22084,-0.65405 -0.24483,-1.047398 l 1.06186,-0.07726 c 0.0476,0.431448 0.16158,0.74436 0.3429,0.937331 0.13335,0.146754 0.28646,0.215545 0.46038,0.207785 0.24377,-0.0081 0.4385,-0.128058 0.58385,-0.360185 0.0744,-0.1143 0.11218,-0.277638 0.11218,-0.490715 0,-0.306565 -0.1397,-0.612423 -0.41945,-0.914752 -0.21943,-0.208846 -0.55033,-0.521758 -0.9906,-0.939095 -0.37042,-0.358422 -0.63218,-0.67945 -0.78493,-0.96273 -0.16581,-0.318911 -0.24836,-0.665692 -0.24836,-1.039636 0,-0.6731 0.22648,-1.183217 0.67839,-1.529645 0.27976,-0.208844 0.62583,-0.312914 1.03929,-0.312914 0.39687,0 0.73695,0.08819 1.02058,0.265289 0.21978,0.137936 0.39864,0.330906 0.53376,0.578908 0.13581,0.247298 0.21766,0.532342 0.24553,0.854781 l -1.06821,0.195086 c -0.0314,-0.303742 -0.11818,-0.539397 -0.26,-0.708378 -0.10231,-0.121708 -0.24977,-0.183091 -0.44203,-0.183091 -0.20496,0 -0.35983,0.09102 -0.46602,0.271286 -0.0871,0.14605 -0.13017,0.326672 -0.13017,0.54363 0,0.337609 0.14534,0.682273 0.43638,1.032228 0.11007,0.133703 0.27517,0.290689 0.49601,0.472017 0.25929,0.216253 0.43039,0.367947 0.51294,0.454025 0.27516,0.275518 0.48789,0.547158 0.63747,0.814564 0.0713,0.125942 0.1277,0.242359 0.17145,0.348544 0.10548,0.263173 0.16086,0.499533 0.1651,0.707673"
         style="fill:#231f20;fill-opacity:1;fill-rule:nonzero;stroke:none;stroke-width:0.03527778"
         id="path334"
         inkscape:connector-curvature="0" />
      <path
         d="m 200.97352,39.055692 h -88.46079 v -1.362781 h 88.46079 v 1.362781"
         style="fill:#fcdc30;fill-opacity:1;fill-rule:nonzero;stroke:none;stroke-width:0.03527778"
         id="path336"
         inkscape:connector-curvature="0" />
      <path
         d="m 112.51273,49.185706 h -1.37936 V 46.51412 h 1.37936 v 2.671586"
         style="fill:#ed3224;fill-opacity:1;fill-rule:nonzero;stroke:none;stroke-width:0.03527778"
         id="path338"
         inkscape:connector-curvature="0" />
      <path
         d="m 203.14416,42.296661 h -2.17064 v -3.240969 h 2.17064 v 3.240969"
         style="fill:#eca121;fill-opacity:1;fill-rule:nonzero;stroke:none;stroke-width:0.03527778"
         id="path340"
         inkscape:connector-curvature="0" />
    </g>
  </g>
</svg>
