<?xml version="1.0" encoding="UTF-8" standalone="no"?>
<!-- Created with Inkscape (http://www.inkscape.org/) -->

<svg
   xmlns:dc="http://purl.org/dc/elements/1.1/"
   xmlns:cc="http://creativecommons.org/ns#"
   xmlns:rdf="http://www.w3.org/1999/02/22-rdf-syntax-ns#"
   xmlns:svg="http://www.w3.org/2000/svg"
   xmlns="http://www.w3.org/2000/svg"
   xmlns:sodipodi="http://sodipodi.sourceforge.net/DTD/sodipodi-0.dtd"
   xmlns:inkscape="http://www.inkscape.org/namespaces/inkscape"
   width="210mm"
   height="297mm"
   viewBox="0 0 210 297"
   version="1.1"
   id="svg1526"
   inkscape:version="0.92.3 (2405546, 2018-03-11)"
   sodipodi:docname="crr2.svg">
  <defs
     id="defs1520" />
  <sodipodi:namedview
     id="base"
     pagecolor="#ffffff"
     bordercolor="#666666"
     borderopacity="1.0"
     inkscape:pageopacity="0.0"
     inkscape:pageshadow="2"
     inkscape:zoom="0.35"
     inkscape:cx="-64.285714"
     inkscape:cy="560"
     inkscape:document-units="mm"
     inkscape:current-layer="layer1"
     showgrid="false"
     inkscape:window-width="1366"
     inkscape:window-height="745"
     inkscape:window-x="-8"
     inkscape:window-y="-8"
     inkscape:window-maximized="1" />
  <metadata
     id="metadata1523">
    <rdf:RDF>
      <cc:Work
         rdf:about="">
        <dc:format>image/svg+xml</dc:format>
        <dc:type
           rdf:resource="http://purl.org/dc/dcmitype/StillImage" />
        <dc:title></dc:title>
      </cc:Work>
    </rdf:RDF>
  </metadata>
  <g
     inkscape:label="Layer 1"
     inkscape:groupmode="layer"
     id="layer1">
    <g
       transform="matrix(0.35277777,0,0,-0.35277777,242.71304,180.33465)"
       id="g2203">
      <path
         d="M -92.865868,413.084 H -320.52087 v 95.219 h 227.655002 v -95.219"
         style="fill:#08694e;fill-opacity:1;fill-rule:nonzero;stroke:none;stroke-width:0.1"
         id="path346"
         inkscape:connector-curvature="0" />
      <path
         d="M -92.865868,396 H -320.52087 v 19.379 H -92.865868 V 396"
         style="fill:#3f4340;fill-opacity:1;fill-rule:nonzero;stroke:none;stroke-width:0.1"
         id="path348"
         inkscape:connector-curvature="0" />
      <path
         d="m -302.92687,397.006 c 0,-10.813 8.763,-19.576 19.576,-19.576 10.812,0 19.576,8.763 19.576,19.576 0,10.812 -8.764,19.576 -19.576,19.576 -10.813,0 -19.576,-8.764 -19.576,-19.576"
         style="fill:#3f4340;fill-opacity:1;fill-rule:nonzero;stroke:none;stroke-width:0.1"
         id="path350"
         inkscape:connector-curvature="0" />
      <path
         d="m -294.62687,397.006 c 0,-6.229 5.048,-11.277 11.276,-11.277 6.226,0 11.277,5.048 11.277,11.277 0,6.226 -5.051,11.275 -11.277,11.275 -6.228,0 -11.276,-5.049 -11.276,-11.275"
         style="fill:#adadad;fill-opacity:1;fill-rule:nonzero;stroke:none;stroke-width:0.1"
         id="path352"
         inkscape:connector-curvature="0" />
      <path
         d="m -145.92587,397.006 c 0,-10.813 8.764,-19.576 19.576,-19.576 10.812,0 19.577,8.763 19.577,19.576 0,10.812 -8.765,19.576 -19.577,19.576 -10.812,0 -19.576,-8.764 -19.576,-19.576"
         style="fill:#3f4340;fill-opacity:1;fill-rule:nonzero;stroke:none;stroke-width:0.1"
         id="path354"
         inkscape:connector-curvature="0" />
      <path
         d="m -137.62587,397.006 c 0,-6.229 5.048,-11.277 11.276,-11.277 6.227,0 11.277,5.048 11.277,11.277 0,6.226 -5.05,11.275 -11.277,11.275 -6.228,0 -11.276,-5.049 -11.276,-11.275"
         style="fill:#adadad;fill-opacity:1;fill-rule:nonzero;stroke:none;stroke-width:0.1"
         id="path356"
         inkscape:connector-curvature="0" />
      <path
         d="m -86.002868,401.799 h -7.75 v 8.293 h 7.75 v -8.293"
         style="fill:#3f4340;fill-opacity:1;fill-rule:nonzero;stroke:none;stroke-width:0.1"
         id="path358"
         inkscape:connector-curvature="0" />
      <path
         d="m -88.041868,425.23 h -4.824 v 9.528 h 4.824 v -9.528"
         style="fill:#ed3224;fill-opacity:1;fill-rule:nonzero;stroke:none;stroke-width:0.1"
         id="path360"
         inkscape:connector-curvature="0" />
      <path
         d="m -320.52087,411.57 h -7.371 v 7.616 h 7.371 v -7.616"
         style="fill:#3f4340;fill-opacity:1;fill-rule:nonzero;stroke:none;stroke-width:0.1"
         id="path362"
         inkscape:connector-curvature="0" />
      <path
         d="m -327.89187,396 h -100.124 v 47.768 l 32.54,19.816 v 24.9 l 30.489,19.819 h 37.095 V 396"
         style="fill:#00b082;fill-opacity:1;fill-rule:nonzero;stroke:none;stroke-width:0.1"
         id="path364"
         inkscape:connector-curvature="0" />
      <path
         d="m -373.11687,462.061 h -22.359 v 20.834 h 22.359 v -20.834"
         style="fill:#d2edf3;fill-opacity:1;fill-rule:nonzero;stroke:none;stroke-width:0.1"
         id="path366"
         inkscape:connector-curvature="0" />
      <path
         d="m -373.11687,482.895 h -31.505 v 9.656 h 31.505 v -9.656"
         style="fill:#00b082;fill-opacity:1;fill-rule:nonzero;stroke:none;stroke-width:0.1"
         id="path368"
         inkscape:connector-curvature="0" />
      <path
         d="m -428.01587,428.855 h -4.8493 v 8.522 h 4.8493 v -8.522"
         style="fill:#eca121;fill-opacity:1;fill-rule:nonzero;stroke:none;stroke-width:0.1"
         id="path370"
         inkscape:connector-curvature="0" />
      <path
         d="m -420.92337,397.006 c 0,-10.813 8.7641,-19.576 19.5765,-19.576 10.811,0 19.576,8.763 19.576,19.576 0,10.812 -8.765,19.576 -19.576,19.576 -10.8124,0 -19.5765,-8.764 -19.5765,-19.576"
         style="fill:#3f4340;fill-opacity:1;fill-rule:nonzero;stroke:none;stroke-width:0.1"
         id="path372"
         inkscape:connector-curvature="0" />
      <path
         d="m -412.62337,397.006 c 0,-6.229 5.0475,-11.277 11.2765,-11.277 6.225,0 11.276,5.048 11.276,11.277 0,6.226 -5.051,11.275 -11.276,11.275 -6.229,0 -11.2765,-5.049 -11.2765,-11.275"
         style="fill:#adadad;fill-opacity:1;fill-rule:nonzero;stroke:none;stroke-width:0.1"
         id="path374"
         inkscape:connector-curvature="0" />
      <path
         d="m -367.10487,397.006 c 0,-10.813 8.763,-19.576 19.576,-19.576 10.812,0 19.576,8.763 19.576,19.576 0,10.812 -8.764,19.576 -19.576,19.576 -10.813,0 -19.576,-8.764 -19.576,-19.576"
         style="fill:#3f4340;fill-opacity:1;fill-rule:nonzero;stroke:none;stroke-width:0.1"
         id="path376"
         inkscape:connector-curvature="0" />
      <path
         d="m -358.80587,397.006 c 0,-6.229 5.049,-11.277 11.277,-11.277 6.226,0 11.277,5.048 11.277,11.277 0,6.226 -5.051,11.275 -11.277,11.275 -6.228,0 -11.277,-5.049 -11.277,-11.275"
         style="fill:#adadad;fill-opacity:1;fill-rule:nonzero;stroke:none;stroke-width:0.1"
         id="path378"
         inkscape:connector-curvature="0" />
    </g>
  </g>
</svg>
