<?xml version="1.0" encoding="UTF-8" standalone="no"?>
<svg
   xmlns:dc="http://purl.org/dc/elements/1.1/"
   xmlns:cc="http://creativecommons.org/ns#"
   xmlns:rdf="http://www.w3.org/1999/02/22-rdf-syntax-ns#"
   xmlns:svg="http://www.w3.org/2000/svg"
   xmlns="http://www.w3.org/2000/svg"
   id="svg1907"
   version="1.1"
   viewBox="0 0 210 297"
   height="297mm"
   width="210mm">
  <defs
     id="defs1901" />
  <metadata
     id="metadata1904">
    <rdf:RDF>
      <cc:Work
         rdf:about="">
        <dc:format>image/svg+xml</dc:format>
        <dc:type
           rdf:resource="http://purl.org/dc/dcmitype/StillImage" />
        <dc:title></dc:title>
      </cc:Work>
    </rdf:RDF>
  </metadata>
  <g
     id="layer1">
    <path
       d="m 199.90558,111.20126 c 0,-47.151275 -40.7633,-85.376297 -91.0485,-85.376297 -50.28519,0 -91.048484,38.225022 -91.048484,85.376297 0,23.63654 20.588285,46.95862 37.140619,64.34168 l -0.01674,0.007 0.170034,0.15058 c 0.975332,1.02306 1.976645,2.0284 2.996849,3.00938 5.006557,5.36328 14.691413,17.3122 19.622399,33.87371 h 5.625287 9.018891 11.378105 10.26108 11.45604 9.07556 5.66781 c 5.15297,-17.31884 15.49906,-29.59549 20.26711,-34.56904 0.58568,-0.57133 1.1619,-1.15148 1.73104,-1.7383 0.49832,-0.47831 0.77696,-0.72633 0.77696,-0.72633 l -0.0495,-0.022 c 16.54053,-17.38306 36.97531,-40.6985 36.97531,-64.32618"
       style="fill:#69a4dd;fill-opacity:1;fill-rule:nonzero;stroke:none;stroke-width:0.22868092"
       id="path714" />
    <path
       d="m 80.385833,175.70016 -0.09211,-0.15058 0.0094,-0.007 C 71.534563,158.15952 60.62877,134.83744 60.62877,111.2009 c 0,-47.151275 21.594318,-85.376297 48.22826,-85.376297 -41.195466,0 -74.592975,38.225022 -74.592975,85.376297 0,23.63654 16.866429,46.95862 30.42664,64.34168 l -0.01205,0.007 0.139308,0.15058 c 0.800572,1.02306 1.617686,2.0284 2.456047,3.00938 4.10207,5.36328 12.034625,17.3122 16.072932,33.87371 h 9.018892 c -2.613918,-16.56151 -7.743282,-28.51043 -10.392974,-33.87371 -0.540828,-0.98098 -1.072158,-1.98632 -1.586986,-3.00938"
       style="fill:#ffffff;fill-opacity:1;fill-rule:nonzero;stroke:none;stroke-width:0.22868092"
       id="path716" />
    <path
       d="m 152.56291,176.27591 c 0.40621,-0.47831 0.63763,-0.72633 0.63763,-0.72633 l -0.0449,-0.022 c 13.55313,-17.38306 30.2944,-40.6985 30.2944,-64.32618 0,-47.151275 -33.39515,-85.376298 -74.59298,-85.376298 26.6363,0 48.2259,38.225023 48.2259,85.376298 0,23.62768 -10.82314,46.94312 -19.58461,64.32618 l 0.0281,0.022 c 0,0 -0.15116,0.24801 -0.4133,0.72633 -0.30231,0.58684 -0.6069,1.16699 -0.91866,1.73831 -2.52453,4.97354 -8.00341,17.25019 -10.7334,34.56903 h 9.07557 c 4.22487,-17.31884 12.70059,-29.59549 16.60666,-34.56903 0.47703,-0.57134 0.95171,-1.15149 1.4193,-1.73831"
       style="fill:#ffffff;fill-opacity:1;fill-rule:nonzero;stroke:none;stroke-width:0.22868092"
       id="path718" />
    <path
       d="m 117.6162,176.27591 c 0.0803,-0.47831 0.12752,-0.72633 0.12752,-0.72633 l -0.007,-0.022 c 2.71345,-17.38306 6.06927,-40.6985 6.06927,-64.32618 0,-47.151275 -6.69273,-85.376298 -14.94883,-85.376298 -8.25609,0 -14.951182,38.225023 -14.951182,85.376298 0,23.63653 3.381789,46.95862 6.099972,64.34168 l -0.002,0.007 0.0281,0.15058 c 0.15825,1.02306 0.32353,2.0284 0.49122,3.00938 0.8242,5.36328 2.41354,17.3122 3.2212,33.87371 h 10.26109 c 0.84544,-17.31884 2.54343,-29.59549 3.32747,-34.56904 0.0945,-0.57133 0.18891,-1.15148 0.28337,-1.7383"
       style="fill:#ffffff;fill-opacity:1;fill-rule:nonzero;stroke:none;stroke-width:0.22868092"
       id="path720" />
    <path
       d="m 147.28713,255.40537 c 0,4.84291 -4.18944,8.76904 -9.35187,8.76904 -5.16715,0 -9.35187,-3.92613 -9.35187,-8.76904 0,-4.8429 4.18472,-10.66677 9.35187,-10.66677 5.16243,0 9.35187,5.82387 9.35187,10.66677"
       style="fill:#fbc51f;fill-opacity:1;fill-rule:nonzero;stroke:none;stroke-width:0.22868092"
       id="path722" />
    <path
       d="m 137.93526,264.17441 c -0.0187,0 -0.0375,0 -0.0542,0 0.0167,0 0.0355,0 0.0542,0 5.16243,0 9.35187,-3.92613 9.35187,-8.76904 v 0 c 0,4.84291 -4.18944,8.76904 -9.35187,8.76904 m -0.0732,-0.002 c -0.012,0 -0.0234,0 -0.0375,0 0.012,0 0.0261,0 0.0375,0 m -0.0569,0 c -0.0141,0 -0.0281,0 -0.0428,0 0.0141,0 0.0281,0 0.0428,0 m -0.0542,0 c -0.0167,0 -0.0355,0 -0.0522,-0.002 0.0167,0.002 0.0355,0.002 0.0522,0.002 m -0.0732,-0.002 c -0.0121,0 -0.0214,0 -0.0328,0 0.0121,0 0.0214,0 0.0328,0 m -0.0589,-0.002 c -0.007,0 -0.0167,0 -0.0261,0 0.009,0 0.0187,0 0.0261,0 m -0.0522,0 c -0.009,-0.002 -0.0167,-0.002 -0.0261,-0.002 0.009,0 0.0167,0 0.0261,0.002 m -0.085,-0.004 c -0.002,0 -0.007,0 -0.012,0 0.005,0 0.007,0 0.012,0 m -0.0522,-0.002 c -0.002,0 -0.005,0 -0.007,0 0.002,0 0.005,0 0.007,0"
       style="fill:#d6b330;fill-opacity:1;fill-rule:nonzero;stroke:none;stroke-width:0.22868092"
       id="path724" />
    <path
       d="m 137.93526,264.17441 c -0.0187,0 -0.0375,0 -0.0542,0 -0.007,0 -0.0121,0 -0.0188,-0.002 -0.012,0 -0.0261,0 -0.0375,0 -0.007,0 -0.0121,0 -0.0187,0 -0.0141,0 -0.0281,0 -0.0428,0 -0.005,0 -0.007,0 -0.012,0 -0.0167,0 -0.0355,0 -0.0522,-0.002 -0.007,0 -0.0141,0 -0.0214,0 -0.012,0 -0.0214,0 -0.0328,0 -0.007,0 -0.0167,0 -0.0261,-0.002 -0.007,0 -0.0167,0 -0.0261,0 -0.009,0 -0.0187,0 -0.0261,0 -0.009,-0.002 -0.0167,-0.002 -0.0261,-0.002 -0.0188,0 -0.0375,-0.002 -0.0589,-0.002 -0.005,0 -0.007,0 -0.0121,0 -0.0141,0 -0.0281,-0.002 -0.0402,-0.002 -0.002,0 -0.005,0 -0.007,0 -1.18552,-0.0596 -2.31436,-0.32772 -3.34164,-0.76618 l 0.86669,-3.85749 c 3.41958,-0.70418 5.97717,-3.56076 5.97717,-6.97758 0,-1.77817 -0.69194,-3.71355 -1.83967,-5.30571 h 0.43218 c 1.09578,0 2.09945,-0.38755 2.86224,-1.02527 2.92128,2.04389 4.90737,5.84381 4.90737,9.17648 0,4.84291 -4.18944,8.76904 -9.35187,8.76904"
       style="fill:#f9a50d;fill-opacity:1;fill-rule:nonzero;stroke:none;stroke-width:0.22868092"
       id="path726" />
    <path
       d="m 89.506269,255.40537 c 0,4.84291 -4.187087,8.76904 -9.35187,8.76904 -5.164782,0 -9.35187,-3.92613 -9.35187,-8.76904 0,-4.8429 4.187088,-10.66677 9.35187,-10.66677 5.164783,0 9.35187,5.82387 9.35187,10.66677"
       style="fill:#fbc51f;fill-opacity:1;fill-rule:nonzero;stroke:none;stroke-width:0.22868092"
       id="path728" />
    <path
       d="m 80.154399,264.17441 c -0.01874,0 -0.03749,0 -0.05422,0 0.01874,0 0.03548,0 0.05422,0 1.785357,0 3.454997,-0.46946 4.874306,-1.28436 v 0 c -1.419309,0.81491 -3.088949,1.28436 -4.874306,1.28436 m -0.07082,-0.002 c -0.01406,0 -0.02611,0 -0.04017,0 0.01406,0 0.02611,0 0.04017,0 m -0.05891,0 c -0.01406,0 -0.02812,0 -0.04217,0 0.01406,0 0.02812,0 0.04217,0 m -0.05422,0 c -0.01673,0 -0.03548,0 -0.05221,-0.002 0.01674,0.002 0.03548,0.002 0.05221,0.002 m -0.07082,-0.002 c -0.01205,0 -0.02343,0 -0.03548,0 0.01205,0 0.02343,0 0.03548,0 m -0.05891,-0.002 c -0.0094,0 -0.01874,0 -0.03079,0 0.0094,0 0.02142,0 0.03079,0 m -0.05221,0 c -0.01674,-0.002 -0.0328,-0.002 -0.04954,-0.002 0.01674,0 0.0328,0 0.04954,0.002 m -0.07792,-0.004 c -0.0074,0 -0.01673,0 -0.02343,0 0.0074,0 0.01673,0 0.02343,0 m -0.0569,-0.002 c -0.0047,0 -0.01205,0 -0.01673,0 0.0047,0 0.01205,0 0.01673,0 m -0.05221,-0.002 c -0.0024,0 -0.0047,0 -0.0074,0 0.0024,0 0.0047,0 0.0074,0 m -0.136964,-0.009 h -0.0024 0.0024"
       style="fill:#d6b330;fill-opacity:1;fill-rule:nonzero;stroke:none;stroke-width:0.22868092"
       id="path730" />
    <path
       d="m 80.154399,264.17441 c -0.01874,0 -0.03548,0 -0.05422,0 -0.0074,0 -0.01205,0 -0.01674,-0.002 -0.01406,0 -0.02611,0 -0.04017,0 -0.0047,0 -0.01205,0 -0.01874,0 -0.01406,0 -0.02812,0 -0.04217,0 -0.0047,0 -0.0074,0 -0.01205,0 -0.01674,0 -0.03548,0 -0.05222,-0.002 -0.0074,0 -0.01406,0 -0.01874,0 -0.01205,0 -0.02343,0 -0.03548,0 -0.0074,0 -0.01406,0 -0.02343,-0.002 -0.0094,0 -0.02142,0 -0.03079,0 -0.0074,0 -0.01406,0 -0.02142,0 -0.01674,-0.002 -0.0328,-0.002 -0.04954,-0.002 -0.0094,0 -0.01874,-0.002 -0.02812,-0.002 -0.0074,0 -0.01673,0 -0.02343,0 -0.01205,0 -0.02142,-0.002 -0.0328,-0.002 -0.0047,0 -0.01205,0 -0.01674,0 -0.01205,-0.002 -0.02343,-0.002 -0.03548,-0.002 -0.0024,0 -0.0047,0 -0.0074,0 -0.04485,-0.002 -0.08736,-0.007 -0.129869,-0.009 h -0.0024 c -3.662813,-0.2502 -6.732877,-2.48456 -8.012852,-5.56037 1.178429,0.70197 2.574127,1.11606 4.07609,1.11606 3.712411,0 6.806086,-2.4912 7.481496,-5.78844 l 2.021517,8.97275 c -1.419309,0.81491 -3.088949,1.28436 -4.874306,1.28436 m 1.452371,-16.47959 c -0.0968,-0.14839 -0.196007,-0.29671 -0.299902,-0.44065 h 0.200761 l 0.09921,0.44065"
       style="fill:#f9a50d;fill-opacity:1;fill-rule:nonzero;stroke:none;stroke-width:0.22868092"
       id="path732" />
    <path
       d="m 87.739803,241.37049 h -2.496192 l -6.869849,-28.9356 h 3.218844 l 6.147197,28.9356"
       style="fill:#353232;fill-opacity:1;fill-rule:nonzero;stroke:none;stroke-width:0.22868092"
       id="path734" />
    <path
       d="m 102.66029,241.37049 h -2.49383 l -2.533985,-28.9356 h 3.218835 l 1.80898,28.9356"
       style="fill:#353232;fill-opacity:1;fill-rule:nonzero;stroke:none;stroke-width:0.22868092"
       id="path736" />
    <path
       d="m 117.57841,241.37049 h -2.49383 l 1.80897,-28.9356 h 3.2212 l -2.53634,28.9356"
       style="fill:#353232;fill-opacity:1;fill-rule:nonzero;stroke:none;stroke-width:0.22868092"
       id="path738" />
    <path
       d="m 132.50126,241.37049 h -2.4962 l 6.14721,-28.9356 h 3.2212 l -6.87221,28.9356"
       style="fill:#353232;fill-opacity:1;fill-rule:nonzero;stroke:none;stroke-width:0.22868092"
       id="path740" />
    <path
       d="m 81.505226,247.24751 6.109415,27.13308 c 0.562049,2.48678 2.900024,4.26494 5.608759,4.26494 h 32.77406 c 2.70874,0 5.04906,-1.77816 5.60876,-4.26494 l 6.10941,-27.13308 H 81.505226"
       style="fill:#b42b22;fill-opacity:1;fill-rule:nonzero;stroke:none;stroke-width:0.22868092"
       id="path742" />
    <path
       d="m 85.779693,266.22716 1.834948,8.15343 c 0.559706,2.48678 2.900024,4.26494 5.608759,4.26494 h 32.77406 c 2.71109,0 5.04906,-1.77816 5.60876,-4.26494 l 1.83495,-8.15343 H 85.779693"
       style="fill:#98231f;fill-opacity:1;fill-rule:nonzero;stroke:none;stroke-width:0.22868092"
       id="path744" />
    <path
       d="m 137.25277,249.29584 0.46284,-2.04833 H 81.505226 l 0.46284,2.04833 h 55.284674"
       style="fill:#98231f;fill-opacity:1;fill-rule:nonzero;stroke:none;stroke-width:0.22868092"
       id="path746" />
    <path
       d="M 139.51752,239.1583 H 79.703334 c -2.37103,0 -4.316976,1.82246 -4.316976,4.04793 0,2.22769 1.945946,4.04793 4.316976,4.04793 h 59.814186 c 2.37339,0 4.31697,-1.82024 4.31697,-4.04793 0,-2.22547 -1.94358,-4.04793 -4.31697,-4.04793"
       style="fill:#b42b22;fill-opacity:1;fill-rule:nonzero;stroke:none;stroke-width:0.22868092"
       id="path748" />
    <path
       d="m 139.51752,239.1583 h -15.86275 c 2.37575,0 4.31697,1.82024 4.31697,4.04793 0,2.22547 -1.94122,4.04793 -4.31697,4.04793 h 15.86275 c 2.37339,0 4.31697,-1.82246 4.31697,-4.04793 0,-2.22769 -1.94358,-4.04793 -4.31697,-4.04793"
       style="fill:#98231f;fill-opacity:1;fill-rule:nonzero;stroke:none;stroke-width:0.22868092"
       id="path750" />
    <path
       d="m 123.76104,247.24751 c -0.0448,13.76695 -11.9567,24.91425 -26.648112,24.91425 -3.710049,0 -7.24061,-0.71083 -10.447646,-1.99296 l 0.949359,4.21179 c 0.559706,2.48678 2.900024,4.26494 5.608759,4.26494 h 32.77406 c 2.71109,0 5.04906,-1.77816 5.60876,-4.26494 l 6.10941,-27.13308 h -13.95459"
       style="fill:#98231f;fill-opacity:1;fill-rule:nonzero;stroke:none;stroke-width:0.22868092"
       id="path752" />
    <path
       d="M 134.1213,268.9243 H 86.790445 c -1.232747,0 -2.231697,0.9367 -2.231697,2.0904 0,1.15592 0.99895,2.09261 2.231697,2.09261 H 134.1213 c 1.23275,0 2.2317,-0.93669 2.2317,-2.09261 0,-1.1537 -0.99895,-2.0904 -2.2317,-2.0904"
       style="fill:#353232;fill-opacity:1;fill-rule:nonzero;stroke:none;stroke-width:0.22868092"
       id="path754" />
    <path
       d="m 118.94341,252.303 c 0,4.8429 -4.18709,8.76903 -9.34951,8.76903 -5.16715,0 -9.35187,-3.92613 -9.35187,-8.76903 0,-4.8429 4.18472,-10.66678 9.35187,-10.66678 5.16242,0 9.34951,5.82388 9.34951,10.66678"
       style="fill:#fbc51f;fill-opacity:1;fill-rule:nonzero;stroke:none;stroke-width:0.22868092"
       id="path756" />
    <path
       d="m 109.5939,261.07203 c -0.0188,0 -0.0375,0 -0.0542,0 0.0167,0 0.0355,0 0.0542,0 5.16242,0 9.34951,-3.92613 9.34951,-8.76903 v 0 c 0,4.8429 -4.18709,8.76903 -9.34951,8.76903 m -0.0708,0 c -0.014,0 -0.0261,0 -0.0402,-0.002 0.0141,0.002 0.0261,0.002 0.0402,0.002 m -0.0589,-0.002 c -0.0141,0 -0.0281,0 -0.0449,0 0.0167,0 0.0308,0 0.0449,0 m -0.0542,0 c -0.0167,0 -0.0328,0 -0.0522,0 0.0187,0 0.0355,0 0.0522,0 m -0.0732,-0.002 c -0.009,0 -0.0214,0 -0.0328,0 0.0121,0 0.0214,0 0.0328,0 m -0.0542,0 c -0.0121,-0.002 -0.0234,-0.002 -0.0355,-0.002 0.0121,0 0.0234,0 0.0355,0.002 m -0.0542,-0.002 c -0.0188,-0.002 -0.0328,-0.002 -0.0522,-0.002 0.0167,0 0.0328,0 0.0522,0.002 m -0.0756,-0.004 c -0.009,0 -0.0187,0 -0.0281,0 0.009,0 0.0187,0 0.0281,0 m -0.0569,-0.002 c -0.007,0 -0.0141,0 -0.0234,0 0.007,0 0.0167,0 0.0234,0 m -0.0522,-0.002 c -0.007,0 -0.014,0 -0.0187,0 0.005,0 0.012,0 0.0187,0 m -0.0874,-0.004 c -0.005,0 -0.007,0 -0.009,-0.002 0.002,0.002 0.005,0.002 0.009,0.002 m -0.0495,-0.004 c -0.002,0 -0.005,0 -0.009,0 0.005,0 0.007,0 0.009,0"
       style="fill:#e87817;fill-opacity:1;fill-rule:nonzero;stroke:none;stroke-width:0.22868092"
       id="path758" />
    <path
       d="m 109.54903,241.63622 c 0.014,0 0.0308,0 0.0448,0 -0.0141,0 -0.0308,0 -0.0448,0"
       style="fill:#e87817;fill-opacity:1;fill-rule:nonzero;stroke:none;stroke-width:0.22868092"
       id="path760" />
    <path
       d="m 109.5939,261.07203 c -0.0188,0 -0.0375,0 -0.0542,0 -0.007,0 -0.012,0 -0.0167,0 -0.0141,0 -0.0261,0 -0.0402,-0.002 -0.005,0 -0.0121,0 -0.0187,0 -0.0141,0 -0.0281,0 -0.0448,0 -0.002,0 -0.005,0 -0.009,0 -0.0167,0 -0.0328,0 -0.0522,0 -0.007,-0.002 -0.0141,-0.002 -0.0214,-0.002 -0.0121,0 -0.0214,0 -0.0328,0 -0.007,0 -0.0141,0 -0.0214,0 -0.012,-0.002 -0.0234,-0.002 -0.0355,-0.002 -0.007,0 -0.0141,0 -0.0187,0 -0.0187,-0.002 -0.0355,-0.002 -0.0522,-0.002 -0.007,0 -0.0167,0 -0.0234,-0.002 -0.009,0 -0.0187,0 -0.0281,0 -0.009,0 -0.0187,-0.002 -0.0281,-0.002 -0.007,0 -0.0167,0 -0.0234,0 -0.009,-0.002 -0.0187,-0.002 -0.0281,-0.002 -0.007,0 -0.0141,0 -0.0187,0 -0.0234,-0.002 -0.0475,-0.004 -0.0685,-0.004 -0.005,0 -0.007,0 -0.009,-0.002 -0.0141,0 -0.0261,0 -0.0402,-0.002 -0.002,0 -0.005,0 -0.009,0 -3.66281,-0.25246 -6.7305,-2.48677 -8.01048,-5.56036 1.17842,0.70196 2.57412,1.11384 4.07609,1.11384 4.20834,0 7.62083,-3.19981 7.62083,-7.14587 0,-2.83444 -1.7641,-6.0719 -4.31461,-7.67734 0.42033,-0.0797 0.84308,-0.13728 1.27997,-0.14173 0.0141,0 0.0308,0 0.0449,0 v 0 c 5.16242,0 9.3495,5.82388 9.3495,10.66678 0,4.84289 -4.18708,8.76903 -9.3495,8.76903"
       style="fill:#f9a50d;fill-opacity:1;fill-rule:nonzero;stroke:none;stroke-width:0.22868092"
       id="path762" />
    <path
       d="m 77.667652,212.40389 c -0.0047,-0.0176 -0.01205,-0.0377 -0.01674,-0.0552 0.0047,0.0201 0.0094,0.0377 0.01674,0.0552 m -0.05422,-0.1794 c -0.0074,-0.0201 -0.01406,-0.0421 -0.01874,-0.0642 0.0047,0.022 0.01205,0.0421 0.01874,0.0642 m -0.0569,-0.18379 c -0.0047,-0.0201 -0.01205,-0.0395 -0.01674,-0.0577 0.0047,0.0176 0.01205,0.0377 0.01674,0.0577 m -0.06159,-0.2015 c -0.0047,-0.0132 -0.0074,-0.0245 -0.01205,-0.0352 0.0047,0.0113 0.0074,0.0245 0.01205,0.0352 m -0.06848,-0.21925 c 0,-0.002 -0.0024,-0.007 -0.0024,-0.009 0,0.002 0.0024,0.004 0.0024,0.009 m -0.0569,-0.1794 c -0.0024,-0.0132 -0.0074,-0.0264 -0.01205,-0.0395 0.0047,0.0132 0.0074,0.0264 0.01205,0.0395 m -0.0569,-0.18379 c -0.0047,-0.0132 -0.0094,-0.0289 -0.01406,-0.0421 0.0047,0.0132 0.0094,0.0289 0.01406,0.0421 m -0.06159,-0.18825 c -0.0024,-0.0113 -0.0074,-0.0245 -0.0094,-0.0333 0.0024,0.0113 0.0074,0.022 0.0094,0.0333 m -0.191255,-0.58684 c 0,-0.007 -0.0024,-0.0113 -0.0047,-0.0176 0.0024,0.007 0.0047,0.0113 0.0047,0.0176 m -0.06159,-0.18825 c 0,-0.004 -0.0024,-0.0113 -0.0047,-0.0157 0.0024,0.007 0.0047,0.0113 0.0047,0.0157 m -0.255051,-0.75954 -0.0024,-0.002 c 0,0.002 0,0 0.0024,0.002 m -4.503545,-10.58263 c 0,-0.004 -0.0024,-0.007 -0.0047,-0.0113 0.0024,0.004 0.0047,0.007 0.0047,0.0113 m -0.08026,-0.15944 c -0.0024,-0.002 -0.0024,-0.007 -0.0047,-0.009 0.0024,0.004 0.0024,0.007 0.0047,0.009 m -0.158252,-0.31002 c -0.0094,-0.0157 -0.01874,-0.0333 -0.02812,-0.049 0.0094,0.0176 0.01874,0.0333 0.02812,0.049 m -0.07558,-0.14174 c -0.0094,-0.022 -0.02142,-0.0446 -0.0328,-0.0642 0.01205,0.022 0.02142,0.0421 0.0328,0.0642 m -0.07082,-0.13947 c -0.01406,-0.0245 -0.02611,-0.049 -0.04017,-0.0731 0.01406,0.0245 0.02611,0.049 0.04017,0.0731 m -0.07083,-0.13289 c -0.05891,-0.11292 -0.118087,-0.22145 -0.17472,-0.33438 0.0569,0.11073 0.115743,0.22146 0.17472,0.33438 m -0.179473,-0.34103 c -0.02142,-0.0421 -0.04485,-0.0819 -0.06627,-0.12178 0.02142,0.0395 0.04485,0.0797 0.06627,0.12178 m -0.06848,-0.13063 c -3.445552,-6.47269 -7.271317,-11.6854 -10.381527,-15.41445 v 0 c 3.112573,3.72905 6.938338,8.94397 10.381527,15.41445 M 199.90558,111.02854 c 0,-0.0176 0,-0.0308 0,-0.049 0,0.0176 0,0.0307 0,0.049 m 0,-0.18379 c 0,-0.0132 0,-0.0289 -0.002,-0.0421 0.002,0.0132 0.002,0.0289 0.002,0.0421 m -0.002,-0.21261 c 0,-0.0132 0,-0.0264 0,-0.0377 0,0.0132 0,0.0245 0,0.0377 m -0.002,-0.17714 c 0,-0.0157 0,-0.0307 0,-0.049 0,0.0176 0,0.0333 0,0.049 m -0.002,-0.39639 c -0.002,-0.0113 -0.002,-0.0289 -0.002,-0.0421 0,0.0157 0,0.0289 0.002,0.0421 m -0.005,-0.19264 c 0,-0.007 0,-0.0157 0,-0.0245 0,0.007 0,0.0176 0,0.0245 m -0.002,-0.2015 c 0,-0.0113 0,-0.0201 0,-0.0307 0,0.0113 0,0.0201 0,0.0307 m -0.005,-0.18825 c 0,-0.009 0,-0.0157 0,-0.0245 0,0.009 0,0.0176 0,0.0245 m -0.009,-0.39193 c 0,-0.004 0,-0.0113 0,-0.0157 0,0.004 0,0.0113 0,0.0157 m -0.0167,-0.58459 v 0 0"
       style="fill:#7fd5e1;fill-opacity:1;fill-rule:nonzero;stroke:none;stroke-width:0.22868092"
       id="path764" />
    <path
       d="m 140.20474,212.58325 h -0.8667 l 0.0355,-0.14839 h -3.2212 l -0.0308,0.14839 h -1.58463 c 4.22488,-17.31884 12.7006,-29.59549 16.60666,-34.56903 0.47703,-0.57134 0.95172,-1.15149 1.41931,-1.73831 0.40621,-0.47831 0.63763,-0.72633 0.63763,-0.72633 l -0.0449,-0.022 c 13.55313,-17.38306 30.2944,-40.6985 30.2944,-64.32618 0,-27.757537 -11.57176,-52.419343 -29.49854,-68.013165 -1.02021,-2.675001 -2.15376,-5.301279 -3.39596,-7.872201 28.50195,13.79794 48.24715,41.274249 49.30514,73.183786 v 0 c 0.007,0.18825 0.012,0.37864 0.0167,0.56908 0,0.004 0,0.0113 0,0.0157 0.005,0.12178 0.007,0.24581 0.009,0.36759 0,0.009 0,0.0157 0,0.0245 0.002,0.0533 0.002,0.10627 0.005,0.15724 0,0.0113 0,0.0201 0,0.0308 0,0.0596 0.002,0.11957 0.002,0.17713 0,0.009 0,0.0176 0,0.0245 0.002,0.0509 0.002,0.10188 0.002,0.15059 0,0.0132 0,0.0308 0.002,0.0421 0,0.11738 0.002,0.2303 0.002,0.34768 0,0.0176 0,0.0333 0,0.049 0.002,0.0464 0.002,0.093 0.002,0.13948 0,0.0113 0,0.0245 0,0.0377 0,0.0552 0,0.11293 0,0.17049 0.002,0.0132 0.002,0.0289 0.002,0.0421 0,0.0446 0,0.0908 0,0.13508 0,0.0176 0,0.0308 0,0.049 0,0.0577 0,0.11512 0,0.17274 0,23.62768 -20.43479,46.94312 -36.97531,64.32619 v 0 0 l 0.0495,0.022 c 0,0 -0.27868,0.248 -0.77696,0.72633 -0.56914,0.58684 -1.14536,1.16698 -1.73104,1.7383 -4.76804,4.97355 -15.11413,17.2502 -20.26711,34.56904 m -14.74336,0 v 0 h -5.3608 l 0.0141,-0.14839 h -3.2212 l -0.009,0.14839 h -2.87877 c 0.84544,-17.31884 2.54342,-29.59549 3.32747,-34.56904 0.0944,-0.57134 0.18891,-1.15149 0.28337,-1.7383 0.0803,-0.47831 0.12752,-0.72633 0.12752,-0.72633 l -0.007,-0.022 c 0.80293,-5.14185 1.66255,-10.80186 2.47494,-16.83832 17.72604,-13.81787 30.80449,-32.6868 36.72262,-54.25951 0.0992,2.23433 0.14875,4.49081 0.14875,6.77164 0,23.62768 -10.82314,46.94312 -19.58462,64.32619 l 0.0281,0.022 c 0,0 -0.15116,0.248 -0.41331,0.72633 -0.30231,0.58684 -0.6069,1.16698 -0.91866,1.7383 -2.52453,4.97355 -8.0034,17.2502 -10.73339,34.56904 m -21.71713,0 h -2.88348 l -0.009,-0.14839 h -3.218833 l 0.01406,0.14839 H 92.36491 c -2.614272,-16.56215 -7.743636,-28.51107 -10.393328,-33.87435 -0.08977,-0.16164 -0.17713,-0.32327 -0.266833,-0.48497 6.133033,-1.76266 12.046434,-4.01028 17.67881,-6.68971 0.2102,1.3685 0.417989,2.706 0.621091,4.00807 l -0.002,0.007 0.0281,0.15059 c 0.15825,1.02306 0.32353,2.0284 0.49123,3.00937 0.82419,5.36329 2.41353,17.3122 3.2212,33.87372 m -20.396998,0 h -1.721594 l -0.0328,-0.14839 h -3.218844 l 0.03548,0.14839 h -0.687339 v 0 c -0.01874,-0.0596 -0.03749,-0.11958 -0.05422,-0.1794 -0.0074,-0.0176 -0.01205,-0.0352 -0.01674,-0.0552 -0.01406,-0.0421 -0.02611,-0.0819 -0.03749,-0.12403 -0.0074,-0.022 -0.01406,-0.0421 -0.01874,-0.0642 -0.01406,-0.0402 -0.02611,-0.0797 -0.03749,-0.11958 -0.0047,-0.0201 -0.01205,-0.0396 -0.01674,-0.0577 -0.01674,-0.049 -0.03079,-0.0974 -0.04485,-0.14393 -0.0047,-0.0113 -0.0074,-0.0245 -0.01205,-0.0352 -0.01874,-0.0621 -0.03749,-0.12178 -0.0569,-0.1838 0,-0.004 -0.0024,-0.007 -0.0024,-0.009 -0.01874,-0.0577 -0.03548,-0.11293 -0.05422,-0.17049 -0.0047,-0.0132 -0.0074,-0.0264 -0.01205,-0.0395 -0.01674,-0.049 -0.03079,-0.0952 -0.04485,-0.14394 -0.0047,-0.0132 -0.0094,-0.0289 -0.01406,-0.042 -0.01674,-0.049 -0.03079,-0.0974 -0.04753,-0.14613 -0.0024,-0.0113 -0.0074,-0.022 -0.0094,-0.0333 -0.06159,-0.18599 -0.12043,-0.36978 -0.181816,-0.55357 0,-0.007 -0.0024,-0.0113 -0.0047,-0.0176 -0.01874,-0.0552 -0.03749,-0.11292 -0.0569,-0.17048 0,-0.004 -0.0024,-0.009 -0.0047,-0.0157 -0.08267,-0.248 -0.165281,-0.49601 -0.250298,-0.74404 -0.0024,-0.002 -0.0024,0 -0.0024,-0.002 -1.305955,-3.80656 -2.848069,-7.34075 -4.501181,-10.58042 0,-0.004 -0.0024,-0.007 -0.0047,-0.0113 -0.02611,-0.049 -0.04954,-0.0996 -0.07558,-0.14839 -0.0024,-0.002 -0.0024,-0.004 -0.0047,-0.009 -0.05222,-0.0996 -0.103895,-0.19929 -0.153499,-0.30117 -0.0094,-0.0157 -0.01874,-0.0308 -0.02812,-0.049 -0.01406,-0.0308 -0.03079,-0.0621 -0.04753,-0.093 -0.01205,-0.022 -0.02142,-0.042 -0.0328,-0.0642 -0.01406,-0.0245 -0.02611,-0.0508 -0.03749,-0.0753 -0.01406,-0.0245 -0.02611,-0.049 -0.04016,-0.0731 -0.0094,-0.0201 -0.02142,-0.0395 -0.03079,-0.0596 -0.05891,-0.11292 -0.118086,-0.22365 -0.17472,-0.33438 -0.0024,-0.002 -0.0047,-0.004 -0.0047,-0.007 -0.02142,-0.0421 -0.04485,-0.0819 -0.06627,-0.12178 0,-0.002 -0.0024,-0.007 -0.0024,-0.009 -3.443189,-6.47048 -7.268954,-11.6854 -10.379164,-15.41667 2.656782,-0.26797 5.2805,-0.6267 7.880608,-1.06735 4.321695,6.12283 10.790076,17.04869 14.308829,31.47109"
       style="fill:#5997d7;fill-opacity:1;fill-rule:nonzero;stroke:none;stroke-width:0.22868092"
       id="path766" />
    <path
       d="m 92.366147,212.58325 h -9.018891 v 0 c -3.518753,-14.4224 -9.987134,-25.34826 -14.308829,-31.47109 4.312249,-0.73518 8.541845,-1.70287 12.667533,-2.88758 0.0897,0.16164 0.177129,0.32333 0.266832,0.48497 2.649692,5.36328 7.779056,17.3122 10.393329,33.87372 v 0"
       style="fill:#e4e3e2;fill-opacity:1;fill-rule:nonzero;stroke:none;stroke-width:0.22868092"
       id="path768" />
    <path
       d="m 134.53694,212.58325 h -9.07556 v 0 c 2.72999,-17.31884 8.20886,-29.59549 10.73339,-34.56903 0.31175,-0.57134 0.61641,-1.15149 0.91866,-1.73831 0.26215,-0.47831 0.41331,-0.72633 0.41331,-0.72633 l -0.0281,-0.022 c 8.76148,-17.38306 19.58462,-40.6985 19.58462,-64.32618 0,-2.28084 -0.0495,-4.53731 -0.14875,-6.77164 2.28837,-8.341659 3.50695,-17.092979 3.50695,-26.1056 0,-12.332005 -2.29782,-24.154703 -6.48963,-35.135925 17.92678,15.593822 29.49854,40.255628 29.49854,68.013165 0,23.62768 -16.74127,46.94312 -30.2944,64.32618 l 0.0448,0.022 c 0,0 -0.23142,0.24801 -0.63762,0.72633 -0.4676,0.58684 -0.94227,1.16699 -1.41931,1.73831 -3.90606,4.97354 -12.38178,17.25019 -16.60666,34.56903 v 0"
       style="fill:#e4e3e2;fill-opacity:1;fill-rule:nonzero;stroke:none;stroke-width:0.22868092"
       id="path770" />
    <path
       d="m 114.00534,212.58325 h -10.26109 v 0 c -0.80766,-16.56151 -2.397,-28.51043 -3.2212,-33.87371 -0.16769,-0.98098 -0.33297,-1.98632 -0.49122,-3.00938 l -0.0281,-0.15058 0.002,-0.007 c -0.203107,-1.30206 -0.410897,-2.63957 -0.621097,-4.00807 7.467327,-3.55411 14.445807,-7.8722 20.826807,-12.84575 -0.81239,6.03647 -1.672,11.69648 -2.47494,16.83832 l 0.007,0.022 c 0,0 -0.0475,0.24801 -0.12753,0.72633 -0.0945,0.58684 -0.18891,1.16699 -0.28337,1.73831 -0.78404,4.97354 -2.48202,17.25019 -3.32747,34.56903 v 0"
       style="fill:#e4e3e2;fill-opacity:1;fill-rule:nonzero;stroke:none;stroke-width:0.22868092"
       id="path772" />
    <path
       d="m 81.625662,212.58325 h -3.216474 l -0.03548,-0.14839 h 3.218844 l 0.0328,0.14839"
       style="fill:#353232;fill-opacity:1;fill-rule:nonzero;stroke:none;stroke-width:0.22868092"
       id="path774" />
    <path
       d="m 100.86076,212.58325 h -3.214113 l -0.01406,-0.14839 h 3.218843 l 0.009,0.14839"
       style="fill:#353232;fill-opacity:1;fill-rule:nonzero;stroke:none;stroke-width:0.22868092"
       id="path776" />
    <path
       d="m 120.10058,212.58325 h -3.21647 l 0.009,-0.14839 h 3.2212 l -0.0141,0.14839"
       style="fill:#353232;fill-opacity:1;fill-rule:nonzero;stroke:none;stroke-width:0.22868092"
       id="path778" />
    <path
       d="m 139.33804,212.58325 h -3.21647 l 0.0308,-0.14839 h 3.2212 l -0.0355,0.14839"
       style="fill:#353232;fill-opacity:1;fill-rule:nonzero;stroke:none;stroke-width:0.22868092"
       id="path780" />
    <path
       d="m 140.20474,212.58325 c 1.53267,-5.15291 3.53293,-9.84966 5.70323,-14.0526 H 72.02583 c 2.167934,4.19851 4.161107,8.9019 5.696139,14.0526 h 62.482771"
       style="fill:#3d7fc7;fill-opacity:1;fill-rule:nonzero;stroke:none;stroke-width:0.22868092"
       id="path782" />
    <path
       d="m 145.91741,198.5373 c -2.18919,4.18965 -4.17055,8.89747 -5.71267,14.0371 H 77.71488 c -0.415646,-1.42386 -0.876144,-2.80565 -1.360272,-4.16751 h 48.969802 c 4.21306,0 8.06008,-2.41813 9.51245,-6.13389 0.48179,-1.27328 1.01312,-2.52664 1.56573,-3.7357 h 9.51482"
       style="fill:#2f6bac;fill-opacity:1;fill-rule:nonzero;stroke:none;stroke-width:0.22868092"
       id="path784" />
  </g>
</svg>
