<?xml version="1.0" encoding="UTF-8" standalone="no"?>
<svg
   xmlns:dc="http://purl.org/dc/elements/1.1/"
   xmlns:cc="http://creativecommons.org/ns#"
   xmlns:rdf="http://www.w3.org/1999/02/22-rdf-syntax-ns#"
   xmlns:svg="http://www.w3.org/2000/svg"
   xmlns="http://www.w3.org/2000/svg"
   id="svg936"
   version="1.1"
   viewBox="0 0 210 297"
   height="297mm"
   width="210mm">
  <defs
     id="defs930">
    <clipPath
       clipPathUnits="userSpaceOnUse"
       id="clipPath550">
      <path
         d="m 1030.82,2768.71 c -51.351,2.25 -101.894,13.61 -150.039,34.95 -9.433,4.18 -18.656,8.69 -27.644,13.51 -51.379,117.92 -87.266,243.42 -87.266,369.73 0,417.83 195.453,773.32 468.239,905.12 25.89,5.29 51.61,8.55 76.9,9.62 C 1101.72,3978.28 950.102,3615.37 950.102,3186.9 v 0 0 c 0,-143.78 34.304,-286.5 80.718,-418.19 m 164.44,22.67 c -25.99,125.32 -44.69,259.96 -44.69,395.52 0,426.57 92.13,788.14 219.58,913.07 19.76,-2.02 39.16,-5.56 58.02,-10.68 -45.21,-133.93 -77.5,-487.41 -77.5,-902.39 v 0 0 c 0,-105.88 4.22,-211.19 10.66,-311.94 -52.75,-37.29 -108.87,-65.55 -166.07,-83.58 m 390.37,337.38 c 0.27,19.34 0.41,38.73 0.41,58.14 0,377.94 -26.79,704.86 -65.72,861.38 219.17,-142.25 238.93,-536.46 100.05,-849.87 -10.66,-24.04 -22.28,-47.29 -34.74,-69.65 m -969.954,45.75 c -23.711,136.74 -5.571,292.54 60.75,442.2 74.152,167.34 209.449,310.55 358.804,397.14 -251.207,-167 -419.695,-474.83 -419.695,-826.95 v 0 0 c 0,-4.14 0.047,-8.25 0.141,-12.39"
         id="path548" />
    </clipPath>
    <clipPath
       clipPathUnits="userSpaceOnUse"
       id="clipPath562">
      <path
         d="m 853.137,2817.17 c -91.184,48.89 -159.203,129.9 -200.61,229.26 -10.812,46.48 -16.855,93.42 -16.855,140.47 0,394.52 211.547,733.42 513.918,880.94 28.19,10.31 56.47,18.44 84.52,24.18 -272.786,-131.8 -468.239,-487.29 -468.239,-905.12 0,-126.31 35.887,-251.81 87.266,-369.73"
         id="path560" />
    </clipPath>
    <clipPath
       clipPathUnits="userSpaceOnUse"
       id="clipPath574">
      <path
         d="m 652.527,3046.43 c -16.679,40.02 -29.039,83.02 -36.851,128.08 -0.094,4.14 -0.141,8.25 -0.141,12.39 0,352.12 168.488,659.95 419.695,826.95 37.48,21.74 75.85,39.9 114.36,53.99 -302.371,-147.52 -513.918,-486.42 -513.918,-880.94 0,-47.05 6.043,-93.99 16.855,-140.47"
         id="path572" />
    </clipPath>
    <clipPath
       clipPathUnits="userSpaceOnUse"
       id="clipPath586">
      <path
         d="m 1054.82,2768.32 c -46.48,131.79 -80.855,274.68 -80.855,418.58 0,428.96 151.945,792.13 361.605,915.08 11.65,-0.18 23.16,-0.84 34.58,-2.01 -127.45,-124.93 -219.58,-486.5 -219.58,-913.07 0,-135.56 18.7,-270.2 44.69,-395.52 -46.48,-14.66 -93.68,-22.55 -140.44,-23.06"
         id="path584" />
    </clipPath>
    <clipPath
       clipPathUnits="userSpaceOnUse"
       id="clipPath598">
      <path
         d="m 1049.97,2768.29 c -6.4,0 -12.77,0.14 -19.15,0.42 -46.414,131.69 -80.718,274.41 -80.718,418.19 0,428.47 151.618,791.38 360.908,914.74 6.1,0.26 12.14,0.39 18.19,0.39 2.12,0 4.25,-0.02 6.37,-0.05 -209.66,-122.95 -361.605,-486.12 -361.605,-915.08 0,-143.9 34.375,-286.79 80.855,-418.58 -1.62,-0.02 -3.23,-0.03 -4.85,-0.03"
         id="path596" />
    </clipPath>
    <clipPath
       clipPathUnits="userSpaceOnUse"
       id="clipPath610">
      <path
         d="m 1381.28,2889.62 c -5.91,96.29 -9.74,196.53 -9.74,297.28 0,409.23 31.41,758.6 75.64,896.62 9.66,-3.25 19.14,-6.93 28.48,-11.06 15.72,-6.97 30.59,-15.05 44.66,-24.18 38.93,-156.52 65.72,-483.44 65.72,-861.38 0,-19.41 -0.14,-38.8 -0.41,-58.14 -54.41,-97.63 -125.15,-178.73 -204.35,-239.14"
         id="path608" />
    </clipPath>
    <clipPath
       clipPathUnits="userSpaceOnUse"
       id="clipPath622">
      <path
         d="m 1361.33,2874.96 c -6.44,100.75 -10.66,206.06 -10.66,311.94 0,414.98 32.29,768.46 77.5,902.39 6.39,-1.74 12.74,-3.67 19.01,-5.77 -44.23,-138.02 -75.64,-487.39 -75.64,-896.62 0,-100.75 3.83,-200.99 9.74,-297.28 -6.58,-5.03 -13.25,-9.92 -19.95,-14.66"
         id="path620" />
    </clipPath>
  </defs>
  <metadata
     id="metadata933">
    <rdf:RDF>
      <cc:Work
         rdf:about="">
        <dc:format>image/svg+xml</dc:format>
        <dc:type
           rdf:resource="http://purl.org/dc/dcmitype/StillImage" />
        <dc:title></dc:title>
      </cc:Work>
    </rdf:RDF>
  </metadata>
  <g
     id="layer1">
    <path
       d="m 203.58651,102.58956 c 0,-53.565737 -43.76485,-96.9919592 -97.75407,-96.9919592 -53.987429,0 -97.7523,43.4262222 -97.7523,96.9919592 0,26.85437 22.103214,53.35112 39.875539,73.10251 l -0.01635,0.005 0.178451,0.17184 c 1.050735,1.16235 2.123095,2.3033 3.218879,3.41739 5.378017,6.09438 15.773605,19.6709 21.065083,38.48527 h 6.041251 9.683698 12.217679 11.01379 12.30054 9.7468 6.08268 c 5.53481,-19.6745 16.64229,-33.62299 21.76078,-39.27392 0.62538,-0.65093 1.24538,-1.309 1.85814,-1.97604 0.53346,-0.54183 0.83448,-0.82439 0.83448,-0.82439 l -0.0542,-0.0253 c 17.7597,-19.7478 39.69893,-46.23739 39.69893,-73.08284"
       style="fill:#f03e1e;fill-opacity:1;fill-rule:nonzero;stroke:none;stroke-width:0.17952615"
       id="path642" />
    <path
       d="m 75.26208,175.86914 -0.09554,-0.17185 0.01022,-0.005 c -9.413338,-19.75139 -21.120958,-46.24813 -21.120958,-73.1025 0,-53.565745 23.182782,-96.9919671 51.777808,-96.9919671 -44.229854,0 -80.086287,43.4262221 -80.086287,96.9919671 0,26.85437 18.109355,53.34934 32.668212,73.1025 l -0.01533,0.005 0.146112,0.17185 c 0.861503,1.16234 1.739202,2.30329 2.638561,3.41738 4.404737,6.09438 12.920555,19.6709 17.256833,38.48527 h 9.683698 C 85.319234,198.95742 79.813287,185.3809 76.965672,179.28652 76.385308,178.17243 75.815826,177.03148 75.2607,175.86914"
       style="fill:#ffffff;fill-opacity:1;fill-rule:nonzero;stroke:none;stroke-width:0.17952615"
       id="path644" />
    <path
       d="m 152.7567,176.52183 c 0.43629,-0.54183 0.68305,-0.82438 0.68305,-0.82438 l -0.046,-0.0254 c 14.55344,-19.7478 32.52582,-46.23739 32.52582,-73.08284 0,-53.565741 -35.85464,-96.9919633 -80.08628,-96.9919633 28.59681,0 51.7778,43.4262223 51.7778,96.9919633 0,26.84545 -11.62112,53.33504 -21.02725,73.08284 l 0.0307,0.0254 c 0,0 -0.15837,0.28234 -0.4414,0.82438 -0.32442,0.66705 -0.65424,1.32512 -0.98402,1.97604 -2.71243,5.65093 -8.59689,19.59942 -11.52742,39.27392 h 9.74674 c 4.53455,-19.6745 13.63431,-33.62299 17.82642,-39.27392 0.51364,-0.65092 1.02365,-1.30899 1.52473,-1.97604"
       style="fill:#ffffff;fill-opacity:1;fill-rule:nonzero;stroke:none;stroke-width:0.17952615"
       id="path646" />
    <path
       d="m 115.23674,176.52183 c 0.0863,-0.54183 0.13896,-0.82438 0.13896,-0.82438 l -0.0102,-0.0254 c 2.91612,-19.7478 6.51887,-46.23739 6.51887,-73.08284 0,-53.565741 -7.18573,-96.9919633 -16.05114,-96.9919633 -8.863632,0 -16.051152,43.4262223 -16.051152,96.9919633 0,26.85437 3.629829,53.34934 6.54769,73.10251 l -0.0036,0.005 0.03065,0.17184 c 0.17319,1.16234 0.347912,2.3033 0.52805,3.41738 0.883113,6.09438 2.591713,19.6709 3.460362,38.48527 h 11.01379 c 0.91014,-19.67449 2.73404,-33.62298 3.57393,-39.27392 0.10269,-0.65092 0.20538,-1.30899 0.30449,-1.97603"
       style="fill:#ffffff;fill-opacity:1;fill-rule:nonzero;stroke:none;stroke-width:0.17952615"
       id="path648" />
    <path
       d="m 147.09212,266.42157 c 0,5.50068 -4.4967,9.9624 -10.0405,9.9624 -5.54564,0 -10.04055,-4.46172 -10.04055,-9.9624 0,-5.50251 4.49491,-12.11911 10.04055,-12.11911 5.5438,0 10.0405,6.6166 10.0405,12.11911"
       style="fill:#fbc51f;fill-opacity:1;fill-rule:nonzero;stroke:none;stroke-width:0.17952615"
       id="path650" />
    <path
       d="m 137.05162,276.38397 c -0.0204,0 -0.0358,0 -0.0577,0 0.0204,0 0.0358,0 0.0577,0 5.5438,0 10.0405,-4.46172 10.0405,-9.9624 v 0 c 0,5.50068 -4.4967,9.9624 -10.0405,9.9624 m -0.0777,0 c -0.0102,-0.002 -0.0256,-0.002 -0.0409,-0.002 0.0102,0 0.0255,0 0.0409,0.002 m -0.0613,-0.002 c -0.0153,0 -0.0306,0 -0.046,0 0.0153,0 0.0307,0 0.046,0 m -0.0577,0 c -0.0153,-0.002 -0.0358,-0.002 -0.0577,-0.002 0.0204,0 0.0409,0 0.0577,0.002 m -0.0777,-0.002 c -0.0102,-0.002 -0.0255,-0.002 -0.0358,-0.002 0.0153,0 0.0255,0 0.0358,0.002 m -0.0628,-0.002 c -0.0102,-0.002 -0.0204,-0.002 -0.0307,-0.002 0.0102,0 0.0204,0 0.0307,0.002 m -0.0577,-0.004 c -0.0102,0 -0.0256,0 -0.0358,0 0.0102,0 0.0255,0 0.0358,0 m -0.0863,-0.004 c -0.005,0 -0.0102,0 -0.0204,0 0.005,0 0.0153,0 0.0204,0 m -0.0577,-0.002 c -0.005,0 -0.0102,-0.002 -0.0153,-0.002 0.005,0 0.0102,0.002 0.0153,0.002 m -0.0557,-0.004 c 0,0 0,0 -0.002,0 0.002,0 0.002,0 0.002,0"
       style="fill:#d6b330;fill-opacity:1;fill-rule:nonzero;stroke:none;stroke-width:0.17952615"
       id="path652" />
    <path
       d="m 137.05162,276.38397 c -0.0204,0 -0.0409,0 -0.0577,0 -0.005,0 -0.0102,0 -0.0204,0 -0.0102,-0.002 -0.0255,-0.002 -0.0409,-0.002 -0.005,0 -0.0153,0 -0.0204,0 -0.0153,0 -0.0307,0 -0.046,0 -0.004,0 -0.005,0 -0.0102,0 -0.0204,-0.002 -0.0358,-0.002 -0.0577,-0.002 -0.005,0 -0.0102,0 -0.0204,0 -0.0153,-0.002 -0.0256,-0.002 -0.0358,-0.002 -0.005,0 -0.0153,0 -0.0256,0 -0.0102,-0.002 -0.0204,-0.002 -0.0306,-0.002 -0.005,0 -0.0153,0 -0.0256,-0.002 -0.0102,0 -0.0255,0 -0.0358,0 -0.0153,-0.002 -0.0306,-0.002 -0.0511,-0.004 -0.005,0 -0.0102,0 -0.0204,0 -0.0102,0 -0.0256,-0.002 -0.0358,-0.002 -0.005,0 -0.0102,-0.002 -0.0153,-0.002 -0.0153,0 -0.0255,0 -0.0409,-0.002 0,0 0,0 -0.002,0 -1.258,-0.0735 -2.4529,-0.37714 -3.54328,-0.8691 l 0.9318,-4.3795 c 3.67305,-0.80112 6.41971,-4.04864 6.41971,-7.93096 0,-2.01892 -0.74431,-4.21673 -1.97528,-6.02468 h 0.46133 c 1.17687,0 2.25463,-0.44152 3.0747,-1.16594 3.13596,2.32119 5.26803,6.63804 5.26803,10.42562 0,5.50068 -4.4967,9.9624 -10.0405,9.9624"
       style="fill:#f9a50d;fill-opacity:1;fill-rule:nonzero;stroke:none;stroke-width:0.17952615"
       id="path654" />
    <path
       d="m 85.05572,266.42157 c 0,5.50068 -4.494908,9.9624 -10.04055,9.9624 -5.543804,0 -10.038711,-4.46172 -10.038711,-9.9624 0,-5.50251 4.494907,-12.11911 10.038711,-12.11911 5.545642,0 10.04055,6.6166 10.04055,12.11911"
       style="fill:#fbc51f;fill-opacity:1;fill-rule:nonzero;stroke:none;stroke-width:0.17952615"
       id="path656" />
    <path
       d="m 75.01517,276.38397 c -0.02044,0 -0.04087,0 -0.05773,0 0.02043,0 0.03576,0 0.05773,0 1.917653,0 3.709117,-0.53286 5.23201,-1.45742 v 0 c -1.522893,0.92456 -3.314357,1.45742 -5.23201,1.45742 m -0.07765,0 c -0.01022,-0.002 -0.02554,-0.002 -0.04087,-0.002 0.01022,0 0.02554,0 0.04087,0.002 m -0.06131,-0.002 c -0.01533,0 -0.03065,0 -0.04598,0 0.01533,0 0.03065,0 0.04598,0 m -0.05773,0 c -0.02043,-0.002 -0.03576,-0.002 -0.05569,-0.002 0.02043,0 0.03576,0 0.05569,0.002 m -0.07765,-0.002 c -0.01533,-0.002 -0.02554,-0.002 -0.03576,-0.002 0.01022,0 0.02554,0 0.03576,0.002 m -0.06335,-0.002 c -0.01022,-0.002 -0.02044,-0.002 -0.03065,-0.002 0.01022,0 0.02044,0 0.03065,0.002 m -0.05773,-0.004 c -0.01022,0 -0.02044,0 -0.03065,0 0.01022,0 0.02043,0 0.03065,0 m -0.08634,-0.004 c -0.0051,0 -0.01022,0 -0.02044,0 0.0051,0 0.01022,0 0.02044,0 m -0.05773,-0.002 c -0.0051,0 -0.01022,-0.002 -0.01022,-0.002 0.0036,0 0.0051,0.002 0.01022,0.002"
       style="fill:#d6b330;fill-opacity:1;fill-rule:nonzero;stroke:none;stroke-width:0.17952615"
       id="path658" />
    <path
       d="m 75.01517,276.38397 c -0.02044,0 -0.04087,0 -0.05773,0 -0.0051,0 -0.01022,0 -0.02044,0 -0.01022,-0.002 -0.02554,-0.002 -0.04087,-0.002 -0.0051,0 -0.01533,0 -0.02044,0 -0.01533,0 -0.03065,0 -0.04598,0 -0.0036,0 -0.0051,0 -0.01022,0 -0.02044,-0.002 -0.03576,-0.002 -0.05569,-0.002 -0.0051,0 -0.01533,0 -0.02044,0 -0.01022,-0.002 -0.02554,-0.002 -0.03576,-0.002 -0.01022,0 -0.01533,0 -0.02554,0 -0.01022,-0.002 -0.02044,-0.002 -0.03065,-0.002 -0.01022,0 -0.02044,0 -0.02554,-0.002 -0.01022,0 -0.02044,0 -0.03065,0 -0.02044,-0.002 -0.03576,-0.002 -0.05415,-0.004 -0.0051,0 -0.01022,0 -0.02043,0 -0.01022,0 -0.02554,-0.002 -0.03576,-0.002 -0.0051,0 -0.01022,-0.002 -0.01533,-0.002 -4.015495,-0.21645 -7.398362,-2.77898 -8.79333,-6.32867 1.265203,0.79757 2.764698,1.26789 4.374135,1.26789 3.98663,0 7.304666,-2.82724 8.034565,-6.57189 l 2.16814,10.19132 c -1.522894,0.92456 -3.314358,1.45742 -5.232011,1.45742 m 1.557173,-18.72673 c -0.102687,-0.16829 -0.208951,-0.33456 -0.318791,-0.49525 h 0.214571 l 0.104731,0.49525"
       style="fill:#f9a50d;fill-opacity:1;fill-rule:nonzero;stroke:none;stroke-width:0.17952615"
       id="path660" />
    <path
       d="m 83.161516,250.4756 h -2.679993 l -7.376752,-32.87373 h 3.456741 l 6.600004,32.87373"
       style="fill:#353232;fill-opacity:1;fill-rule:nonzero;stroke:none;stroke-width:0.17952615"
       id="path662" />
    <path
       d="M 99.180223,250.4756 H 96.500178 L 93.78054,217.60187 h 3.458581 l 1.941102,32.87373"
       style="fill:#353232;fill-opacity:1;fill-rule:nonzero;stroke:none;stroke-width:0.17952615"
       id="path664" />
    <path
       d="m 115.19888,250.4756 h -2.67816 l 1.93927,-32.87373 h 3.45858 l -2.71969,32.87373"
       style="fill:#353232;fill-opacity:1;fill-rule:nonzero;stroke:none;stroke-width:0.17952615"
       id="path666" />
    <path
       d="m 131.21759,250.4756 h -2.68 l 6.60179,-32.87373 h 3.45496 l -7.37675,32.87373"
       style="fill:#353232;fill-opacity:1;fill-rule:nonzero;stroke:none;stroke-width:0.17952615"
       id="path668" />
    <path
       d="m 76.466028,257.15474 6.55852,30.82617 c 0.603763,2.82364 3.112508,4.84438 6.021429,4.84438 h 35.189563 c 2.90892,0 5.41951,-2.02074 6.01964,-4.84438 l 6.56031,-30.82617 H 76.466028"
       style="fill:#b42b22;fill-opacity:1;fill-rule:nonzero;stroke:none;stroke-width:0.17952615"
       id="path670" />
    <path
       d="m 81.054632,278.71408 1.969916,9.26683 c 0.601924,2.82364 3.112508,4.84438 6.021429,4.84438 h 35.189563 c 2.90892,0 5.4213,-2.02074 6.02143,-4.84438 l 1.97171,-9.26683 H 81.054632"
       style="fill:#98231f;fill-opacity:1;fill-rule:nonzero;stroke:none;stroke-width:0.17952615"
       id="path672" />
    <path
       d="m 136.32167,259.47948 0.49403,-2.32474 H 76.466232 l 0.494025,2.32474 h 59.361823"
       style="fill:#98231f;fill-opacity:1;fill-rule:nonzero;stroke:none;stroke-width:0.17952615"
       id="path674" />
    <path
       d="M 138.74934,247.9631 H 74.53218 c -2.546653,0 -4.633715,2.069 -4.633715,4.59762 0,2.53039 2.087062,4.60117 4.633715,4.60117 h 64.21716 c 2.55023,0 4.6355,-2.07078 4.6355,-4.60117 0,-2.52862 -2.08527,-4.59762 -4.6355,-4.59762"
       style="fill:#b42b22;fill-opacity:1;fill-rule:nonzero;stroke:none;stroke-width:0.17952615"
       id="path676" />
    <path
       d="m 138.74755,247.9631 h -17.02801 c 2.55028,0 4.63551,2.069 4.63551,4.59762 0,2.53039 -2.08523,4.60117 -4.63551,4.60117 h 17.02801 c 2.55202,0 4.63729,-2.07078 4.63729,-4.60117 0,-2.52862 -2.08527,-4.59762 -4.63729,-4.59762"
       style="fill:#98231f;fill-opacity:1;fill-rule:nonzero;stroke:none;stroke-width:0.17952615"
       id="path678" />
    <path
       d="m 121.8349,257.15474 c -0.0511,15.64021 -12.83764,28.30469 -28.613062,28.30469 -3.979426,0 -7.771461,-0.80826 -11.215583,-2.26751 l 1.018293,4.78899 c 0.601924,2.82364 3.112508,4.84438 6.021429,4.84438 h 35.189563 c 2.90892,0 5.4213,-2.02074 6.02143,-4.84438 l 6.55852,-30.82617 H 121.8349"
       style="fill:#98231f;fill-opacity:1;fill-rule:nonzero;stroke:none;stroke-width:0.17952615"
       id="path680" />
    <path
       d="M 132.95863,281.78099 H 82.139596 c -1.322882,0 -2.395227,1.06401 -2.395227,2.37482 0,1.31255 1.072345,2.37478 2.395227,2.37478 h 50.819034 c 1.32104,0 2.39343,-1.06223 2.39343,-2.37478 0,-1.31081 -1.07239,-2.37482 -2.39343,-2.37482"
       style="fill:#353232;fill-opacity:1;fill-rule:nonzero;stroke:none;stroke-width:0.17952615"
       id="path682" />
    <path
       d="m 116.66236,262.89687 c 0,5.50251 -4.4967,9.96245 -10.04055,9.96245 -5.5456,0 -10.040503,-4.45994 -10.040503,-9.96245 0,-5.50068 4.494903,-12.11905 10.040503,-12.11905 5.54385,0 10.04055,6.61837 10.04055,12.11905"
       style="fill:#fbc51f;fill-opacity:1;fill-rule:nonzero;stroke:none;stroke-width:0.17952615"
       id="path684" />
    <path
       d="m 106.62181,272.85932 c -0.0204,0 -0.0358,0 -0.0577,0 0.0204,0 0.0409,0 0.0577,0 5.54385,0 10.04055,-4.45994 10.04055,-9.96245 v 0 c 0,5.50251 -4.4967,9.96245 -10.04055,9.96245 m -0.0777,0 c -0.0153,0 -0.0255,-0.002 -0.0409,-0.002 0.0102,0 0.0255,0.002 0.0409,0.002 m -0.0613,-0.002 c -0.0153,0 -0.0307,0 -0.046,0 0.0153,0 0.0306,0 0.046,0 m -0.0577,0 c -0.0204,0 -0.0358,-0.002 -0.0557,-0.002 0.0204,0 0.0358,0.002 0.0557,0.002 m -0.0777,-0.002 c -0.0102,0 -0.0255,-0.002 -0.0358,-0.002 0.0102,0 0.0255,0.002 0.0358,0.002 m -0.0628,-0.002 c -0.0102,-0.002 -0.0204,-0.002 -0.0307,-0.002 0.0102,0 0.0204,0 0.0307,0.002 m -0.0577,-0.002 c -0.0102,-0.002 -0.0255,-0.002 -0.0358,-0.002 0.0102,0 0.0255,0 0.0358,0.002 m -0.0848,-0.005 c -0.005,0 -0.0153,0 -0.0204,0 0.005,0 0.0153,0 0.0204,0 m -0.0593,-0.002 c -0.004,0 -0.0102,0 -0.0153,-0.002 0.005,0.002 0.0102,0.002 0.0153,0.002 m -0.0541,-0.004 c -0.002,0 -0.002,0 -0.002,0 0,0 0,0 0.002,0"
       style="fill:#e87817;fill-opacity:1;fill-rule:nonzero;stroke:none;stroke-width:0.17952615"
       id="path686" />
    <path
       d="m 106.62181,272.85932 c -0.0204,0 -0.0358,0 -0.0577,0 -0.005,0 -0.0102,0 -0.0204,0 -0.0102,0 -0.0255,-0.002 -0.0409,-0.002 -0.005,0 -0.0153,0 -0.0204,0 -0.0153,0 -0.0307,0 -0.046,0 -0.004,0 -0.005,0 -0.0102,0 -0.0153,0 -0.0358,-0.002 -0.0557,-0.002 -0.005,0 -0.0153,0 -0.0204,0 -0.0153,0 -0.0255,-0.002 -0.0358,-0.002 -0.0102,0 -0.0204,0 -0.0255,0 -0.0102,-0.002 -0.0204,-0.002 -0.0306,-0.002 -0.0102,0 -0.0204,0 -0.0255,0 -0.0102,-0.002 -0.0255,-0.002 -0.0358,-0.002 -0.0153,-0.002 -0.0306,-0.002 -0.046,-0.004 -0.005,0 -0.0153,0 -0.0204,0 -0.0153,0 -0.0256,-0.002 -0.0358,-0.002 -0.004,0 -0.0102,0 -0.0153,-0.002 -0.0153,0 -0.0255,0 -0.0409,-0.002 -0.002,0 -0.002,0 -0.002,0 -3.99925,-0.23267 -7.360507,-2.78968 -8.751899,-6.3269 1.267043,0.79758 2.764699,1.26611 4.374139,1.26611 4.52014,0 8.1842,-3.63378 8.1842,-8.11872 0,-3.22065 -1.89242,-6.89915 -4.63188,-8.72139 0.46491,-0.0968 0.93717,-0.16271 1.42021,-0.16271 5.5438,0 10.0405,6.61837 10.0405,12.11905 0,5.50251 -4.4967,9.96245 -10.0405,9.96245"
       style="fill:#f9a50d;fill-opacity:1;fill-rule:nonzero;stroke:none;stroke-width:0.17952615"
       id="path688" />
    <path
       d="m 73.142577,217.77179 h -0.740731 c -0.01533,-0.0517 -0.03065,-0.10544 -0.04598,-0.15714 0.01533,0.0517 0.03065,0.10543 0.04598,0.15714 h 0.740731 m -0.79657,-0.19871 c -0.01533,-0.0507 -0.03065,-0.0968 -0.04087,-0.1465 0.01022,0.0507 0.02554,0.0983 0.04087,0.1465 m -0.05569,-0.19161 c -0.01022,-0.0405 -0.02554,-0.0821 -0.03576,-0.12318 0.01022,0.0406 0.02554,0.0821 0.03576,0.12318 m -0.05109,-0.17691 c -0.01022,-0.0406 -0.02554,-0.0806 -0.03576,-0.11963 0.01022,0.0405 0.02554,0.0806 0.03576,0.11963 m -0.05415,-0.18604 c -0.01022,-0.0405 -0.02554,-0.0857 -0.03576,-0.12875 0.01022,0.0405 0.02555,0.0857 0.03576,0.12875 m -0.05569,-0.19668 c -0.01022,-0.0254 -0.01533,-0.0517 -0.02554,-0.0771 0.0051,0.0254 0.01533,0.0517 0.02554,0.0771 m -0.06284,-0.20935 c -0.0051,-0.0203 -0.01022,-0.0355 -0.01533,-0.0553 0.0051,0.0203 0.01022,0.0355 0.01533,0.0553 m -0.04598,-0.14853 c -0.0036,-0.0101 -0.0051,-0.0203 -0.01022,-0.0304 0.0018,0.0101 0.0051,0.0203 0.01022,0.0304 m -0.06284,-0.20935 c -0.0018,-0.0101 -0.0051,-0.0203 -0.01022,-0.0304 0.0036,0.0101 0.0051,0.0203 0.01022,0.0304 m -5.996242,-15.10724 c -0.01022,-0.0253 -0.02554,-0.0537 -0.04087,-0.0806 0.01022,0.0254 0.02554,0.0537 0.04087,0.0806 m -0.05926,-0.11963 c -0.02044,-0.0405 -0.04087,-0.0821 -0.06131,-0.12318 0.02044,0.0405 0.04087,0.0841 0.06131,0.12318 m -0.07203,-0.14498 c -3.71627,-7.41771 -7.854325,-13.38871 -11.213784,-17.65192 v 0 c 3.363035,4.26321 7.499302,10.23603 11.213784,17.65192"
       style="fill:#7fd5e1;fill-opacity:1;fill-rule:nonzero;stroke:none;stroke-width:0.17952615"
       id="path690" />
    <path
       d="m 158.79795,181.32871 c 0.91192,-1.09979 1.7392,-2.04579 2.45112,-2.83084 0.62537,-0.65092 1.24538,-1.30899 1.85813,-1.97604 0.53346,-0.54183 0.83448,-0.82438 0.83448,-0.82438 v 0 c 0,0 -0.30091,0.28234 -0.83448,0.82438 -0.61275,0.66705 -1.23276,1.32512 -1.85813,1.97604 -0.71192,0.78505 -1.5392,1.73105 -2.45112,2.83084"
       style="fill:#e4e3e2;fill-opacity:1;fill-rule:nonzero;stroke:none;stroke-width:0.17952615"
       id="path692" />
    <path
       d="m 203.58651,102.39466 c 0,-0.0203 0,-0.0355 0,-0.0573 0,0.0203 0,0.0355 0,0.0573 m 0,-0.21088 c 0,-0.0152 -0.002,-0.0304 -0.002,-0.0456 0,0.0152 0.002,0.0304 0.002,0.0456 m -0.002,-0.24129 c 0,-0.0101 0,-0.0304 0,-0.0406 0,0.0101 0,0.0254 0,0.0406 m -0.002,-0.19871 c 0,-0.0203 0,-0.0355 0,-0.0553 0,0.0203 0,0.0355 0,0.0553 m -0.005,-0.45419 c 0,-0.0101 0,-0.0304 0,-0.0406 0,0.0152 0,0.0304 0,0.0406 m -0.004,-0.22152 c 0,-0.0101 0,-0.0101 0,-0.0203 0,0.005 0,0.0101 0,0.0203 m -0.004,-0.22507 c 0,-0.005 0,-0.0203 0,-0.0253 0,0.0101 0,0.0203 0,0.0253 m -0.004,-0.2129 c 0,-0.0101 0,-0.0152 0,-0.0253 0,0.0101 0,0.0152 0,0.0253 m -0.0102,-0.44709 c 0,-0.004 0,-0.0101 -0.002,-0.0101 0.002,0.005 0.002,0.005 0.002,0.0101"
       style="fill:#7fd5e1;fill-opacity:1;fill-rule:nonzero;stroke:none;stroke-width:0.17952615"
       id="path694" />
    <path
       d="m 139.48828,217.77179 h -0.9318 l 0.0358,-0.16982 h -3.45495 l -0.0358,0.16982 h -1.69956 c 4.53455,-19.6745 13.63426,-33.62299 17.82637,-39.27392 0.51364,-0.65092 1.02365,-1.30899 1.52473,-1.97604 0.43629,-0.54183 0.68305,-0.82438 0.68305,-0.82438 l -0.046,-0.0254 c 14.55344,-19.7478 32.52582,-46.23739 32.52582,-73.08284 0,-31.534266 -12.42495,-59.552856 -31.66973,-77.267384 -1.09763,-3.040092 -2.31415,-6.024677 -3.64602,-8.944935 30.78299,15.768957 52.05174,47.26566 52.95288,83.792789 0.002,0.004 0.002,0.0101 0.002,0.0101 0.004,0.13941 0.005,0.28235 0.0102,0.42226 0,0.0101 0,0.0152 0,0.0254 0.002,0.0608 0.004,0.1252 0.004,0.18603 0,0.005 0,0.0203 0,0.0253 0.002,0.0679 0.004,0.13585 0.004,0.2058 0,0.0101 0,0.0101 0,0.0203 0.002,0.0623 0.002,0.11811 0.004,0.18046 0,0.0101 0,0.0304 0,0.0405 0.002,0.13433 0.004,0.26664 0.005,0.39894 0,0.0203 0,0.0355 0,0.0552 0,0.0517 0,0.10392 0.002,0.15715 0,0.0101 0,0.0304 0,0.0406 0,0.0644 0,0.13078 0,0.19516 0,0.0152 0.002,0.0304 0.002,0.0456 0,0.0517 0,0.10392 0,0.15359 0,0.0203 0,0.0355 0,0.0573 0,0.0644 0,0.1323 0,0.19465 0,0.78682 -0.0204,1.57365 -0.0557,2.3587 -1.22556,26.03358 -22.40419,51.55397 -39.64304,70.72414 v 0 0 l 0.0541,0.0254 c 0,0 -0.30091,0.28234 -0.83447,0.82438 -0.61276,0.66705 -1.23277,1.32512 -1.85814,1.97604 -0.71192,0.78505 -1.53919,1.73105 -2.45112,2.83084 -5.64838,6.8079 -14.54439,19.50103 -19.30966,36.44308 v 0 m -15.82943,0 v 0 h -5.75674 l 0.0153,-0.16982 h -3.45858 l -0.0102,0.16982 h -3.0909 c 0.91014,-19.6745 2.73405,-33.62299 3.57394,-39.27392 0.10269,-0.65092 0.20538,-1.30899 0.30449,-1.97604 0.0863,-0.54183 0.13896,-0.82438 0.13896,-0.82438 l -0.0102,-0.0254 c 0.86329,-5.84224 1.78605,-12.27285 2.65655,-19.13083 19.03215,-15.69744 33.07553,-37.13694 39.42857,-61.645131 0.10626,2.539315 0.16042,5.103722 0.16042,7.693121 0,26.84545 -11.62113,53.33504 -21.02726,73.08284 l 0.0306,0.0254 c 0,0 -0.15837,0.28234 -0.4414,0.82438 -0.32441,0.66705 -0.65424,1.32512 -0.98407,1.97604 -2.71243,5.65093 -8.59689,19.59942 -11.52737,39.27392 m -23.31438,0 h -3.094527 l -0.01022,-0.16982 h -3.458581 l 0.01533,0.16982 h -5.669653 c -2.806181,-18.8143 -8.312128,-32.39082 -11.159743,-38.4852 -0.09553,-0.18401 -0.19107,-0.36649 -0.284562,-0.55081 6.587334,-2.00285 12.931386,-4.55469 18.97984,-7.60192 0.225299,1.5558 0.448556,3.07582 0.666856,4.55828 l -0.0036,0.005 0.03065,0.17184 c 0.17319,1.16235 0.347912,2.3033 0.5281,3.41739 0.883114,6.09438 2.591662,19.6709 3.46036,38.48527 m -21.901319,0 h -1.84899 l -0.03065,-0.16982 H 73.10909 l 0.03576,0.16982 h -0.740781 c -0.01533,-0.0517 -0.03065,-0.10544 -0.04598,-0.15714 -0.0036,-0.0101 -0.0051,-0.0253 -0.01022,-0.0406 -0.01533,-0.0507 -0.03065,-0.0983 -0.04087,-0.14649 -0.0051,-0.0152 -0.01022,-0.0304 -0.01533,-0.0456 -0.01022,-0.0405 -0.02555,-0.0821 -0.03576,-0.12318 -0.0051,-0.0203 -0.01022,-0.0355 -0.01533,-0.0537 -0.01022,-0.0405 -0.02554,-0.0786 -0.03576,-0.11963 -0.0051,-0.0203 -0.01022,-0.0456 -0.02043,-0.0659 -0.01022,-0.0405 -0.02554,-0.0857 -0.03576,-0.12875 -0.0051,-0.0254 -0.01533,-0.0456 -0.02044,-0.0679 -0.01022,-0.0253 -0.01533,-0.0507 -0.02554,-0.077 -0.01022,-0.0456 -0.02554,-0.0877 -0.04087,-0.1323 -0.0051,-0.0203 -0.01022,-0.0355 -0.01533,-0.0553 -0.01022,-0.0304 -0.02044,-0.0628 -0.02554,-0.0928 -0.0036,-0.0101 -0.0051,-0.0203 -0.01022,-0.0304 -0.02044,-0.0588 -0.03576,-0.11811 -0.05415,-0.17692 -0.0018,-0.0101 -0.0051,-0.0203 -0.01022,-0.0304 -1.656285,-5.51858 -3.741507,-10.5633 -5.987148,-15.07865 -0.01533,-0.0253 -0.02554,-0.0537 -0.04087,-0.0806 -0.0051,-0.0101 -0.01022,-0.0253 -0.02044,-0.0405 -0.02043,-0.0405 -0.04087,-0.0821 -0.06131,-0.12318 -0.0036,-0.005 -0.0051,-0.0152 -0.01022,-0.0203 -3.714534,-7.4159 -7.85075,-13.38872 -11.210224,-17.65193 2.849408,-0.30769 5.668208,-0.71353 8.458144,-1.21603 4.639079,6.9581 11.586842,19.37051 15.36263,35.75637"
       style="fill:#e23c20;fill-opacity:1;fill-rule:nonzero;stroke:none;stroke-width:0.17952615"
       id="path696" />
    <path
       d="m 88.126795,217.77179 h -9.683698 v 0 c -3.775788,-16.38587 -10.723551,-28.79827 -15.36263,-35.75637 4.631876,-0.83336 9.171793,-1.93315 13.601818,-3.27971 0.09349,0.18401 0.189027,0.3665 0.284562,0.55081 2.847615,6.09438 8.353613,19.6709 11.159743,38.48527 v 0"
       style="fill:#e4e3e2;fill-opacity:1;fill-rule:nonzero;stroke:none;stroke-width:0.17952615"
       id="path698" />
    <path
       d="m 133.4056,217.77179 h -9.74679 v 0 c 2.93053,-19.6745 8.81499,-33.62299 11.52742,-39.27392 0.33003,-0.65092 0.65965,-1.30899 0.98407,-1.97604 0.28303,-0.54183 0.4414,-0.82438 0.4414,-0.82438 l -0.0307,-0.0254 c 9.40608,-19.7478 21.0272,-46.23739 21.0272,-73.08284 0,-2.589399 -0.0541,-5.153806 -0.16041,-7.693121 2.45832,-9.477798 3.76495,-19.41876 3.76495,-29.658393 0,-14.00927 -2.46552,-27.442741 -6.96579,-39.91587 19.24478,17.714528 31.66973,45.733118 31.66973,77.267384 0,26.84545 -17.97238,53.33504 -32.52582,73.08284 l 0.046,0.0254 c 0,0 -0.24676,0.28234 -0.68305,0.82438 -0.50118,0.66705 -1.01109,1.32512 -1.52474,1.97604 -4.1921,5.65093 -13.29181,19.59942 -17.82636,39.27392 v 0"
       style="fill:#e4e3e2;fill-opacity:1;fill-rule:nonzero;stroke:none;stroke-width:0.17952615"
       id="path700" />
    <path
       d="m 111.35826,217.77179 h -11.01378 v 0 c -0.868711,-18.81437 -2.577259,-32.39089 -3.460373,-38.48527 -0.180341,-1.11409 -0.355064,-2.25504 -0.5281,-3.41738 l -0.03065,-0.17185 0.0036,-0.005 c -0.218147,-1.48245 -0.441403,-3.00247 -0.666856,-4.55828 8.012959,-4.0343 15.512269,-8.94311 22.359139,-14.59222 -0.8705,6.85799 -1.79326,13.2886 -2.65655,19.13084 l 0.0102,0.0253 c 0,0 -0.0521,0.28235 -0.13896,0.82439 -0.0991,0.66704 -0.2018,1.32511 -0.30449,1.97604 -0.83989,5.65093 -2.6638,19.59942 -3.57394,39.27392 v 0"
       style="fill:#e4e3e2;fill-opacity:1;fill-rule:nonzero;stroke:none;stroke-width:0.17952615"
       id="path702" />
    <path
       d="m 76.593953,217.77179 h -3.451376 l -0.03576,-0.16982 h 3.456792 l 0.03065,0.16982"
       style="fill:#353232;fill-opacity:1;fill-rule:nonzero;stroke:none;stroke-width:0.17952615"
       id="path704" />
    <path
       d="m 97.249951,217.77179 h -3.454953 l -0.01533,-0.16982 h 3.45858 l 0.01022,0.16982"
       style="fill:#353232;fill-opacity:1;fill-rule:nonzero;stroke:none;stroke-width:0.17952615"
       id="path706" />
    <path
       d="m 117.90411,217.77179 h -3.45495 l 0.0102,-0.16982 h 3.45858 l -0.0153,0.16982"
       style="fill:#353232;fill-opacity:1;fill-rule:nonzero;stroke:none;stroke-width:0.17952615"
       id="path708" />
    <path
       d="m 138.55648,217.77179 h -3.45133 l 0.0358,-0.16982 h 3.45495 l -0.0358,0.16982"
       style="fill:#353232;fill-opacity:1;fill-rule:nonzero;stroke:none;stroke-width:0.17952615"
       id="path710" />
    <path
       d="m 139.48828,217.77179 c 1.64729,-5.85659 3.79204,-11.19278 6.12233,-15.96564 H 66.286722 c 2.328557,4.77109 4.46967,10.11443 6.115124,15.96564 h 67.086434"
       style="fill:#b42b22;fill-opacity:1;fill-rule:nonzero;stroke:none;stroke-width:0.17952615"
       id="path712" />
  </g>
</svg>
