<?xml version="1.0" encoding="UTF-8"?>
<!DOCTYPE svg PUBLIC "-//W3C//DTD SVG 1.1//EN" "http://www.w3.org/Graphics/SVG/1.1/DTD/svg11.dtd">
<!-- Creator: CorelDRAW 2018 (64-Bit Evaluation Version) -->
<svg xmlns="http://www.w3.org/2000/svg" xml:space="preserve" width="200mm" height="200mm" version="1.1" style="shape-rendering:geometricPrecision; text-rendering:geometricPrecision; image-rendering:optimizeQuality; fill-rule:evenodd; clip-rule:evenodd"
viewBox="0 0 20000 20000"
 xmlns:xlink="http://www.w3.org/1999/xlink">
 <defs>
  <style type="text/css">
   <![CDATA[
    .fil0 {fill:#B4CB34;fill-rule:nonzero}
    .fil1 {fill:#D3E240;fill-rule:nonzero}
   ]]>
  </style>
 </defs>
 <g id="Layer_x0020_1">
  <metadata id="CorelCorpID_0Corel-Layer"/>
  <path id="path246" class="fil0" d="M2383.95 11101.8c0,0 -2671.46,-1617.55 -1054.27,-4672.41 1617.39,-3055.02 4762.37,-628.96 4762.37,-628.96 0,0 1222.67,-6559.28 8203.85,-5301.37 6981.34,1257.91 4465.31,10602.74 4465.31,10602.74l-16377.26 0z"/>
  <path id="path248" class="fil1" d="M2383.95 7500.03c1147.81,-1259.33 4071,-239.99 4071,-239.99 0,0 1303.09,-3778.07 3297.92,-4677.62 1994.83,-899.54 5406.98,-1738.46 7392.07,899.55 1415.7,1881.31 1858.46,4158.97 1996.1,5311.26 256.93,-2853.52 -102.55,-7439.6 -4845.14,-8294.17 -6981.18,-1257.91 -8203.85,5301.37 -8203.85,5301.37 0,0 -3144.98,-2426.06 -4762.37,628.96 -1617.19,3054.86 1054.27,4672.41 1054.27,4672.41 0,0 -1147.8,-2342.43 0,-3601.77z"/>
 </g>
</svg>
