<?xml version="1.0" encoding="UTF-8"?>
<!DOCTYPE svg PUBLIC "-//W3C//DTD SVG 1.1//EN" "http://www.w3.org/Graphics/SVG/1.1/DTD/svg11.dtd">
<!-- Creator: CorelDRAW 2018 (64-Bit Evaluation Version) -->
<svg xmlns="http://www.w3.org/2000/svg" xml:space="preserve" width="200mm" height="200mm" version="1.1" style="shape-rendering:geometricPrecision; text-rendering:geometricPrecision; image-rendering:optimizeQuality; fill-rule:evenodd; clip-rule:evenodd"
viewBox="0 0 20000 20000"
 xmlns:xlink="http://www.w3.org/1999/xlink">
 <defs>
  <style type="text/css">
   <![CDATA[
    .fil0 {fill:#4B823D;fill-rule:nonzero}
    .fil1 {fill:#6FB259;fill-rule:nonzero}
   ]]>
  </style>
 </defs>
 <g id="Layer_x0020_1">
  <metadata id="CorelCorpID_0Corel-Layer"/>
  <g id="_2756613421376">
   <path id="path252" class="fil0" d="M2034.04 9790.17c0,0 -2309.95,-630.05 -1399.94,-2800.18 910,-2169.98 2869.85,-699.87 2869.85,-699.87 0,0 -1959.85,-1610.08 -419.92,-3009.98 1539.92,-1400.09 1960.18,1680.04 1960.18,1680.04 0,0 -770.03,-3709.85 2589.91,-4340.1 3359.94,-629.87 4339.91,4199.93 4339.91,4199.93 0,0 349.91,-3639.89 1890.17,-3779.86 1539.92,-139.98 0,3289.93 0,3289.93 0,0 1882.08,-2940.02 4650.96,-839.86 2768.89,2099.97 -591.19,6299.91 -591.19,6299.91l-15889.93 0.04z"/>
   <g>
    <path id="path254" class="fil1" d="M1736.03 7677.51c369.7,-989.99 2500.1,-708.31 2500.1,-708.31 0,0 -1116.26,-2366.55 -665.38,-2648.37 450.89,-281.82 1803.3,1465.02 1803.3,1465.02 0,0 -182.05,-2423.05 1120.47,-3437.33 1302.58,-1014.33 3725.77,-91.1 5078.18,2828.26 0,0 156.22,-223.16 373.92,-477.05 -178.7,-742.14 -1269.41,-4650.15 -4312.55,-4079.56 -2951.66,553.63 -2715.99,3483.15 -2615.4,4187.1 -109.74,-602.7 -604.04,-2736.98 -1934.64,-1527.04 -1539.93,1399.95 419.92,3009.98 419.92,3009.98 0,0 -1959.85,-1470.1 -2869.85,699.88 -910.01,2170.12 1399.94,2800.18 1399.94,2800.18 0,0 -667.91,-1122.49 -298.01,-2112.67l0 -0.09zm0 0l0 0 0 0z"/>
   </g>
   <path id="path256" class="fil1" d="M18515.16 3490.27c-2768.88,-2100.16 -4650.96,839.85 -4650.96,839.85 0,0 1539.92,-3429.9 0,-3289.92 -1336.69,121.38 -1776.55,2877.42 -1869.71,3604.19 350.44,-398.61 833.43,-838.52 1099.68,-605.38 450.69,394.38 281.63,1521.47 281.63,1521.47 0,0 1916.05,-2028.47 3437.52,-1239.65 1521.47,788.81 1110.65,5469.34 1110.65,5469.34 0,0 3360.08,-4199.93 591.19,-6299.9z"/>
  </g>
 </g>
</svg>
