<?xml version="1.0" encoding="UTF-8"?>
<!DOCTYPE svg PUBLIC "-//W3C//DTD SVG 1.1//EN" "http://www.w3.org/Graphics/SVG/1.1/DTD/svg11.dtd">
<!-- Creator: CorelDRAW 2018 (64-Bit Evaluation Version) -->
<svg xmlns="http://www.w3.org/2000/svg" xml:space="preserve" width="200mm" height="200mm" version="1.1" style="shape-rendering:geometricPrecision; text-rendering:geometricPrecision; image-rendering:optimizeQuality; fill-rule:evenodd; clip-rule:evenodd"
viewBox="0 0 20000 20000"
 xmlns:xlink="http://www.w3.org/1999/xlink">
 <defs>
  <style type="text/css">
   <![CDATA[
    .str0 {stroke:#F8F7F8;stroke-width:20;stroke-miterlimit:22.9256}
    .fil0 {fill:#5BA8DD}
   ]]>
  </style>
 </defs>
 <g id="Layer_x0020_1">
  <metadata id="CorelCorpID_0Corel-Layer"/>
  <g id="_2756263989104">
   <rect class="fil0 str0" x="1565.5" y="1753.87" width="16951.91" height="1020.82"/>
   <rect class="fil0 str0" x="1572.82" y="453.38" width="202.6" height="1281.35"/>
   <rect class="fil0 str0" x="2045.57" y="453.38" width="101.3" height="1281.35"/>
   <rect class="fil0 str0" x="2438.02" y="453.38" width="101.3" height="1281.35"/>
   <rect class="fil0 str0" x="2830.47" y="453.38" width="101.3" height="1281.35"/>
   <rect class="fil0 str0" x="3222.92" y="453.38" width="101.3" height="1281.35"/>
   <rect class="fil0 str0" x="3644.08" y="453.38" width="101.3" height="1281.35"/>
   <rect class="fil0 str0" x="4036.53" y="453.38" width="101.3" height="1281.35"/>
   <rect class="fil0 str0" x="4428.98" y="453.38" width="101.3" height="1281.35"/>
   <rect class="fil0 str0" x="4821.43" y="453.38" width="101.3" height="1281.35"/>
   <rect class="fil0 str0" x="5204.31" y="453.38" width="101.3" height="1281.35"/>
   <rect class="fil0 str0" x="5596.76" y="453.38" width="101.3" height="1281.35"/>
   <rect class="fil0 str0" x="5989.21" y="453.38" width="101.3" height="1281.35"/>
   <rect class="fil0 str0" x="6381.66" y="453.38" width="101.3" height="1281.35"/>
   <rect class="fil0 str0" x="6802.82" y="453.38" width="101.3" height="1281.35"/>
   <rect class="fil0 str0" x="7195.27" y="453.38" width="101.3" height="1281.35"/>
   <rect class="fil0 str0" x="7587.72" y="453.38" width="101.3" height="1281.35"/>
   <rect class="fil0 str0" x="7980.17" y="453.38" width="101.3" height="1281.35"/>
   <rect class="fil0 str0" x="8372.62" y="453.38" width="101.3" height="1281.35"/>
   <rect class="fil0 str0" x="8765.07" y="453.38" width="101.3" height="1281.35"/>
   <rect class="fil0 str0" x="9157.52" y="453.38" width="101.3" height="1281.35"/>
   <rect class="fil0 str0" x="9549.96" y="453.38" width="101.3" height="1281.35"/>
   <rect class="fil0 str0" x="9971.13" y="453.38" width="101.3" height="1281.35"/>
   <rect class="fil0 str0" x="10363.58" y="453.38" width="101.3" height="1281.35"/>
   <rect class="fil0 str0" x="10756.03" y="453.38" width="101.3" height="1281.35"/>
   <rect class="fil0 str0" x="11148.48" y="453.38" width="101.3" height="1281.35"/>
   <rect class="fil0 str0" x="11531.35" y="453.38" width="101.3" height="1281.35"/>
   <rect class="fil0 str0" x="11923.8" y="453.38" width="101.3" height="1281.35"/>
   <rect class="fil0 str0" x="12316.25" y="453.38" width="101.3" height="1281.35"/>
   <rect class="fil0 str0" x="12708.7" y="453.38" width="101.3" height="1281.35"/>
   <rect class="fil0 str0" x="13129.87" y="453.38" width="101.3" height="1281.35"/>
   <rect class="fil0 str0" x="13522.32" y="453.38" width="101.3" height="1281.35"/>
   <rect class="fil0 str0" x="13914.77" y="453.38" width="101.3" height="1281.35"/>
   <rect class="fil0 str0" x="14307.21" y="453.38" width="101.3" height="1281.35"/>
   <rect class="fil0 str0" x="14737.95" y="453.38" width="101.3" height="1281.35"/>
   <rect class="fil0 str0" x="15130.4" y="453.38" width="101.3" height="1281.35"/>
   <rect class="fil0 str0" x="15522.85" y="453.38" width="101.3" height="1281.35"/>
   <rect class="fil0 str0" x="15915.3" y="453.38" width="101.3" height="1281.35"/>
   <rect class="fil0 str0" x="16336.46" y="453.38" width="101.3" height="1281.35"/>
   <rect class="fil0 str0" x="16728.91" y="453.38" width="101.3" height="1281.35"/>
   <rect class="fil0 str0" x="17121.36" y="453.38" width="101.3" height="1281.35"/>
   <rect class="fil0 str0" x="17523.38" y="453.38" width="101.3" height="1281.35"/>
   <rect class="fil0 str0" x="17915.83" y="453.38" width="101.3" height="1281.35"/>
   <rect class="fil0 str0" x="18314.13" y="453.38" width="202.6" height="1281.35"/>
   <rect class="fil0 str0" x="1565.5" y="233.93" width="16951.91" height="214.78"/>
  </g>
  <rect class="fil0 str0" x="1119.84" y="2768.51" width="17899.44" height="510.41"/>
  <rect class="fil0 str0" x="656.01" y="3275.38" width="18792.69" height="510.41"/>
 </g>
</svg>
