<?xml version="1.0" encoding="UTF-8"?>
<!DOCTYPE svg PUBLIC "-//W3C//DTD SVG 1.1//EN" "http://www.w3.org/Graphics/SVG/1.1/DTD/svg11.dtd">
<!-- Creator: CorelDRAW 2018 (64-Bit Evaluation Version) -->
<svg xmlns="http://www.w3.org/2000/svg" xml:space="preserve" width="200mm" height="200mm" version="1.1" style="shape-rendering:geometricPrecision; text-rendering:geometricPrecision; image-rendering:optimizeQuality; fill-rule:evenodd; clip-rule:evenodd"
viewBox="0 0 20000 20000"
 xmlns:xlink="http://www.w3.org/1999/xlink">
 <defs>
  <style type="text/css">
   <![CDATA[
    .fil0 {fill:#695A69}
    .fil4 {fill:#826E77}
    .fil3 {fill:#D6805C}
    .fil2 {fill:#E9A868}
    .fil1 {fill:#F2D057}
   ]]>
  </style>
 </defs>
 <g id="Layer_x0020_1">
  <metadata id="CorelCorpID_0Corel-Layer"/>
  <rect class="fil0" x="15355.77" y="3537.55" width="1167.6" height="8174.15"/>
  <rect class="fil0" x="3482.56" y="3653.77" width="1167.6" height="8174.15"/>
  <path class="fil1" d="M5119.87 3666.89l1825.12 0 3049.52 0 0 -3503.2 -1730.46 0 -2356.3 0c-1934.54,0 -3503.27,1568.34 -3503.27,3503.28l583.88 -0.08 1167.6 0 963.91 0z"/>
  <path class="fil1" d="M2426.36 16370.72c0,1026.49 444.04,1946.95 1147.3,2587.55 -87.46,-79.88 -171.06,-163.86 -250.22,-251.96l6692.88 0 0 -2335.59 -1164.21 0 -3.47 0c-521.15,0 -957.28,-343.53 -1107.71,-815.14 -35.79,-111.88 -60.21,-228.89 -60.21,-352.46l0 -1751.48 0 -583.8c0,-645.11 -522.88,-1167.6 -1167.6,-1167.6l-2335.67 -0.08 -1167.6 0 -583.88 0 0 4670.56 0.39 0z"/>
  <path class="fil2" d="M16426.9 18951.08c123.25,-112.19 241.29,-230.31 347.64,-359.41 499.81,-605.53 799.97,-1381.71 799.97,-2228.22l0 -4670.87 -583.8 0 -1167.6 0 -2335.28 0c-80.59,0 -159.36,8.29 -235.45,23.78 -456.12,93.31 -815.46,452.64 -908.77,908.76 -15.48,76.09 -23.78,154.94 -23.78,235.45l0 583.8 0 1751.48c0,105.71 -18.56,206.21 -44.72,303.24 -23.07,85.01 -55.38,165.6 -96.07,241.69 -74.03,139.05 -174.22,260.25 -295.73,358.7 -84.31,68.5 -174.85,129.1 -276.46,172.08 -139.76,59.18 -293.28,91.89 -454.38,91.89l-1167.52 0.08 0 2335.59 6692.88 0c-79.88,88.1 -163.55,172.09 -250.93,251.96z"/>
  <path class="fil2" d="M13720.35 3663.33l2093.67 0 1167.6 0 583.8 0c0,-846.42 -300.16,-1622.69 -799.97,-2228.22 -142.85,-173.11 -301.89,-332.15 -475,-475 -605.53,-499.81 -1381.72,-799.97 -2228.22,-799.97l-2356.62 0 -1730.46 0 0 3503.27 2093.59 -0.08 1651.61 0z"/>
  <path class="fil2" d="M5481.34 19838.44c33.42,4.5 65.42,11.37 99.16,15.17 122.22,13.11 246.5,20.3 372.45,20.3l776.18 0 3310.81 0 0 -1167.6 -6692.88 0c79.17,88.1 162.84,172.08 250.22,251.96 2.37,2.37 4.82,4.51 7.19,6.88 83.99,76.08 172.09,147.98 263.02,215.85 7.19,5.53 14.15,10.67 21.34,16.2 86.04,62.97 175.24,121.51 266.81,176.9 13.43,8.3 26.87,16.51 40.3,24.41 85.72,49.94 174.21,95.37 264.05,138.03 20.62,9.96 40.92,20.31 61.62,29.63 84.31,37.85 171.06,71.27 258.84,102.56 27.57,9.95 54.36,21.01 82.25,29.94 83.67,27.57 169.71,49.93 255.75,71.27 26.47,6.55 51.99,15.8 78.85,21.64 6.16,1.35 12.72,1.74 18.96,3.09 87.07,19.04 175.88,31.76 265.08,43.77z"/>
  <path class="fil3" d="M14106.71 19873.12c126.02,0 249.9,-7.19 372.45,-20.3 33.42,-3.48 65.73,-10.67 99.15,-15.17 89.13,-12.01 178.33,-25.13 265.08,-43.7 33.03,-7.19 64.71,-16.82 97.42,-25.12 86.43,-21.33 172.08,-43.38 256.07,-71.27 27.89,-8.92 54.75,-20.3 82.25,-29.94 87.78,-31.29 174.53,-64.71 258.83,-102.56 21.02,-9.32 40.93,-19.98 61.63,-29.62 90.15,-42.67 178.64,-88.1 264.05,-138.03 13.75,-7.9 26.86,-16.52 40.29,-24.42 91.57,-55.07 181.09,-113.93 266.82,-176.9 7.19,-5.13 14.46,-10.66 21.33,-16.2 91.26,-67.79 179.03,-139.76 263.34,-216.17 2.37,-2.05 4.82,-4.1 7.19,-6.55 87.46,-79.88 171.05,-163.87 250.22,-251.96l-6692.88 -0.08 0 1167.6 4086.76 0.08 0 0.31z"/>
  <rect class="fil4" x="7658.36" y="12923.11" width="4670.87" height="583.8"/>
 </g>
</svg>
