<?xml version="1.0" encoding="UTF-8"?>
<!DOCTYPE svg PUBLIC "-//W3C//DTD SVG 1.1//EN" "http://www.w3.org/Graphics/SVG/1.1/DTD/svg11.dtd">
<!-- Creator: CorelDRAW 2018 (64-Bit Evaluation Version) -->
<svg xmlns="http://www.w3.org/2000/svg" xml:space="preserve" width="210mm" height="193mm" version="1.1" style="shape-rendering:geometricPrecision; text-rendering:geometricPrecision; image-rendering:optimizeQuality; fill-rule:evenodd; clip-rule:evenodd"
viewBox="0 0 21000 19300"
 xmlns:xlink="http://www.w3.org/1999/xlink">
 <defs>
  <style type="text/css">
   <![CDATA[
    .fil0 {fill:#382F2F;fill-rule:nonzero}
    .fil1 {fill:#EED58E;fill-rule:nonzero}
   ]]>
  </style>
 </defs>
 <g id="Layer_x0020_1">
  <metadata id="CorelCorpID_0Corel-Layer"/>
  <g id="_2117563595152">
   <polygon id="path124" class="fil0" points="16807.5,19353.09 14156.54,19353.09 14156.54,18775.25 16807.5,18775.25 "/>
   <g>
    <path id="path128" class="fil0" d="M15596.24 1866.69l-202.5 45.5c2.93,-25.81 21.4,-746.3 337.19,-1130.31 433.21,-526.58 1417.44,-799.02 2410.16,-694.53 797.81,84.01 1340.54,421.96 1528.39,951.75l-192.19 68.1c-216,-609.25 -943.23,-773.37 -1357.54,-817.01 -907.84,-95.66 -1847.3,149.98 -2214.99,598.31 -286.43,349.42 -307.83,972.39 -308.54,978.21l0.02 -0.02zm0 0l0 0 0 0z"/>
   </g>
   <path id="path130" class="fil0" d="M19191.14 1480.97c0,0 14,-226.09 308.9,-425.87 235.9,-159.77 736.06,-203.91 1008.05,-87.92 409.53,174.78 399.38,513.79 399.38,513.79l-1716.33 0z"/>
   <path id="path132" class="fil1" d="M19420.44 1480.97c0,0 567.18,645.78 1280.92,0l-1280.92 0z"/>
   <g>
    <path id="path134" class="fil0" d="M15333.46 1866.69l202.5 45.5c-2.92,-25.81 -21.45,-746.3 -337.18,-1130.31 -433.21,-526.58 -1417.52,-799.02 -2410.16,-694.53 -797.89,84.01 -1340.62,421.96 -1528.39,951.75l192.19 68.1c215.91,-609.25 943.17,-773.37 1357.54,-817.01 907.77,-95.66 1847.3,149.98 2214.99,598.31 286.35,349.42 307.83,972.39 308.53,978.21l-0.02 -0.02zm0 0l0 0 0 0z"/>
   </g>
   <path id="path136" class="fil0" d="M11738.49 1480.97c0,0 -14.01,-226.09 -308.82,-425.87 -235.91,-159.77 -736.06,-203.91 -1008.05,-87.92 -409.61,174.78 -399.38,513.79 -399.38,513.79l1716.25 0z"/>
   <path id="path138" class="fil1" d="M11509.27 1480.97c0,0 -567.18,645.78 -1280.92,0l1280.92 0z"/>
   <path id="path116" class="fil0" d="M16167.02 18231.51l0 -428.42 -222.25 -2466.2c0,0 -187,-195.23 -51.31,-342.8 0,0 51.31,-81.05 51.31,-156.02 0,-74.97 -51.31,-129.66 -51.31,-129.66 0,0 -169.3,-123.87 -46.2,-295.22l-90.62 -171.45 0 -3332.64c0,0 145.34,-61.88 145.34,-171.4 0,-76.17 -144.21,-142.8 -144.21,-142.8l-1.13 -0.02 0 -9207.61 -581.47 0 0 9207.61c0,0 -145.35,47.65 -145.35,142.8 0,95.23 145.35,171.4 145.35,171.4l0 3332.64 -90.69 171.46c123.18,171.32 -46.19,295.22 -46.19,295.22 0,0 -51.32,61.82 -51.32,129.65 0,67.86 51.32,156.02 51.32,156.02 135.75,173.74 -51.32,342.8 -51.32,342.8l-222.18 2466.2 0 428.42 -273.64 219.05 0 323.74 1949.51 0.02 0 -323.74 -273.64 -219.05z"/>
   <polygon id="path144" class="fil0" points="16072.95,1663.23 14799.1,1663.23 14799.1,1378.28 16072.95,1378.28 "/>
  </g>
 </g>
</svg>
