<?xml version="1.0" encoding="UTF-8"?>
<!DOCTYPE svg PUBLIC "-//W3C//DTD SVG 1.1//EN" "http://www.w3.org/Graphics/SVG/1.1/DTD/svg11.dtd">
<!-- Creator: CorelDRAW 2018 (64-Bit Evaluation Version) -->
<svg xmlns="http://www.w3.org/2000/svg" xml:space="preserve" width="200mm" height="200mm" version="1.1" style="shape-rendering:geometricPrecision; text-rendering:geometricPrecision; image-rendering:optimizeQuality; fill-rule:evenodd; clip-rule:evenodd"
viewBox="0 0 20000 20000"
 xmlns:xlink="http://www.w3.org/1999/xlink">
 <defs>
  <style type="text/css">
   <![CDATA[
    .fil0 {fill:white;fill-rule:nonzero}
   ]]>
  </style>
 </defs>
 <g id="Layer_x0020_1">
  <metadata id="CorelCorpID_0Corel-Layer"/>
  <g>
   <path id="path42" class="fil0" d="M18930.95 5450.42c67.45,-91.35 93.36,-238.3 69.31,-346.87 -37.46,-169.07 -193.72,-299.12 -364.91,-325.17 -171.17,-26.05 -322.56,22.51 -446.95,142.96 119.76,-157.76 124.11,-393.39 10.24,-555.47 -113.84,-162.07 -336.89,-219.32 -525.93,-160.19 37.67,-119.45 12.65,-256.8 -64.71,-355.29 -77.36,-98.48 -203.2,-126.86 -328.18,-118.57 162.19,-154.95 327.12,-313.5 432.67,-511.41 105.55,-197.92 143.53,-445.52 42.97,-646.02 -100.55,-200.52 -389.98,-280.66 -588.39,-176.03 47.28,-85.21 26.36,-202.33 -47.5,-265.9 -73.85,-63.58 -179.8,-107.03 -257.04,-47.61 118.07,-288.5 117.76,-630.88 -32.82,-903.84 -150.59,-272.96 -459.43,-460.64 -770.16,-435.37 -310.72,25.26 -576.17,267.35 -603.17,577.9 -30.75,-46.39 -94.25,-68.04 -146.94,-50.07 -52.69,17.96 -96.56,28.99 -92.58,84.51 -72.22,-163.96 -261.09,-259.98 -439.8,-246.65 -178.68,13.36 -341.6,123.4 -444.53,270.09 -102.91,146.66 -121.8,344.3 -134.97,523 -65.35,-38.38 -154.98,-29.68 -211.75,20.51 -56.78,50.2 -80.83,98.87 -50.79,168.46 -52.91,-62.25 -146.57,-85.99 -222.74,-56.44 -76.18,29.51 -70.83,66.59 -67.97,148.23 -315.64,45.3 -607.83,234.24 -778.64,503.54 -170.79,269.28 -238.9,613.29 -145.33,918.15 -44.25,-15.64 -98.32,4.54 -121.52,45.34 -23.2,40.81 6.82,129.7 42.9,159.74 -72.04,-52.05 -178.27,-50.46 -248.72,3.75 -70.42,54.19 -128.55,183.31 -96.68,266.26 -36.67,-117.89 -197.42,-136.54 -305.71,-77.19 48.15,-65.67 46.04,-163.61 -4.9,-227.11 -50.93,-63.51 -145.59,-124.44 -220.12,-91.72 61.68,-395.66 -81.85,-817.73 -371.97,-1093.73 -290.14,-276 -718.82,-398.35 -1110.92,-317.05 -122.22,25.36 -243.13,70.7 -337.83,152.01 -94.74,81.31 -215.78,189.16 -209.34,313.84 -91.79,-39.48 -205.68,-21.11 -280.4,45.27 -74.72,66.36 -63.39,193.39 -35.01,289.19 -76.78,-79.98 -233.17,-5.28 -250.47,104.24 -33.4,-151.61 -177.23,-271.51 -332.35,-277.07 -155.14,-5.54 -339,100.53 -383.14,249.35 31.11,-71.13 9.68,-161.61 -50.03,-211.21 -59.67,-49.62 -162.51,-58.89 -226.73,-15.3 37.22,-75.48 6.71,-177.28 -65.91,-219.84 -72.58,-42.55 -184.28,-43.92 -231.98,25.43 -45.04,-548.72 -532.8,-1009.51 -1078.55,-1082.07 -545.75,-72.53 -1107.36,211.03 -1427.11,659.19 -311.79,437.02 -445.05,980.73 -355.09,1508.77 -17.07,-67.16 -65.98,-126.27 -130.32,-152.65 -77.05,-31.59 -160.71,-65.98 -222.17,-9.77 -91.58,-157.69 -304.92,-221.77 -478.04,-164.46 -173.09,57.29 -300.55,217.69 -345.54,394.42 -44.97,176.71 -8.58,381.63 60.75,550.27 -89.65,-84.47 -263.2,-102.26 -342.86,-8.32 -191.82,-178.74 -507.54,-206.36 -727.47,-63.59 -219.92,142.76 -323.89,430.22 -238.68,678.2 -91.26,-109.66 -301.08,-42.61 -321.92,98.51 -77.49,-138.72 -286.06,-142.1 -422.74,-61.09 -136.7,81.02 -228.63,218.42 -344.06,327.59 -115.44,109.19 -271.76,128.94 -430.64,128.94l934.5 0c255.93,121.73 551,143.19 831.5,71.09 41.97,111.82 159.76,180.82 277.85,198.69 118.07,17.85 237.99,-6.44 354.95,-30.61 188.82,-39.02 359.42,-116.48 548.25,-155.5 210.47,200.18 595.42,232.08 784.84,11.86 22.17,121.07 171.33,171.07 294.3,165.39 122.94,-5.68 250.9,-41.94 365.71,2.36 75.87,29.25 134.76,90.15 205.3,130.57 123.99,71.11 308.39,83.08 433.91,14.73 538.02,183.46 1145.95,156.63 1658.33,-89.57 488.66,210.07 1031.84,291.78 1560.7,234.76 211.61,-22.81 453.27,-92.9 532.58,-290.42 107.83,135.63 391.34,100.77 485.5,-44.7 623.4,196.57 1277.05,296.82 1930.7,296.12 316.26,-0.35 688.99,-49.07 883.75,-298.24 185.98,242.83 599.49,258.37 803.17,30.16 85.18,66.33 239.99,27.35 285.63,-70.49 101.72,176.82 287.79,302.53 489.78,330.9 202.01,28.38 388.92,-12.15 535.41,-154.11 94.38,124.71 246.22,204.03 402.49,210.24 156.29,6.24 313.93,-60.74 417.93,-177.56 108.38,115.04 344.57,78.51 394.17,-71.53 401.86,328.31 1026.74,251.94 1418.14,-88.74 2.79,21.1 5.56,42.2 8.34,63.31 107.28,61.31 244.39,-11.22 264.48,-133.15 201.32,147.84 500.97,143.39 697.8,-10.33 47.84,-37.36 92.36,-88.29 93.86,-148.97 0.76,-30.5 -15.07,-61.11 -38.01,-80.84l0.02 -0.01zm0 0l0 0 0 0z"/>
  </g>
 </g>
</svg>
