<?xml version="1.0" encoding="UTF-8"?>
<!DOCTYPE svg PUBLIC "-//W3C//DTD SVG 1.1//EN" "http://www.w3.org/Graphics/SVG/1.1/DTD/svg11.dtd">
<!-- Creator: CorelDRAW 2018 (64-Bit Evaluation Version) -->
<svg xmlns="http://www.w3.org/2000/svg" xml:space="preserve" width="200mm" height="200mm" version="1.1" style="shape-rendering:geometricPrecision; text-rendering:geometricPrecision; image-rendering:optimizeQuality; fill-rule:evenodd; clip-rule:evenodd"
viewBox="0 0 20000 20000"
 xmlns:xlink="http://www.w3.org/1999/xlink">
 <defs>
  <style type="text/css">
   <![CDATA[
    .fil0 {fill:white;fill-rule:nonzero}
   ]]>
  </style>
 </defs>
 <g id="Layer_x0020_1">
  <metadata id="CorelCorpID_0Corel-Layer"/>
  <g>
   <path id="path52" class="fil0" d="M19187.13 7726.11c63.16,-165.4 85.61,-342.62 49.93,-507.88 -82.63,-382.55 -524.99,-678.09 -911.73,-737.81 125.54,-170.47 90.8,-437.55 -74.18,-570.18 -164.99,-132.63 -408.02,-222.84 -547.48,-63.59 105.39,-304.25 210.19,-643.15 83.23,-939.09 -126.88,-295.94 -495.18,-571.2 -655.31,-291.81 231.55,-669.64 323.36,-1401.16 163.1,-2091.33 -160.19,-690.17 -592.48,-1332.58 -1221.65,-1658.45 -629.17,-325.8 -1453.93,-289.93 -2000,161.6 -545.99,451.48 -580.58,1283.93 -184.78,1871.62 -320.26,-85.13 -689.23,85.8 -831.46,385.12 -142.15,299.31 -41.48,693.29 226.82,887.72 -152.01,-22.37 -313.42,70.68 -370.32,213.44 -43.04,108.17 -3.99,304.92 72.08,432.42 -472.54,-507.75 -1269.14,-693.83 -1914.17,-431.73 -684.29,278.03 -1038.53,850.57 -961.98,1585.27 -462.76,-463.16 -1247.39,-561.07 -1809.8,-225.86 -562.35,335.12 -785.24,1132.72 -598.09,1760.07 -143.98,-196.54 -497.69,-121.08 -632.27,82.09 -23.92,-101.81 -133.78,-175.2 -236.95,-158.31 -103.1,16.81 -107.16,121.62 -97.43,225.73 -111.62,-243.03 -381,-403.98 -647.88,-387.15 -266.89,16.82 -594.24,169.25 -674.43,424.38 -1451.36,-389.98 -3051.98,569.44 -4554.84,569.44l1298.2 0.01c462.28,203.78 936.93,393.83 1438.93,428.36 548.83,37.77 1092.66,-113.51 1611.76,-295.52 81.15,123.92 276.01,178.5 422.88,159.66 146.88,-18.85 278.65,-127.02 325.86,-267.35 272.16,262.35 708.62,337.02 1052.53,180.07 947.33,340.26 2014.92,294.31 2938.27,-106.28 709.23,362.35 1609.27,370.93 2338.77,51.56 301.68,311.48 850.78,238.77 1160.49,-64.66 626.87,105.67 1277.78,241.55 1908.16,159.52 408.98,182.22 1009.29,67.5 1389.08,-169.51 393.02,285.94 948.13,318.02 1392.05,120.12 202.82,85.75 456.74,126.27 670.04,71.48 213.3,-54.8 405.53,-221.88 447.28,-438.17 24.19,-125.41 -4.19,-252.08 -64.73,-364.98l0.02 -0.02zm0 0l0 0 0 0z"/>
  </g>
 </g>
</svg>
