<?xml version="1.0" encoding="UTF-8"?>
<!DOCTYPE svg PUBLIC "-//W3C//DTD SVG 1.1//EN" "http://www.w3.org/Graphics/SVG/1.1/DTD/svg11.dtd">
<!-- Creator: CorelDRAW 2018 (64-Bit Evaluation Version) -->
<svg xmlns="http://www.w3.org/2000/svg" xml:space="preserve" width="200mm" height="200mm" version="1.1" style="shape-rendering:geometricPrecision; text-rendering:geometricPrecision; image-rendering:optimizeQuality; fill-rule:evenodd; clip-rule:evenodd"
viewBox="0 0 20000 20000"
 xmlns:xlink="http://www.w3.org/1999/xlink">
 <defs>
  <style type="text/css">
   <![CDATA[
    .fil0 {fill:white;fill-rule:nonzero}
   ]]>
  </style>
 </defs>
 <g id="Layer_x0020_1">
  <metadata id="CorelCorpID_0Corel-Layer"/>
  <g>
   <path id="path44" class="fil0" d="M19161.83 4501.83c-64.08,-436.96 -401.35,-839.73 -836.55,-914.7 -378.89,-65.23 -896.47,209.08 -1056.37,570.76 28.27,-220.41 -62.94,-457.35 -243.01,-590.05 -226.81,-167.11 -594.1,-161.58 -804.52,25.7 131.15,-520.02 35.95,-1105.75 -302.79,-1521.46 -338.8,-415.79 -929.46,-628.43 -1441.31,-468.48 -511.85,159.95 -998.29,794.33 -901.6,1321.77 -44.12,-192.08 -226.67,-343.33 -423.61,-350.89 -196.94,-7.63 -390.63,129.13 -449.45,317.23 -96.88,-158.14 -314.8,-228.91 -486.09,-157.94 -133.18,55.11 -284.7,227.07 -325.53,385.63 -15.11,-140.6 -96.27,-274.79 -219.2,-346.03 -160.7,-93.23 -240.92,-112.87 -380.57,9.64 15.11,-393.67 29.42,-795.34 -79.88,-1173.88 -109.29,-378.54 -365.32,-736.85 -737.85,-864.98 -372.61,-128.05 -810.67,31.1 -928.66,407.02 -91.95,-375.79 -489.94,-649.68 -873.73,-601.39 -383.88,48.3 -701.57,412.35 -697.53,799.13 -59.09,-199.9 -306.82,-319.52 -500.19,-241.59 -193.36,77.93 -362.22,285.44 -266.14,470.42 -792.58,-154.5 -1654.55,108.55 -2225.68,679.38 -571.14,570.75 -712.23,1429.3 -558.19,2221.95 -279.21,-200.84 -632.37,-64.43 -694.52,252.72 -6.76,-208.06 -309.64,-355.26 -520.75,-264.06 -235.68,101.8 -281.5,418.01 -478.48,582.69 -130.42,109.02 -293.63,194.64 -469.15,261.82 -472.76,73.67 -932.02,152.67 -1372.75,237.54 9.41,-0.21 20.67,-0.21 30.87,-0.27 -11.21,0.14 -21.69,0.27 -30.87,0.27l109.73 0.06c819.73,12.41 3314.79,301.16 3938.19,472.24 654.04,179.46 1332.71,6.01 1953.32,-267.5 172.51,227.5 541.34,270.53 761.68,88.98 157.6,145.12 510.11,98.7 689.84,-18.01 810.72,296.23 1783.84,331.66 2584.66,9.45 360.52,368.28 1016.7,388.06 1398.74,42.09 164.62,214.61 509.69,283.01 726.32,121.03 1440.24,494.85 3017.37,448.04 4406.94,-175.13 224.86,184.98 526.69,273.22 815.79,238.55 242.47,-29.15 491.08,-161.98 576.28,-390.82 47.69,-128.11 19.02,-281.12 -58.29,-391.1 222.64,-228.97 416.99,-463.55 370.92,-777.81l-0.02 0.02zm0 0l0 0 0 0z"/>
  </g>
 </g>
</svg>
