<?xml version="1.0" encoding="UTF-8"?>
<!DOCTYPE svg PUBLIC "-//W3C//DTD SVG 1.1//EN" "http://www.w3.org/Graphics/SVG/1.1/DTD/svg11.dtd">
<!-- Creator: CorelDRAW 2018 (64-Bit Evaluation Version) -->
<svg xmlns="http://www.w3.org/2000/svg" xml:space="preserve" width="200mm" height="200mm" version="1.1" style="shape-rendering:geometricPrecision; text-rendering:geometricPrecision; image-rendering:optimizeQuality; fill-rule:evenodd; clip-rule:evenodd"
viewBox="0 0 20000 20000"
 xmlns:xlink="http://www.w3.org/1999/xlink">
 <defs>
  <style type="text/css">
   <![CDATA[
    .fil0 {fill:white;fill-rule:nonzero}
   ]]>
  </style>
 </defs>
 <g id="Layer_x0020_1">
  <metadata id="CorelCorpID_0Corel-Layer"/>
  <path id="path60" class="fil0" d="M16360.03 4676.59c-235.61,-38.04 -1029.28,-214.77 -1500.86,-458.6 -132.27,-68.4 -357.71,-229.76 -503.69,-258.83 -20.86,-4.12 -43.01,-7.08 -65.76,-9.41 60.32,-159.96 87.58,-332.41 76.49,-503.04 -9.17,-140.82 -48.05,-288.27 -151.43,-384.35 -103.36,-96.07 -263.52,-110.17 -359.95,-7.13 70.24,-354.3 -145.18,-743.65 -482.67,-872.41 -337.49,-128.76 -747.22,63.31 -930.81,374.38 64.88,-168.48 112.41,-354.75 62.55,-528.28 -49.82,-173.53 -228.15,-320.59 -403.64,-278.18 -51.09,-99.76 -108.93,-206.25 -210.25,-254.14 -101.37,-47.9 -278.38,-14.06 -283.39,97.91 -5.04,-114.66 -91.8,-220.9 -203.08,-248.78 -111.3,-27.87 -203.53,47.34 -261.96,146.06 -71.32,-218.03 -176.17,-430.09 -339.88,-590.76 -163.68,-160.71 -392.6,-264.88 -620.84,-241.89 -228.23,22.99 -445.26,190.63 -489.91,415.66 -66.39,-35.6 -151.85,-32.4 -215.42,8.02 -63.59,40.41 -49.09,108.81 -45.05,184.02 -366.21,-63.72 -761.48,80.18 -1001.01,364.4 -239.57,284.22 -308.93,702.44 -184.1,1052.59 -124.12,-88.86 -293.48,-110.54 -435.93,-55.78 -142.45,54.78 -253.7,184.26 -286.31,333.36 -22.07,-89.23 -114.58,-155.23 -206.09,-147.11 -91.54,8.13 -143.41,31.32 -149.41,123.03 -343.74,-520.99 -1057.48,-762.81 -1647.11,-558.11 -589.62,204.72 -976.1,838.04 -923.03,1459.92 -213.77,-135.28 -482.43,-180.77 -728.84,-123.51 -246.42,57.31 -467.46,216.66 -599.65,432.36 -71.75,117.07 -116.53,270.13 -47.85,388.99 -152.09,-101.05 -388.54,-72.13 -514.51,60.08 -314.83,-127.72 -369,-47.26 -678.84,92.11 -464.52,208.93 -913.01,208.93 -1252.75,208.93l1008.5 0c1101.33,0 1597.09,286.86 2284.96,108.6 946.02,261.88 1938.06,243.42 2882.16,-25.51 315.14,163.81 682.39,155.59 1004.09,5.01 768.84,188.99 1577.55,168.45 2338.63,-49.7 166.19,86.27 374.97,68.21 543.25,-13.97 544.3,193.71 1138.69,192.95 1700.73,59.19 311.5,155.1 671.85,137.64 983.98,-16.23 519.59,151.63 1073.21,144.3 1597.05,7.89 233.61,69.49 511.62,64.33 744.54,-7.52 114.9,-35.44 239.57,-56.03 376.46,-67.76l3025.34 0c-969.3,-38.69 -1939.95,-107.85 -2904.71,-221.51z"/>
 </g>
</svg>
