<?xml version="1.0" encoding="UTF-8" standalone="no"?>
<!-- Created with Inkscape (http://www.inkscape.org/) -->

<svg
   xmlns:dc="http://purl.org/dc/elements/1.1/"
   xmlns:cc="http://creativecommons.org/ns#"
   xmlns:rdf="http://www.w3.org/1999/02/22-rdf-syntax-ns#"
   xmlns:svg="http://www.w3.org/2000/svg"
   xmlns="http://www.w3.org/2000/svg"
   xmlns:sodipodi="http://sodipodi.sourceforge.net/DTD/sodipodi-0.dtd"
   xmlns:inkscape="http://www.inkscape.org/namespaces/inkscape"
   width="210mm"
   height="297mm"
   viewBox="0 0 210 297"
   version="1.1"
   id="svg8"
   inkscape:version="0.92.3 (2405546, 2018-03-11)"
   sodipodi:docname="psbody.svg">
  <defs
     id="defs2">
    <style
       id="style815"
       type="text/css">
   <![CDATA[
    .str0 {stroke:#EEAB1B;stroke-width:250;stroke-miterlimit:22.9256}
    .str1 {stroke:#EEAB1B;stroke-width:20;stroke-miterlimit:22.9256}
    .fil0 {fill:none}
    .fil6 {fill:#EEAB1B}
    .fil1 {fill:#5D3B31}
    .fil3 {fill:#432B25}
    .fil5 {fill:#DBD8D8}
    .fil7 {fill:#F2D057}
    .fil2 {fill:#F6EEEE}
    .fil4 {fill:#C99A37;fill-rule:nonzero}
   ]]>
  </style>
  </defs>
  <sodipodi:namedview
     id="base"
     pagecolor="#ffffff"
     bordercolor="#666666"
     borderopacity="1.0"
     inkscape:pageopacity="0.0"
     inkscape:pageshadow="2"
     inkscape:zoom="0.35"
     inkscape:cx="-64.285714"
     inkscape:cy="560"
     inkscape:document-units="mm"
     inkscape:current-layer="layer1"
     showgrid="false"
     showguides="true"
     inkscape:guide-bbox="true"
     inkscape:window-width="1366"
     inkscape:window-height="745"
     inkscape:window-x="-8"
     inkscape:window-y="-8"
     inkscape:window-maximized="1">
    <sodipodi:guide
       position="-110.36905,296.33333"
       orientation="0,1"
       id="guide935"
       inkscape:locked="false" />
    <sodipodi:guide
       position="-315.98809,150.43453"
       orientation="0,1"
       id="guide939"
       inkscape:locked="false" />
  </sodipodi:namedview>
  <metadata
     id="metadata5">
    <rdf:RDF>
      <cc:Work
         rdf:about="">
        <dc:format>image/svg+xml</dc:format>
        <dc:type
           rdf:resource="http://purl.org/dc/dcmitype/StillImage" />
        <dc:title></dc:title>
      </cc:Work>
    </rdf:RDF>
  </metadata>
  <g
     inkscape:label="Layer 1"
     inkscape:groupmode="layer"
     id="layer1">
    <g
       style="clip-rule:evenodd;fill-rule:evenodd;image-rendering:optimizeQuality;shape-rendering:geometricPrecision;text-rendering:geometricPrecision"
       id="g933"
       transform="matrix(0.00759029,0,0,0.0084098,34.215924,135.07969)">
      <g
         id="Layer_x0020_1">
  <metadata
   id="CorelCorpID_0Corel-Layer" />

  <g
   id="_3114435984384">
   <line
   id="line820"
   y2="1360.9301"
   x2="10117.35"
   y1="13362.38"
   x1="2266.3101"
   class="fil0 str0"
   style="fill:none;stroke:#eeab1b;stroke-width:250;stroke-miterlimit:22.92560005" />

   <line
   id="line822"
   y2="1360.9301"
   x2="10117.35"
   y1="13622.99"
   x1="18108.789"
   class="fil0 str0"
   style="fill:none;stroke:#eeab1b;stroke-width:250;stroke-miterlimit:22.92560005" />

  </g>

  <path
   id="path825"
   d="m 9810.04,16581.51 -439,-2364.04 -1139.06,-27.02 -427.9,2317.48 -1105.66,0.08 -708.05,-2350.53 H 4961.74 l 11.75,908.23 c -594.44,119.4 -2437,-878.82 -2452.01,-1949.16 H 415.03 l 24.21,813.36 c -6.27,73.52 -9.45,147.49 -9.45,221.81 0,2738.12 4286.48,4957.82 9574.13,4957.82 5011.34,0 9123.41,-1993.79 9539.49,-4533.05 v -849.48 -637.63 h -4225.7 c -5.07,633.46 -616.9,1228.22 -1059.62,1562.85 -269.41,203.62 -1512.67,414.07 -1708.55,422.89 v -918.59 h -1078.48 l -498.21,2424.98 z"
   class="fil1"
   inkscape:connector-curvature="0"
   style="fill:#5d3b31" />

  <line
   id="line827"
   y2="14072.96"
   x2="2935.26"
   y1="14072.96"
   x1="430.98001"
   class="fil0 str1"
   style="fill:none;stroke:#eeab1b;stroke-width:20;stroke-miterlimit:22.92560005" />

  <line
   id="line829"
   y2="14884.11"
   x2="4148.1299"
   y1="14884.11"
   x1="514.31"
   class="fil0 str1"
   style="fill:none;stroke:#eeab1b;stroke-width:20;stroke-miterlimit:22.92560005" />

  <line
   id="line831"
   y2="14070.26"
   x2="19543.41"
   y1="14070.26"
   x1="14955.5"
   class="fil0 str1"
   style="fill:none;stroke:#eeab1b;stroke-width:20;stroke-miterlimit:22.92560005" />

  <line
   id="line833"
   y2="14884.11"
   x2="6209.2598"
   y1="14884.11"
   x1="4971.1299"
   class="fil0 str1"
   style="fill:none;stroke:#eeab1b;stroke-width:20;stroke-miterlimit:22.92560005" />

  <line
   id="line835"
   y2="14884.11"
   x2="9500.0303"
   y1="14884.11"
   x1="8079.2798"
   class="fil0 str1"
   style="fill:none;stroke:#eeab1b;stroke-width:20;stroke-miterlimit:22.92560005" />

  <line
   id="line837"
   y2="14884.11"
   x2="12549.54"
   y1="14884.11"
   x1="11333.52"
   class="fil0 str1"
   style="fill:none;stroke:#eeab1b;stroke-width:20;stroke-miterlimit:22.92560005" />

  <line
   id="line839"
   y2="15613.52"
   x2="6446.7002"
   y1="15613.52"
   x1="837.64001"
   class="fil0 str1"
   style="fill:none;stroke:#eeab1b;stroke-width:20;stroke-miterlimit:22.92560005" />

  <line
   id="line841"
   y2="16484.83"
   x2="6691.4502"
   y1="16484.83"
   x1="1587.66"
   class="fil0 str1"
   style="fill:none;stroke:#eeab1b;stroke-width:20;stroke-miterlimit:22.92560005" />

  <line
   id="line843"
   y2="17307.641"
   x2="17268.539"
   y1="17307.641"
   x1="2619.72"
   class="fil0 str1"
   style="fill:none;stroke:#eeab1b;stroke-width:20;stroke-miterlimit:22.92560005" />

  <line
   id="line845"
   y2="18152.789"
   x2="15570.99"
   y1="18152.789"
   x1="4349.1099"
   class="fil0 str1"
   style="fill:none;stroke:#eeab1b;stroke-width:20;stroke-miterlimit:22.92560005" />

  <line
   id="line847"
   y2="14843.52"
   x2="19467.92"
   y1="14843.52"
   x1="13858.87"
   class="fil0 str1"
   style="fill:none;stroke:#eeab1b;stroke-width:20;stroke-miterlimit:22.92560005" />

  <line
   id="line849"
   y2="15532.47"
   x2="9615.2305"
   y1="15532.47"
   x1="8010.1899"
   class="fil0 str1"
   style="fill:none;stroke:#eeab1b;stroke-width:20;stroke-miterlimit:22.92560005" />

  <line
   id="line851"
   y2="15572.99"
   x2="19195.631"
   y1="15572.99"
   x1="11171.28"
   class="fil0 str1"
   style="fill:none;stroke:#eeab1b;stroke-width:20;stroke-miterlimit:22.92560005" />

  <line
   id="line853"
   y2="16545.619"
   x2="18390"
   y1="16545.619"
   x1="10942.1"
   class="fil0 str1"
   style="fill:none;stroke:#eeab1b;stroke-width:20;stroke-miterlimit:22.92560005" />

  <line
   id="line855"
   y2="16484.83"
   x2="9810.04"
   y1="16484.83"
   x1="7822.6899"
   class="fil0 str1"
   style="fill:none;stroke:#eeab1b;stroke-width:20;stroke-miterlimit:22.92560005" />

  <g
   id="_3114435967072">
   <path
   id="path857"
   d="m 16495.93,14828.68 c 14.46,45.86 29.4,93.28 36.86,141.05 3.04,19.46 15,161.06 21.46,238.85 2.47,29.8 25.71,54.03 56.11,58.51 l 106.21,15.61 c 15.31,2.26 27.52,13.61 30.5,28.39 l 14,69.61 c 6.08,30.26 33.35,52.08 65.04,52.07 l 823.61,-0.48 c 31.14,-0.02 58.07,-21.13 64.68,-50.73 l 16.03,-71.67 c 3.53,-14.14 15.55,-24.77 30.36,-26.87 l 129.31,-18.27 c 31.07,-4.39 54.7,-29.38 56.59,-59.86 4.96,-80.04 14.22,-225.76 17.09,-245.72 6.8,-47.14 21.1,-93.74 34.92,-139.07 19.36,-63.44 39.39,-128.91 39.39,-197.01 0.03,-434.88 -355.38,-788.61 -792.21,-788.61 -436.84,0 -792.23,353.92 -792.23,788.89 0,71.14 21.5,139.36 42.28,205.31 z m 853.18,-40.13 c 5.02,-123.52 118.91,-154.58 245.91,-149.7 127,4.88 219.02,43.86 213.99,167.38 -5.02,123.52 -112.04,219.7 -239.04,214.81 -127,-4.88 -225.88,-108.97 -220.86,-232.49 z m -74.72,242.38 82.44,118.73 c 7.31,10.52 8.31,24.04 2.63,35.48 l -11.83,23.81 c -6.12,12.33 -18.96,20.15 -33.03,20.15 h -70.61 -70.61 c -14.07,0 -26.9,-7.83 -33.03,-20.15 l -11.82,-23.81 c -5.68,-11.44 -4.68,-24.95 2.63,-35.48 l 82.43,-118.73 c 14.55,-20.95 46.26,-20.95 60.8,0 z m -377.66,-392.08 c 127,-4.88 240.89,26.18 245.91,149.7 5.02,123.52 -93.86,227.61 -220.86,232.5 -127,4.88 -234.02,-91.29 -239.05,-214.81 -5.02,-123.53 87,-162.51 214,-167.39 z"
   class="fil2"
   inkscape:connector-curvature="0"
   style="fill:#f6eeee" />

   <path
   id="path859"
   d="m 18278.93,13721.05 c 9.88,-59 -8.59,-121.63 -55.52,-167.04 -75.37,-72.95 -198.35,-74.27 -275.28,-2.89 -80.45,74.65 -81.58,198.61 -3.41,274.64 l -71.85,69.89 c -28.71,27.92 -28.71,73.2 0,101.12 l 122.58,119.22 c 28.7,27.93 75.26,27.93 103.97,0 l 71.86,-69.88 c 78.17,76.03 205.63,74.93 282.37,-3.31 73.4,-74.83 72.03,-194.44 -2.97,-267.75 -46.69,-45.64 -111.08,-63.61 -171.75,-54 z"
   class="fil2"
   inkscape:connector-curvature="0"
   style="fill:#f6eeee" />

   <path
   id="path861"
   d="m 16327.17,14046.1 71.86,69.89 c 28.71,27.93 75.26,27.93 103.97,0 l 122.58,-119.22 c 28.71,-27.93 28.71,-73.2 0,-101.13 l -71.86,-69.89 c 78.18,-76.03 77.04,-199.99 -3.4,-274.63 -76.94,-71.38 -199.91,-70.05 -275.29,2.89 -46.92,45.41 -65.4,108.04 -55.52,167.04 -60.66,-9.61 -125.05,8.36 -171.75,54 -74.99,73.31 -76.36,192.92 -2.97,267.74 76.75,78.24 204.2,79.35 282.38,3.31 z"
   class="fil2"
   inkscape:connector-curvature="0"
   style="fill:#f6eeee" />

   <path
   id="path863"
   d="m 18453.65,15378.62 c -76.74,-78.25 -204.19,-79.35 -282.37,-3.31 l -71.85,-69.89 c -28.72,-27.93 -75.27,-27.93 -103.98,0 l -122.58,119.22 c -28.71,27.93 -28.71,73.2 0,101.13 l 71.86,69.89 c -78.18,76.03 -77.04,199.99 3.4,274.63 76.94,71.39 199.92,70.06 275.29,-2.88 46.93,-45.42 65.4,-108.04 55.52,-167.05 60.67,9.61 125.05,-8.35 171.75,-54 74.99,-73.31 76.36,-192.91 2.96,-267.74 z"
   class="fil2"
   inkscape:connector-curvature="0"
   style="fill:#f6eeee" />

   <path
   id="path865"
   d="m 16219.51,15700.36 c -9.88,59 8.6,121.63 55.53,167.04 75.37,72.95 198.35,74.27 275.28,2.89 80.44,-74.65 81.58,-198.61 3.41,-274.64 l 71.85,-69.89 c 28.71,-27.92 28.71,-73.2 0,-101.13 L 16503,15305.41 c -28.71,-27.92 -75.26,-27.92 -103.97,0 l -71.86,69.89 c -78.17,-76.03 -205.63,-74.93 -282.37,3.31 -73.4,74.83 -72.03,194.43 2.97,267.75 46.69,45.64 111.08,63.61 171.74,54 z"
   class="fil2"
   inkscape:connector-curvature="0"
   style="fill:#f6eeee" />

  </g>

  <path
   id="path868"
   d="m 17476.01,17254.11 c 1159.06,-746.28 1909.82,-1669.81 2075.32,-2679.86 v -849.49 -637.62 h -2075.32 z"
   class="fil3"
   inkscape:connector-curvature="0"
   style="fill:#432b25" />

  <polygon
   id="polygon870"
   points="19551.33,14058.58 19551.33,14077.47 17476.01,14077.47 17476.01,14058.58 "
   class="fil4"
   style="fill:#c99a37;fill-rule:nonzero" />

  <polygon
   id="polygon872"
   points="19475.85,14831.84 19475.85,14850.74 17476.01,14850.74 17476.01,14831.84 "
   class="fil4"
   style="fill:#c99a37;fill-rule:nonzero" />

  <polygon
   id="polygon874"
   points="19203.56,15561.31 19203.56,15580.2 17476.01,15580.2 17476.01,15561.31 "
   class="fil4"
   style="fill:#c99a37;fill-rule:nonzero" />

  <polygon
   id="polygon876"
   points="18397.93,16533.93 18397.93,16552.83 17476.01,16552.83 17476.01,16533.93 "
   class="fil4"
   style="fill:#c99a37;fill-rule:nonzero" />

  <path
   id="path878"
   d="m 17466.29,15430.15 181.64,-0.1 c 31.14,-0.02 58.07,-21.13 64.68,-50.73 l 16.03,-71.67 c 3.54,-14.14 15.55,-24.77 30.37,-26.87 l 129.3,-18.26 c 31.07,-4.4 54.7,-29.38 56.59,-59.87 4.96,-80.04 14.22,-225.75 17.09,-245.72 6.8,-47.14 21.1,-93.74 34.91,-139.07 19.37,-63.43 39.4,-128.91 39.4,-197.01 0.02,-358.11 -240.99,-661.15 -570.01,-756.99 v 783.91 c 37.7,-10.05 81.48,-12.9 126.94,-11.15 127,4.88 219.02,43.85 213.99,167.38 -5.02,123.52 -112.03,219.69 -239.04,214.81 -36.97,-1.43 -71.55,-11.26 -101.89,-27.53 z"
   class="fil5"
   inkscape:connector-curvature="0"
   style="fill:#dbd8d8" />

  <path
   id="path880"
   d="m 18277.15,13718.81 c 9.88,-59 -8.59,-121.63 -55.53,-167.04 -75.37,-72.95 -198.35,-74.27 -275.28,-2.89 -80.44,74.65 -81.58,198.61 -3.4,274.64 l -71.86,69.89 c -28.71,27.92 -28.71,73.2 0,101.13 l 122.58,119.22 c 28.71,27.92 75.26,27.92 103.97,0 l 71.86,-69.89 c 78.18,76.03 205.63,74.93 282.37,-3.31 73.4,-74.83 72.03,-194.44 -2.97,-267.74 -46.69,-45.65 -111.07,-63.62 -171.74,-54.01 z"
   class="fil5"
   inkscape:connector-curvature="0"
   style="fill:#dbd8d8" />

  <path
   id="path882"
   d="m 18451.87,15376.38 c -76.75,-78.24 -204.2,-79.35 -282.38,-3.31 l -71.85,-69.89 c -28.71,-27.93 -75.27,-27.93 -103.98,0 l -122.57,119.22 c -28.71,27.93 -28.71,73.2 0,101.13 l 71.85,69.89 c -78.18,76.03 -77.04,199.99 3.41,274.63 76.93,71.39 199.91,70.06 275.28,-2.88 46.93,-45.42 65.4,-108.04 55.52,-167.05 60.67,9.61 125.06,-8.35 171.75,-54 75,-73.31 76.36,-192.91 2.97,-267.74 z"
   class="fil5"
   inkscape:connector-curvature="0"
   style="fill:#dbd8d8" />

  <path
   id="path884"
   d="m 15325.14,11852.91 -3.63,1242.43 h 4225.69 v -1239.06 z m 462.4,973.87 v -783.52 h 566.07 v 783.52 z m 929.16,0 v -783.52 h 566.08 v 783.52 z m 929.16,0 v -783.52 h 566.08 v 783.52 z m 897.66,0 v -783.52 h 566.08 v 783.52 z"
   class="fil6"
   inkscape:connector-curvature="0"
   style="fill:#eeab1b" />

  <path
   id="path886"
   d="m 15325.15,11852.91 -3.65,1242.43 h 2113.46 v -1240.75 z m 462.39,973.87 v -783.52 h 566.08 v 783.52 z m 929.16,0 v -783.52 h 566.07 v 783.52 z"
   class="fil7"
   inkscape:connector-curvature="0"
   style="fill:#f2d057" />

 </g>
    </g>
  </g>
</svg>
