<?xml version="1.0" encoding="UTF-8"?>
<!DOCTYPE svg PUBLIC "-//W3C//DTD SVG 1.1//EN" "http://www.w3.org/Graphics/SVG/1.1/DTD/svg11.dtd">
<!-- Creator: CorelDRAW 2018 (64-Bit Evaluation Version) -->
<svg xmlns="http://www.w3.org/2000/svg" xml:space="preserve" width="200mm" height="200mm" version="1.1" style="shape-rendering:geometricPrecision; text-rendering:geometricPrecision; image-rendering:optimizeQuality; fill-rule:evenodd; clip-rule:evenodd"
viewBox="0 0 20000 20000"
 xmlns:xlink="http://www.w3.org/1999/xlink">
 <defs>
  <style type="text/css">
   <![CDATA[
    .str1 {stroke:#6B6767;stroke-width:400;stroke-miterlimit:22.9256}
    .str2 {stroke:#EEAB1B;stroke-width:20;stroke-miterlimit:22.9256}
    .str0 {stroke:#6B6767;stroke-width:20;stroke-miterlimit:22.9256}
    .fil1 {fill:none}
    .fil2 {fill:#EEAB1B}
    .fil0 {fill:#6B6767}
   ]]>
  </style>
 </defs>
 <g id="Layer_x0020_1">
  <metadata id="CorelCorpID_0Corel-Layer"/>
  <rect class="fil0 str0" x="1592.82" y="11565.01" width="16909.79" height="892.48"/>
  <rect class="fil0 str0" x="1600.13" y="10428.01" width="202.1" height="1120.26"/>
  <rect class="fil0 str0" x="2071.7" y="10428.01" width="101.05" height="1120.26"/>
  <rect class="fil0 str0" x="2463.17" y="10428.01" width="101.05" height="1120.26"/>
  <rect class="fil0 str0" x="2854.65" y="10428.01" width="101.05" height="1120.26"/>
  <rect class="fil0 str0" x="3246.12" y="10428.01" width="101.05" height="1120.26"/>
  <rect class="fil0 str0" x="3666.24" y="10428.01" width="101.05" height="1120.26"/>
  <rect class="fil0 str0" x="4057.71" y="10428.01" width="101.05" height="1120.26"/>
  <rect class="fil0 str0" x="4449.19" y="10428.01" width="101.05" height="1120.26"/>
  <rect class="fil0 str0" x="4840.66" y="10428.01" width="101.05" height="1120.26"/>
  <rect class="fil0 str0" x="5222.59" y="10428.01" width="101.05" height="1120.26"/>
  <rect class="fil0 str0" x="5614.06" y="10428.01" width="101.05" height="1120.26"/>
  <rect class="fil0 str0" x="6005.54" y="10428.01" width="101.05" height="1120.26"/>
  <rect class="fil0 str0" x="6397.01" y="10428.01" width="101.05" height="1120.26"/>
  <rect class="fil0 str0" x="6817.13" y="10428.01" width="101.05" height="1120.26"/>
  <rect class="fil0 str0" x="7208.6" y="10428.01" width="101.05" height="1120.26"/>
  <rect class="fil0 str0" x="7600.08" y="10428.01" width="101.05" height="1120.26"/>
  <rect class="fil0 str0" x="7991.55" y="10428.01" width="101.05" height="1120.26"/>
  <rect class="fil0 str0" x="8383.03" y="10428.01" width="101.05" height="1120.26"/>
  <rect class="fil0 str0" x="8774.5" y="10428.01" width="101.05" height="1120.26"/>
  <rect class="fil0 str0" x="9165.97" y="10428.01" width="101.05" height="1120.26"/>
  <rect class="fil0 str0" x="9557.45" y="10428.01" width="101.05" height="1120.26"/>
  <rect class="fil0 str0" x="9977.57" y="10428.01" width="101.05" height="1120.26"/>
  <rect class="fil0 str0" x="10369.04" y="10428.01" width="101.05" height="1120.26"/>
  <rect class="fil0 str0" x="10760.51" y="10428.01" width="101.05" height="1120.26"/>
  <rect class="fil0 str0" x="11151.99" y="10428.01" width="101.05" height="1120.26"/>
  <rect class="fil0 str0" x="11533.91" y="10428.01" width="101.05" height="1120.26"/>
  <rect class="fil0 str0" x="11925.39" y="10428.01" width="101.05" height="1120.26"/>
  <rect class="fil0 str0" x="12316.86" y="10428.01" width="101.05" height="1120.26"/>
  <rect class="fil0 str0" x="12708.34" y="10428.01" width="101.05" height="1120.26"/>
  <rect class="fil0 str0" x="13128.46" y="10428.01" width="101.05" height="1120.26"/>
  <rect class="fil0 str0" x="13519.93" y="10428.01" width="101.05" height="1120.26"/>
  <rect class="fil0 str0" x="13911.4" y="10428.01" width="101.05" height="1120.26"/>
  <rect class="fil0 str0" x="14302.88" y="10428.01" width="101.05" height="1120.26"/>
  <rect class="fil0 str0" x="14732.54" y="10428.01" width="101.05" height="1120.26"/>
  <rect class="fil0 str0" x="15124.02" y="10428.01" width="101.05" height="1120.26"/>
  <rect class="fil0 str0" x="15515.49" y="10428.01" width="101.05" height="1120.26"/>
  <rect class="fil0 str0" x="15906.97" y="10428.01" width="101.05" height="1120.26"/>
  <rect class="fil0 str0" x="16327.08" y="10428.01" width="101.05" height="1120.26"/>
  <rect class="fil0 str0" x="16718.56" y="10428.01" width="101.05" height="1120.26"/>
  <rect class="fil0 str0" x="17110.03" y="10428.01" width="101.05" height="1120.26"/>
  <rect class="fil0 str0" x="17511.05" y="10428.01" width="101.05" height="1120.26"/>
  <rect class="fil0 str0" x="17902.53" y="10428.01" width="101.05" height="1120.26"/>
  <rect class="fil0 str0" x="18299.84" y="10428.01" width="202.1" height="1120.26"/>
  <rect class="fil0 str0" x="1592.82" y="10236.14" width="16909.79" height="187.78"/>
  <rect class="fil0 str0" x="1148.27" y="12452.07" width="17854.96" height="446.24"/>
  <rect class="fil0 str0" x="685.62" y="12903.97" width="18745.99" height="446.24"/>
  <rect class="fil0 str0" x="188.69" y="13355.88" width="19671.31" height="446.24"/>
  <polyline class="fil1 str1" points="3000,11622.07 10000,1130.71 17000,11622.07 "/>
  <circle class="fil2 str2" cx="10000" cy="1130.71" r="750"/>
 </g>
</svg>
