<?xml version="1.0" encoding="UTF-8"?>
<!DOCTYPE svg PUBLIC "-//W3C//DTD SVG 1.1//EN" "http://www.w3.org/Graphics/SVG/1.1/DTD/svg11.dtd">
<!-- Creator: CorelDRAW 2018 (64-Bit Evaluation Version) -->
<svg xmlns="http://www.w3.org/2000/svg" xml:space="preserve" width="200mm" height="200mm" version="1.1" style="shape-rendering:geometricPrecision; text-rendering:geometricPrecision; image-rendering:optimizeQuality; fill-rule:evenodd; clip-rule:evenodd"
viewBox="0 0 20000 20000"
 xmlns:xlink="http://www.w3.org/1999/xlink">
 <defs>
  <style type="text/css">
   <![CDATA[
    .str1 {stroke:black;stroke-width:150;stroke-miterlimit:22.9256}
    .str0 {stroke:#5BA8DD;stroke-width:250;stroke-miterlimit:22.9256}
    .str2 {stroke:#332C2B;stroke-width:20;stroke-miterlimit:22.9256}
    .str4 {stroke:#EEAB1B;stroke-width:20;stroke-miterlimit:22.9256}
    .str3 {stroke:#F2F2F2;stroke-width:20;stroke-miterlimit:22.9256}
    .fil0 {fill:none}
    .fil1 {fill:#5D3B31}
    .fil2 {fill:#4A95D1}
    .fil3 {fill:#EEAB1B}
   ]]>
  </style>
 </defs>
 <g id="Layer_x0020_1">
  <metadata id="CorelCorpID_0Corel-Layer"/>
  <g id="_2756587965440">
   <polyline class="fil0 str0" points="3519.61,13979.39 9911.94,3488.03 16304.28,13979.39 "/>
   <line class="fil0 str1" x1="9961.01" y1="2738.03" x2="9961.01" y2= "292.5" />
   <polygon class="fil1 str2" points="9961.01,2282.17 12731.56,1488.18 9961.01,461.81 "/>
   <rect class="fil2 str3" x="1553.83" y="13922.33" width="16909.79" height="892.48"/>
   <rect class="fil2 str3" x="1561.14" y="12785.33" width="202.1" height="1120.26"/>
   <rect class="fil2 str3" x="2032.7" y="12785.33" width="101.05" height="1120.26"/>
   <rect class="fil2 str3" x="2424.18" y="12785.33" width="101.05" height="1120.26"/>
   <rect class="fil2 str3" x="2815.65" y="12785.33" width="101.05" height="1120.26"/>
   <rect class="fil2 str3" x="3207.14" y="12785.33" width="101.05" height="1120.26"/>
   <rect class="fil2 str3" x="3627.24" y="12785.33" width="101.05" height="1120.26"/>
   <rect class="fil2 str3" x="4018.72" y="12785.33" width="101.05" height="1120.26"/>
   <rect class="fil2 str3" x="4410.19" y="12785.33" width="101.05" height="1120.26"/>
   <rect class="fil2 str3" x="4801.68" y="12785.33" width="101.05" height="1120.26"/>
   <rect class="fil2 str3" x="5183.6" y="12785.33" width="101.05" height="1120.26"/>
   <rect class="fil2 str3" x="5575.07" y="12785.33" width="101.05" height="1120.26"/>
   <rect class="fil2 str3" x="5966.56" y="12785.33" width="101.05" height="1120.26"/>
   <rect class="fil2 str3" x="6358.01" y="12785.33" width="101.05" height="1120.26"/>
   <rect class="fil2 str3" x="6778.14" y="12785.33" width="101.05" height="1120.26"/>
   <rect class="fil2 str3" x="7169.61" y="12785.33" width="101.05" height="1120.26"/>
   <rect class="fil2 str3" x="7561.09" y="12785.33" width="101.05" height="1120.26"/>
   <rect class="fil2 str3" x="7952.56" y="12785.33" width="101.05" height="1120.26"/>
   <rect class="fil2 str3" x="8344.05" y="12785.33" width="101.05" height="1120.26"/>
   <rect class="fil2 str3" x="8735.51" y="12785.33" width="101.05" height="1120.26"/>
   <rect class="fil2 str3" x="9126.98" y="12785.33" width="101.05" height="1120.26"/>
   <rect class="fil2 str3" x="9518.47" y="12785.33" width="101.05" height="1120.26"/>
   <rect class="fil2 str3" x="9938.58" y="12785.33" width="101.05" height="1120.26"/>
   <rect class="fil2 str3" x="10330.06" y="12785.33" width="101.05" height="1120.26"/>
   <rect class="fil2 str3" x="10721.51" y="12785.33" width="101.05" height="1120.26"/>
   <rect class="fil2 str3" x="11113.01" y="12785.33" width="101.05" height="1120.26"/>
   <rect class="fil2 str3" x="11494.92" y="12785.33" width="101.05" height="1120.26"/>
   <rect class="fil2 str3" x="11886.4" y="12785.33" width="101.05" height="1120.26"/>
   <rect class="fil2 str3" x="12277.88" y="12785.33" width="101.05" height="1120.26"/>
   <rect class="fil2 str3" x="12669.35" y="12785.33" width="101.05" height="1120.26"/>
   <rect class="fil2 str3" x="13089.47" y="12785.33" width="101.05" height="1120.26"/>
   <rect class="fil2 str3" x="13480.93" y="12785.33" width="101.05" height="1120.26"/>
   <rect class="fil2 str3" x="13872.42" y="12785.33" width="101.05" height="1120.26"/>
   <rect class="fil2 str3" x="14263.89" y="12785.33" width="101.05" height="1120.26"/>
   <rect class="fil2 str3" x="14693.56" y="12785.33" width="101.05" height="1120.26"/>
   <rect class="fil2 str3" x="15085.03" y="12785.33" width="101.05" height="1120.26"/>
   <rect class="fil2 str3" x="15476.51" y="12785.33" width="101.05" height="1120.26"/>
   <rect class="fil2 str3" x="15867.98" y="12785.33" width="101.05" height="1120.26"/>
   <rect class="fil2 str3" x="16288.1" y="12785.33" width="101.05" height="1120.26"/>
   <rect class="fil2 str3" x="16679.58" y="12785.33" width="101.05" height="1120.26"/>
   <rect class="fil2 str3" x="17071.03" y="12785.33" width="101.05" height="1120.26"/>
   <rect class="fil2 str3" x="17472.07" y="12785.33" width="101.05" height="1120.26"/>
   <rect class="fil2 str3" x="17863.53" y="12785.33" width="101.05" height="1120.26"/>
   <rect class="fil2 str3" x="18260.85" y="12785.33" width="202.1" height="1120.26"/>
   <rect class="fil2 str3" x="1553.83" y="12593.46" width="16909.79" height="187.78"/>
   <rect class="fil2 str3" x="1109.28" y="14809.39" width="17854.96" height="446.24"/>
   <rect class="fil2 str3" x="646.64" y="15261.29" width="18745.99" height="446.24"/>
   <circle class="fil3 str4" cx="9961.01" cy="3488.03" r="750"/>
  </g>
 </g>
</svg>
