<?xml version="1.0" encoding="UTF-8"?>
<!DOCTYPE svg PUBLIC "-//W3C//DTD SVG 1.1//EN" "http://www.w3.org/Graphics/SVG/1.1/DTD/svg11.dtd">
<!-- Creator: CorelDRAW 2018 (64-Bit Evaluation Version) -->
<svg xmlns="http://www.w3.org/2000/svg" xml:space="preserve" width="200mm" height="200mm" version="1.1" style="shape-rendering:geometricPrecision; text-rendering:geometricPrecision; image-rendering:optimizeQuality; fill-rule:evenodd; clip-rule:evenodd"
viewBox="0 0 20000 20000"
 xmlns:xlink="http://www.w3.org/1999/xlink">
 <defs>
  <style type="text/css">
   <![CDATA[
    .fil1 {fill:#361B16;fill-rule:nonzero}
    .fil2 {fill:#8AB526;fill-rule:nonzero}
    .fil0 {fill:#B3D133;fill-rule:nonzero}
   ]]>
  </style>
 </defs>
 <g id="Layer_x0020_1">
  <metadata id="CorelCorpID_0Corel-Layer"/>
  <g id="_2756149651856">
   <path id="path200" class="fil0" d="M12468.36 7926.99c-1111.12,3408.8 -5655.78,4724.38 -8765.19,3408.8 -2272.5,-956.72 -4185.89,-4066.23 -2990.01,-6338.63 1196.02,-2272.13 3587.82,-3827.02 6099.42,-4066.12 3229.08,-119.54 6338.62,2750.54 5896.72,5940.49 -38.24,347.77 -115.83,696.59 -240.94,1055.46z"/>
   <g>
    <path id="path202" class="fil1" d="M10386.09 10046.69c-16.4,40.66 -417.54,990.99 -1645.32,705.04 -252.36,-58.9 -451.39,-155.59 -608.68,-274.08 359.33,-232.49 641.85,-503.48 821.34,-750.28 507.87,-697.97 638.14,-1328.26 643.35,-1354.61l-234.59 -46.89c-1.14,5.9 -124.87,604.53 -602.23,1261.04 -173.95,239.34 -452.54,503.59 -808.99,725.34 -483.71,-530.63 -390.04,-1296.73 -384.14,-1340.4l-236.78 -32.58c-1.74,12.24 -110.67,874.24 410.37,1494.25 -595.75,314.05 -1367.32,494.94 -2219.03,290.47 -428.87,-102.8 -747.08,-304.12 -983.96,-537.99 201.09,-61.09 367.29,-168.65 494.94,-323.97 348,-423.76 280.2,-1038.24 276.99,-1064.33l-237.37 27.83c0.59,5.3 58.08,541.69 -225.22,885.67 -118.26,143.33 -282.88,234.35 -489.51,272.82 -408.08,-522.64 -484.07,-1111.25 -488.69,-1150.41l-237.6 27.51c1.15,9.92 74.49,586.97 454.61,1143.92 -877.71,-8.08 -1200.99,-746.12 -1214.84,-779.16l-220.74 91.84c3.8,9.69 397.8,928.06 1451.62,928.06 48.39,0 98.19,-2.06 149.23,-6.12l14.67 -1.73c271.88,311.16 656.52,588.35 1200.08,718.88 235.27,56.61 288.87,81.07 511.21,87.32l161.57 8461.43 361.53 47.93 -108.57 -8508.77c574.86,-25.77 1094.26,-198.44 1523.45,-436.01 191.27,164.36 441.81,299.16 771.9,375.97 176.96,41.22 339.45,59.26 488.68,59.26 1050.03,0 1428.18,-896.87 1432.34,-907.28l-221.65 -89.87 0.03 -0.1zm0 0l0 0 0 0z"/>
   </g>
   <path id="path204" class="fil2" d="M19429.42 8303.54c-1111.12,3409.03 -5655.79,4724.61 -8765.33,3409.03 -2272.36,-956.82 -4185.89,-4066.36 -2989.87,-6338.63 1195.78,-2272.36 3587.81,-3827.15 6099.41,-4066.22 3229.08,-119.67 6338.63,2750.54 5896.6,5940.59 -38.25,347.54 -115.84,696.59 -240.81,1055.23z"/>
   <g>
    <path id="path206" class="fil1" d="M16926.26 10151.56c-16.5,40.89 -417.54,991.12 -1645.31,705.03 -252.37,-58.8 -451.49,-155.35 -608.81,-273.97 359.32,-232.49 641.94,-503.58 821.33,-750.19 507.97,-698.19 638.15,-1328.25 643.45,-1354.84l-234.68 -46.88c-1.05,5.99 -124.75,604.65 -602.11,1261.04 -174.04,239.43 -452.54,503.81 -808.98,725.46 -483.85,-530.62 -390.17,-1296.62 -384.15,-1340.5l-237.01 -32.44c-1.6,12.11 -110.53,874.24 410.5,1494.12 -595.75,314.28 -1367.31,495.17 -2219.03,290.7 -428.87,-102.9 -747.07,-304.22 -983.85,-538.22 200.73,-60.87 367.28,-168.52 494.94,-323.87 347.9,-423.76 280.09,-1038.37 276.98,-1064.34l-237.47 27.83c0.59,5.44 58.22,541.7 -225.22,885.67 -118.26,143.21 -282.88,234.36 -489.5,272.83 -408.18,-522.64 -484.07,-1111.35 -488.82,-1150.51l-237.47 27.73c1.15,9.92 74.62,586.88 454.6,1143.83 -877.71,-8.09 -1200.99,-746.26 -1214.84,-779.29l-220.96 92.16c4.15,9.69 398.12,927.71 1451.85,927.71 48.39,0 98.19,-2.06 149.23,-5.99l14.67 -1.61c272.01,311.17 656.61,588.35 1200.17,718.76 235.18,56.48 464.1,84.21 686.44,90.43l21.38 8487.98 458.08 -27.01 -80.97 -8488.21c575.09,-25.87 934.97,-173.82 1364.2,-411.06 191.27,164.13 441.8,298.79 771.9,375.6 177.06,41.35 339.58,59.49 488.68,59.49 1050.16,0 1428.18,-896.86 1432.34,-907.28l-221.52 -90.1 -0.04 -0.06zm0 0l0 0 0 0z"/>
   </g>
  </g>
 </g>
</svg>
