<?xml version="1.0" encoding="UTF-8"?>
<!DOCTYPE svg PUBLIC "-//W3C//DTD SVG 1.1//EN" "http://www.w3.org/Graphics/SVG/1.1/DTD/svg11.dtd">
<!-- Creator: CorelDRAW 2018 (64-Bit Evaluation Version) -->
<svg xmlns="http://www.w3.org/2000/svg" xml:space="preserve" width="200mm" height="200mm" version="1.1" style="shape-rendering:geometricPrecision; text-rendering:geometricPrecision; image-rendering:optimizeQuality; fill-rule:evenodd; clip-rule:evenodd"
viewBox="0 0 20000 20000"
 xmlns:xlink="http://www.w3.org/1999/xlink">
 <defs>
  <style type="text/css">
   <![CDATA[
    .fil3 {fill:#361B16;fill-rule:nonzero}
    .fil2 {fill:#8AB526;fill-rule:nonzero}
    .fil1 {fill:#A2BF2A;fill-rule:nonzero}
    .fil0 {fill:#B3D133;fill-rule:nonzero}
   ]]>
  </style>
 </defs>
 <g id="Layer_x0020_1">
  <metadata id="CorelCorpID_0Corel-Layer"/>
  <g id="_2756615452464">
   <path id="path82" class="fil0" d="M17258.02 7715.85c0,3977.58 -3224.5,7202.21 -7202.21,7202.21 -3977.59,0 -7202.21,-3224.63 -7202.21,-7202.21 0,-3977.71 3224.62,-7202.21 7202.21,-7202.21 3977.71,0 7202.21,3224.5 7202.21,7202.21z"/>
   <path id="path84" class="fil1" d="M14288.03 6824.86c0,2993.52 -2426.82,5420.22 -5420.13,5420.22 -2993.53,0 -5420.22,-2426.7 -5420.22,-5420.22 0,-2993.53 2426.69,-5420.23 5420.22,-5420.23 2993.31,0 5420.13,2426.7 5420.13,5420.23z"/>
   <path id="path86" class="fil2" d="M14552.1 6227.16c0,894.27 -724.94,1619.3 -1619.18,1619.3 -894.37,0 -1619.3,-725.03 -1619.3,-1619.3 0,-894.15 724.93,-1619.18 1619.3,-1619.18 894.27,0 1619.18,725.03 1619.18,1619.18z"/>
   <path id="path88" class="fil2" d="M15436.75 8933.3c0,664.47 -538.56,1202.94 -1202.82,1202.94 -664.37,0 -1202.94,-538.47 -1202.94,-1202.94 0,-664.26 538.57,-1202.82 1202.94,-1202.82 664.26,0 1202.82,538.56 1202.82,1202.82z"/>
   <path id="path90" class="fil2" d="M14656.17 11639.43c0,664.38 -538.56,1202.82 -1202.81,1202.82 -664.38,0 -1202.94,-538.47 -1202.94,-1202.82 0,-664.38 538.56,-1203.03 1202.94,-1203.03 664.25,0 1202.81,538.68 1202.81,1203.03z"/>
   <path id="path92" class="fil2" d="M7891.05 9922.15c0,664.25 -538.56,1202.81 -1202.82,1202.81 -664.38,0 -1202.94,-538.56 -1202.94,-1202.81 0,-664.38 538.56,-1202.94 1202.94,-1202.94 664.26,0 1202.82,538.56 1202.82,1202.94z"/>
   <path id="path94" class="fil2" d="M8047.21 7268.06c0,664.26 -538.56,1202.82 -1202.73,1202.82 -664.47,0 -1202.94,-538.56 -1202.94,-1202.82 0,-664.38 538.47,-1202.94 1202.94,-1202.94 664.17,0 1202.73,538.56 1202.73,1202.94z"/>
   <path id="path96" class="fil2" d="M10857.29 4510.09c0,664.26 -538.56,1202.72 -1202.81,1202.72 -664.26,0 -1202.94,-538.46 -1202.94,-1202.72 0,-664.47 538.68,-1202.94 1202.94,-1202.94 664.25,0 1202.81,538.47 1202.81,1202.94z"/>
   <g>
    <path id="path98" class="fil3" d="M12949.37 9387.64l1416.13 233.48 -1104.83 -435.57 1664.89 -964.98 -4925.98 1701.89 -104.63 -1549.81 3692.48 -1786.13 -1634.02 435.88 -31.09 -809.28 -139.98 855.86 -1927.75 704.83 -219.75 -3256.91 -346.74 4048.93 -1831.85 -843.3 -108.9 -778.07 -46.79 731.37 -1260.44 -482.37 3198.34 1952.07 -205.77 2403.68 -1778.71 -963.33 -373.59 -1447.22 0 1260.44 -1167.03 -420.07 3264 2216.22 -702.77 7559.56 2387.33 -18.87 -415.28 -6152.58 3869.89 -2063.81 -980.35 268.53 -46.7 -968.91 -186.81 1027.14 -2707.77 969.99 -124.83 -1848.86 2879.3 -1579.9 0 0.1zm0 0l0 0 0 0z"/>
   </g>
  </g>
 </g>
</svg>
