<?xml version="1.0" encoding="UTF-8" standalone="no"?>
<svg
   xmlns:dc="http://purl.org/dc/elements/1.1/"
   xmlns:cc="http://creativecommons.org/ns#"
   xmlns:rdf="http://www.w3.org/1999/02/22-rdf-syntax-ns#"
   xmlns:svg="http://www.w3.org/2000/svg"
   xmlns="http://www.w3.org/2000/svg"
   viewBox="0 0 1066.6667 1066.6667"
   height="1066.6667"
   width="1066.6667"
   xml:space="preserve"
   id="svg2"
   version="1.1"><metadata
     id="metadata8"><rdf:RDF><cc:Work
         rdf:about=""><dc:format>image/svg+xml</dc:format><dc:type
           rdf:resource="http://purl.org/dc/dcmitype/StillImage" /></cc:Work></rdf:RDF></metadata><defs
     id="defs6" /><g
     transform="matrix(1.3333333,0,0,-1.3333333,0,1066.6667)"
     id="g10"><g
       transform="scale(0.1)"
       id="g12"><path
         id="path14"
         style="fill:#f4f3e9;fill-opacity:1;fill-rule:nonzero;stroke:none"
         d="M 8000,0 H 0 V 8000 H 8000 V 0" /><path
         id="path16"
         style="fill:#6ba543;fill-opacity:1;fill-rule:nonzero;stroke:none"
         d="m 2833.93,341.371 c 0,-7.031 1.09,-13.012 3.27,-17.949 2.18,-4.942 5.17,-8.652 8.97,-11.152 3.81,-2.5 7.95,-3.77 12.44,-3.77 4.56,0 8.72,1.191 12.5,3.57 3.76,2.36 6.77,6.02 9.02,10.922 2.25,4.899 3.37,11.047 3.37,18.379 0,6.91 -1.12,12.848 -3.37,17.828 -2.25,4.961 -5.29,8.75 -9.11,11.391 -3.84,2.609 -8.03,3.922 -12.59,3.922 -4.75,0 -9,-1.352 -12.73,-4.02 -3.74,-2.703 -6.64,-6.543 -8.69,-11.582 -2.07,-5.039 -3.08,-10.879 -3.08,-17.539 z m 50.99,-38.09 v 2.578 c -3.47,-3.988 -6.91,-7.25 -10.3,-9.73 -3.39,-2.52 -7.06,-4.41 -11.03,-5.699 -3.94,-1.328 -8.26,-1.95 -12.95,-1.95 -6.21,0 -11.96,1.309 -17.24,3.918 -5.29,2.641 -9.86,6.391 -13.72,11.274 -3.88,4.867 -6.8,10.59 -8.79,17.187 -1.99,6.582 -3,13.711 -3,21.371 0,16.211 3.97,28.84 11.88,37.911 7.92,9.039 18.34,13.57 31.25,13.57 7.47,0 13.77,-1.289 18.9,-3.852 5.13,-2.558 10.13,-6.519 15,-11.808 v 38.258 c 0,5.332 1.06,9.332 3.19,12.07 2.11,2.711 5.13,4.082 9.07,4.082 3.92,0 6.94,-1.25 9.07,-3.75 2.12,-2.52 3.18,-6.191 3.18,-11.07 v -114.36 c 0,-4.941 -1.13,-8.629 -3.41,-11.109 -2.29,-2.461 -5.23,-3.692 -8.84,-3.692 -3.55,0 -6.48,1.27 -8.79,3.821 -2.32,2.578 -3.47,6.238 -3.47,10.98" /><path
         id="path18"
         style="fill:#6ba543;fill-opacity:1;fill-rule:nonzero;stroke:none"
         d="m 2948.55,349.531 h 47.02 c -0.63,8.871 -3.03,15.508 -7.17,19.899 -4.16,4.422 -9.61,6.609 -16.39,6.609 -6.46,0 -11.77,-2.23 -15.91,-6.68 -4.15,-4.48 -6.66,-11.078 -7.55,-19.828 z m 50.71,-14.73 h -50.71 c 0.06,-5.871 1.24,-11.071 3.56,-15.559 2.3,-4.492 5.39,-7.89 9.22,-10.16 3.83,-2.281 8.05,-3.422 12.67,-3.422 3.11,0 5.94,0.36 8.5,1.082 2.58,0.738 5.06,1.867 7.46,3.438 2.41,1.539 4.63,3.199 6.65,4.98 2.02,1.77 4.64,4.199 7.88,7.219 1.33,1.141 3.23,1.723 5.71,1.723 2.65,0 4.8,-0.743 6.44,-2.211 1.65,-1.461 2.48,-3.489 2.48,-6.172 0,-2.34 -0.92,-5.059 -2.75,-8.199 -1.85,-3.149 -4.61,-6.149 -8.31,-9.02 -3.72,-2.891 -8.35,-5.281 -13.98,-7.168 -5.58,-1.922 -12.03,-2.852 -19.31,-2.852 -16.65,0 -29.61,4.739 -38.85,14.231 -9.24,9.5 -13.87,22.391 -13.87,38.66 0,7.668 1.13,14.777 3.42,21.328 2.28,6.563 5.6,12.16 9.97,16.852 4.36,4.691 9.76,8.281 16.15,10.781 6.4,2.5 13.49,3.75 21.28,3.75 10.12,0 18.81,-2.133 26.06,-6.402 7.26,-4.278 12.69,-9.809 16.29,-16.571 3.61,-6.769 5.42,-13.687 5.42,-20.699 0,-6.539 -1.87,-10.758 -5.6,-12.699 -3.73,-1.93 -9,-2.91 -15.78,-2.91" /><path
         id="path20"
         style="fill:#6ba543;fill-opacity:1;fill-rule:nonzero;stroke:none"
         d="m 3117.41,322.379 c 0,-7.149 -1.73,-13.277 -5.22,-18.379 -3.48,-5.09 -8.63,-8.961 -15.43,-11.602 -6.81,-2.609 -15.09,-3.918 -24.85,-3.918 -9.29,0 -17.28,1.418 -23.92,4.27 -6.65,2.84 -11.56,6.41 -14.73,10.672 -3.16,4.289 -4.74,8.566 -4.74,12.887 0,2.851 1,5.273 3.04,7.3 2.01,2.012 4.59,3.032 7.7,3.032 2.71,0 4.79,-0.661 6.25,-1.989 1.46,-1.332 2.86,-3.203 4.18,-5.593 2.65,-4.649 5.85,-8.059 9.55,-10.368 3.71,-2.261 8.75,-3.421 15.15,-3.421 5.2,0 9.46,1.179 12.78,3.48 3.32,2.32 4.98,4.961 4.98,7.93 0,4.57 -1.72,7.871 -5.18,9.961 -3.45,2.089 -9.14,4.097 -17.05,6 -8.92,2.199 -16.19,4.55 -21.79,6.988 -5.61,2.422 -10.08,5.641 -13.44,9.633 -3.36,3.976 -5.04,8.898 -5.04,14.718 0,5.18 1.55,10.102 4.66,14.731 3.1,4.609 7.68,8.301 13.74,11.059 6.03,2.75 13.32,4.14 21.87,4.14 6.72,0 12.76,-0.711 18.09,-2.109 5.36,-1.371 9.83,-3.262 13.4,-5.61 3.58,-2.32 6.3,-4.921 8.16,-7.769 1.88,-2.852 2.8,-5.633 2.8,-8.363 0,-2.969 -0.99,-5.407 -2.98,-7.329 -1.99,-1.871 -4.82,-2.851 -8.51,-2.851 -2.66,0 -4.92,0.762 -6.78,2.312 -1.87,1.5 -4,3.789 -6.41,6.809 -1.97,2.539 -4.27,4.57 -6.93,6.102 -2.66,1.519 -6.27,2.257 -10.84,2.257 -4.69,0 -8.57,-0.968 -11.68,-2.988 -3.1,-1.992 -4.65,-4.473 -4.65,-7.441 0,-2.731 1.14,-4.961 3.41,-6.7 2.29,-1.75 5.35,-3.199 9.23,-4.328 3.86,-1.132 9.16,-2.523 15.96,-4.16 8.02,-1.972 14.59,-4.32 19.69,-7.031 5.09,-2.723 8.96,-5.941 11.6,-9.652 2.62,-3.707 3.93,-7.93 3.93,-12.68" /><path
         id="path22"
         style="fill:#6ba543;fill-opacity:1;fill-rule:nonzero;stroke:none"
         d="m 3156.73,379.18 v -74.938 c 0,-5.203 -1.24,-9.121 -3.7,-11.781 -2.48,-2.66 -5.61,-3.981 -9.42,-3.981 -3.8,0 -6.88,1.34 -9.25,4.079 -2.39,2.711 -3.56,6.621 -3.56,11.683 v 74.18 c 0,5.117 1.17,8.976 3.56,11.578 2.37,2.602 5.45,3.91 9.25,3.91 3.81,0 6.94,-1.308 9.42,-3.91 2.46,-2.602 3.7,-6.211 3.7,-10.82 z m -12.82,26.781 c -3.62,0 -6.7,1.109 -9.26,3.32 -2.57,2.199 -3.85,5.348 -3.85,9.41 0,3.668 1.31,6.68 3.94,9.059 2.62,2.391 5.69,3.582 9.17,3.582 3.36,0 6.32,-1.082 8.92,-3.242 2.6,-2.149 3.9,-5.281 3.9,-9.399 0,-4 -1.28,-7.109 -3.81,-9.351 -2.53,-2.25 -5.54,-3.379 -9.01,-3.379" /><path
         id="path24"
         style="fill:#6ba543;fill-opacity:1;fill-rule:nonzero;stroke:none"
         d="m 3195.19,342.031 c 0,-10.511 2.29,-18.461 6.88,-23.832 4.59,-5.39 10.53,-8.078 17.81,-8.078 4.3,0 8.36,1.168 12.19,3.469 3.85,2.312 6.95,5.801 9.38,10.449 2.39,4.652 3.6,10.301 3.6,16.961 0,10.559 -2.33,18.801 -6.98,24.68 -4.66,5.879 -10.78,8.832 -18.38,8.832 -7.42,0 -13.35,-2.813 -17.81,-8.461 -4.47,-5.621 -6.69,-13.629 -6.69,-24.02 z m 75.12,32.867 V 299.59 c 0,-8.61 -0.92,-16.039 -2.76,-22.25 -1.83,-6.192 -4.78,-11.32 -8.83,-15.371 -4.05,-4.039 -9.35,-7.071 -15.91,-9.02 -6.54,-1.969 -14.7,-2.949 -24.45,-2.949 -8.93,0 -16.91,1.25 -23.95,3.75 -7.01,2.52 -12.42,5.738 -16.23,9.691 -3.8,3.957 -5.7,8.02 -5.7,12.2 0,3.168 1.07,5.769 3.23,7.738 2.15,2.012 4.76,3.012 7.79,3.012 3.79,0 7.13,-1.68 9.98,-5.039 1.38,-1.7 2.82,-3.442 4.31,-5.18 1.49,-1.762 3.15,-3.242 4.94,-4.473 1.8,-1.23 3.97,-2.148 6.51,-2.75 2.53,-0.59 5.45,-0.898 8.73,-0.898 6.72,0 11.93,0.929 15.63,2.808 3.7,1.852 6.3,4.473 7.79,7.832 1.49,3.34 2.36,6.93 2.61,10.778 0.26,3.832 0.44,9.98 0.57,18.48 -3.99,-5.59 -8.59,-9.828 -13.83,-12.738 -5.21,-2.91 -11.44,-4.371 -18.65,-4.371 -8.67,0 -16.25,2.23 -22.75,6.66 -6.49,4.43 -11.48,10.621 -14.96,18.609 -3.48,7.993 -5.22,17.192 -5.22,27.641 0,7.77 1.05,14.82 3.18,21.07 2.13,6.289 5.15,11.571 9.07,15.879 3.92,4.301 8.45,7.539 13.58,9.731 5.13,2.191 10.76,3.281 16.9,3.281 7.35,0 13.72,-1.422 19.11,-4.223 5.37,-2.828 10.38,-7.238 15,-13.258 v 3.52 c 0,4.492 1.1,7.961 3.32,10.449 2.22,2.461 5.07,3.711 8.55,3.711 5,0 8.32,-1.64 9.96,-4.91 1.66,-3.262 2.48,-7.961 2.48,-14.102" /><path
         id="path26"
         style="fill:#6ba543;fill-opacity:1;fill-rule:nonzero;stroke:none"
         d="m 3311.52,379.551 v -3.121 c 4.55,6.011 9.54,10.429 14.96,13.242 5.41,2.808 11.63,4.238 18.66,4.238 6.84,0 12.95,-1.512 18.34,-4.48 5.37,-2.981 9.41,-7.18 12.05,-12.61 1.72,-3.191 2.83,-6.609 3.33,-10.281 0.51,-3.668 0.77,-8.359 0.77,-14.059 v -48.238 c 0,-5.203 -1.19,-9.121 -3.58,-11.781 -2.36,-2.66 -5.44,-3.981 -9.25,-3.981 -3.87,0 -7,1.34 -9.4,4.079 -2.42,2.711 -3.61,6.621 -3.61,11.683 v 43.219 c 0,8.539 -1.19,15.078 -3.57,19.609 -2.37,4.512 -7.09,6.801 -14.2,6.801 -4.61,0 -8.83,-1.391 -12.62,-4.141 -3.81,-2.761 -6.59,-6.55 -8.36,-11.351 -1.27,-3.867 -1.91,-11.078 -1.91,-21.66 v -32.477 c 0,-5.262 -1.22,-9.203 -3.65,-11.844 -2.43,-2.609 -5.58,-3.918 -9.44,-3.918 -3.75,0 -6.82,1.34 -9.22,4.079 -2.4,2.711 -3.61,6.621 -3.61,11.683 v 74.938 c 0,4.941 1.07,8.629 3.22,11.07 2.16,2.43 5.1,3.66 8.83,3.66 2.28,0 4.35,-0.551 6.19,-1.621 1.83,-1.098 3.3,-2.699 4.41,-4.848 1.12,-2.152 1.66,-4.781 1.66,-7.89" /><path
         id="path28"
         style="fill:#6ba543;fill-opacity:1;fill-rule:nonzero;stroke:none"
         d="m 3418.55,349.531 h 47.02 c -0.63,8.871 -3.03,15.508 -7.17,19.899 -4.15,4.422 -9.61,6.609 -16.39,6.609 -6.46,0 -11.77,-2.23 -15.92,-6.68 -4.14,-4.48 -6.65,-11.078 -7.54,-19.828 z m 50.72,-14.73 h -50.72 c 0.07,-5.871 1.25,-11.071 3.57,-15.559 2.31,-4.492 5.38,-7.89 9.21,-10.16 3.83,-2.281 8.05,-3.422 12.67,-3.422 3.11,0 5.94,0.36 8.52,1.082 2.55,0.738 5.04,1.867 7.45,3.438 2.39,1.539 4.61,3.199 6.65,4.98 2.01,1.77 4.65,4.199 7.87,7.219 1.33,1.141 3.23,1.723 5.71,1.723 2.65,0 4.81,-0.743 6.46,-2.211 1.64,-1.461 2.46,-3.489 2.46,-6.172 0,-2.34 -0.92,-5.059 -2.75,-8.199 -1.84,-3.149 -4.61,-6.149 -8.32,-9.02 -3.7,-2.891 -8.34,-5.281 -13.95,-7.168 -5.6,-1.922 -12.05,-2.852 -19.33,-2.852 -16.65,0 -29.6,4.739 -38.85,14.231 -9.24,9.5 -13.87,22.391 -13.87,38.66 0,7.668 1.14,14.777 3.42,21.328 2.28,6.563 5.6,12.16 9.98,16.852 4.36,4.691 9.75,8.281 16.14,10.781 6.4,2.5 13.49,3.75 21.28,3.75 10.13,0 18.81,-2.133 26.06,-6.402 7.26,-4.278 12.69,-9.809 16.3,-16.571 3.6,-6.769 5.41,-13.687 5.41,-20.699 0,-6.539 -1.86,-10.758 -5.6,-12.699 -3.73,-1.93 -8.99,-2.91 -15.77,-2.91" /><path
         id="path30"
         style="fill:#6ba543;fill-opacity:1;fill-rule:nonzero;stroke:none"
         d="m 3523.96,341.371 c 0,-7.031 1.1,-13.012 3.29,-17.949 2.17,-4.942 5.17,-8.652 8.98,-11.152 3.79,-2.5 7.93,-3.77 12.42,-3.77 4.57,0 8.73,1.191 12.5,3.57 3.77,2.36 6.78,6.02 9.03,10.922 2.24,4.899 3.36,11.047 3.36,18.379 0,6.91 -1.12,12.848 -3.36,17.828 -2.25,4.961 -5.3,8.75 -9.13,11.391 -3.83,2.609 -8.02,3.922 -12.58,3.922 -4.74,0 -9,-1.352 -12.73,-4.02 -3.73,-2.703 -6.63,-6.543 -8.69,-11.582 -2.06,-5.039 -3.09,-10.879 -3.09,-17.539 z m 51,-38.09 v 2.578 c -3.48,-3.988 -6.91,-7.25 -10.29,-9.73 -3.4,-2.52 -7.06,-4.41 -11.02,-5.699 -3.95,-1.328 -8.28,-1.95 -12.97,-1.95 -6.21,0 -11.95,1.309 -17.23,3.918 -5.29,2.641 -9.87,6.391 -13.72,11.274 -3.87,4.867 -6.8,10.59 -8.79,17.187 -1.99,6.582 -2.99,13.711 -2.99,21.371 0,16.211 3.94,28.84 11.86,37.911 7.92,9.039 18.33,13.57 31.25,13.57 7.48,0 13.78,-1.289 18.9,-3.852 5.14,-2.558 10.14,-6.519 15,-11.808 v 38.258 c 0,5.332 1.08,9.332 3.19,12.07 2.12,2.711 5.15,4.082 9.08,4.082 3.92,0 6.94,-1.25 9.06,-3.75 2.13,-2.52 3.18,-6.191 3.18,-11.07 v -114.36 c 0,-4.941 -1.13,-8.629 -3.42,-11.109 -2.27,-2.461 -5.21,-3.692 -8.82,-3.692 -3.55,0 -6.48,1.27 -8.79,3.821 -2.32,2.578 -3.48,6.238 -3.48,10.98" /><path
         id="path32"
         style="fill:#6ba543;fill-opacity:1;fill-rule:nonzero;stroke:none"
         d="m 3682.19,340.609 c 0,-10.32 2.35,-18.25 7.07,-23.769 4.71,-5.551 10.91,-8.34 18.57,-8.34 6.52,0 12.14,2.832 16.86,8.512 4.7,5.668 7.07,13.789 7.07,24.359 0,6.828 -0.98,12.731 -2.94,17.668 -1.96,4.941 -4.75,8.75 -8.35,11.453 -3.61,2.668 -7.83,4.02 -12.64,4.02 -4.94,0 -9.35,-1.352 -13.2,-4.02 -3.87,-2.703 -6.91,-6.582 -9.12,-11.683 -2.22,-5.098 -3.32,-11.168 -3.32,-18.2 z m -1.24,77.032 v -39.59 c 4.87,5.058 9.84,8.937 14.91,11.621 5.06,2.687 11.34,4.039 18.81,4.039 8.61,0 16.15,-2.051 22.65,-6.109 6.49,-4.102 11.52,-10.02 15.1,-17.782 3.58,-7.75 5.37,-16.949 5.37,-27.59 0,-7.859 -0.99,-15.039 -2.99,-21.609 -2,-6.562 -4.9,-12.242 -8.69,-17.051 -3.81,-4.8 -8.41,-8.531 -13.82,-11.172 -5.41,-2.609 -11.39,-3.918 -17.91,-3.918 -3.99,0 -7.74,0.469 -11.25,1.418 -3.52,0.942 -6.51,2.192 -8.98,3.75 -2.46,1.551 -4.57,3.153 -6.32,4.793 -1.74,1.641 -4.04,4.118 -6.88,7.418 v -2.578 c 0,-4.859 -1.17,-8.551 -3.52,-11.07 -2.33,-2.5 -5.31,-3.731 -8.92,-3.731 -3.68,0 -6.61,1.231 -8.78,3.731 -2.19,2.519 -3.28,6.211 -3.28,11.07 V 416.5 c 0,5.262 1.05,9.238 3.17,11.922 2.12,2.687 5.09,4.039 8.89,4.039 3.99,0 7.06,-1.289 9.2,-3.852 2.15,-2.57 3.24,-6.211 3.24,-10.968" /><path
         id="path34"
         style="fill:#6ba543;fill-opacity:1;fill-rule:nonzero;stroke:none"
         d="m 3791.41,285.23 2.37,5.809 -31.91,80.352 c -1.97,4.609 -2.95,7.98 -2.95,10.07 0,2.211 0.57,4.258 1.71,6.16 1.15,1.91 2.71,3.43 4.7,4.57 1.99,1.149 4.06,1.719 6.22,1.719 3.73,0 6.56,-1.199 8.46,-3.578 1.9,-2.363 3.57,-5.762 5.03,-10.191 l 21.94,-63.832 20.8,59.351 c 1.64,4.809 3.14,8.582 4.47,11.309 1.32,2.722 2.73,4.551 4.21,5.492 1.49,0.961 3.6,1.449 6.33,1.449 1.98,0 3.85,-0.531 5.65,-1.59 1.8,-1.031 3.2,-2.441 4.18,-4.211 0.97,-1.777 1.48,-3.64 1.48,-5.609 -0.27,-1.191 -0.66,-2.91 -1.25,-5.141 -0.56,-2.199 -1.26,-4.468 -2.08,-6.738 l -33.82,-88.512 c -2.91,-7.789 -5.76,-13.89 -8.55,-18.32 -2.78,-4.43 -6.47,-7.848 -11.06,-10.219 -4.6,-2.379 -10.78,-3.57 -18.57,-3.57 -7.6,0 -13.3,0.82 -17.09,2.461 -3.81,1.66 -5.7,4.668 -5.7,9.039 0,2.969 0.9,5.281 2.71,6.879 1.8,1.621 4.47,2.441 8.01,2.441 1.41,0 2.77,-0.199 4.1,-0.59 1.64,-0.371 3.07,-0.558 4.26,-0.558 2.98,0 5.33,0.43 7.04,1.328 1.71,0.871 3.23,2.422 4.6,4.609 1.37,2.161 2.93,5.391 4.71,9.621" /><path
         id="path36"
         style="fill:#6ba543;fill-opacity:1;fill-rule:nonzero;stroke:none"
         d="m 4167.03,391.66 h 6.19 v 7.77 c 0,8.152 1,14.57 3.07,19.379 2.03,4.781 5.55,8.261 10.47,10.453 4.9,2.168 11.62,3.258 20.15,3.258 15.2,0 22.74,-3.668 22.74,-11.129 0,-2.391 -0.8,-4.461 -2.4,-6.161 -1.55,-1.691 -3.44,-2.55 -5.59,-2.55 -1,0 -2.77,0.172 -5.27,0.582 -2.37,0.328 -4.51,0.57 -6.23,0.57 -4.67,0 -7.66,-1.41 -9.05,-4.16 -1.27,-2.762 -1.95,-6.68 -1.95,-11.84 v -6.172 h 6.33 c 9.9,0 14.8,-2.969 14.8,-8.961 0,-4.179 -1.27,-6.898 -3.92,-8.047 -2.62,-1.132 -6.23,-1.703 -10.88,-1.703 h -6.33 v -68.707 c 0,-5.121 -1.21,-9.012 -3.69,-11.683 -2.42,-2.739 -5.55,-4.059 -9.43,-4.059 -3.68,0 -6.7,1.32 -9.18,4.059 -2.45,2.671 -3.64,6.562 -3.64,11.683 v 68.707 h -7.15 c -3.88,0 -6.81,0.84 -8.92,2.621 -2.09,1.7 -3.15,3.981 -3.15,6.77 0,6.23 4.34,9.32 13.03,9.32" /><path
         id="path38"
         style="fill:#6ba543;fill-opacity:1;fill-rule:nonzero;stroke:none"
         d="m 4251.93,325.922 v -21.68 c 0,-5.242 -1.32,-9.203 -3.75,-11.801 -2.46,-2.652 -5.58,-3.941 -9.37,-3.941 -3.81,0 -6.88,1.301 -9.26,4 -2.36,2.641 -3.61,6.559 -3.61,11.742 v 72.219 c 0,11.66 4.2,17.488 12.61,17.488 4.34,0 7.43,-1.347 9.34,-4.09 1.9,-2.73 2.95,-6.738 3.16,-12.07 3.09,5.332 6.25,9.34 9.5,12.07 3.32,2.743 7.61,4.09 13.08,4.09 5.49,0 10.73,-1.347 15.86,-4.09 5.16,-2.73 7.72,-6.359 7.72,-10.839 0,-3.141 -1.12,-5.801 -3.26,-7.809 -2.21,-2.09 -4.56,-3.121 -7.07,-3.121 -1,0 -3.31,0.621 -6.92,1.789 -3.65,1.141 -6.89,1.742 -9.63,1.742 -3.81,0 -6.93,-1.031 -9.31,-2.992 -2.43,-2.047 -4.32,-4.957 -5.65,-8.859 -1.29,-3.95 -2.19,-8.661 -2.73,-14.051 -0.49,-5.41 -0.71,-12.028 -0.71,-19.797" /><path
         id="path40"
         style="fill:#6ba543;fill-opacity:1;fill-rule:nonzero;stroke:none"
         d="m 4320.39,349.59 h 47.01 c -0.62,8.851 -2.97,15.492 -7.13,19.859 -4.18,4.422 -9.59,6.602 -16.4,6.602 -6.47,0 -11.78,-2.199 -15.92,-6.692 -4.14,-4.461 -6.68,-11.039 -7.56,-19.769 m 50.74,-14.75 h -50.74 c 0.1,-5.879 1.25,-11.11 3.56,-15.578 2.34,-4.473 5.39,-7.871 9.23,-10.18 3.85,-2.262 8.05,-3.402 12.7,-3.402 3.1,0 5.92,0.34 8.5,1.121 2.53,0.699 5.03,1.847 7.44,3.41 2.42,1.531 4.61,3.191 6.64,5 2.03,1.738 4.67,4.16 7.91,7.187 1.34,1.141 3.24,1.743 5.68,1.743 2.68,0 4.81,-0.739 6.49,-2.231 1.66,-1.461 2.44,-3.488 2.44,-6.172 0,-2.336 -0.9,-5.078 -2.68,-8.179 -1.87,-3.188 -4.63,-6.168 -8.36,-9.059 -3.75,-2.859 -8.4,-5.281 -13.98,-7.148 -5.59,-1.903 -12.05,-2.852 -19.32,-2.852 -16.7,0 -29.63,4.719 -38.87,14.211 -9.23,9.519 -13.9,22.43 -13.9,38.68 0,7.668 1.17,14.781 3.47,21.339 2.25,6.59 5.57,12.168 9.98,16.879 4.36,4.711 9.71,8.282 16.14,10.782 6.36,2.5 13.45,3.75 21.27,3.75 10.11,0 18.81,-2.153 26.07,-6.461 7.23,-4.219 12.74,-9.77 16.29,-16.551 3.61,-6.789 5.41,-13.668 5.41,-20.738 0,-6.481 -1.87,-10.7 -5.61,-12.661 -3.73,-1.929 -8.98,-2.89 -15.76,-2.89" /><path
         id="path42"
         style="fill:#6ba543;fill-opacity:1;fill-rule:nonzero;stroke:none"
         d="m 4428.28,349.59 h 47.01 c -0.64,8.851 -3.04,15.492 -7.15,19.859 -4.21,4.422 -9.62,6.602 -16.42,6.602 -6.47,0 -11.76,-2.199 -15.94,-6.692 -4.12,-4.461 -6.66,-11.039 -7.5,-19.769 M 4479,334.84 h -50.72 c 0.06,-5.879 1.25,-11.11 3.54,-15.578 2.32,-4.473 5.39,-7.871 9.22,-10.18 3.82,-2.262 8.04,-3.402 12.71,-3.402 3.07,0 5.92,0.34 8.44,1.121 2.6,0.699 5.06,1.847 7.5,3.41 2.42,1.531 4.61,3.191 6.64,5 1.99,1.738 4.65,4.16 7.89,7.187 1.35,1.141 3.26,1.743 5.68,1.743 2.68,0 4.83,-0.739 6.51,-2.231 1.64,-1.461 2.4,-3.488 2.4,-6.172 0,-2.336 -0.88,-5.078 -2.74,-8.179 -1.77,-3.188 -4.55,-6.168 -8.3,-9.059 -3.71,-2.859 -8.39,-5.281 -13.96,-7.148 -5.57,-1.903 -12.07,-2.852 -19.34,-2.852 -16.68,0 -29.59,4.719 -38.86,14.211 -9.24,9.519 -13.89,22.43 -13.89,38.68 0,7.668 1.15,14.781 3.48,21.339 2.26,6.59 5.58,12.168 9.96,16.879 4.35,4.711 9.72,8.282 16.13,10.782 6.39,2.5 13.51,3.75 21.29,3.75 10.1,0 18.79,-2.153 26.13,-6.461 7.21,-4.219 12.66,-9.77 16.21,-16.551 3.6,-6.789 5.45,-13.668 5.45,-20.738 0,-6.481 -1.91,-10.7 -5.6,-12.661 -3.75,-1.929 -9.01,-2.89 -15.77,-2.89" /><path
         id="path44"
         style="fill:#6ba543;fill-opacity:1;fill-rule:nonzero;stroke:none"
         d="m 4586.64,341.68 c 0,6.859 -1.05,12.73 -3.14,17.64 -2.09,4.922 -4.98,8.672 -8.66,11.27 -3.67,2.629 -7.83,3.961 -12.32,3.961 -7.15,0 -13.18,-2.832 -18.09,-8.442 -4.92,-5.66 -7.4,-13.937 -7.4,-24.918 0,-10.269 2.44,-18.339 7.36,-24.062 4.87,-5.738 10.86,-8.59 18.13,-8.59 4.28,0 8.3,1.262 11.97,3.731 3.71,2.519 6.64,6.269 8.83,11.269 2.21,5.012 3.32,11.07 3.32,18.141 m -50.84,37.679 v -3.109 c 4.86,6.02 9.94,10.43 15.25,13.238 5.18,2.852 11.18,4.282 17.82,4.282 7.95,0 15.35,-2.09 22.07,-6.168 6.72,-4.141 11.99,-10.161 15.9,-18.071 3.88,-7.949 5.86,-17.301 5.86,-28.14 0,-7.95 -1.14,-15.321 -3.36,-22.02 -2.25,-6.672 -5.38,-12.262 -9.3,-16.789 -3.93,-4.492 -8.56,-8.012 -13.89,-10.453 -5.43,-2.418 -11.11,-3.629 -17.28,-3.629 -7.39,0 -13.64,1.48 -18.66,4.469 -5.01,2.91 -9.82,7.32 -14.41,13.051 v -38.93 c 0,-11.352 -4.16,-17.09 -12.44,-17.09 -4.9,0 -8.09,1.461 -9.71,4.391 -1.52,2.988 -2.34,7.23 -2.34,12.91 v 111.941 c 0,4.938 1.07,8.59 3.2,11.067 2.15,2.39 5.12,3.64 8.85,3.64 3.69,0 6.66,-1.25 8.96,-3.738 2.35,-2.531 3.48,-6.109 3.48,-10.852" /><path
         id="path46"
         style="fill:#6ba543;fill-opacity:1;fill-rule:nonzero;stroke:none"
         d="m 4651.64,379.242 v -75.023 c 0,-5.16 -1.23,-9.078 -3.69,-11.719 -2.5,-2.699 -5.61,-4 -9.41,-4 -3.81,0 -6.86,1.32 -9.28,4.059 -2.35,2.75 -3.56,6.64 -3.56,11.66 V 378.5 c 0,5.09 1.21,8.941 3.56,11.539 2.42,2.641 5.47,3.91 9.28,3.91 3.8,0 6.91,-1.269 9.41,-3.91 2.46,-2.598 3.69,-6.23 3.69,-10.797 m -12.83,26.778 c -3.63,0 -6.7,1.152 -9.24,3.351 -2.6,2.231 -3.87,5.32 -3.87,9.359 0,3.692 1.31,6.7 3.97,9.102 2.62,2.348 5.66,3.559 9.14,3.559 3.4,0 6.35,-1.059 8.92,-3.192 2.6,-2.179 3.91,-5.347 3.91,-9.469 0,-3.98 -1.27,-7.109 -3.77,-9.359 -2.54,-2.199 -5.55,-3.351 -9.06,-3.351" /><path
         id="path48"
         style="fill:#6ba543;fill-opacity:1;fill-rule:nonzero;stroke:none"
         d="m 4735.23,300.332 -22.83,37.66 -14.08,-13.281 v -20.672 c 0,-4.98 -1.33,-8.809 -3.96,-11.48 -2.58,-2.739 -5.67,-4.059 -9.07,-4.059 -3.98,0 -7.15,1.301 -9.41,4 -2.27,2.641 -3.44,6.559 -3.44,11.742 v 110.617 c 0,5.75 1.15,10.121 3.32,13.153 2.23,3.039 5.45,4.508 9.53,4.508 3.99,0 7.13,-1.372 9.5,-4.098 2.34,-2.723 3.53,-6.742 3.53,-12.031 v -62.93 l 29.16,30.621 c 3.61,3.77 6.33,6.41 8.26,7.789 1.9,1.391 4.2,2.078 6.9,2.078 3.26,0 5.93,-1.039 8.16,-3.09 2.11,-2.05 3.2,-4.648 3.2,-7.738 0,-3.781 -3.53,-8.879 -10.54,-15.211 l -13.77,-12.621 26.58,-41.828 c 1.93,-3.129 3.4,-5.43 4.24,-7.051 0.84,-1.609 1.31,-3.211 1.31,-4.629 0,-4.121 -1.16,-7.351 -3.42,-9.75 -2.25,-2.359 -5.24,-3.531 -8.85,-3.531 -3.16,0 -5.64,0.801 -7.34,2.551 -1.7,1.719 -4.07,4.828 -6.98,9.281" /><path
         id="path50"
         style="fill:#6ba543;fill-opacity:1;fill-rule:nonzero;stroke:none"
         d="m 4791.6,288.5 c -3.92,0 -7.28,1.25 -10.14,3.801 -2.85,2.488 -4.29,6.058 -4.29,10.648 0,3.852 1.38,7.192 4.1,9.942 2.75,2.789 6.07,4.199 10.08,4.199 3.98,0 7.36,-1.41 10.23,-4.121 2.8,-2.758 4.22,-6.129 4.22,-10.02 0,-4.527 -1.42,-8.09 -4.22,-10.609 -2.87,-2.59 -6.19,-3.84 -9.98,-3.84" /><path
         id="path52"
         style="fill:#6ba543;fill-opacity:1;fill-rule:nonzero;stroke:none"
         d="m 4920.59,320.59 c 0,-3.211 -0.98,-6.68 -2.91,-10.34 -1.92,-3.711 -4.89,-7.18 -8.87,-10.5 -3.95,-3.32 -8.91,-6.02 -14.94,-8.031 -6.02,-2.028 -12.82,-3.071 -20.32,-3.071 -16.05,0 -28.57,4.692 -37.57,14.012 -8.95,9.352 -13.46,21.891 -13.46,37.59 0,10.691 2.05,20.059 6.19,28.25 4.08,8.141 10.04,14.469 17.81,18.941 7.8,4.469 17.17,6.7 27.95,6.7 6.74,0 12.87,-0.981 18.52,-2.95 5.6,-1.949 10.33,-4.511 14.26,-7.601 3.86,-3.141 6.85,-6.418 8.88,-9.918 2.07,-3.512 3.09,-6.801 3.09,-9.863 0,-3.09 -1.13,-5.719 -3.44,-7.868 -2.34,-2.152 -5.15,-3.242 -8.38,-3.242 -2.19,0 -3.98,0.563 -5.41,1.66 -1.44,1.11 -3.04,2.891 -4.78,5.411 -3.19,4.781 -6.47,8.41 -9.96,10.8 -3.44,2.422 -7.82,3.61 -13.15,3.61 -7.62,0 -13.83,-2.969 -18.53,-8.969 -4.67,-5.949 -7.03,-14.191 -7.03,-24.551 0,-4.879 0.62,-9.39 1.83,-13.469 1.17,-4.07 2.91,-7.562 5.2,-10.429 2.3,-2.871 5.04,-5.063 8.26,-6.551 3.24,-1.539 6.81,-2.262 10.64,-2.262 5.22,0 9.67,1.211 13.36,3.61 3.77,2.402 7.03,6.082 9.87,11.023 1.58,2.91 3.28,5.168 5.09,6.828 1.82,1.641 4.09,2.5 6.76,2.5 3.16,0 5.8,-1.23 7.85,-3.629 2.11,-2.402 3.19,-4.98 3.19,-7.691" /><path
         id="path54"
         style="fill:#6ba543;fill-opacity:1;fill-rule:nonzero;stroke:none"
         d="m 5006.45,341.191 c 0,10.59 -2.35,18.809 -6.98,24.688 -4.63,5.961 -10.9,8.891 -18.75,8.891 -5.08,0 -9.55,-1.329 -13.42,-3.95 -3.86,-2.621 -6.81,-6.48 -8.9,-11.64 -2.09,-5.141 -3.15,-11.129 -3.15,-17.989 0,-6.781 1.02,-12.671 3.09,-17.73 2.09,-5.102 5.02,-8.973 8.87,-11.66 3.84,-2.66 8.34,-4.051 13.51,-4.051 7.85,0 14.12,2.969 18.75,8.93 4.63,5.902 6.98,14.101 6.98,24.511 m 26.03,0 c 0,-7.691 -1.21,-14.839 -3.55,-21.39 -2.47,-6.52 -5.92,-12.121 -10.49,-16.77 -4.55,-4.691 -10.02,-8.281 -16.33,-10.801 -6.39,-2.48 -13.5,-3.75 -21.39,-3.75 -7.85,0 -14.92,1.27 -21.21,3.821 -6.23,2.488 -11.7,6.14 -16.25,10.82 -4.61,4.77 -8.08,10.34 -10.53,16.758 -2.28,6.453 -3.49,13.562 -3.49,21.312 0,7.868 1.23,15.059 3.57,21.579 2.42,6.55 5.9,12.128 10.39,16.742 4.51,4.609 9.94,8.168 16.31,10.699 6.45,2.488 13.5,3.738 21.21,3.738 7.85,0 14.98,-1.25 21.39,-3.808 6.39,-2.52 11.84,-6.161 16.44,-10.801 4.58,-4.75 8.03,-10.301 10.4,-16.719 2.34,-6.512 3.53,-13.601 3.53,-21.43" /><path
         id="path56"
         style="fill:#6ba543;fill-opacity:1;fill-rule:nonzero;stroke:none"
         d="M 5131.41,339.301 V 304.82 c 0,-5.461 -1.21,-9.511 -3.7,-12.261 -2.5,-2.739 -5.72,-4.079 -9.78,-4.079 -3.93,0 -7.13,1.34 -9.51,4.079 -2.46,2.75 -3.71,6.8 -3.71,12.261 v 41.309 c 0,6.551 -0.22,11.621 -0.65,15.262 -0.45,3.531 -1.68,6.539 -3.61,8.82 -1.97,2.348 -5.1,3.519 -9.32,3.519 -8.49,0 -14.06,-2.91 -16.75,-8.808 -2.68,-5.762 -4.07,-14.141 -4.07,-25.082 v -35.02 c 0,-5.371 -1.23,-9.449 -3.61,-12.218 -2.5,-2.743 -5.68,-4.122 -9.65,-4.122 -3.96,0 -7.17,1.379 -9.67,4.122 -2.52,2.769 -3.77,6.847 -3.77,12.218 v 74.2 c 0,4.89 1.12,8.601 3.36,11.121 2.29,2.558 5.26,3.808 8.89,3.808 3.57,0 6.52,-1.238 8.93,-3.558 2.36,-2.379 3.53,-5.661 3.53,-9.84 v -2.442 c 4.53,5.352 9.36,9.313 14.45,11.789 5.16,2.602 10.82,3.872 17.13,3.872 6.51,0 12.11,-1.309 16.78,-3.911 4.69,-2.589 8.53,-6.539 11.6,-11.75 4.4,5.27 9.08,9.211 14.1,11.789 5,2.582 10.53,3.872 16.62,3.872 7.05,0 13.21,-1.43 18.34,-4.2 5.1,-2.769 8.93,-6.8 11.47,-11.949 2.21,-4.73 3.3,-12.09 3.3,-22.172 V 304.82 c 0,-5.461 -1.21,-9.511 -3.67,-12.261 -2.46,-2.739 -5.74,-4.079 -9.79,-4.079 -3.94,0 -7.15,1.379 -9.65,4.122 -2.5,2.769 -3.77,6.847 -3.77,12.218 v 43.621 c 0,5.579 -0.23,10.039 -0.68,13.379 -0.47,3.379 -1.78,6.211 -3.83,8.469 -2.13,2.27 -5.31,3.441 -9.53,3.441 -3.42,0 -6.66,-1.07 -9.74,-3.089 -3.07,-1.969 -5.47,-4.762 -7.21,-8.121 -1.86,-4.379 -2.83,-12.129 -2.83,-23.219" /><path
         id="path58"
         style="fill:#6ba543;fill-opacity:1;fill-rule:nonzero;stroke:none"
         d="m 3924.36,347.48 c -0.02,0.04 -0.02,0.102 -0.02,0.18 0,-0.078 0,-0.14 0.02,-0.18" /><path
         id="path60"
         style="fill:#6ba543;fill-opacity:1;fill-rule:nonzero;stroke:none"
         d="m 3925.66,339.18 c 0.02,0 0.02,0 0.03,0 -0.49,2.359 -0.89,4.711 -1.18,7.031 0.29,-2.34 0.69,-4.691 1.15,-7.031" /><path
         id="path62"
         style="fill:#6ba543;fill-opacity:1;fill-rule:nonzero;stroke:none"
         d="m 3934.25,315.121 c -0.06,0.09 -0.11,0.211 -0.17,0.328 0.06,-0.117 0.11,-0.238 0.17,-0.328" /><path
         id="path64"
         style="fill:#6ba543;fill-opacity:1;fill-rule:nonzero;stroke:none"
         d="m 3933.43,316.719 c -0.23,0.453 -0.44,0.902 -0.66,1.351 0.22,-0.468 0.43,-0.898 0.66,-1.351" /><path
         id="path66"
         style="fill:#6ba543;fill-opacity:1;fill-rule:nonzero;stroke:none"
         d="m 3928.08,329.922 c 1.27,-4 2.8,-7.891 4.57,-11.582 -1.81,3.769 -3.3,7.66 -4.54,11.582 0,0 -0.02,0 -0.03,0" /><path
         id="path68"
         style="fill:#6ba543;fill-opacity:1;fill-rule:nonzero;stroke:none"
         d="m 4024.73,446.84 c 5.02,0 8.71,-0.391 12.95,-1.121 l 1.21,7.64 c 0,0 -11.72,3.59 -27.11,2.34 l -1.21,4.141 c 4.78,1.019 8.38,5.281 8.38,10.359 0,5.821 -4.75,10.52 -10.57,10.52 -5.84,0 -10.57,-4.699 -10.57,-10.52 0,-5.078 3.6,-9.34 8.36,-10.359 l 1.35,-4.629 c -16.35,-2.242 -29.36,-8.609 -29.36,-8.609 l 2.31,-7.051 c 9.88,3.281 18.46,5.289 26.24,6.129 7.62,0.8 13.35,1.16 18.02,1.16" /><path
         id="path70"
         style="fill:#6ba543;fill-opacity:1;fill-rule:nonzero;stroke:none"
         d="m 3934.05,408.262 0.06,0.078 c 0.38,0.492 0.75,0.961 1.13,1.43 l -3.13,2.242 -4.87,3.578 c -0.28,-0.391 -7.95,-7.449 -14.02,-20.488 -0.25,0.41 -0.55,0.82 -0.9,1.187 -1.81,1.992 -4.35,3.012 -7.57,2.953 -0.04,0 -0.1,0 -0.16,0 -1.99,0 -3.36,0.656 -4.26,1.457 0.89,1.141 1.43,2.563 1.43,4.141 0,3.68 -3,6.68 -6.7,6.68 -3.68,0 -6.68,-3 -6.68,-6.68 0,-3.711 3,-6.699 6.68,-6.699 0.58,0 1.13,0.097 1.68,0.218 1.64,-1.839 4.25,-3.418 8.06,-3.339 1.98,0.019 3.42,-0.489 4.38,-1.559 1.11,-1.211 1.48,-2.949 1.6,-4.281 -0.01,-0.02 -0.01,-0.039 -0.03,-0.039 -4.35,-11.891 -3.11,-26.7 -3.11,-26.7 l 10.57,-0.429 c 0.22,5.386 0.99,14.828 3.72,22.308 5.26,14.489 11.86,23.551 12.12,23.942" /><path
         id="path72"
         style="fill:#6ba543;fill-opacity:1;fill-rule:nonzero;stroke:none"
         d="m 4116.72,438.012 c -3.67,0 -6.68,-2.992 -6.68,-6.703 0,-0.571 0.08,-1.11 0.23,-1.637 -1.83,-1.66 -3.43,-4.281 -3.38,-8.113 0.04,-1.969 -0.46,-3.399 -1.54,-4.368 -0.84,-0.742 -1.91,-1.152 -2.95,-1.41 -7.87,11.039 -17.56,17.758 -17.56,17.758 l -7.59,-8.129 c 5.74,-5.211 11.6,-11.762 17.28,-19.898 3.95,-5.653 7.99,-12.91 11.37,-20.16 l 10.23,4.859 c 0,0 -4.67,11.57 -11.25,21.918 1.14,0.41 2.29,1.031 3.3,1.93 2.02,1.8 2.99,4.363 2.93,7.582 -0.02,2.07 0.67,3.48 1.49,4.41 1.15,-0.871 2.58,-1.422 4.12,-1.422 3.71,0 6.7,2.992 6.7,6.68 0,3.711 -2.99,6.703 -6.7,6.703" /><path
         id="path74"
         style="fill:#6ba543;fill-opacity:1;fill-rule:nonzero;stroke:none"
         d="m 4090.16,345.98 c -14.11,-6.859 -37.29,-15.941 -67.82,-20.199 -11.99,-1.66 -23.59,-2.261 -34.28,-2.261 -13.91,0 -26.2,1.031 -35.63,2.218 -10.76,1.352 -19.17,3.012 -24.32,4.184 1.24,-3.922 2.73,-7.813 4.54,-11.582 0.03,-0.102 0.07,-0.219 0.12,-0.27 0.22,-0.449 0.43,-0.898 0.66,-1.351 0.21,-0.43 0.43,-0.86 0.65,-1.27 0.06,-0.117 0.11,-0.238 0.17,-0.328 3.03,-5.711 6.67,-10.941 10.81,-15.492 14.39,-15.738 29.06,-18.238 29.2,-18.258 l 0.23,-0.019 0.22,-0.082 c 0.13,-0.059 13.14,-4.258 32.91,-4.258 19.45,0 38.55,3.929 56.74,11.679 13.47,6.899 26.23,17.36 32.53,26.7 4.89,7.23 8.42,14.918 10.51,22.929 1.12,4.262 1.99,11.071 1.47,18.262 -3.97,-2.672 -10.24,-6.461 -18.71,-10.602" /><path
         id="path76"
         style="fill:#6ba543;fill-opacity:1;fill-rule:nonzero;stroke:none"
         d="m 3978.86,412.289 c 15.56,0 28.17,-12.617 28.17,-28.187 0,-15.551 -12.61,-28.141 -28.17,-28.141 -15.55,0 -28.16,12.59 -28.16,28.141 0,15.57 12.61,28.187 28.16,28.187 z m 82.41,-0.707 c 9.61,0 17.44,-7.812 17.44,-17.422 0,-9.629 -7.83,-17.441 -17.44,-17.441 -9.61,0 -17.42,7.812 -17.42,17.441 0,9.61 7.81,17.422 17.42,17.422 z m -122.7,-6.66 c -0.41,-0.602 -6.52,-9.262 -11.34,-22.543 -3.62,-9.938 -3.46,-24.43 -3.46,-24.59 v -0.039 c 0,-3.391 0.19,-6.75 0.57,-10.09 0,-0.078 0,-0.14 0.02,-0.18 0.03,-0.429 0.11,-0.839 0.15,-1.269 0.29,-2.32 0.69,-4.672 1.18,-7.031 7.01,-1.782 48.78,-11.52 95.48,-5.02 29.28,4.078 51.51,12.731 65,19.281 11.21,5.43 18.42,10.348 21.19,12.379 -2.77,10.27 -10.41,26.41 -17.42,36.469 -20.06,28.652 -41.68,35.992 -52.77,37.832 -4.24,0.68 -7.64,1.09 -12.44,1.09 -4.48,0 -10.02,-0.371 -17.43,-1.152 -7.44,-0.758 -15.72,-2.719 -25.33,-5.957 -13.47,-4.512 -25.66,-11.582 -35.26,-20.473 l -0.32,-0.309 c -1.43,-1.308 -4.4,-4.058 -7.82,-8.398" /><path
         id="path78"
         style="fill:#4b823d;fill-opacity:1;fill-rule:nonzero;stroke:none"
         d="m 6643.74,7421.06 h -629.45 v -533.81 h 623.59 l -208.51,261.5 214.37,272.31" /><path
         id="path80"
         style="fill:#305729;fill-opacity:1;fill-rule:nonzero;stroke:none"
         d="m 6233.74,7024.03 -219.45,-136.78 v 136.78 z" /><path
         id="path82"
         style="fill:#4b823d;fill-opacity:1;fill-rule:nonzero;stroke:none"
         d="m 1356.26,7420.47 h 629.46 v -533.83 h -623.64 l 208.53,261.51 -214.35,272.32" /><path
         id="path84"
         style="fill:#305729;fill-opacity:1;fill-rule:nonzero;stroke:none"
         d="m 1766.26,7023.4 219.46,-136.76 v 136.76 z" /><path
         id="path86"
         style="fill:#94c85b;fill-opacity:1;fill-rule:nonzero;stroke:none"
         d="M 6226.82,7023.4 H 1762.17 v 532.44 H 6226.82 V 7023.4" /><g
         transform="scale(10)"
         id="g88"><text
           id="text92"
           style="font-variant:normal;font-weight:normal;font-size:26.61249924px;font-family:Bebas;-inkscape-font-specification:Bebas;writing-mode:lr-tb;fill:#ffffff;fill-opacity:1;fill-rule:nonzero;stroke:none"
           transform="matrix(1,0,0,-1,211.603,715.695)"><tspan
             id="tspan90"
             y="0"
             x="0 14.250997 20.695818 34.30423 49.916023 57.286659 69.91214 82.102547 94.728546 114.49854 127.12405 142.32033 155.92874 170.19824 177.56888 187.11333 201.1377 216.18262 228.80765 241.43364 255.70311 260.61719 277.09772 282.01178 296.09189 308.28329 324.19739 339.39273 353.00113 367.27164">CITY ELEMENTS (TREES &amp; PLANTS)</tspan></text>
</g><path
         id="path94"
         style="fill:#c6c2af;fill-opacity:1;fill-rule:nonzero;stroke:none"
         d="m 1431.69,1848.12 c 0,-23.3 -87.11,-42.18 -194.58,-42.18 -107.46,0 -194.57,18.88 -194.57,42.18 0,23.29 87.11,42.17 194.57,42.17 107.47,0 194.58,-18.88 194.58,-42.17" /><path
         id="path96"
         style="fill:#cf202a;fill-opacity:1;fill-rule:nonzero;stroke:none"
         d="m 1375.87,2690.93 c 0,0 171.9,94.63 130.3,113.68 -43.07,19.72 -115.98,0 -115.98,0 0,0 7.28,108.73 -48.46,113.54 -55.71,4.88 -69.9,-89.17 -69.9,-89.17 0,0 -60.78,81.23 -96.05,77.48 -35.28,-3.77 46.77,-179.25 46.77,-179.25 l 153.32,-36.28" /><path
         id="path98"
         style="fill:#88c881;fill-opacity:1;fill-rule:nonzero;stroke:none"
         d="m 1262.81,1848.3 c -1.17,4.5 -129.4,518.02 21.6,769.92 l -11.82,7.32 c -156.87,-261.74 -43.47,-710.2 -38.57,-729.18 l 28.79,-48.06" /><path
         id="path100"
         style="fill:#88c881;fill-opacity:1;fill-rule:nonzero;stroke:none"
         d="m 1279.7,2609.14 c 0,0 60.78,-9.2 96.17,81.79 0,0 -81.81,64.71 -154.47,37.91 0,0 -29.48,-56.94 44.75,-117.1 l 13.55,-2.6" /><path
         id="path102"
         style="fill:#88c881;fill-opacity:1;fill-rule:nonzero;stroke:none"
         d="m 1205.62,2388.14 c 0,0 157.77,49.2 150.59,166.98 0,0 -129.24,-24.21 -150.59,-166.98" /><path
         id="path104"
         style="fill:#88c881;fill-opacity:1;fill-rule:nonzero;stroke:none"
         d="m 1225.19,2074.53 c 0,0 -26.37,85.43 44.61,128.35 73.73,44.51 86.33,76.31 86.33,76.31 0,0 27.51,-72.52 -15.71,-128.52 -43.12,-55.98 -101.42,-50.54 -115.23,-76.14" /><path
         id="path106"
         style="fill:#88c881;fill-opacity:1;fill-rule:nonzero;stroke:none"
         d="m 1205.91,2243.78 c 0,0 7.28,89.01 -62.52,113.62 -72.46,25.56 -89.27,53.31 -89.27,53.31 0,0 -10.71,-76.85 37.25,-120.74 47.96,-43.91 97.8,-24.71 114.54,-46.19" /><path
         id="path108"
         style="fill:#c6c2af;fill-opacity:1;fill-rule:nonzero;stroke:none"
         d="m 2762.08,1848.12 c 0,-23.3 -87.11,-42.18 -194.58,-42.18 -107.46,0 -194.57,18.88 -194.57,42.18 0,23.29 87.11,42.17 194.57,42.17 107.47,0 194.58,-18.88 194.58,-42.17" /><path
         id="path110"
         style="fill:#6ba543;fill-opacity:1;fill-rule:nonzero;stroke:none"
         d="m 2559.04,1848.3 -11.32,3.51 c 1.19,3.86 116.94,390.7 -117.44,787.16 l 31.23,20.55 c 239.89,-405.85 98.76,-807.28 97.53,-811.22" /><path
         id="path112"
         style="fill:#d396c2;fill-opacity:1;fill-rule:nonzero;stroke:none"
         d="m 2458.39,2642.54 c 0,0 -75.04,-37.61 -132.07,75.78 -42.83,85.13 -60.33,122.01 -146.48,112.89 0,0 32.21,58.32 89.43,47.33 0,0 -8.36,42.58 -62.17,57.48 0,0 60.04,28.32 106.23,-11.54 0,0 4.5,84.85 53.92,92.6 0,0 -9.87,-64.27 8.71,-85.05 0,0 34.8,49.45 97.08,38.59 0,0 -55.81,-40.06 -42.76,-93.93 20.77,-85.63 124.32,-170.48 28.11,-234.15" /><path
         id="path114"
         style="fill:#be3d95;fill-opacity:1;fill-rule:nonzero;stroke:none"
         d="m 2303.3,2799.65 c -1.45,-13.78 42.06,-77.05 55.11,-98.98 15.82,-26.57 61.31,-54.36 94.69,-32.22 34.16,22.62 29.79,56.75 9.3,101.4 -20.45,44.67 -42.8,99.57 -45.59,107.96 -2.79,8.36 -6.93,-27.93 9.1,-71.66 0,0 -28.63,53.03 -40.73,55.84 -12.1,2.8 30.71,-80.49 30.71,-80.49 0,0 -54.89,71.19 -63.73,71.19 -8.86,0 38.19,-83.56 38.19,-83.56 0,0 -44.25,62.16 -54.49,62.16 -10.24,0 25.11,-70.73 25.11,-70.73 0,0 -33.47,54.06 -40.01,55.41 -6.5,1.34 25.58,-61 25.58,-61 0,0 -41.53,61.24 -43.24,44.68" /><path
         id="path116"
         style="fill:#6ba543;fill-opacity:1;fill-rule:nonzero;stroke:none"
         d="m 2590.7,2140.2 c 0,0 -122.41,62.14 -115.24,148.15 0,0 85.28,-37.64 115.24,-148.15" /><path
         id="path118"
         style="fill:#6ba543;fill-opacity:1;fill-rule:nonzero;stroke:none"
         d="m 2511.67,2514.55 c 0,0 135.18,72.06 108.31,177.99 0,0 -113.48,-44.31 -108.31,-177.99" /><path
         id="path120"
         style="fill:#6ba543;fill-opacity:1;fill-rule:nonzero;stroke:none"
         d="m 2582.52,2309.37 c 0,0 -29.58,240.56 134.68,332.24 0,0 70.07,-180.03 -134.68,-332.24" /><path
         id="path122"
         style="fill:#6ba543;fill-opacity:1;fill-rule:nonzero;stroke:none"
         d="m 2574.45,1955.12 c 0,0 9.35,166.88 -168.58,214.98 0,0 -56.56,-129.11 168.58,-214.98" /><path
         id="path124"
         style="fill:#c6c2af;fill-opacity:1;fill-rule:nonzero;stroke:none"
         d="m 4099.43,1848.12 c 0,-23.3 -87.11,-42.18 -194.57,-42.18 -107.46,0 -194.58,18.88 -194.58,42.18 0,23.29 87.12,42.17 194.58,42.17 107.46,0 194.57,-18.88 194.57,-42.17" /><path
         id="path126"
         style="fill:#94c85b;fill-opacity:1;fill-rule:nonzero;stroke:none"
         d="m 3920.11,1848.3 -32.21,4.74 c 0.44,3.15 44.67,318.24 -68.57,575.22 -85.22,193.38 -12.68,311.81 57.41,426.28 28.7,46.86 74.82,98.17 92.6,151.01 l 14.42,-13.32 c -18.96,-56.28 -49.58,-106.31 -79.23,-154.66 -68.76,-112.36 -133.75,-218.41 -55.41,-396.16 117.07,-265.75 72.94,-579.88 70.99,-593.11" /><path
         id="path128"
         style="fill:#94c85b;fill-opacity:1;fill-rule:nonzero;stroke:none"
         d="m 3878.43,2304.05 c 0,0 -144.94,-31.88 -207.81,122.25 0,0 161.7,51.85 207.81,-122.25" /><path
         id="path130"
         style="fill:#94c85b;fill-opacity:1;fill-rule:nonzero;stroke:none"
         d="m 3819.82,2484.93 c 0,0 -31.5,144.99 122.75,207.53 0,0 51.48,-161.81 -122.75,-207.53" /><path
         id="path132"
         style="fill:#94c85b;fill-opacity:1;fill-rule:nonzero;stroke:none"
         d="m 3829.21,2730.51 c 0,0 -116.81,91.5 -37.9,238.11 0,0 142.86,-91.78 37.9,-238.11" /><path
         id="path134"
         style="fill:#94c85b;fill-opacity:1;fill-rule:nonzero;stroke:none"
         d="m 3851.51,2355.15 c -0.98,2.14 -99.6,218.6 -190.18,329.5 l 9.49,7.8 c 91.63,-112.15 190.89,-330.04 191.91,-332.22 l -11.22,-5.08" /><path
         id="path136"
         style="fill:#ee5e80;fill-opacity:1;fill-rule:nonzero;stroke:none"
         d="m 3566.66,2707.46 c 0,0 -44.07,-45.56 -67.15,-16.88 -23.13,28.7 -16.19,77.06 39.15,77.55 0,0 -40.39,43.63 -0.97,76.32 41.84,34.73 71.21,-19.29 71.21,-19.29 0,0 21.6,64.33 65.59,32.77 34.91,-25.09 7.54,-80.71 -24.91,-76.39 l -82.92,-74.08" /><path
         id="path138"
         style="fill:#94c85b;fill-opacity:1;fill-rule:nonzero;stroke:none"
         d="m 3566.66,2707.46 c 0,0 44.92,-62.29 104.16,-15.01 0,0 26.49,26.72 -21.24,89.09 0,0 -68,-26.8 -82.92,-74.08" /><path
         id="path140"
         style="fill:#94c85b;fill-opacity:1;fill-rule:nonzero;stroke:none"
         d="m 3932.55,1932.2 c 0.14,2.41 11.76,239.98 54.96,376.52 l -11.79,3.68 c -43.64,-138.03 -55.33,-377.19 -55.45,-379.58 l 12.28,-0.62" /><path
         id="path142"
         style="fill:#ee5e80;fill-opacity:1;fill-rule:nonzero;stroke:none"
         d="m 4066.97,2364.92 c 0,0 57.82,-26.07 68.66,9.11 10.83,35.21 -13.44,77.58 -65.06,57.63 0,0 21.44,55.48 -27.31,71.26 -51.71,16.78 -59.02,-44.25 -59.02,-44.25 0,0 -43.87,51.79 -73.06,6.18 -23.2,-36.2 22.85,-77.74 51.41,-61.72 l 104.38,-38.21" /><path
         id="path144"
         style="fill:#94c85b;fill-opacity:1;fill-rule:nonzero;stroke:none"
         d="m 4066.97,2364.92 c 0,0 -18.67,-74.47 -91.25,-52.52 0,0 -34.47,15.09 -13.13,90.73 0,0 73.07,0.2 104.38,-38.21" /><path
         id="path146"
         style="fill:#c6c2af;fill-opacity:1;fill-rule:nonzero;stroke:none"
         d="m 5259.43,1848.12 c 0,-23.3 -87.11,-42.18 -194.57,-42.18 -107.46,0 -194.58,18.88 -194.58,42.18 0,23.29 87.12,42.17 194.58,42.17 107.46,0 194.57,-18.88 194.57,-42.17" /><path
         id="path148"
         style="fill:#f6aa2f;fill-opacity:1;fill-rule:nonzero;stroke:none"
         d="m 5172.52,2798.06 c 0,0 -28.52,167.87 10.49,155.32 40.39,-13.03 58.22,-87.99 58.22,-87.99 0,0 49.22,96.09 89.16,65.26 39.94,-30.82 7.27,-104.84 7.27,-104.84 0,0 74.94,19.52 96.17,-4.6 21.23,-24.1 -137.78,-92.44 -137.78,-92.44 l -123.53,69.29" /><path
         id="path150"
         style="fill:#ee4223;fill-opacity:1;fill-rule:nonzero;stroke:none"
         d="m 5172.32,2801.18 c 0,0 -122.26,66.78 -7.12,52.88 0,0 33.61,57.35 63.28,-13.95 0,0 63.26,32.14 49.47,-36.83 0,0 77.17,23.28 44.9,-44.5 0,0 34.98,-30.64 24.9,-43.59 -10.05,-12.96 -51.7,13.58 -51.7,13.58 l -59.45,4.76 -64.98,64.45" /><path
         id="path152"
         style="fill:#b4cb34;fill-opacity:1;fill-rule:nonzero;stroke:none"
         d="m 5191.66,2687.7 c 0,0 -46.99,29.31 -19.34,113.48 0,0 89.14,-11.07 123.73,-72.41 0,0 -8.32,-48.99 -93.61,-47.23 l -10.78,6.16" /><path
         id="path154"
         style="fill:#b4cb34;fill-opacity:1;fill-rule:nonzero;stroke:none"
         d="m 5041.72,1848.3 c -1.35,5.54 -147.79,581.72 139.35,874.85 l 28.54,-37.94 c -280.66,-286.5 -152.83,-827.5 -151.5,-832.91 l -16.39,-4" /><path
         id="path156"
         style="fill:#b4cb34;fill-opacity:1;fill-rule:nonzero;stroke:none"
         d="m 5086.6,2514.45 c 0,0 115.94,99.42 209.45,41.03 0,0 -125.82,-130.97 -209.45,-41.03" /><path
         id="path158"
         style="fill:#b4cb34;fill-opacity:1;fill-rule:nonzero;stroke:none"
         d="m 5014.04,2347.41 c 0,0 4.71,152.83 -102.59,163.88 0,0 -56.76,-127.36 102.59,-163.88" /><path
         id="path160"
         style="fill:#b4cb34;fill-opacity:1;fill-rule:nonzero;stroke:none"
         d="m 5014.06,2157.84 c 0,0 86.76,145.17 184.57,102.56 0,0 -51.97,-151.47 -184.57,-102.56" /><path
         id="path162"
         style="fill:#c6c2af;fill-opacity:1;fill-rule:nonzero;stroke:none"
         d="m 6856.68,1848.12 c 0,-23.3 -87.11,-42.18 -194.57,-42.18 -107.46,0 -194.58,18.88 -194.58,42.18 0,23.29 87.12,42.17 194.58,42.17 107.46,0 194.57,-18.88 194.57,-42.17" /><path
         id="path164"
         style="fill:#761e14;fill-opacity:1;fill-rule:nonzero;stroke:none"
         d="m 6490.16,2720.86 c 0,0 -162.09,-110.83 -180.34,16.75 -18.24,127.59 115.39,129.68 177.17,69.96 0,0 -143.96,138.78 -0.45,188.01 143.54,49.22 113.13,-154.87 113.13,-154.87 0,0 73.28,183.35 159.59,101.63 86.29,-81.71 -6.12,-257.52 -132.66,-174.24 l -136.58,-37.59" /><path
         id="path166"
         style="fill:#4b823d;fill-opacity:1;fill-rule:nonzero;stroke:none"
         d="m 6646.11,1848.3 c -0.07,3.07 -5.82,618.41 -56.5,797.29 l 15.33,4.41 c 51.27,-180.92 57.09,-798.31 57.17,-801.44 l -16,-0.26" /><path
         id="path168"
         style="fill:#ee4524;fill-opacity:1;fill-rule:nonzero;stroke:none"
         d="m 6488.57,2721.65 c 0,0 -75.99,-31.53 -88.71,14.55 -12.71,46.12 20.49,100.17 86.7,72.2 0,0 -25.62,72.8 38.23,91.41 67.77,19.78 74.88,-59.75 74.88,-59.75 0,0 58.94,65.51 95.06,5.19 28.65,-47.91 -32.68,-100.04 -69.09,-78.15 l -137.07,-45.45" /><path
         id="path170"
         style="fill:#4b823d;fill-opacity:1;fill-rule:nonzero;stroke:none"
         d="m 6488.57,2721.65 c 0,0 21.37,-97.41 116.37,-71.65 0,0 45.37,18.14 20.7,117.1 0,0 -94.86,3.17 -137.07,-45.45" /><path
         id="path172"
         style="fill:#4b823d;fill-opacity:1;fill-rule:nonzero;stroke:none"
         d="m 6625.88,2456.76 c 0,0 55.78,176.7 167.03,160.93 0,0 -35.06,-157.76 -167.03,-160.93" /><path
         id="path174"
         style="fill:#4b823d;fill-opacity:1;fill-rule:nonzero;stroke:none"
         d="m 6632.99,2286.32 c 0,0 -50.74,129.61 -176.97,116.87 0,0 32.05,-145.27 176.97,-116.87" /><path
         id="path176"
         style="fill:#4b823d;fill-opacity:1;fill-rule:nonzero;stroke:none"
         d="m 6639.26,2121.96 c 0,0 58.18,183.29 153.65,180.15 0,0 73.75,-158.32 -153.65,-180.15" /><path
         id="path178"
         style="fill:#c6c2af;fill-opacity:1;fill-rule:nonzero;stroke:none"
         d="m 1193.72,4175 c 0,-69.03 -140.99,-125 -314.907,-125 -173.918,0 -314.911,55.97 -314.911,125 0,69.03 140.993,125 314.911,125 173.917,0 314.907,-55.97 314.907,-125" /><path
         id="path180"
         style="fill:#94c85b;fill-opacity:1;fill-rule:nonzero;stroke:none"
         d="m 891.199,4793.63 c 0,0 -215.308,25.37 -306.402,157.88 -91.082,132.51 -105.488,405.99 0,538.51 105.476,132.53 296.359,234.01 442.033,143.8 145.67,-90.23 286.32,-448.3 185.85,-625.91 -100.46,-177.63 -246.121,-205.82 -321.481,-214.28" /><path
         id="path182"
         style="fill:#89b74e;fill-opacity:1;fill-rule:nonzero;stroke:none"
         d="m 891.199,4793.63 c 75.36,8.46 221.021,36.65 321.481,214.28 100.47,177.61 -40.18,535.68 -185.85,625.91 -60.908,37.72 -129.717,41.84 -196.889,24.28 v 0 c 0,0 86.157,-14.77 159.493,-63.85 73.336,-49.09 256.306,-464.01 66.666,-603.58 C 866.453,4851.1 584.797,4951.51 584.797,4951.51 675.891,4819 891.199,4793.63 891.199,4793.63" /><path
         id="path184"
         style="fill:#695020;fill-opacity:1;fill-rule:nonzero;stroke:none"
         d="m 805.012,4144.95 c 0,0 27.511,786.69 19.636,811.53 -7.839,24.91 -106.019,138.59 -106.019,138.59 0,0 125.656,-103.04 137.449,-60.41 11.781,42.63 35.34,365.93 35.34,365.93 0,0 7.855,-326.84 39.27,-323.3 31.406,3.56 161.002,131.44 161.002,131.44 0,0 -149.229,-170.52 -149.229,-234.47 0,-63.93 11.801,-829.31 11.801,-829.31 h -149.25" /><path
         id="path186"
         style="fill:#c6c2af;fill-opacity:1;fill-rule:nonzero;stroke:none"
         d="m 2135.72,4175 c 0,-69.03 -140.98,-125 -314.9,-125 -173.93,0 -314.92,55.97 -314.92,125 0,69.03 140.99,125 314.92,125 173.92,0 314.9,-55.97 314.9,-125" /><path
         id="path188"
         style="fill:#4b823d;fill-opacity:1;fill-rule:nonzero;stroke:none"
         d="m 1827.08,4857.89 c 0,0 -171.21,46.02 -243.63,286.25 -72.41,240.25 -83.86,840.29 0,1080.55 83.85,240.26 277.3,424.27 393.13,260.71 115.82,-163.6 185.94,-917 106.08,-1239.01 -79.87,-322.06 -195.68,-373.19 -255.58,-388.5" /><path
         id="path190"
         style="fill:#3f6d32;fill-opacity:1;fill-rule:nonzero;stroke:none"
         d="M 1766.31,6505.1 C 1907.54,6490.14 1980,6164.98 2010,5930 c 30,-235 53.66,-753.12 -142.6,-814.43 -194.39,-60.73 -293.05,67.45 -294.9,69.89 3.49,-14.65 7.11,-28.59 10.95,-41.32 72.42,-240.23 243.63,-286.25 243.63,-286.25 59.9,15.31 175.71,66.44 255.58,388.5 79.86,322.01 9.74,1075.41 -106.08,1239.01 -58.37,82.42 -136.44,76.51 -210.27,19.7" /><path
         id="path192"
         style="fill:#695020;fill-opacity:1;fill-rule:nonzero;stroke:none"
         d="m 1750.25,4144.95 c 0,0 21.87,876.38 15.6,905.81 -6.23,29.49 -84.28,164.11 -84.28,164.11 0,0 99.92,-122.02 109.28,-71.55 9.38,50.49 28.11,433.35 28.11,433.35 0,0 6.24,-387.06 31.21,-382.86 24.99,4.21 128.02,155.68 128.02,155.68 0,0 -118.66,-201.97 -118.66,-277.68 0,-75.72 9.4,-926.86 9.4,-926.86 h -118.68" /><path
         id="path194"
         style="fill:#c6c2af;fill-opacity:1;fill-rule:nonzero;stroke:none"
         d="m 3435.72,4175 c 0,-69.03 -140.98,-125 -314.9,-125 -173.93,0 -314.92,55.97 -314.92,125 0,69.03 140.99,125 314.92,125 173.92,0 314.9,-55.97 314.9,-125" /><path
         id="path196"
         style="fill:#b4cb34;fill-opacity:1;fill-rule:nonzero;stroke:none"
         d="m 3041.5,4785.15 c 0,0 -112.46,-80.78 -187.16,27.93 0,0 -124.53,-31.07 -152.56,83.84 0,0 -149.45,12.42 -143.23,127.36 0,0 -180.54,86.95 -62.23,251.58 0,0 -115.21,102.49 15.54,217.4 0,0 -99.62,149.08 74.73,192.57 0,0 15.58,177.06 189.9,136.68 0,0 46.69,149.09 214.81,93.17 0,0 151.03,112.05 236.61,-37.27 0,0 165.03,21.74 196.14,-114.92 0,0 158.78,-21.76 143.2,-180.15 0,0 121.91,-111.81 44.05,-245.35 0,0 77.62,-222.42 -90.76,-242.27 0,0 5.38,-98.49 -94.27,-141.98 0,0 -17.81,-118.93 -123.64,-100.26 0,0 -80.96,-90.1 -140.1,-40.4 l -121.03,-27.93" /><path
         id="path198"
         style="fill:#aab72c;fill-opacity:1;fill-rule:nonzero;stroke:none"
         d="m 3567.25,5583.34 c 15.58,158.39 -143.2,180.15 -143.2,180.15 C 3503.1,5421.97 3310,4985 3010,4946.08 c -300,-38.91 -451.45,78.2 -451.45,78.2 -6.22,-114.94 143.23,-127.36 143.23,-127.36 28.03,-114.91 152.56,-83.84 152.56,-83.84 74.7,-108.71 187.16,-27.93 187.16,-27.93 l 121.03,27.93 c 59.14,-49.7 140.1,40.4 140.1,40.4 105.83,-18.67 123.64,100.26 123.64,100.26 99.65,43.49 94.27,141.98 94.27,141.98 168.38,19.85 90.76,242.27 90.76,242.27 77.86,133.54 -44.05,245.35 -44.05,245.35" /><path
         id="path200"
         style="fill:#695020;fill-opacity:1;fill-rule:nonzero;stroke:none"
         d="m 2854.34,5071.67 c 0,0 174.32,-18.06 186.77,-108.33 12.47,-90.26 -18.67,-818.39 -18.67,-818.39 h 186.79 c 0,0 -80.96,818.41 -52.92,877.73 27.99,59.31 118.3,92.84 118.3,92.84 0,0 -102.76,2.57 -136.98,-28.38 -34.24,-30.96 -77.84,-38.68 -124.54,-30.96 -46.68,7.75 -93.38,20.64 -158.75,15.49" /><path
         id="path202"
         style="fill:#c6c2af;fill-opacity:1;fill-rule:nonzero;stroke:none"
         d="m 4773.99,4175 c 0,-69.03 -140.98,-125 -314.91,-125 -173.91,0 -314.9,55.97 -314.9,125 0,69.03 140.99,125 314.9,125 173.93,0 314.91,-55.97 314.91,-125" /><path
         id="path204"
         style="fill:#94c85b;fill-opacity:1;fill-rule:nonzero;stroke:none"
         d="m 4358.73,4990.67 c 0,0 -369.78,124.56 -456.32,391.84 -86.53,267.24 5.77,647.29 346.13,777.94 340.36,130.65 773.06,-95.01 796.11,-463.2 23.07,-368.2 -208.41,-617.34 -510.9,-706.58 h -175.02" /><path
         id="path206"
         style="fill:#84af4b;fill-opacity:1;fill-rule:nonzero;stroke:none"
         d="m 5044.65,5697.25 c -10.6,169.21 -107.73,308.26 -242.63,396.52 0,-0.01 0,-0.01 0,-0.01 C 4974.04,5822.53 4830,5315 4477.98,5225 c -346.59,-88.61 -534.43,74.06 -540.15,79.11 123.9,-213.26 420.9,-313.44 420.9,-313.44 h 175.02 c 302.49,89.24 533.97,338.38 510.9,706.58" /><path
         id="path208"
         style="fill:#695020;fill-opacity:1;fill-rule:nonzero;stroke:none"
         d="m 4388.51,4144.95 c 0,0 26.32,922.92 18.78,954.74 -7.51,31.85 -101.49,177.34 -101.49,177.34 0,0 120.3,-131.84 131.57,-77.3 11.28,54.55 33.85,468.33 33.85,468.33 0,0 7.51,-418.32 37.6,-413.78 30.06,4.57 154.14,168.25 154.14,168.25 0,0 -142.88,-218.27 -142.88,-300.1 0,-81.82 11.31,-977.48 11.31,-977.48 h -142.88" /><path
         id="path210"
         style="fill:#c6c2af;fill-opacity:1;fill-rule:nonzero;stroke:none"
         d="m 5967.74,4175 c 0,-69.03 -140.98,-125 -314.91,-125 -173.91,0 -314.9,55.97 -314.9,125 0,69.03 140.99,125 314.9,125 173.93,0 314.91,-55.97 314.91,-125" /><path
         id="path212"
         style="fill:#695020;fill-opacity:1;fill-rule:nonzero;stroke:none"
         d="m 5684.19,4946.08 -31.38,-4.06 -31.35,4.06 -54.87,-801.13 h 86.22 86.26 l -54.88,801.13" /><path
         id="path214"
         style="fill:#588e3f;fill-opacity:1;fill-rule:nonzero;stroke:none"
         d="m 6060.38,4760.64 h 45.27 l -103.48,236.39 h 58.21 l -84.11,186.95 h 51.76 l -116.43,180.53 h 71.15 l -116.43,232.09 h 45.28 l -90.56,204.15 h 64.68 l -103.51,176.22 h 71.18 l -122.91,174.05 h 58.2 l -135.84,296.57 -135.85,-296.57 h 58.22 L 5452.3,5976.97 h 71.15 l -103.5,-176.22 h 64.7 l -90.57,-204.15 h 45.28 l -116.44,-232.09 h 71.16 l -116.45,-180.53 h 51.75 l -84.1,-186.95 h 58.24 L 5200,4760.64 h 45.28 l -109.96,-214.92 h 517.52 517.52 l -109.98,214.92" /><path
         id="path216"
         style="fill:#44722d;fill-opacity:1;fill-rule:nonzero;stroke:none"
         d="m 6170.36,4545.72 -109.98,214.92 h 45.27 l -103.48,236.39 h 58.21 l -84.11,186.95 h 51.76 l -116.43,180.53 h 71.15 l -116.43,232.09 h 45.28 l -90.56,204.15 h 64.68 l -103.51,176.22 h 71.18 l -122.91,174.05 h 58.2 l -135.84,296.57 C 5750.68,5545.19 5652.81,4942.02 5500,4765 5347.19,4587.98 5135.32,4545.72 5135.32,4545.72 h 517.52 517.52" /><path
         id="path218"
         style="fill:#c6c2af;fill-opacity:1;fill-rule:nonzero;stroke:none"
         d="m 7273.43,4175 c 0,-69.03 -140.99,-125 -314.91,-125 -173.92,0 -314.91,55.97 -314.91,125 0,69.03 140.99,125 314.91,125 173.92,0 314.91,-55.97 314.91,-125" /><path
         id="path220"
         style="fill:#88c881;fill-opacity:1;fill-rule:nonzero;stroke:none"
         d="m 7513.14,5505.31 c -48.66,173.26 -209.39,253.96 -355.3,254.48 -58.66,150.7 -253.37,232.67 -411.28,172.05 -183.14,-70.3 -232.8,-274.82 -186.25,-418.62 0.01,-0.03 0.02,-0.06 0.04,-0.1 -54.96,-24.13 -103.89,-66.44 -140.1,-129.53 -82.4,-143.6 23.87,-335.09 183.64,-370.31 145.94,-32.19 265.77,64.79 311.09,174.38 66.71,-73.15 161.69,-121.04 282.64,-124.67 217.52,-6.56 373.68,235.28 315.52,442.32" /><path
         id="path222"
         style="fill:#6aa562;fill-opacity:1;fill-rule:nonzero;stroke:none"
         d="m 7138.67,5241.96 c -136.33,-13.03 -215.22,58.04 -215.22,58.04 0,0 -93.27,-100.92 -279.71,-115 -172.56,-13.03 -241.59,96.51 -250.92,112.89 -12.59,-125.07 81.67,-256.09 211.07,-284.61 145.94,-32.19 265.77,64.79 311.09,174.38 66.71,-73.15 161.69,-121.04 282.64,-124.67 217.52,-6.56 373.68,235.28 315.52,442.32 -48.66,173.26 -209.39,253.96 -355.3,254.48 C 7420.71,5569.88 7275,5255 7138.67,5241.96" /><path
         id="path224"
         style="fill:#695020;fill-opacity:1;fill-rule:nonzero;stroke:none"
         d="m 6864.21,4144.95 c 0,0 26.33,922.92 18.8,954.74 -7.52,31.85 -101.51,177.34 -101.51,177.34 0,0 120.32,-131.84 131.59,-77.3 11.27,54.55 33.83,468.33 33.83,468.33 0,0 7.51,-418.32 37.61,-413.78 30.06,4.57 154.14,168.25 154.14,168.25 0,0 -142.89,-218.27 -142.89,-300.1 0,-81.82 11.32,-977.48 11.32,-977.48 h -142.89" /><path
         id="path226"
         style="fill:#c6c2af;fill-opacity:1;fill-rule:nonzero;stroke:none"
         d="m 1590.82,3283.13 c 0,-69.03 -282.24,-125 -630.41,-125 -348.164,0 -630.41,55.97 -630.41,125 0,69.04 282.246,125 630.41,125 348.17,0 630.41,-55.96 630.41,-125" /><path
         id="path228"
         style="fill:#6ba543;fill-opacity:1;fill-rule:nonzero;stroke:none"
         d="m 514.102,3283.13 c 0,0 -96.539,245.85 -22.981,328.34 73.567,82.46 218.371,73.3 266.645,-13.74 0,0 13.793,89.33 117.23,104.23 103.418,14.89 133.294,-81.34 135.614,-120.27 0,0 82.75,68.72 176.95,57.26 94.28,-11.45 117.25,-93.92 98.88,-123.7 0,0 246.8,-3 156.28,-232.12 H 514.102" /><path
         id="path230"
         style="fill:#83c451;fill-opacity:1;fill-rule:nonzero;stroke:none"
         d="m 560,3550 c 80,50 186.672,-23.34 186.672,-23.34 0,0 39.816,92.09 128.238,87.71 88.426,-4.37 128.42,-91.04 128.42,-91.04 0,0 106.31,63.33 186.49,13.33 80.18,-50 70.18,-103.33 70.18,-103.33 0,0 195.44,16.28 182.72,-150.2 90.52,229.12 -156.28,232.12 -156.28,232.12 18.37,29.78 -4.6,112.25 -98.88,123.7 -94.2,11.46 -176.95,-57.26 -176.95,-57.26 -2.32,38.93 -32.196,135.16 -135.614,120.27 -103.437,-14.9 -117.23,-104.23 -117.23,-104.23 -48.274,87.04 -193.078,96.2 -266.645,13.74 -73.558,-82.49 22.981,-328.34 22.981,-328.34 0,0 -34.102,216.87 45.898,266.87" /><path
         id="path232"
         style="fill:#c6c2af;fill-opacity:1;fill-rule:nonzero;stroke:none"
         d="m 2864.01,3283.13 c 0,-69.03 -248.24,-125 -554.46,-125 -306.22,0 -554.47,55.97 -554.47,125 0,69.04 248.25,125 554.47,125 306.22,0 554.46,-55.96 554.46,-125" /><path
         id="path234"
         style="fill:#94c85b;fill-opacity:1;fill-rule:nonzero;stroke:none"
         d="m 1960.99,3283.14 c 0,0 -210.41,88.6 -51.63,215.11 0,0 -187.38,160.29 -59.83,263.53 127.54,103.25 260.59,-68.51 260.59,-68.51 0,0 -115.12,161.03 44.85,194.7 163.47,34.41 135.84,-166.02 135.84,-166.02 0,0 24.72,227.33 203.62,129.06 162.43,-89.23 103.25,-229.44 -14.34,-249.52 0,0 172.07,54.5 200.75,-51.62 28.69,-106.11 -131.92,-137.66 -131.92,-137.66 0,0 186.42,40.14 215.1,-45.89 28.68,-86.05 -193.2,-83.18 -193.2,-83.18 h -609.83" /><path
         id="path236"
         style="fill:#b4e573;fill-opacity:1;fill-rule:nonzero;stroke:none"
         d="m 1923.33,3450 c 50,66.66 76.67,73.33 76.67,73.33 0,0 -97.5,60 -92.08,130 5.41,70 208.75,-23.33 208.75,-23.33 0,0 -16.99,140 63.17,153.33 80.16,13.33 105.98,-106.67 105.98,-106.67 0,0 57.51,130.01 127.51,123.34 70,-6.67 150.01,-108.25 43.34,-212.46 0,0 129.44,9.2 144.72,-45.84 15.28,-55.04 -89.89,-142.16 -89.89,-142.16 0,0 201.62,3.94 189.14,-101.87 42.26,11.47 75.61,31.96 63.38,68.65 -27.69,83.05 -202.28,48.53 -214.39,46.03 11.02,2.32 158.83,35.36 131.21,137.52 -21.94,81.19 -127.76,68.36 -176.29,57.85 100.47,33.91 140.58,160.5 -10.12,243.29 -171.71,94.32 -201.37,-111.2 -203.48,-127.88 1.88,15.64 20.51,197.79 -135.98,164.84 -159.97,-33.67 -44.85,-194.7 -44.85,-194.7 0,0 -133.05,171.76 -260.59,68.51 -127.55,-103.24 59.83,-263.53 59.83,-263.53 -158.78,-126.51 51.63,-215.11 51.63,-215.11 0,0 -87.66,100.2 -37.66,166.86" /><path
         id="path238"
         style="fill:#c6c2af;fill-opacity:1;fill-rule:nonzero;stroke:none"
         d="m 4593.33,3283.12 c 0,-69.03 -346.96,-124.99 -774.99,-124.99 -428.01,0 -774.99,55.96 -774.99,124.99 0,69.02 346.98,124.98 774.99,124.98 428.03,0 774.99,-55.96 774.99,-124.98" /><path
         id="path240"
         style="fill:#88c881;fill-opacity:1;fill-rule:nonzero;stroke:none"
         d="m 3258.24,3283.13 c 0,0 -125.05,125.04 -60.09,277.7 64.96,152.65 259.83,128.3 259.83,128.3 0,0 -56.84,172.44 159.14,242.93 216,70.48 332.91,-156.87 332.91,-156.87 0,0 11.37,113.66 110.43,105.54 99.06,-8.11 61.71,-146.15 21.1,-175.37 0,0 112.06,103.93 181.88,14.61 69.84,-89.32 -105.55,-105.6 -105.55,-105.6 0,0 155.9,24.98 206.24,-67.87 50.35,-92.86 -35.73,-138.33 -35.73,-138.33 0,0 115.3,45.47 146.16,-14.61 30.86,-60.07 -157.52,-102.31 -157.52,-102.31 l -1058.8,-8.12" /><path
         id="path242"
         style="fill:#9fdd97;fill-opacity:1;fill-rule:nonzero;stroke:none"
         d="m 3274.61,3513.33 c 58.72,86.67 272.06,101.04 272.06,101.04 0,0 -56.69,108.95 19.99,182.29 76.67,73.34 279.72,33.33 338.2,-70 0,0 68.17,40.01 116.65,33.34 48.49,-6.67 45.16,-116.67 45.16,-116.67 0,0 15.02,53.33 77.51,33.33 62.49,-20 -6.02,-89.12 -6.02,-89.12 0,0 101.84,2.45 148.51,-60.88 C 4333.34,3463.33 4260,3370 4260,3370 c 0,0 138.76,52.17 157.71,-45.59 v 0 c 38.87,17.71 71.04,41.54 56.85,69.15 -30.86,60.08 -146.16,14.61 -146.16,14.61 0,0 86.08,45.47 35.73,138.33 -42.62,78.61 -160.88,72.76 -196.15,69.12 36.21,5.12 155.05,28.15 95.46,104.35 -60.47,77.36 -152.58,9.79 -176.17,-9.7 38.11,37.12 67.57,162.73 -26.81,170.46 -99.06,8.12 -110.43,-105.54 -110.43,-105.54 0,0 -116.91,227.35 -332.91,156.87 -215.98,-70.49 -159.14,-242.93 -159.14,-242.93 0,0 -194.87,24.35 -259.83,-128.3 -64.96,-152.66 60.09,-277.7 60.09,-277.7 0,0 -42.36,143.53 16.37,230.2" /><path
         id="path244"
         style="fill:#c6c2af;fill-opacity:1;fill-rule:nonzero;stroke:none"
         d="m 5927.11,3283.12 c 0,-69.03 -258.14,-124.99 -576.56,-124.99 -318.42,0 -576.56,55.96 -576.56,124.99 0,69.02 258.14,124.98 576.56,124.98 318.42,0 576.56,-55.96 576.56,-124.98" /><path
         id="path246"
         style="fill:#b4cb34;fill-opacity:1;fill-rule:nonzero;stroke:none"
         d="m 4889.53,3283.13 c 0,0 -148.49,89.91 -58.6,259.71 89.9,169.81 264.71,34.96 264.71,34.96 0,0 67.96,364.59 456,294.67 388.05,-69.92 248.2,-589.34 248.2,-589.34 h -910.31" /><path
         id="path248"
         style="fill:#d3e240;fill-opacity:1;fill-rule:nonzero;stroke:none"
         d="m 4889.53,3483.33 c 63.8,70 226.28,13.34 226.28,13.34 0,0 72.43,210 183.31,260 110.88,50 300.54,96.63 410.88,-50 78.69,-104.57 103.3,-231.17 110.95,-295.22 14.28,158.61 -5.7,413.52 -269.31,461.02 -388.04,69.92 -456,-294.67 -456,-294.67 0,0 -174.81,134.85 -264.71,-34.96 -89.89,-169.8 58.6,-259.71 58.6,-259.71 0,0 -63.8,130.2 0,200.2" /><path
         id="path250"
         style="fill:#c6c2af;fill-opacity:1;fill-rule:nonzero;stroke:none"
         d="m 7358.06,3283.12 c 0,-69.03 -258.14,-124.99 -576.57,-124.99 -318.41,0 -576.55,55.96 -576.55,124.99 0,69.02 258.14,124.98 576.55,124.98 318.43,0 576.57,-55.96 576.57,-124.98" /><path
         id="path252"
         style="fill:#4b823d;fill-opacity:1;fill-rule:nonzero;stroke:none"
         d="m 6325.76,3283.13 c 0,0 -136.64,37.27 -82.81,165.64 53.83,128.36 169.76,41.4 169.76,41.4 0,0 -115.93,95.24 -24.84,178.05 91.09,82.82 115.95,-99.38 115.95,-99.38 0,0 -45.55,219.45 153.2,256.73 198.75,37.26 256.72,-248.44 256.72,-248.44 0,0 20.7,215.31 111.81,223.59 91.09,8.28 0,-194.61 0,-194.61 0,0 111.33,173.91 275.12,49.68 163.79,-124.22 -34.97,-372.66 -34.97,-372.66 h -939.94" /><path
         id="path254"
         style="fill:#6fb259;fill-opacity:1;fill-rule:nonzero;stroke:none"
         d="m 6308.13,3408.1 c 21.87,58.56 147.89,41.9 147.89,41.9 0,0 -66.03,139.99 -39.36,156.66 26.67,16.67 106.67,-86.66 106.67,-86.66 0,0 -10.77,143.33 66.28,203.33 77.05,60 220.39,5.39 300.39,-167.3 0,0 9.24,13.2 22.12,28.22 -10.57,43.9 -75.09,275.07 -255.1,241.32 -174.6,-32.75 -160.66,-206.04 -154.71,-247.68 -6.49,35.65 -35.73,161.9 -114.44,90.33 -91.09,-82.81 24.84,-178.05 24.84,-178.05 0,0 -115.93,86.96 -169.76,-41.4 -53.83,-128.37 82.81,-165.64 82.81,-165.64 0,0 -39.51,66.4 -17.63,124.97" /><path
         id="path256"
         style="fill:#6fb259;fill-opacity:1;fill-rule:nonzero;stroke:none"
         d="m 7300.67,3655.79 c -163.79,124.23 -275.12,-49.68 -275.12,-49.68 0,0 91.09,202.89 0,194.61 -79.07,-7.18 -105.09,-170.21 -110.6,-213.2 20.73,23.58 49.3,49.6 65.05,35.81 26.66,-23.33 16.66,-90 16.66,-90 0,0 113.34,119.99 203.34,73.33 90,-46.66 65.7,-323.53 65.7,-323.53 0,0 198.76,248.44 34.97,372.66" /><path
         id="path258"
         style="fill:#c6c2af;fill-opacity:1;fill-rule:nonzero;stroke:none"
         d="m 2728.77,896.23 c 0,-69.031 -472.05,-125 -1054.39,-125 -582.31,0 -1054.38,55.969 -1054.38,125 0,69.032 472.07,125 1054.38,125 582.34,0 1054.39,-55.968 1054.39,-125" /><path
         id="path260"
         style="fill:#6ba543;fill-opacity:1;fill-rule:nonzero;stroke:none"
         d="m 748.801,896.23 c 0,0 8.957,449.23 -85.457,564.67 0,0 94.136,-72.34 117.808,-252.22 0,0 -35.504,204.48 97.039,324.73 0,0 -120.711,-170.88 -16.566,-409.93 0,0 -37.871,132.55 16.566,210.65 0,0 -23.664,-151.48 37.872,-205.92 0,0 37.605,209.58 -10.809,296.53 0,0 67.617,-92.98 67.617,-261.03 0,0 -4.734,123.53 40.239,145.79 0,0 -37.876,-48.75 0,-162.35 0,0 -6.11,227.22 95.17,243.79 0,0 -92.81,-108.88 -33.64,-243.79 0,0 90.95,235.52 33.64,380.48 0,0 87.08,-134.33 58.67,-344.98 0,0 26.04,198.81 89.94,260.36 0,0 -63.9,-158.56 -37.87,-257.99 0,0 111.25,201.18 68.65,331.36 0,0 76.24,-243.79 9.71,-411.84 0,0 94.43,130.18 58.92,250.89 0,0 46.74,-101.78 7.98,-236.69 0,0 25.19,115.47 65.4,106.51 0,0 -53.46,-56.8 9.95,-111.25 0,0 54.94,132.55 0,222.49 0,0 89.46,-82.84 51.59,-210.65 0,0 77.86,183.29 9.34,304.67 0,0 78.23,-105.85 42.73,-283.36 0,0 40.24,196.11 101.77,231.79 0,0 -73.37,-111.09 -30.77,-215.23 0,0 35.5,19.24 30.77,88.91 0,0 35.21,-65.24 11.69,-140.98 0,0 68.92,134.91 28.62,217.75 0,0 61.47,-113.61 30.7,-201.18 0,0 75.74,215.63 -21.3,355.15 0,0 113.61,-151.6 78.11,-340.95 0,0 11.83,151.93 54.43,167.09 0,0 -35.5,-141.05 0,-176.56 0,0 89.48,160.96 49.71,319.53 0,0 49.82,-111.24 14.25,-300.6 0,0 8.49,153.85 87.06,175.16 0,0 -84.75,-80.48 -25.57,-186.98 0,0 122.95,173.02 25.97,343.31 0,0 108.94,-156.33 52.13,-357.52 0,0 113.62,153.85 68.65,255.62 0,0 56.39,-113.61 19.91,-246.15 0,0 25.06,123.08 67.66,151.48 0,0 -40.24,-89.94 26.04,-165.68 0,0 34.38,47.34 14.81,113.61 0,0 53.82,-59.17 25.42,-132.54 0,0 65.17,210.65 -54.99,357.39 0,0 142.57,-113.6 95.23,-343.19 0,0 30.77,210.65 144.38,146.74 0,0 -108.88,33.14 -80.47,-153.84 0,0 64.37,38.11 39.98,99.4 0,0 66.51,-23.66 29.83,-94.68 0,0 95.87,150.72 -13.01,287.2 0,0 106.51,-81.27 63.91,-263.52 0,0 33.13,146.74 92.3,160.94 0,0 -44.97,-37.87 -30.76,-132.54 0,0 87.57,82.85 42.6,201.19 0,0 58.82,-78.11 12.84,-234.33 0,0 43.98,175.16 126.81,160.96 0,0 -96.39,-79.08 -103.07,-397.67 H 748.801" /><path
         id="path262"
         style="fill:#66963c;fill-opacity:1;fill-rule:nonzero;stroke:none"
         d="m 2682.73,1236.04 c -21.06,-24.36 -46.81,-47.02 -76.65,-68.07 -3.61,-10.23 -6.32,-18.94 -8.14,-25.14 2.19,8.05 4.1,15.87 5.75,23.49 C 2308.19,960.129 1622,907.559 1172.16,896.23 h 1446.77 c 3.78,180.3 36.28,283.86 63.8,339.81" /><path
         id="path264"
         style="fill:#c6c2af;fill-opacity:1;fill-rule:nonzero;stroke:none"
         d="m 4138.16,896.23 c 0,-69.031 -287.23,-125 -641.58,-125 -354.33,0 -641.58,55.969 -641.58,125 0,69.032 287.25,125 641.58,125 354.35,0 641.58,-55.968 641.58,-125" /><path
         id="path266"
         style="fill:#588e3f;fill-opacity:1;fill-rule:nonzero;stroke:none"
         d="m 3029.9,896.23 c 0,0 -108.88,274.59 0,463.95 0,0 -23.67,-175.16 42.6,-208.3 0,0 37.87,236.69 -23.67,345.57 0,0 99.41,-146.75 99.41,-260.35 0,0 9.47,156.21 61.54,194.08 0,0 -47.34,-274.56 28.4,-317.17 0,0 47.34,71.01 33.14,179.9 0,0 66.27,-104.15 37.87,-184.62 0,0 104.14,203.54 23.67,388.16 0,0 108.37,-165.68 30.51,-359.76 0,0 92.57,85.2 78.37,250.88 0,0 75.74,-179.88 33.13,-265.08 0,0 37.87,80.47 33.14,255.62 -4.73,175.15 47.34,269.83 118.34,284.02 0,0 -99.41,-151.48 -42.6,-269.82 56.8,-118.34 42.6,-279.3 42.6,-279.3 0,0 89.94,160.96 33.14,298.24 0,0 80.47,-194.09 52.07,-269.83 0,0 16.54,260.35 117.15,340.83 0,0 -100.61,-250.89 0,-345.56 0,0 67.47,66.27 58,198.81 0,0 52.07,-179.88 28.4,-288.76 0,0 33.14,340.83 269.83,293.5 0,0 -255.63,-47.41 -184.62,-445.01 H 3029.9" /><path
         id="path268"
         style="fill:#4b7733;fill-opacity:1;fill-rule:nonzero;stroke:none"
         d="m 3997.14,1123.15 -0.14,0.1 c -96.47,-171 -967.1,-227.02 -967.1,-227.02 h 970.42 c -16.77,93.922 -15.18,168.1 -3.18,226.92" /><path
         id="path270"
         style="fill:#c6c2af;fill-opacity:1;fill-rule:nonzero;stroke:none"
         d="m 5706.45,896.23 c 0,-69.031 -287.24,-125 -641.59,-125 -354.33,0 -641.58,55.969 -641.58,125 0,69.032 287.25,125 641.58,125 354.35,0 641.59,-55.968 641.59,-125" /><path
         id="path272"
         style="fill:#88c881;fill-opacity:1;fill-rule:nonzero;stroke:none"
         d="m 4477.97,896.23 c 0,0 99.87,426.07 -46.88,605.96 0,0 194.09,-194.08 165.69,-411.84 0,0 86.15,184.62 2.83,350.29 0,0 115.51,-170.41 77.64,-340.83 0,0 4.73,340.83 89.94,402.38 0,0 -94.67,-213.02 0,-402.38 0,0 75.74,85.21 71,246.17 0,0 85.22,-132.55 42.61,-250.9 0,0 85.21,165.68 47.33,317.17 0,0 56.81,-156.21 33.14,-321.9 0,0 77.81,274.56 5.77,520.71 0,0 159.91,-246.15 69.97,-520.71 0,0 118.35,185.52 89.94,443.06 0,0 71.01,-272.65 23.68,-424.12 0,0 75.74,302.96 284.02,265.08 0,0 -213.02,-71 -165.69,-255.62 0,0 89.95,217.71 213.03,134.89 0,0 -142.01,-44.95 -108.87,-168.02 0,0 302.95,94.67 175.14,340.83 0,0 138.65,-137.28 31.46,-321.9 0,0 115.29,208.25 252.57,175.13 0,0 -208.29,-89.99 -156.22,-383.45 h -1198.1" /><path
         id="path274"
         style="fill:#7eba75;fill-opacity:1;fill-rule:nonzero;stroke:none"
         d="m 5679.25,1082.61 -0.03,0.06 C 5531.77,955.34 4477.97,896.23 4477.97,896.23 h 1198.1 c -13.25,74.711 -9.59,136.17 3.18,186.38" /><path
         id="path276"
         style="fill:#c6c2af;fill-opacity:1;fill-rule:nonzero;stroke:none"
         d="m 7202.36,896.23 c 0,-69.031 -287.23,-125 -641.58,-125 -354.33,0 -641.58,55.969 -641.58,125 0,69.032 287.25,125 641.58,125 354.35,0 641.58,-55.968 641.58,-125" /><path
         id="path278"
         style="fill:#94c85b;fill-opacity:1;fill-rule:nonzero;stroke:none"
         d="m 6105.26,896.23 c 0,0 94.69,628.05 -82.04,823.71 0,0 189.35,-132.55 189.35,-586.99 0,0 37.87,315.59 -37.87,612.24 0,0 145.17,-201.98 113.61,-637.48 0,0 12.63,561.73 75.74,700.59 0,0 -56.8,-574.36 31.56,-738.47 0,0 50.48,366.09 37.87,593.3 0,0 107.3,-321.88 44.18,-580.67 0,0 140.77,397.63 19.89,725.84 0,0 193.27,-328.2 140.34,-744.77 0,0 98.56,675.35 275.27,694.28 0,0 -151.47,-176.73 -94.66,-681.66 0,0 129.6,245.39 94.66,457.26 0,0 56.14,-160.62 5.98,-482.51 0,0 164.44,624.19 429.53,482.51 0,0 -265.09,60.22 -309.28,-637.18 h -934.13" /><path
         id="path280"
         style="fill:#8bb751;fill-opacity:1;fill-rule:nonzero;stroke:none"
         d="m 7070.1,1149.31 v 0 C 6960.2,945.289 6105.26,896.23 6105.26,896.23 h 934.13 c 6.26,98.801 16.97,182.36 30.71,253.08" /></g></g></svg>