<?xml version="1.0" encoding="UTF-8" standalone="no"?>
<!-- Created with Inkscape (http://www.inkscape.org/) -->

<svg
   xmlns:dc="http://purl.org/dc/elements/1.1/"
   xmlns:cc="http://creativecommons.org/ns#"
   xmlns:rdf="http://www.w3.org/1999/02/22-rdf-syntax-ns#"
   xmlns:svg="http://www.w3.org/2000/svg"
   xmlns="http://www.w3.org/2000/svg"
   xmlns:sodipodi="http://sodipodi.sourceforge.net/DTD/sodipodi-0.dtd"
   xmlns:inkscape="http://www.inkscape.org/namespaces/inkscape"
   width="210mm"
   height="297mm"
   viewBox="0 0 210 297"
   version="1.1"
   id="svg448"
   inkscape:version="0.92.3 (2405546, 2018-03-11)"
   sodipodi:docname="grass3.svg">
  <defs
     id="defs442" />
  <sodipodi:namedview
     id="base"
     pagecolor="#ffffff"
     bordercolor="#666666"
     borderopacity="1.0"
     inkscape:pageopacity="0.0"
     inkscape:pageshadow="2"
     inkscape:zoom="0.35"
     inkscape:cx="400"
     inkscape:cy="560"
     inkscape:document-units="mm"
     inkscape:current-layer="layer1"
     showgrid="false"
     inkscape:window-width="1366"
     inkscape:window-height="745"
     inkscape:window-x="-8"
     inkscape:window-y="-8"
     inkscape:window-maximized="1" />
  <metadata
     id="metadata445">
    <rdf:RDF>
      <cc:Work
         rdf:about="">
        <dc:format>image/svg+xml</dc:format>
        <dc:type
           rdf:resource="http://purl.org/dc/dcmitype/StillImage" />
        <dc:title></dc:title>
      </cc:Work>
    </rdf:RDF>
  </metadata>
  <g
     inkscape:label="Layer 1"
     inkscape:groupmode="layer"
     id="layer1">
    <g
       transform="matrix(0.02507242,0,0,-0.03055308,-310.5782,119.89579)"
       id="g440">
      <g
         transform="translate(1628.1407,1063.9174)"
         id="g435">
        <path
           inkscape:connector-curvature="0"
           id="path266"
           style="fill:#588e3f;fill-opacity:1;fill-rule:nonzero;stroke:none"
           d="m 11140.453,1811.6938 c 0,0 -108.88,274.59 0,463.95 0,0 -23.67,-175.16 42.6,-208.3 0,0 37.87,236.69 -23.67,345.57 0,0 99.41,-146.75 99.41,-260.35 0,0 9.47,156.21 61.54,194.08 0,0 -47.34,-274.56 28.4,-317.17 0,0 47.34,71.01 33.14,179.9 0,0 66.27,-104.15 37.87,-184.62 0,0 104.14,203.54 23.67,388.16 0,0 108.37,-165.68 30.51,-359.76 0,0 92.57,85.2 78.37,250.88 0,0 75.74,-179.88 33.13,-265.08 0,0 37.87,80.47 33.14,255.62 -4.73,175.15 47.34,269.83 118.34,284.02 0,0 -99.41,-151.48 -42.6,-269.82 56.8,-118.34 42.6,-279.3 42.6,-279.3 0,0 89.94,160.96 33.14,298.24 0,0 80.47,-194.09 52.07,-269.83 0,0 16.54,260.35 117.15,340.83 0,0 -100.61,-250.89 0,-345.56 0,0 67.47,66.27 58,198.81 0,0 52.07,-179.88 28.4,-288.76 0,0 33.14,340.83 269.83,293.5 0,0 -255.63,-47.41 -184.62,-445.01 h -970.42" />
      </g>
      <path
         d="m 13735.834,3102.5312 -0.14,0.1 c -96.47,-171 -967.1,-227.02 -967.1,-227.02 h 970.42 c -16.77,93.922 -15.18,168.1 -3.18,226.92"
         style="fill:#4b7733;fill-opacity:1;fill-rule:nonzero;stroke:none"
         id="path268"
         inkscape:connector-curvature="0" />
    </g>
  </g>
</svg>
