<?xml version="1.0" encoding="UTF-8" standalone="no"?>
<!-- Created with Inkscape (http://www.inkscape.org/) -->

<svg
   xmlns:dc="http://purl.org/dc/elements/1.1/"
   xmlns:cc="http://creativecommons.org/ns#"
   xmlns:rdf="http://www.w3.org/1999/02/22-rdf-syntax-ns#"
   xmlns:svg="http://www.w3.org/2000/svg"
   xmlns="http://www.w3.org/2000/svg"
   xmlns:sodipodi="http://sodipodi.sourceforge.net/DTD/sodipodi-0.dtd"
   xmlns:inkscape="http://www.inkscape.org/namespaces/inkscape"
   width="210mm"
   height="297mm"
   viewBox="0 0 210 297"
   version="1.1"
   id="svg448"
   inkscape:version="0.92.3 (2405546, 2018-03-11)"
   sodipodi:docname="grass1.svg">
  <defs
     id="defs442" />
  <sodipodi:namedview
     id="base"
     pagecolor="#ffffff"
     bordercolor="#666666"
     borderopacity="1.0"
     inkscape:pageopacity="0.0"
     inkscape:pageshadow="2"
     inkscape:zoom="0.35"
     inkscape:cx="400"
     inkscape:cy="560"
     inkscape:document-units="mm"
     inkscape:current-layer="layer1"
     showgrid="false"
     inkscape:window-width="1366"
     inkscape:window-height="745"
     inkscape:window-x="-8"
     inkscape:window-y="-8"
     inkscape:window-maximized="1" />
  <metadata
     id="metadata445">
    <rdf:RDF>
      <cc:Work
         rdf:about="">
        <dc:format>image/svg+xml</dc:format>
        <dc:type
           rdf:resource="http://purl.org/dc/dcmitype/StillImage" />
        <dc:title></dc:title>
      </cc:Work>
    </rdf:RDF>
  </metadata>
  <g
     inkscape:label="Layer 1"
     inkscape:groupmode="layer"
     id="layer1">
    <g
       id="g432"
       transform="matrix(0.02507242,0,0,-0.03055308,-266.95725,74.824821)">
      <path
         d="m 10879.455,1737.467 c 0,0 8.957,449.23 -85.457,564.67 0,0 94.136,-72.34 117.808,-252.22 0,0 -35.504,204.48 97.039,324.73 0,0 -120.711,-170.88 -16.566,-409.93 0,0 -37.871,132.55 16.566,210.65 0,0 -23.664,-151.48 37.872,-205.92 0,0 37.605,209.58 -10.809,296.53 0,0 67.617,-92.98 67.617,-261.03 0,0 -4.734,123.53 40.239,145.79 0,0 -37.876,-48.75 0,-162.35 0,0 -6.11,227.22 95.17,243.79 0,0 -92.81,-108.88 -33.64,-243.79 0,0 90.95,235.52 33.64,380.48 0,0 87.08,-134.33 58.67,-344.98 0,0 26.04,198.81 89.94,260.36 0,0 -63.9,-158.56 -37.87,-257.99 0,0 111.25,201.18 68.65,331.36 0,0 76.24,-243.79 9.71,-411.84 0,0 94.43,130.18 58.92,250.89 0,0 46.74,-101.78 7.98,-236.69 0,0 25.19,115.47 65.4,106.51 0,0 -53.46,-56.8 9.95,-111.25 0,0 54.94,132.55 0,222.49 0,0 89.46,-82.84 51.59,-210.65 0,0 77.86,183.29 9.34,304.67 0,0 78.23,-105.85 42.73,-283.36 0,0 40.24,196.11 101.77,231.79 0,0 -73.37,-111.09 -30.77,-215.23 0,0 35.5,19.24 30.77,88.91 0,0 35.21,-65.24 11.69,-140.98 0,0 68.92,134.91 28.62,217.75 0,0 61.47,-113.61 30.7,-201.18 0,0 75.74,215.63 -21.3,355.15 0,0 113.61,-151.6 78.11,-340.95 0,0 11.83,151.93 54.43,167.09 0,0 -35.5,-141.05 0,-176.56 0,0 89.48,160.96 49.71,319.53 0,0 49.82,-111.24 14.25,-300.6 0,0 8.49,153.85 87.06,175.16 0,0 -84.75,-80.48 -25.57,-186.98 0,0 122.95,173.02 25.97,343.31 0,0 108.94,-156.33 52.13,-357.52 0,0 113.62,153.85 68.65,255.62 0,0 56.39,-113.61 19.91,-246.15 0,0 25.06,123.08 67.66,151.48 0,0 -40.24,-89.94 26.04,-165.68 0,0 34.38,47.34 14.81,113.61 0,0 53.82,-59.17 25.42,-132.54 0,0 65.17,210.65 -54.99,357.39 0,0 142.57,-113.6 95.23,-343.19 0,0 30.77,210.65 144.38,146.74 0,0 -108.88,33.14 -80.47,-153.84 0,0 64.37,38.11 39.98,99.4 0,0 66.51,-23.66 29.83,-94.68 0,0 95.87,150.72 -13.01,287.2 0,0 106.51,-81.27 63.91,-263.52 0,0 33.13,146.74 92.3,160.94 0,0 -44.97,-37.87 -30.76,-132.54 0,0 87.57,82.85 42.6,201.19 0,0 58.82,-78.11 12.84,-234.33 0,0 43.98,175.16 126.81,160.96 0,0 -96.39,-79.08 -103.07,-397.67 h -1870.129"
         style="fill:#6ba543;fill-opacity:1;fill-rule:nonzero;stroke:none"
         id="path260"
         inkscape:connector-curvature="0" />
      <path
         d="m 12813.384,2077.277 c -21.06,-24.36 -46.81,-47.02 -76.65,-68.07 -3.61,-10.23 -6.32,-18.94 -8.14,-25.14 2.19,8.05 4.1,15.87 5.75,23.49 -295.5,-206.191 -981.69,-258.761 -1431.53,-270.09 h 1446.77 c 3.78,180.3 36.28,283.86 63.8,339.81"
         style="fill:#66963c;fill-opacity:1;fill-rule:nonzero;stroke:none"
         id="path262"
         inkscape:connector-curvature="0" />
    </g>
  </g>
</svg>
